<svg width="400mm" height="238.89mm" version="1.1" viewBox="0 0 400 238.89" xmlns="http://www.w3.org/2000/svg">
 <defs>
  <clipPath id="a">
   <path d="m-91.471 2482.6h1223.9v-677.16h-1223.9z"/>
  </clipPath>
 </defs>
 <g transform="translate(-143.84 -158.84)">
  <g transform="matrix(.35278 0 0 -.35278 146.17 1034.6)">
   <g clip-path="url(#a)" opacity=".42">
    <g transform="translate(-85.946,2096.7)">
     <path d="m0 0c10.535-110.42 131.91-149.06 204.65-164.67 184.78-39.657 377 11.676 563.79-1.225 130.56-9.018 280.31-16.364 400.52-85.794 17.805-10.286 35.45-22.381 49.46-39.585l-5.253 677.16s-678.75-139.69-1027.6-26.667c0 0-133.92 28.68-169.71-60.901-35.794-89.565-15.887-298.25-15.881-298.31" fill="#a1daf8"/>
    </g>
   </g>
  </g>
 </g>
</svg>
