<?xml version="1.0" encoding="UTF-8"?>
<svg width="140.38mm" height="109.89mm" version="1.1" viewBox="0 0 140.38 109.89" xmlns="http://www.w3.org/2000/svg">
<defs>
<clipPath id="e">
<path d="m0 3080.8h1040v-3080.8h-1040z"/>
</clipPath>
<clipPath id="f">
<path d="m134.63 1750.8c-19.27-3.201-36.243-15.911-46.844-32.33-0.153-0.237-0.304-0.472-0.453-0.71-23.968-38.016-16.607-89.479 5.523-126.51 29.974-50.153 91.055-87.395 144.32-108.63 54.795-21.844 129.45-36.339 182.96-2.994 26.237 16.349 44.397 48.904 35.785 78.594-10.401 35.852-44.6 47.004-76.93 54.8-38.888 9.378-78.233 21.524-110.7 45.73-20.023 14.927-36.242 34.272-52.264 53.43-17.982 21.5-43.923 39.447-71.317 39.445-3.341 0-6.706-0.267-10.078-0.827"/>
</clipPath>
<linearGradient id="h" x2="1" gradientTransform="matrix(-454.16 -352.98 -352.98 454.16 271.45 1615.1)" gradientUnits="userSpaceOnUse">
<stop stop-color="#fed76b" offset="0"/>
<stop stop-color="#fed76b" offset=".79909"/>
<stop stop-color="#00baf0" offset="1"/>
</linearGradient>
<clipPath id="g">
<path d="m141.63 1694.4h200.8v-208.62h-200.8z"/>
</clipPath>
</defs>
<g transform="translate(-57.343 -145.63)">
<g transform="matrix(.35278 0 0 -.35278 36.121 763.55)">
<g clip-path="url(#e)">
<g transform="translate(76.082 1711.6)">
<path d="m0 0c10.962 17.323 28.47 30.761 48.314 34.19 31.947 5.522 62.968-15.079 83.661-40.421 16.434-20.127 33.069-40.452 53.632-56.112 33.344-25.392 73.803-38.064 113.8-47.822 33.253-8.111 68.421-19.753 79.016-57.477 8.775-31.241-10.015-65.581-37.07-82.878-55.178-35.278-131.97-20.241-188.31 2.598-54.757 22.2-117.51 61.236-148.21 113.96-22.666 38.93-30.086 93.105-5.301 133.21 0.155 0.25 0.311 0.5 0.468 0.748" fill="#916a1d"/>
</g>
</g>
<g clip-path="url(#f)">
<path d="m134.63 1750.8c-19.27-3.201-36.243-15.911-46.844-32.33-0.153-0.237-0.304-0.472-0.453-0.71-23.968-38.016-16.607-89.479 5.523-126.51 29.974-50.153 91.055-87.395 144.32-108.63 54.795-21.844 129.45-36.339 182.96-2.994 26.237 16.349 44.397 48.904 35.785 78.594-10.401 35.852-44.6 47.004-76.93 54.8-38.888 9.378-78.233 21.524-110.7 45.73-20.023 14.927-36.242 34.272-52.264 53.43-17.982 21.5-43.923 39.447-71.317 39.445-3.341 0-6.706-0.267-10.078-0.827" fill="url(#h)"/>
</g>
<g clip-path="url(#g)" opacity=".2">
<g transform="translate(230.86 1694.3)">
<path d="m0 0c0.14-2e-3 0.28-2e-3 0.421-0.011-0.142 0.066-0.287 0.06-0.421 0.011"/>
</g>
<g transform="translate(233.84 1507.2)">
<path d="m0 0c2.211 9.164 3.221 18.609 2.991 28.042 0.013-0.013 0.026-0.013 0.039-0.025 6.544-4.065 12.525-9.049 17.689-14.763 0.384-0.435 0.792-0.882 1.227-1.291 0.058-0.056 0.172-0.172 0.308-0.305l-17.801-23.403 3.935 5.173h-13.119c-0.103 0.297-0.227 0.588-0.369 0.872 1.1 0.19 2.143 0.54 2.966 1.264 1.253 1.1 1.751 2.813 2.134 4.436m103.41 22.722h-66.535c-0.837 0-1.662-0.089-2.468-0.251-0.472 2.161-1.672 4.222-2.811 6.172-4.461 7.643-8.321 15.644-11.542 23.901-5.585 14.302-9.624 30.011-20.565 40.798-0.984 0.971-2.045 1.917-3.323 2.441-1.368 0.573-2.827 0.62-4.277 0.348-0.096 0.423-0.19 0.842-0.276 1.256-0.57 2.756 0.047 6.169-0.267 9.067-0.058 0.535 4.573 2.731 5.15 3.168 0.494 0.375 0.937 0.77 1.346 1.177 0.092-0.068 0.187-0.134 0.3-0.199 0.917-0.533 2.091-0.411 3.069 3e-3 1.693 0.714 2.941 2.174 4.087 3.611 1.471 1.843 2.885 3.731 4.239 5.661 0.216 0.309 0.433 0.623 0.553 0.979 0.173 0.515 0.133 1.088 0.347 1.586 0.4 0.93 1.628 1.497 1.59 2.507-0.013 0.336-0.177 0.659-0.149 0.994 0.063 0.752 0.962 1.073 1.519 1.582 0.845 0.77 0.919 2.051 0.924 3.194 0.012 2.577-0.029 5.154-0.134 7.729-0.176 4.28-0.537 8.552-1.063 12.803 2.547 0.352 4.884 2.358 5.585 4.749 1.782 0.624 1.946 2.949 1.795 4.768-0.295 3.55-0.59 7.101-0.885 10.651-0.155 1.861-0.324 3.775-1.189 5.446-1.721 3.325-5.743 4.893-9.534 5.6s-7.791 0.871-11.213 2.592c-0.512 0.257-1.05 0.601-1.19 1.141-0.102 0.393 0.174 0.85 0.531 0.979-3.144 0.045-6.093-1.531-9.184-2.2-6.731-1.455-14.093 1.431-20.53-0.956-4.15-1.54-7.316-5.309-8.011-9.535-5.013-0.972-9.83-5.649-9.936-10.568-0.067-3.101 1.086-6.692-1.088-8.983-0.382-0.404-0.872-0.769-0.999-1.302-0.137-0.572 0.193-1.164 0.12-1.747-0.173-1.368-2.278-1.755-2.721-3.067-0.427-1.262 0.905-2.399 1.295-3.673 0.636-2.077-2.099-4.253-4.1-3.262 2.829-2.592 1.712-7.113 2.86-10.706 0.285-0.892 0.739-1.72 1.313-2.464-0.078-0.218-0.153-0.441-0.221-0.671-0.912-3.087 0.515-2.657 1.474-4.614 0.49-0.998 1.062-3.74 1.886-4.482 1.616-1.456 3.939 0.075 5.711-0.973 0.856-0.505 1.282-1.535 2.112-2.082 0.62-0.409 1.391-0.498 2.132-0.546 0.13-8e-3 0.26-0.012 0.391-0.018-0.036-4.458-0.622-9.066-4.031-11.679-2.012 0.372-6.592-3.564-8.232-4.553-3.106-1.893-6.212-3.771-9.318-5.662-8.576-5.19-16.424-10.456-21.933-19.019-4.856-7.555-7.758-16.399-8.167-25.384-0.537-11.682 3.132-23.492 10.097-32.886 6.48-8.743 18.124-15.044 28.183-18.776 3.897-1.444 7.813-2.415 11.749-3.05v-1e-3l0.023-3e-3c1.741-0.28 3.487-0.496 5.236-0.655l0.019-2e-3c0.986-0.34 2.036-0.638 3.124-0.912v-4.08l30.826-10.071h86.843l23.782 36.113c2.265 3.439-0.202 8.016-4.319 8.016"/>
</g>
</g>
<g transform="translate(197.17 1625.1)">
<path d="m0 0c0.855-0.505 1.283-1.535 2.112-2.082 0.62-0.408 1.391-0.498 2.132-0.546 2.117-0.136 4.315 0.01 6.219 0.944 1.905 0.936 3.462 2.788 3.571 4.907 0.085 1.649-0.68 3.211-1.425 4.685-2.83 5.598-3.124 7.129-9.435 6.638-3.069-0.239-7.422 0.856-10.121-1.107-1.171-0.851-1.722-2.009-2.124-3.37-0.912-3.087 0.515-2.657 1.474-4.614 0.49-0.998 1.062-3.74 1.886-4.481 1.616-1.456 3.939 0.074 5.711-0.974" fill="#00569f"/>
</g>
<g transform="translate(243.85 1627.6)">
<path d="m0 0c0.896 2.684 1.427 5.477 2.292 8.17 1.022 3.18 2.502 6.194 3.624 9.341 1.122 3.146 1.888 6.516 1.403 9.821-0.183 1.247-0.537 2.547-0.119 3.735 0.488 1.39 2.102 2.277 3.536 1.945 0.162-0.038 0.329-0.094 0.442-0.216 0.135-0.146 0.168-0.357 0.194-0.553 0.63-4.726 1.043-9.48 1.238-14.244 0.105-2.575 0.147-5.152 0.135-7.729-5e-3 -1.143-0.08-2.424-0.924-3.194-0.558-0.51-1.456-0.83-1.519-1.582-0.028-0.335 0.136-0.658 0.148-0.994 0.039-1.011-1.19-1.577-1.59-2.507-0.214-0.498-0.174-1.071-0.346-1.586-0.12-0.356-0.337-0.671-0.554-0.979-1.354-1.93-2.768-3.819-4.238-5.661-1.147-1.437-2.394-2.897-4.088-3.612-0.977-0.413-2.152-0.535-3.069-3e-3 -2.156 1.251-0.434 2.968 0.533 4.179 1.333 1.669 2.229 3.654 2.902 5.669" fill="#00569f"/>
</g>
<g transform="translate(251.3 1663.4)">
<path d="m0 0c-1.488 2.619-3.682 4.767-5.995 6.695-4.387 3.66-9.393 6.703-14.919 8.155-5.526 1.451-11.615 1.206-16.706-1.387-4.502-2.294-7.927-6.206-11.235-10.025-3.772-4.355-7.683-8.988-8.783-14.643-1.235-6.35 1.522-10.763 5.231-15.443 1.164-1.47 2.331-3.409 2.702-5.261 0.169-0.841 0.153-1.706 0.136-2.563-0.117-5.867 1.307-14.846-4.578-18.58-0.619-0.391-1.302-0.697-1.832-1.202-1.315-1.253-1.314-3.418-0.572-5.076s2.067-2.969 3.225-4.368c1.777-2.15 3.223-4.601 5.32-6.44 2.945-2.585 6.939-3.72 10.854-3.895 3.914-0.175 7.809 0.531 11.664 1.235 3.149 0.574 6.69 1.414 8.287 4.188 1.661 2.883 0.461 6.473-0.214 9.732-0.57 2.756 0.048 6.169-0.267 9.067-0.058 0.536 4.573 2.731 5.15 3.168 4.404 3.337 5.199 8.062 6.555 13.057 1.859 6.845 5.747 12.971 7.289 19.918 0.985 4.441 0.991 9.612-1.312 13.668" fill="#ba7300"/>
</g>
<g transform="translate(276.85 1527)">
<path d="m0 0c-0.281-2.595-1.93-4.806-3.642-6.786-1.342-1.547-3.017-3.157-5.075-3.119-1.521 0.025-2.786 0.946-3.91 2.057-0.436 0.41-0.844 0.857-1.227 1.291-5.164 5.714-11.146 10.699-17.69 14.763-0.013 0.013-0.025 0.013-0.039 0.025 0.23-9.432-0.779-18.877-2.99-28.042-0.384-1.623-0.882-3.335-2.135-4.435-1.393-1.227-3.412-1.393-5.278-1.495-15.824-0.806-31.289-2.326-46.46 3.298-10.059 3.731-21.703 10.033-28.183 18.775-6.966 9.395-10.634 21.204-10.098 32.887 0.41 8.984 3.311 17.829 8.168 25.384 5.509 8.562 13.356 13.829 21.933 19.018 3.105 1.892 6.211 3.771 9.317 5.662 1.674 1.01 6.416 5.1 8.359 4.537 1.393-0.396 3.643-4.448 4.806-5.521 2.441-2.263 5.125-4.231 8.001-5.88 2.837-1.61 6.045-2.94 9.279-2.53 3.323 0.422 6.11 2.569 8.973 4.294 2.863 1.713 6.403 3.081 9.483 1.79 1.279-0.525 2.339-1.47 3.324-2.442 10.94-10.787 14.979-26.496 20.565-40.798 3.221-8.256 7.081-16.257 11.541-23.901 1.598-2.735 3.323-5.687 2.978-8.832" fill="#a1daf8"/>
</g>
<g transform="translate(201.57 1681.6)">
<path d="m0 0c0.695 4.226 3.861 7.994 8.011 9.534 6.437 2.388 13.799-0.499 20.53 0.956 3.229 0.698 6.302 2.392 9.605 2.19-0.521 0.241-1.092-0.429-0.952-0.968 0.14-0.54 0.678-0.884 1.19-1.142 3.422-1.72 7.422-1.884 11.213-2.591 3.79-0.708 7.813-2.275 9.534-5.6 0.865-1.671 1.035-3.585 1.189-5.446 0.295-3.55 0.59-7.101 0.885-10.652 0.151-1.817-0.014-4.143-1.795-4.767-0.797-2.72-3.713-4.946-6.646-4.799-3.158 0.158-5.851 2.467-9.003 2.702-3.483 0.261-7.178-2.023-10.292-0.5-0.734 0.358-1.358 0.907-2.111 1.227-1.138 0.484-2.436 0.394-3.681 0.394-5.225-2e-3 -10.431 1.788-14.472 4.975-0.39 0.307-0.788 0.636-1.277 0.753-1.757 0.419-2.715-1.877-2.983-3.598-0.846-5.426-2.544-10.729-5.019-15.671-0.197-0.393-0.432-0.815-0.85-0.986-0.836-0.34-1.671 0.556-1.896 1.402s-0.215 1.818-0.84 2.452c-1.161 1.18-3.407-0.072-3.709-1.671-0.301-1.598 0.557-3.156 1.205-4.656 1.169-2.702 1.716-5.651 1.593-8.575-0.031-0.719-0.106-1.453-0.426-2.104-0.7-1.424-2.423-2.129-4.054-2.279-4.11-0.378-8.304 2.315-9.518 6.111-1.149 3.593-0.031 8.115-2.861 10.706 2.001-0.991 4.737 1.186 4.101 3.262-0.39 1.275-1.722 2.411-1.296 3.674 0.443 1.312 2.549 1.698 2.722 3.066 0.073 0.583-0.257 1.175-0.12 1.747 0.127 0.534 0.616 0.899 1 1.302 2.173 2.291 1.02 5.883 1.087 8.984 0.105 4.919 4.923 9.595 9.936 10.568" fill="#00569f"/>
</g>
<g transform="translate(180.16 1555.9)">
<path d="m0 0c-1.082-1.84-1.577-3.998-1.68-6.309-0.164-3.669 0.063-8.525 1.931-11.795 5.343-9.35 14.533-16.244 22.052-23.835 2.742-2.769 5.801-5.689 9.672-6.138 0.632-0.072 1.332-0.057 1.823 0.347 1.218 0.998 0.046 2.916-1.11 3.984-4.091 3.78-8.29 7.445-12.328 11.283-3.859 3.668-7.561 7.55-11.235 11.422-4.679 4.93-9.201 11.117-7.578 18.304 0.177 0.782 0.412 1.55 0.709 2.296 0.33 0.826 0.866 1.551 1.158 2.39 0.127 0.364 0.607 1.938-0.268 1.356-1.372-0.913-2.399-2.034-3.146-3.305" fill="#00569f"/>
</g>
<g transform="translate(265.48 1518)">
<path d="m0 0c-0.347 0.144-1.072 0.901-1.255 1.079-0.435 0.409-0.844 0.857-1.227 1.291-5.164 5.714-11.146 10.698-17.69 14.763-0.294 1.354-0.128 2.761 0.026 4.14 0.601 5.663 0.792 11.364 0.562 17.051-0.064 1.445-0.946 4.844 0.511 5.905 2.493 1.802 3.947-2.087 3.771-3.757-1.947-18.526 1.154-21.859 12.168-33.028 1.751-1.776 3.85-5.041 3.134-7.444" fill="#00569f"/>
</g>
<g transform="translate(239.38 1485.7)">
<path d="m0 0 29.808 39.189c2.367 3.113 6.053 4.94 9.963 4.94h66.535c4.117 0 6.583-4.577 4.319-8.016l-23.782-36.113z" fill="#3c3c3b"/>
</g>
<g transform="translate(239.38 1485.7)">
<path d="m0 0-30.827 10.071v4.764l33.842-10.871z" fill="#3c3c3b"/>
</g>
<g transform="translate(250.66 1500.6)">
<path d="m0 0h-42.11l33.841-10.871z" fill="#9d9d9c"/>
</g>
<g transform="translate(308.49 1506.4)">
<path d="m0 0c0-5.012-3.551-9.075-7.932-9.075-4.38 0-7.931 4.063-7.931 9.075s3.551 9.075 7.931 9.075c4.381 0 7.932-4.063 7.932-9.075" fill="#9d9d9c"/>
</g>
<g transform="translate(247.23 1662.1)">
<path d="m0 0s6.853-9.496 2.474-20.867l4.399 1.924v21.122z" fill="#00569f"/>
</g>
<g transform="translate(200.2 1643)">
<path d="m0 0s2.286-10.133 1.544-16.144l-5.071 4.241z" fill="#00569f"/>
</g>
<g transform="translate(194.63 1603.9)">
<path d="m0 0c1.534-2.403 3.487-4.401 5.834-6.017 1.86-1.279 3.612 1.752 1.766 3.023-1.837 1.264-3.379 2.883-4.578 4.761-1.209 1.892-4.239 0.138-3.022-1.767" fill="#00569f"/>
</g>
<g transform="translate(206.97 1594.4)">
<path d="m0 0c2.395-1.642 5.228-2.439 8.127-2.319 2.244 0.093 2.256 3.593 0 3.5-2.346-0.098-4.423 0.513-6.36 1.84-1.863 1.277-3.615-1.754-1.767-3.021" fill="#00569f"/>
</g>
<g transform="translate(224.62 1592.1)">
<path d="m0 0c1.771 0.452 3.335 1.317 4.715 2.506 0.717 0.617 0.633 1.842 0 2.474-0.71 0.711-1.757 0.62-2.475 0-0.923-0.794-1.996-1.305-3.17-1.606-2.181-0.558-1.257-3.934 0.93-3.374" fill="#00569f"/>
</g>
<g transform="translate(233.97 1596.5)">
<path d="m0 0c1.548 0.53 3.018 0.111 4.079-1.129 1.465-1.715 3.931 0.771 2.474 2.475-1.807 2.114-4.857 2.929-7.483 2.029-2.119-0.727-1.209-4.107 0.93-3.375" fill="#00569f"/>
</g>
<g transform="translate(170.65 1583.5)">
<path d="m0 0c5.819 6.343 12.308 11.873 19.472 16.642 3.171 2.11-1.133 4.826-3.65 3.151-7.531-5.013-14.374-10.89-20.49-17.556-2.453-2.674 2.75-4.328 4.668-2.237" fill="#00569f"/>
</g>
<g transform="translate(163.7 1578.7)">
<path d="m0 0c2.252 0 2.256 3.5 0 3.5-2.252 0-2.255-3.5 0-3.5" fill="#00569f"/>
</g>
<g transform="translate(159.66 1577)">
<path d="m0 0c-0.104-0.104-0.208-0.207-0.312-0.312-0.647-0.647-0.696-1.834 0-2.474 0.699-0.641 1.784-0.692 2.475 0 0.104 0.104 0.208 0.208 0.312 0.311 0.648 0.649 0.696 1.836 0 2.475-0.699 0.642-1.784 0.692-2.475 0" fill="#00569f"/>
</g>
<g transform="translate(156.97 1569.9)">
<path d="m0 0v-0.312c0-0.915 0.805-1.792 1.75-1.75 0.948 0.043 1.75 0.77 1.75 1.75v0.312c0 0.915-0.805 1.792-1.75 1.75-0.948-0.043-1.75-0.769-1.75-1.75" fill="#00569f"/>
</g>
<g transform="translate(153.83 1559.6)">
<path d="m0 0c-0.074-5.195 0.778-10.229 2.594-15.099 0.78-2.091 4.164-1.186 3.375 0.93-1.711 4.589-2.539 9.271-2.469 14.169 0.032 2.253-3.468 2.254-3.5 0" fill="#00569f"/>
</g>
<g transform="translate(160.9 1533.2)">
<path d="m0 0c2.252 0 2.255 3.499 0 3.499-2.252 0-2.256-3.499 0-3.499" fill="#00569f"/>
</g>
<g transform="translate(165.18 1528.3)">
<path d="m0 0-0.303-0.937c-0.283-0.872 0.328-1.95 1.222-2.153 0.959-0.219 1.85 0.289 2.152 1.223 0.101 0.311 0.202 0.624 0.304 0.936 0.282 0.871-0.329 1.95-1.222 2.153-0.96 0.218-1.851-0.289-2.153-1.222" fill="#00569f"/>
</g>
<g transform="translate(255.68 1565.8)">
<path d="m0 0c1.16-3.614 2.571-7.116 4.242-10.523 0.609-1.243 3.235 0.024 2.625 1.269-1.67 3.408-3.082 6.909-4.242 10.524-0.41 1.278-3.053 0.062-2.625-1.27" fill="#00569f"/>
</g>
<g transform="translate(265.99 1541.2)">
<path d="m 0,0 v -0.623 c 0,-0.916 0.805,-1.792 1.75,-1.75 0.948,0.042 1.75,0.769 1.75,1.75 V 0 C 3.5,0.915 2.695,1.792 1.75,1.749 0.802,1.707 0,0.98 0,0" fill="#00569f"/>
</g>
<g transform="translate(244.74 1590.9)">
<path d="m0 0c1.551-3.015 3.102-6.029 4.652-9.043 0.705-1.371 3.141-0.874 2.274 0.813-1.551 3.014-3.101 6.029-4.652 9.042-0.705 1.372-3.142 0.875-2.274-0.812" fill="#00569f"/>
</g>
<g transform="translate(252.07 1576.2)">
<path d="m0 0v-0.312c0-0.751 0.433-1.441 1.183-1.664 0.585-0.173 1.491 0.108 1.491 0.857v0.311c0 0.751-0.432 1.441-1.182 1.663-0.585 0.175-1.492-0.106-1.492-0.855" fill="#00569f"/>
</g>
<g transform="translate(263.19 1548.7)">
<path d="m0 0v-0.312c0-0.614 0.787-1.284 1.267-1.557 0.411-0.235 0.979-0.375 0.979 0.253v0.311c0 0.615-0.787 1.284-1.267 1.558-0.411 0.234-0.979 0.375-0.979-0.253" fill="#00569f"/>
</g>
<g transform="translate(181.72 1538.1)">
<path d="m0 0c-4.058 8.38-0.022 18.032 4.475 25.226 0.834 1.334-1.758 2.669-2.6 1.321-4.859-7.772-8.846-18.127-4.485-27.131 0.673-1.392 3.413-1.073 2.61 0.584" fill="#00569f"/>
</g>
<g transform="translate(244.43 1571.7)">
<path d="m0 0c0.889-11.319 0.066-22.636 0-33.966-4e-3 -0.772 1.859-2.84 1.865-1.793 0.067 11.33 0.889 22.648 0 33.966-0.06 0.764-1.943 2.781-1.865 1.793" fill="#00569f"/>
</g>
<g transform="translate(182.47 1555.2)">
<path d="m0 0c1.718 1.41 3.596 2.504 5.696 3.237 0.366 0.128 0.871 0.349 0.417 0.645-0.432 0.28-1.564-0.056-1.99-0.205-2.434-0.851-4.68-2.073-6.675-3.71-0.478-0.393 0.362-0.457 0.614-0.461 0.576-7e-3 1.469 0.109 1.938 0.494" fill="#00569f"/>
</g>
<g transform="translate(238.17 1662.2)">
<path d="m0 0h4.67c0.305 0 0.193 0.051 0.032 0.167-0.219 0.159-0.746 0.193-1.013 0.193h-4.67c-0.304 0-0.192-0.05-0.032-0.167 0.219-0.159 0.746-0.193 1.013-0.193" fill="#fdba00"/>
</g>
<g transform="translate(246.37 1661.8)">
<path d="M 0,0 C 0.298,0 1.555,0.635 0.868,0.635 0.57,0.635 -0.687,0 0,0" fill="#fdba00"/>
</g>
<g transform="translate(250.59 1661.7)">
<path d="m0 0c0.192 0-0.881 0.431-1.19 0.431-0.191 0 0.881-0.431 1.19-0.431" fill="#fdba00"/>
</g>
<g transform="translate(251.38 1659.6)">
<path d="m0 0c2.603-1.562 5.019 0.58 6.315 2.745 0.348 0.581-0.623 1.6-1.055 0.877-1.019-1.701-2.931-3.626-5.045-2.357-0.769 0.462-0.802-0.912-0.215-1.265" fill="#fdba00"/>
</g>
<g transform="translate(215.66 1668.6)">
<path d="m0 0c1.479-0.971 3.021-1.829 4.626-2.572 0.222-0.103 0.787-0.28 1.001-0.08 0.214 0.198 0.08 0.36-0.173 0.477-1.512 0.7-2.961 1.503-4.355 2.417-0.246 0.162-0.722 0.324-1.012 0.199-0.232-0.099-0.369-0.256-0.087-0.441" fill="#fdba00"/>
</g>
<g transform="translate(224.17 1664.9)">
<path d="m0 0h0.212c0.242 0 0.804-0.01 0.983 0.179 0.172 0.181-0.109 0.17-0.285 0.17h-0.212c-0.242 0-0.804 9e-3 -0.983-0.179-0.172-0.181 0.109-0.17 0.285-0.17" fill="#fdba00"/>
</g>
<g transform="translate(204.97 1678.6)">
<path d="m0 0c0.778-0.92 1.557-1.84 2.336-2.759 0.22-0.26 0.628-0.365 0.957-0.314 0.221 0.034 0.578 0.224 0.353 0.491-0.779 0.92-1.558 1.839-2.336 2.759-0.22 0.26-0.629 0.365-0.958 0.314-0.221-0.034-0.577-0.225-0.352-0.491" fill="#fdba00"/>
</g>
<g transform="translate(200.21 1677.7)">
<path d="m0 0c-1.305-1.14-2.406-2.469-3.296-3.954-0.434-0.723 0.847-1.418 1.282-0.692 0.835 1.39 1.867 2.609 3.088 3.675 0.655 0.573-0.451 1.515-1.074 0.971" fill="#fdba00"/>
</g>
<g transform="translate(211.45 1672.5)">
<path d="M 0,0 C 0.935,0 -0.202,0.608 -0.622,0.608 -1.557,0.608 -0.42,0 0,0" fill="#fdba00"/>
</g>
<g transform="translate(210.88 1673.8)">
<path d="m0 0c-0.893-0.282-0.654-1.542 0.039-1.926 0.832-0.461 0.959 0.75 0.328 1.1 0.259-0.193 0.32-0.358 0.182-0.496 0.71 0.223 0.069 1.516-0.549 1.322" fill="#fdba00"/>
</g>
<g transform="translate(189.71 1648)">
<path d="m0 0c0.732 1.062 1.187 2.257 1.319 3.541 0.076 0.736-1.332 1.103-1.405 0.386-0.123-1.195-0.508-2.279-1.191-3.269-0.448-0.647 0.873-1.243 1.277-0.658" fill="#fdba00"/>
</g>
<g transform="translate(188.74 1642.1)">
<path d="M 0,0 C 2.612,0.468 3.349,3.161 3.77,5.411 3.857,5.878 2.467,6.286 2.393,5.89 1.999,3.789 1.382,1.155 -1.085,0.713 -1.433,0.65 -1.089,0.314 -0.979,0.221 -0.731,0.01 -0.31,-0.056 0,0" fill="#fdba00"/>
</g>
<g transform="translate(238.88 1645)">
<path d="m0 0c-1.967-1.384-3.188-3.201-3.214-5.665-0.019-1.772 0.726-3.418 0.85-5.165 0.235-3.305-1.703-6.745-5.734-5.864-0.496 0.108-1.593-0.455-0.668-0.658 2.619-0.572 5.587 0.216 7.096 2.604 3.036 4.808-3.131 10.253 2.747 14.389 0.652 0.459-0.723 0.608-1.077 0.359" fill="#641000"/>
</g>
<g transform="translate(218.08 1677.5)">
<path d="m0 0c9.417 5.875 19.599 5.183 30.094 3.715 0.357-0.051 1.494 0.722 1.014 0.79-11.261 1.576-21.735 1.979-31.677-4.224-0.846-0.527 0.056-0.601 0.569-0.281" fill="#fdba00"/>
</g>
<g transform="translate(238.92 1677.3)">
<path d="m0 0c3.964 0.352 7.931 0.507 11.91 0.465 0.892-9e-3 0.833 0.841-0.046 0.85-3.979 0.041-7.946-0.114-11.91-0.465-0.875-0.078-0.845-0.929 0.046-0.85" fill="#fdba00"/>
</g>
<g transform="translate(248.61 1672.9)">
<path d="M 0,0 C 0.941,-0.227 2.078,-0.095 2.842,0.536 3.079,0.731 2.712,0.813 2.555,0.834 2.282,0.869 1.797,0.857 1.567,0.668 1.387,0.519 1.228,0.36 1,0.415 0.687,0.491 0.267,0.471 -0.027,0.33 -0.261,0.219 -0.28,0.067 0,0" fill="#fdba00"/>
</g>
<g transform="translate(209.29 1679.9)">
<path d="M 0,0 C 1.999,2.282 4.7,3.729 7.719,4.082 8.602,4.185 7.869,5.299 7.243,5.226 3.91,4.837 1.002,3.339 -1.213,0.81 -1.631,0.333 -0.439,-0.501 0,0" fill="#fdba00"/>
</g>
<g transform="translate(211.57 1676.9)">
<path d="M 0,0 C 2.333,2.712 5.416,4.506 8.919,5.221 9.49,5.337 8.8,6.604 8.308,6.503 4.645,5.756 1.489,3.891 -0.95,1.057 -1.263,0.692 -0.396,-0.46 0,0" fill="#fdba00"/>
</g>
<g transform="translate(206.02 1683.4)">
<path d="m0 0c2.245 1.91 4.82 3.091 7.713 3.619 0.31 0.057 1.282 0.86 0.985 0.806-3.539-0.646-6.753-2.207-9.49-4.535-0.7-0.595 0.541-0.104 0.792 0.11" fill="#fdba00"/>
</g>
<g transform="translate(209.71 1671.4)">
<path d="m0 0c-2.178-1.835-3.714-4.183-4.523-6.913-0.073-0.248 1.218-0.804 1.219-0.801 0.808 2.731 2.345 5.079 4.523 6.913 0 0-1.019 0.97-1.219 0.801" fill="#fdba00"/>
</g>
<g transform="translate(205.3 1673.7)">
<path d="m0 0c-2.406-2.284-4.037-5.103-4.818-8.327-0.098-0.402 1.19-0.972 1.238-0.77 0.782 3.225 2.413 6.043 4.819 8.327 0.166 0.158-0.946 1.047-1.239 0.77" fill="#fdba00"/>
</g>
<g transform="translate(205.43 1500.8)">
<path d="m0 0c0.917 3.194 3.468 8.446 6.71 9.175 3.249 0.731 11.561-1.13 16.399-2.639 2.229-0.695 4.467-1.532 6.282-3.002 1.814-1.47 3.163-3.68 3.076-6.013-0.012-0.341-0.06-0.695-0.245-0.982-0.291-0.448-0.847-0.634-1.368-0.758-3.455-0.827-7.079-0.322-10.571 0.33-6.186 1.156-14.333 1.84-20.283 3.889" fill="#ba7300"/>
</g>
<g transform="translate(213.08 1508.8)">
<path d="m0 0c0.594 0.262 1.254 0.521 1.568 1.089 0.433 0.78-0.034 1.817-0.787 2.295s-1.693 0.531-2.584 0.522c-0.923-9e-3 -1.867-0.074-2.712-0.446-0.649-0.286-1.211-0.743-1.7-1.257-1.265-1.326-5.429-8.552-1.99-9.129 1.813-0.304 2.396 2.042 3.284 3.155 1.299 1.63 3.016 2.93 4.921 3.771" fill="#ee6900"/>
</g>
<g transform="translate(200.15 1501.5)">
<path d="m0 0 5.277-0.66s2.179 5.408 6.711 7.566l-3.578 3.924s-5.979-2.138-8.41-10.83" fill="#ee6900"/>
</g>
<g transform="translate(223.3 1503.2)">
<path d="m0 0s10.787-0.841 10.199-6.995" fill="none" stroke="#641000" stroke-linecap="round" stroke-linejoin="round" stroke-miterlimit="10" stroke-width="1.167"/>
</g>
<g transform="translate(226.61 1505.4)">
<path d="m0 0s10.08-1.819 9.958-8.751" fill="none" stroke="#641000" stroke-linecap="round" stroke-linejoin="round" stroke-miterlimit="10" stroke-width="1.167"/>
</g>
<g transform="translate(229.61 1506.2)">
<path d="m0 0s7.964-2.269 8.288-7.902" fill="none" stroke="#641000" stroke-linecap="round" stroke-linejoin="round" stroke-miterlimit="10" stroke-width="1.167"/>
</g>
</g>
</g>
</svg>
