<svg width="101.21mm" height="19.704mm" version="1.1" viewBox="0 0 101.21 19.704" xmlns="http://www.w3.org/2000/svg">
 <defs>
  <clipPath id="a">
   <path d="m0 3080.8h1040v-3080.8h-1040z"/>
  </clipPath>
 </defs>
 <g transform="translate(-13.697 -43)">
  <g transform="matrix(.35278 0 0 -.35278 -10.743 464.45)">
   <g clip-path="url(#a)">
    <g transform="translate(335.39 1138.8)">
     <path d="m0 0h-245.33c-11.476 0-20.779 9.303-20.779 20.779v14.297c0 11.476 9.303 20.779 20.779 20.779h245.33c11.476 0 20.779-9.303 20.779-20.779v-14.297c0-11.476-9.303-20.779-20.779-20.779" fill="#1364a0"/>
    </g>
   </g>
   <g transform="matrix(1 0 0 -1 171.09 1156.5)" fill="#a1daf8" aria-label="Datos">
    <path d="m8.9967-18.873v14.304h2.1667q3.7055 0 5.6524-1.837 1.9626-1.837 1.9626-5.3384 0-3.4856-1.9469-5.307-1.9469-1.8213-5.6681-1.8213zm-6.0449-4.569h6.3746q5.3384 0 7.9447 0.76935 2.6221 0.75365 4.4905 2.575 1.6486 1.5858 2.4494 3.6584 0.80076 2.0725 0.80076 4.6946 0 2.6535-0.80076 4.7417-0.80075 2.0725-2.4494 3.6584-1.8841 1.8213-4.5219 2.5907-2.6378 0.75365-7.9133 0.75365h-6.3746z"/>
    <path d="m32.963-7.9133q-1.7585 0-2.6535 0.59664-0.87926 0.59664-0.87926 1.7585 0 1.0677 0.70655 1.68 0.72225 0.59664 1.994 0.59664 1.5858 0 2.6692-1.1305 1.0834-1.1462 1.0834-2.8576v-0.64374zm8.5885-2.1196v10.033h-5.6681v-2.6064q-1.1305 1.6015-2.5436 2.3395-1.4131 0.72225-3.4385 0.72225-2.732 0-4.4434-1.5858-1.6957-1.6015-1.6957-4.1451 0-3.0931 2.1196-4.5376 2.1353-1.4445 6.6887-1.4445h3.3129v-0.43963q0-1.3346-1.052-1.9469-1.052-0.62804-3.2815-0.62804-1.8056 0-3.36 0.36112-1.5544 0.36112-2.889 1.0834v-4.2864q1.8056-0.43963 3.6269-0.65944 1.8213-0.23552 3.6426-0.23552 4.7574 0 6.8614 1.8841 2.1196 1.8684 2.1196 6.092z"/>
    <path d="m47.941-22.578v4.9929h5.7937v4.0195h-5.7937v7.458q0 1.2247 0.48673 1.6643 0.48673 0.42393 1.9312 0.42393h2.889v4.0195h-4.8202q-3.3286 0-4.726-1.3817-1.3817-1.3974-1.3817-4.726v-7.458h-2.7948v-4.0195h2.7948v-4.9929z"/>
    <path d="m61.811-13.99q-1.8684 0-2.8576 1.3503-0.97347 1.3346-0.97347 3.8625 0 2.5279 0.97347 3.8782 0.98917 1.3346 2.8576 1.3346 1.837 0 2.8105-1.3346 0.97347-1.3503 0.97347-3.8782 0-2.5279-0.97347-3.8625-0.97347-1.3503-2.8105-1.3503zm0-4.0195q4.5376 0 7.0812 2.4494 2.5593 2.4494 2.5593 6.7829t-2.5593 6.7829q-2.5436 2.4494-7.0812 2.4494-4.5533 0-7.1283-2.4494-2.5593-2.4494-2.5593-6.7829t2.5593-6.7829q2.575-2.4494 7.1283-2.4494z"/>
    <path d="m85.735-17.036v4.2707q-1.8056-0.75365-3.4856-1.1305-1.68-0.37682-3.1716-0.37682-1.6015 0-2.3866 0.40823-0.76935 0.39253-0.76935 1.2247 0 0.67515 0.58094 1.0363 0.59664 0.36112 2.1196 0.53384l0.98917 0.14131q4.3178 0.54954 5.8094 1.8056t1.4916 3.941q0 2.8105-2.0725 4.2236-2.0725 1.4131-6.1862 1.4131-1.7428 0-3.6112-0.28262-1.8527-0.26692-3.8154-0.81646v-4.2707q1.68 0.81646 3.4385 1.2247 1.7742 0.40823 3.5955 0.40823 1.6486 0 2.4808-0.45533 0.83216-0.45533 0.83216-1.3503 0-0.75365-0.58094-1.1148-0.56524-0.37683-2.2767-0.58094l-0.98917-0.12561q-3.7526-0.47103-5.2599-1.7428t-1.5073-3.8625q0-2.7948 1.9155-4.1451 1.9155-1.3503 5.8722-1.3503 1.5544 0 3.2658 0.23552t3.7212 0.73795z"/>
   </g>
  </g>
 </g>
</svg>
