<svg width="118.93mm" height="117.06mm" version="1.1" viewBox="0 0 118.93 117.06" xmlns="http://www.w3.org/2000/svg">
 <defs>
  <clipPath id="c">
   <path d="m775.63 2340.4c-94.819-5.301-166.69-75.728-160.53-157.3 3.093-40.958 23.958-131.86 57.275-156.83 16.45-12.328 39.37 5.15 61.222 5.346 41.585 0.373 17.527 0.585 79.002 5.393 12.64 0.988 24.567 0.518 35.768 0.049 21.23-0.889 39.851-1.778 55.78 7.257 50.005 28.368 58.471 103.1 54.326 157.98-5.914 78.304-81.594 138.42-171.52 138.42-3.757 0-7.523-0.105-11.326-0.317"/>
  </clipPath>
  <clipPath id="d">
   <path d="m0 3080.8h1040v-3080.8h-1040z"/>
  </clipPath>
 </defs>
 <g transform="translate(-215.65 -239.84)">
  <g transform="matrix(.35278 0 0 -.35278 1.1095 1067.9)">
   <g transform="translate(718.77 2281.4)">
    <path d="m0 0c16.633 21.617 43.553 41.802 70.366 47.878 65.771 14.899 100.98-57.569 119.16-108.08 12.767-35.473 61.178-161.2 21.855-188.6-8.527-5.941-19.493-6.744-29.868-7.351-74.088-4.335-112.12-0.458-202.63-9.633-11.22-1.138-51.697 1.518-61.332 7.378-28.74 17.475 31.623 109.1 37.66 135.6 8.79 38.584 15.257 93.279 44.785 122.81" fill="#054e68"/>
   </g>
   <g transform="translate(701.31 2297.3)">
    <path d="m0 0c16.632 21.617 43.553 41.802 70.365 47.878 65.772 14.899 100.98-57.569 119.16-108.08 12.767-35.473 61.178-161.2 21.855-188.6-8.527-5.941-19.493-6.744-29.867-7.35-77.956-4.557-155.55-8.804-233.18-17.242-11.212-1.218-23.36-2.244-32.997 3.616-20.741 12.616 2.133 58.712 8.371 73.658 14.543 34.838 30.705 67.622 38.132 104.91 6.288 31.569 14.606 67.659 38.16 91.213" fill="#0084c0"/>
   </g>
   <g clip-path="url(#c)">
    <g transform="translate(790.04 2116.2)">
     <path d="m0 0c-14.359-3.4-25.93-13.508-37.032-23.102-10.793-9.326-23.699-21.492-28.401-35.178-1.317-3.835-2.128-8.981-1.296-13.089 0.47-2.326 4.637-9.991-2.302-7.632-1.29 2.306-3.579 5.286-6.02 6.608-6.913-3.742 7.768-24.104-2.924-19.846-9.989 3.977-11.213 14.773-7.642 23.579 6.134 15.122 11.659 33.058 21.854 45.834 11.417 14.305 23.288 25.589 37.866 36.383 3.003 2.223 6.919 6.671 10.571 5.872 4.496-0.984 16.571-15.226 15.326-19.429" fill="#e8ca9e"/>
    </g>
    <g transform="translate(664.61 1909.9)">
     <path d="m0 0c-0.086-0.653 0.373-1.252 1.025-1.339 0.654-0.087 1.253 0.373 1.339 1.026 0.087 0.653-0.372 1.251-1.025 1.338-0.652 0.087-1.252-0.373-1.339-1.025" fill="#fd0"/>
    </g>
    <g transform="translate(687.19 1815.7)">
     <path d="m 0,0 -7.415,-3.319 c 0,0 -7.983,15.438 -11.033,23.569 -0.31,0.827 7.316,5.283 8.249,5.595 3.377,1.128 3.593,-2.245 4.414,-4.882 C -3.629,14.04 0,0 0,0" fill="#ba7300"/>
    </g>
    <g transform="translate(675.74 1812.1)">
     <path d="m0 0c-1.888-0.654-3.698-1.514-5.469-2.44-3.321-1.739-6.606-3.796-8.796-6.839-2.189-3.042-3.072-7.275-1.33-10.594 0.136-0.258 0.303-0.524 0.572-0.635 0.327-0.135 0.696-1e-3 1.022 0.133 10.397 4.248 20.652 8.836 30.748 13.756 0.523 0.255 1.104 0.582 1.226 1.15 0.082 0.379-0.069 0.766-0.221 1.122-0.996 2.326-3.599 9.413-6.79 8.922-1.294-0.199-2.597-1.556-3.758-2.127-2.28-1.119-4.815-1.62-7.204-2.448" fill="#96e3f9"/>
    </g>
    <g transform="translate(661.55 1795.6)">
     <path d="m0 0c11.134 4.567 18.426 7.029 29.344 12.09" fill="none" stroke="#9d9d9c" stroke-linecap="round" stroke-linejoin="round" stroke-miterlimit="10" stroke-width="1.862"/>
    </g>
    <g transform="translate(911.41 1874.8)">
     <path d="m0 0c1.216-3.12 2.133-6.357 2.733-9.652-8.575 0.488-17.15 0.977-25.725 1.465 0.703 3.77 0.188 12.1 5.391 11.635 5.847-0.522 11.838-2.312 17.601-3.448" fill="#ba7300"/>
    </g>
    <g transform="translate(910.55 1862.8)">
     <path d="m0 0c-0.095-1.996 0.032-3.996 0.234-5.983 0.38-3.73 1.071-7.544 3.083-10.707 2.012-3.164 5.614-5.555 9.343-5.17 0.289 0.03 0.598 0.087 0.801 0.295 0.246 0.253 0.259 0.645 0.257 0.999-0.083 11.229-0.534 22.457-1.353 33.657-0.042 0.579-0.131 1.24-0.612 1.565-0.321 0.217-0.736 0.221-1.124 0.211-2.528-0.06-10.077 0.155-10.806-2.99-0.296-1.275 0.481-2.988 0.579-4.278 0.192-2.534-0.284-5.074-0.402-7.599" fill="#96e3f9"/>
    </g>
    <g transform="translate(920.62 1843.3)">
     <path d="m0 0c-0.105 12.033-0.354 19.996-0.996 32.013" fill="none" stroke="#9d9d9c" stroke-linecap="round" stroke-linejoin="round" stroke-miterlimit="10" stroke-width="1.862"/>
    </g>
    <g transform="translate(767.12 2030.1)">
     <path d="m0 0c-6.936-3.001-8.468-6.159-15.575-9.642-6.8-3.332-13.456-7.5-20.193-11.235-21.17-11.739-41.086-26.462-59.279-42.195-30.72-26.567-25.425-67.227-16.98-103.66 1.913-8.258 5.61-14.042 8.939-21.832 1.66-3.886 5.963-11.874 7.357-13.549l12.026 1.795c-1.986 10.382-3.756 23.379-4.04 34.162-0.317 12.012 2.017 22.599 2.827 34.177 0.629 8.998-2.322 18.475 4.63 25.549 7.364 7.494 20.986 10.021 30.668 12.952 15.549 4.708 31.804 9.699 47.292 13.047 1.216-25.848 5.324-54.915 24.529-73.526 19.866-19.253 50.439-27.008 77.011-18.7 5.607 1.753 11.165 3.689 16.868 5.121 5.28 1.326 10.814 1.945 15.704 4.497l3.016 12.44c-23.013 4.061-48.1 4.622-69.821 13.932-19.033 8.157-13.666 25.781-11.166 42.976 1.684 11.575 7.079 20.81 6.979 32.247-0.079 9.123 1.799 18.078-0.938 27.128-4.114 13.598-62 31.22-59.854 34.317" fill="#ffe15a"/>
    </g>
    <g transform="translate(806.23 2148.5)">
     <path d="m0 0c-5.306 1.333-13.901-3.729-18.924-6.069-6.787-3.163-13.048-5.826-20.399-7.1-0.827-5.722 0.4-13.24-0.49-19.245-1.822-12.302 3.724-6.21 10.406-8.333-3.349-8.377-5.241-17.722-8.391-26.387-3.943-10.849-10.015-20.929-13.304-31.957-1.755-5.89-3.193-13.311 0.171-18.822 1.71-2.801 4.364-3.255 6.14-5.31 1.77-2.048 2.628-6.417 3.409-9.093 3.077-10.53 4.475-28.353 19.006-27.45 7.195 0.448 15.394 3.332 22.438 4.893 4.791 1.061 9.552 2.038 14.209 3.416 4.073 1.205 6.422 0.353 10.22 0.778 13.663 1.535 7.839 26.471 11.843 35.884-0.53 0.101-1.708 1.148-2.024 0.611-7.294 5.068-4.185 14.008-1.766 23.586 2.493 9.876 7.082 19.791 10.098 29.585 3.116 10.121 3.653 17.476-10.588 18.596-3.79 0.298-11.235 1.857-11.253 6.37-0.02 4.706 4.189 11.174 6.759 14.096 3.232 3.676 9.337 8.099 11.322 12.349 2.652 5.678-2.806 8.199-6.012 12.111-5.23-6.835-10.301-13.036-19.161-15.168-2.827-0.681-13.177-2.233-15.606-0.509-2.789 1.979 1.712 9.443 1.161 12.752-0.149-0.462 0.903 0.872 0.736 0.416" fill="#267587"/>
    </g>
    <g transform="translate(832.41 2079.2)">
     <path d="m0 0c11.854-8.788 18.499-22.641 24.917-35.835 6.239-12.827 13.301-29.099 12.222-43.528-0.302-4.045-1.587-9.092-3.971-12.54-1.35-1.952-8.202-7.352-0.895-7.921 2.095 1.609 5.373 3.446 8.138 3.698 4.876-6.166-16.645-19.086-5.141-19.391 10.749-0.285 16.131 9.153 16.323 18.654 0.329 16.314 2.326 34.976-2.004 50.737-4.849 17.648-11.307 32.7-20.444 48.368-1.883 3.229-3.728 8.861-7.399 9.567-4.519 0.87-21.233-7.455-21.746-11.809" fill="#e8ca9e"/>
    </g>
    <g transform="translate(782.33 2200.4)">
     <path d="m0 0c-2.666-1.087-7.249 0.65-9.182 2.604-5.334 5.395-2.828 13.712 0.276 19.838 1.899 3.75 5.882 6.469 8.903 9.279 2.571 2.39 6.628 6.398 10.314 6.91 3.178 4.323 11.831 6.706 16.884 8.304 5.313 1.679 10.185 3.737 15.794 4.293 9.352 0.926 19.285 1.008 28.239-1.785 12.086-3.772 24.314-10.042 26.486-23.872 1.636-10.416-0.231-20.519 3.611-30.605 3.249-8.534 7.322-16.355 11.65-24.423 5.629-10.5 12.804-21.531 14.167-33.573 1.325-11.716 4.135-25.839 0.196-37.208-2.681-7.736-6.15-16.621-11.044-23.246-5.161-6.989-12.478-12.062-18.356-18.428-6.749-7.308-12.504-18.052-20.851-23.454-5.232-3.385-13.804-4.246-19.269-0.537-8.114 5.507-1.591 21.911 0.292 29.004 1.997 7.517 5.41 14.535 7.771 21.886 1.834 5.711 5.109 14.171-0.892 18.129-5.089 3.356-19.658 1.755-20.287 8.871-0.849 9.62 10.008 16.391 15.31 22.614 4.933 5.791 4.575 7.73-0.396 12.637-5.517 5.449-5.203 9.513-5.213 17.283-6e-3 5.616-2.688 8.878-7.156 12.016-7.502 5.271-14.914 11.157-22.786 15.817-5.929 3.509-11.512 9.154-18.797 8.485-2.136-0.195-3.754-0.061-5.664-0.839" fill="#9e4400"/>
    </g>
    <g transform="translate(789.82 2202)">
     <path d="m0 0c-0.34 2.794 2.363 6.705 4.866 8.087 2.416 1.333 5.392 0.821 8.029 1.152 6.257 0.787 10.209 2.109 14.33 6.998 3.597 4.27 6.615 7.075 11.936 4.17 7.858-4.288 5.284-11.897 5.984-19.358 0.221-2.362 0.557-5.848 1.412-8.051 0.765-1.975 2.445-2.849 3.464-4.443 4.351-6.814-2.058-16.533-6.367-21.746-6.835-8.273-16.693-15.223-27.911-11.921-4.918 1.448-7.103 6.201-9.081 10.487-2.163 4.685-5.504 9.215-6.321 14.386-0.534 3.375-0.019 6.702 0.202 10.072 0.157 2.388-0.574 4.141-0.806 6.428-0.119 1.176-0.253 2.044 0.263 3.739" fill="#e8ca9e"/>
    </g>
    <g transform="translate(841.2 2183.6)">
     <path d="m0 0c1.988 5.445 9.696 12.028 7.598 18.599-1.005 3.145-3.909 3.721-6.135 1.288-2.134-2.332-2.115-7.08-3.593-9.733-1.887-3.388-2.627-6.535 2.13-10.154" fill="#e8ca9e"/>
    </g>
    <g transform="translate(808.07 2161.2)">
     <path d="m0 0c-1.417-2.51-0.656-7.873-1.283-11.242-0.875-4.711-2.982-9.741-2.45-14.654 10.431-5.912 20.094 0.719 27.903 8.512 4.63 4.62 7.642 7.07 8.186 13.496 0.611 7.216-0.411 14.487-0.288 21.743-5.483 0.642-15.008-8.094-19.877-11.129-3.185-1.987-7.714-6.408-12.191-6.726" fill="#e8ca9e"/>
    </g>
    <g transform="translate(799.85 2193.7)">
     <path d="m0 0c-5e-3 -3.783-0.431-7.496-1.282-11.182-0.206-0.89 1.642-0.683 1.831 0.131 0.852 3.686 1.278 7.4 1.282 11.182 1e-3 0.957-1.83 0.699-1.831-0.131" fill="#7c3800"/>
    </g>
    <g transform="translate(800.31 2181.7)">
     <path d="M 0,0 C 2.173,0.546 4.169,1.495 5.973,2.821 6.957,3.545 5.515,4.287 4.753,3.727 3.203,2.588 1.508,1.8 -0.356,1.332 -1.485,1.048 -1.128,-0.283 0,0" fill="#7c3800"/>
    </g>
    <g transform="translate(771.74 2060.8)">
     <path d="m0 0c-4.697-15.886-6.546-32.284-5.513-48.816 0.05-0.794 3.683-0.143 3.614 0.967-1.026 16.404 0.817 32.673 5.476 48.433 0.263 0.89-3.281 0.418-3.577-0.584" fill="#00569f"/>
    </g>
    <g transform="translate(770.45 2005.5)">
     <path d="m0 0c0.707-2.994 2.078-5.661 4.046-8.021 0.588-0.705 4 0.532 3.397 1.253-1.886 2.263-3.154 4.872-3.831 7.736-0.199 0.842-3.826-0.066-3.612-0.968" fill="#00569f"/>
    </g>
    <g transform="translate(781.95 1994.8)">
     <path d="m0 0c1.824-2.25 4.904-1.434 7.374-0.859 6.098 1.417 12.162 3.001 18.24 4.501 2.151 0.53 1.751 2.06-0.409 1.527-3.184-0.786-6.369-1.572-9.555-2.358-2.401-0.592-10.546-3.604-12.276-1.472-0.679 0.838-4.143-0.392-3.374-1.339" fill="#00569f"/>
    </g>
    <g transform="translate(821.4 2e3)">
     <path d="m0 0 4.937 1.693c0.579 0.2 1.738 0.656 1.541 1.475-0.184 0.761-1.552 0.686-2.073 0.507l-4.936-1.694c-0.579-0.199-1.739-0.656-1.541-1.474 0.183-0.761 1.551-0.686 2.072-0.507" fill="#00569f"/>
    </g>
    <g transform="translate(769.72 2107.1)">
     <path d="M 0,0 C 3.52,-0.377 7.047,0.27 10.23,1.81 12.481,2.898 10.424,4.14 8.789,3.349 6.408,2.197 4.019,1.816 1.393,2.098 -0.032,2.25 -2.426,0.26 0,0" fill="#00569f"/>
    </g>
    <g transform="translate(769.7 2124.3)">
     <path d="m0 0c2e-3 -2.807 5e-3 -5.613 7e-3 -8.419 2e-3 -1.669 3.634-0.985 3.632 0.379-2e-3 2.807-5e-3 5.612-7e-3 8.419-2e-3 1.669-3.633 0.984-3.632-0.379" fill="#00569f"/>
    </g>
    <g transform="translate(777.45 2133.1)">
     <path d="M 0,0 C 3.294,0.963 6.355,2.389 9.183,4.337 9.829,4.781 9.535,5.193 8.914,5.342 8.12,5.531 7.003,5.101 6.359,4.657 4.283,3.228 2.041,2.13 -0.381,1.421 -0.796,1.3 -2.173,0.883 -1.997,0.227 -1.826,-0.41 -0.362,-0.106 0,0" fill="#00569f"/>
    </g>
    <g transform="translate(828.57 2133.3)">
     <path d="m0 0c3.113 3.416 6.363 6.702 9.728 9.873 1.514 1.428-2.034 1.387-2.893 0.577-3.534-3.33-6.925-6.797-10.195-10.386-0.606-0.664 0.517-1.01 0.974-1.046 0.873-0.069 1.809 0.348 2.386 0.982" fill="#00569f"/>
    </g>
    <g transform="translate(833.96 2080.2)">
     <path d="m0 0c5.46 6.025 12.396 9.85 20.489 10.928 1.564 0.208 3.145 1.909 0.609 1.571-9.444-1.259-17.989-5.57-24.401-12.647-0.847-0.936 2.649-0.576 3.303 0.148" fill="#00569f"/>
    </g>
    <g transform="translate(775.06 2216.7)">
     <path d="m0 0c-2.794-4.937-0.594-11.141 5.06-12.604 5.892-1.524 10.126 2.449 13.128 7.006 0.78 1.182-2.145 1.017-2.72 0.144-2.479-3.763-6.255-7.69-10.914-4.391-3.134 2.22-3.658 6.478-1.833 9.7 0.713 1.261-2.203 1.059-2.721 0.145" fill="#ce6620"/>
    </g>
    <g transform="translate(796.47 2216.6)">
     <path d="m0 0c11.71-8.153 22.874 8.485 26.369 17.651 0.308 0.809-2.547 0.474-2.885-0.412-2.576-6.758-11.213-22.815-20.78-16.154-0.774 0.538-3.377-0.617-2.704-1.085" fill="#ce6620"/>
    </g>
    <g transform="translate(824.84 2228)">
     <path d="m0 0c10.842-1.379 13.946-11.17 15.736-20.47 0.176-0.913 3.088-0.214 2.898 0.778-1.912 9.935-5.477 19.743-16.839 21.188-0.856 0.108-3.388-1.293-1.795-1.496" fill="#ce6620"/>
    </g>
    <g transform="translate(844.56 2181.2)">
     <path d="m0 0c1.269-4.901 4.318-8.55 7.411-12.433 3.921-4.921 6.797-10.142 7.433-16.495 0.717-7.164-1.679-13.424-6.135-18.917-3.181-3.923-6.582-7.425-8.457-12.194-0.277-0.703 2.547-0.391 2.875 0.445 2.288 5.818 7.034 9.736 10.475 14.797 3.034 4.462 4.441 9.68 4.248 15.064-0.191 5.338-2.04 10.462-5.057 14.842-3.56 5.169-8.272 9.394-9.896 15.667-0.208 0.804-3.11 0.046-2.897-0.776" fill="#ce6620"/>
    </g>
    <g transform="translate(836.64 2115.5)">
     <path d="m0 0c-0.064-0.177-0.129-0.354-0.193-0.532-0.543-1.493 2.346-1.337 2.746-0.239 0.064 0.177 0.129 0.354 0.193 0.532 0.542 1.493-2.348 1.337-2.746 0.239" fill="#ce6620"/>
    </g>
    <g transform="translate(845.02 2042.9)">
     <path d="m0 0c3.594-6.686 14.36-0.289 18.253 2.763 8.608 6.748 12.993 17.107 17.048 26.933 0.651 1.579-2.263 1.672-2.788 0.399-2.813-6.817-5.645-13.772-10.159-19.673-2.442-3.193-15.796-16.392-19.71-9.111-0.655 1.216-3.396 0.087-2.644-1.311" fill="#ce6620"/>
    </g>
    <g transform="translate(867.8 2236.8)">
     <path d="m0 0c-0.113 0.242-0.226 0.483-0.339 0.726-0.275 0.589-1.125 0.523-1.655 0.381-0.347-0.093-1.51-0.585-1.242-1.158 0.113-0.242 0.225-0.483 0.339-0.725 0.275-0.59 1.125-0.524 1.655-0.382 0.346 0.094 1.51 0.585 1.242 1.158" fill="#ce6620"/>
    </g>
    <g transform="translate(869.07 2229.7)">
     <path d="m0 0c-0.064-0.178-0.129-0.354-0.193-0.532-0.586-1.614 2.316-1.698 2.789-0.4 0.064 0.178 0.129 0.356 0.193 0.533 0.586 1.613-2.316 1.698-2.789 0.399" fill="#ce6620"/>
    </g>
    <g transform="translate(872.57 2220.7)">
     <path d="m0 0c-0.064-0.178-0.129-0.354-0.193-0.532-0.18-0.493 0.963-0.322 1.161-0.286 0.379 0.065 0.759 0.177 1.104 0.344 0.194 0.093 0.516 0.235 0.594 0.45 0.064 0.177 0.129 0.354 0.193 0.532 0.179 0.493-0.963 0.321-1.161 0.286-0.379-0.066-0.759-0.178-1.104-0.345-0.194-0.093-0.516-0.234-0.594-0.449" fill="#ce6620"/>
    </g>
    <g transform="translate(877.86 2209.3)">
     <path d="m0 0c-1.14 0.784-2.915 0.114-3.725-0.829-0.462-0.538 0.392-0.876 0.796-0.893 0.719-0.029 1.444 0.259 1.909 0.802-0.432-0.352-0.887-0.501-1.363-0.443-0.058 9e-3 -0.03-0.013 0.084-0.069 0.804-0.553 3.472 0.623 2.299 1.432" fill="#ce6620"/>
    </g>
    <g transform="translate(844.05 2051.3)">
     <path d="m0 0c-0.064-0.178-0.129-0.354-0.193-0.532-0.549-1.51 2.342-1.381 2.751-0.259 0.064 0.177 0.129 0.354 0.193 0.532 0.549 1.509-2.344 1.381-2.751 0.259" fill="#ce6620"/>
    </g>
    <g transform="translate(846.15 2059)">
     <path d="M 0,0 C 1.003,0 3.105,1.507 1.164,1.507 0.161,1.507 -1.941,0 0,0" fill="#ce6620"/>
    </g>
    <g transform="translate(850.53 2068.2)">
     <path d="m0 0c0.064 0.178 0.129 0.355 0.193 0.532 0.166 0.455-0.966 0.251-1.142 0.218-0.378-0.07-0.756-0.18-1.106-0.339-0.181-0.082-0.529-0.216-0.602-0.416-0.065-0.178-0.129-0.354-0.194-0.532-0.165-0.455 0.967-0.251 1.143-0.218 0.378 0.07 0.757 0.181 1.106 0.339 0.181 0.083 0.53 0.216 0.602 0.416" fill="#ce6620"/>
    </g>
    <g transform="translate(835.48 2010.7)">
     <path d="m0 0c-0.177 0.064-0.354 0.129-0.532 0.193-0.854 0.311-1.979 0.031-2.554-0.684-0.533-0.662-0.325-1.536 0.49-1.832l0.533-0.194c0.854-0.31 1.979-0.031 2.554 0.684 0.533 0.662 0.325 1.536-0.491 1.833" fill="#00569f"/>
    </g>
    <g transform="translate(837.71 2016.9)">
     <path d="m0 0c0.064 0.178 0.129 0.355 0.193 0.532 0.103 0.282-0.157 0.552-0.374 0.666-0.331 0.175-0.837 0.189-1.193 0.138-0.767-0.11-1.758-0.443-2.049-1.243-0.064-0.178-0.129-0.356-0.193-0.532-0.103-0.283 0.157-0.552 0.374-0.666 0.331-0.175 0.837-0.189 1.193-0.138 0.767 0.11 1.758 0.443 2.049 1.243" fill="#00569f"/>
    </g>
    <g transform="translate(838.24 2023.6)">
     <path d="m0 0c-0.113 0.242-0.226 0.484-0.339 0.727-0.376 0.806-1.319 1.023-2.143 0.774-0.581-0.175-1.858-0.911-1.469-1.743 0.113-0.241 0.225-0.484 0.339-0.726 0.376-0.806 1.319-1.023 2.143-0.775 0.58 0.176 1.858 0.912 1.469 1.743" fill="#00569f"/>
    </g>
    <g transform="translate(758.92 2038.8)">
     <path d="m0 0c-0.178 0.064-0.354 0.129-0.532 0.193-0.796 0.289-1.835 0.021-2.546-0.382-0.407-0.232-1.171-0.946-0.363-1.239 0.177-0.064 0.355-0.129 0.532-0.193 0.796-0.289 1.835-0.021 2.547 0.383 0.406 0.23 1.17 0.944 0.362 1.238" fill="#00569f"/>
    </g>
    <g transform="translate(760.33 2030.6)">
     <path d="m0 0c-0.04-0.11-0.079-0.22-0.119-0.33-0.232-0.637 3.225-0.286 3.561 0.64 0.04 0.11 0.08 0.219 0.121 0.329 0.231 0.636-3.226 0.287-3.563-0.639-0.04-0.11-0.079-0.22-0.119-0.33-0.232-0.637 3.225-0.286 3.561 0.64 0.04 0.11 0.08 0.219 0.121 0.329 0.231 0.636-3.226 0.287-3.563-0.639" fill="#00569f"/>
    </g>
    <g transform="translate(756.44 2046.5)">
     <path d="m0 0c-0.064-0.177-0.129-0.354-0.193-0.532-0.273-0.749 1.159-0.757 1.539-0.698 0.712 0.109 1.786 0.417 2.064 1.183 0.065 0.178 0.129 0.356 0.194 0.532 0.272 0.749-1.16 0.758-1.54 0.7-0.711-0.11-1.785-0.417-2.064-1.185" fill="#00569f"/>
    </g>
    <g transform="translate(766.1 2063.5)">
     <path d="m0 0c5.841 17.782 11.296 35.685 16.363 53.702 0.234 0.832-3.3 0.36-3.571-0.605-5.067-18.018-10.522-35.921-16.363-53.702-0.258-0.785 3.253-0.366 3.571 0.605" fill="#00569f"/>
    </g>
    <g transform="translate(803.14 2144.2)">
     <path d="m0 0c-0.113 0.242-0.227 0.484-0.339 0.726-0.351 0.753-1.381 0.773-2.087 0.564-0.473-0.14-1.88-0.773-1.525-1.532 0.112-0.241 0.225-0.484 0.339-0.726 0.351-0.753 1.38-0.772 2.087-0.563 0.472 0.139 1.879 0.773 1.525 1.531" fill="#00569f"/>
    </g>
    <g transform="translate(797.67 2138.7)">
     <path d="m0 0c-0.064-0.178-0.129-0.354-0.193-0.532-0.713-1.96 2.902-1.952 3.457-0.425 0.064 0.177 0.129 0.354 0.193 0.532 0.713 1.96-2.902 1.951-3.457 0.425" fill="#00569f"/>
    </g>
    <g transform="translate(818.62 2101.4)">
     <path d="m0 0c3.789-6.468 7.182-13.123 10.188-19.988 0.401-0.914 3.919 0.269 3.613 0.967-3.007 6.867-6.4 13.521-10.189 19.989-0.542 0.924-3.939-0.41-3.612-0.968" fill="#00569f"/>
    </g>
    <g transform="translate(764.92 1969)">
     <path d="m0 0c0.271-13.9 2.391-27.564 6.345-40.893 0.258-0.87 3.862 0.127 3.612 0.968-3.954 13.328-6.074 26.992-6.344 40.893-0.013 0.661-3.634 0.102-3.613-0.968" fill="#fdba00"/>
    </g>
    <g transform="translate(726.81 1944.5)">
     <path d="m0 0c-0.081-0.072-0.161-0.146-0.242-0.218-0.346-0.311-0.797-0.797-0.604-1.324 0.044-0.119 0.088-0.239 0.132-0.358 0.254-0.695 0.981-0.876 1.651-0.856 4.943 0.151 10.719 3.435 15.342 5.179 6.311 2.381 12.564 4.905 18.774 7.537 2.273 0.964 0.263 2.958-1.61 2.164-5.027-2.131-10.081-4.194-15.173-6.162-2.84-1.098-5.692-2.166-8.552-3.209-2.482-0.904-5.832-2.75-8.47-2.83 0.55-0.285 1.1-0.57 1.65-0.856-0.165-0.249-0.329-0.498-0.494-0.747 1.815 1.635-1.038 2.911-2.404 1.68" fill="#fdba00"/>
    </g>
    <g transform="translate(717.31 1941.2)">
     <path d="m0 0c0.069 0.494 1.746 1.606 2.518 1.034 0.369-0.274 0.287-0.758 0.019-1.134 0.469 0.659 0.369 1.51-0.48 1.791-0.807 0.267-2.028 0.054-2.554-0.684-0.337-0.472-0.527-0.969-0.254-1.519 0.207-0.417 0.618-0.707 1.061-0.848 1.255-0.403 3.145 0.132 3.353 1.62 0.125 0.887-0.967 1.291-1.679 1.219-0.821-0.083-1.855-0.557-1.984-1.479" fill="#fdba00"/>
    </g>
    <g transform="translate(708.4 1939.4)">
     <path d="m0 0c0.58 0.49 1.177 0.626 1.791 0.406-0.133 0.065-0.154 0.08-0.065 0.045-0.583 0.589-1.731 0.416-2.408 0.097-0.447-0.211-1.542-0.944-0.934-1.557 1.23-1.241 3.345-0.673 4.546 0.293 0.607 0.488 0.333 1.244-0.375 1.401-0.911 0.201-1.847-0.116-2.555-0.685" fill="#fdba00"/>
    </g>
    <g transform="translate(699.28 1934.7)">
     <path d="m0 0c0.117-0.307 0.285-0.146 0.506 0.482l1.368 0.46c-0.032-6e-3 -0.064-0.012-0.097-0.018 0.286-3e-3 0.572-5e-3 0.857-8e-3 -0.033 8e-3 -0.066 0.015-0.099 0.021l0.566-0.254c-0.089 0.07-0.099 0.068-0.028-5e-3 0.029-0.144-0.038-0.263-0.197-0.359-0.403-0.198-0.807-0.396-1.21-0.593 0.029 7e-3 0.059 0.015 0.087 0.023 0.501 0.137 1.771 0.613 1.576 1.343-0.193 0.721-1.573 0.502-2.036 0.375-0.634-0.173-1.595-0.554-1.802-1.285-0.152-0.538 0.143-0.928 0.651-1.095 0.842-0.277 1.949-3e-3 2.672 0.451 0.433 0.271 1.082 0.854 0.798 1.431-0.337 0.683-1.43 0.551-2.036 0.375-0.365-0.107-1.903-0.679-1.576-1.344" fill="#fdba00"/>
    </g>
    <g transform="translate(690.71 1932.4)">
     <path d="m0 0c-0.036-0.146-0.072-0.294-0.108-0.441-0.238-0.976 3.333-0.442 3.58 0.573 0.036 0.146 0.072 0.294 0.108 0.441 0.237 0.976-3.333 0.442-3.58-0.573" fill="#fdba00"/>
    </g>
    <g transform="translate(682.54 1928.1)">
     <path d="m0 0c-3.418-3.307-5.429-7.683-5.704-12.431-0.11-1.895 3.566-1.4 3.663 0.264 0.249 4.303 1.975 8.073 5.073 11.07 0.654 0.632 0.209 1.462-0.477 1.782-0.866 0.402-1.937-0.086-2.555-0.685" fill="#fdba00"/>
    </g>
    <g transform="translate(676.3 1900.9)">
     <path d="m0 0c0.094 0.079 0.181 0.167 0.261 0.263 0.251 0.125 0.503 0.249 0.754 0.373-0.027-9e-3 -0.053-0.018-0.079-0.028 0.468 0.104 0.938 0.207 1.408 0.311-0.027-2e-3 -0.054-5e-3 -0.08-7e-3 0.235-0.016 0.471-0.033 0.707-0.049 0.05-0.041 0.101-0.081 0.152-0.122-0.577 0.943-3.958-0.405-3.613-0.968 0.496-0.809 2.025-0.348 2.706-0.101 0.421 0.153 1.617 0.62 1.396 1.296-0.192 0.587-1.584 0.245-1.972 0.135-0.32-0.091-1.829-0.526-1.64-1.103" fill="#fdba00"/>
    </g>
    <g transform="translate(658.92 1916)">
     <path d="m 0,0 c -0.848,15.517 8.768,30.657 18.296,42.198 9.59,11.616 21.476,21.055 34.92,27.833 2.207,1.113 0.222,2.882 -1.561,1.983 C 37.7,64.979 25.254,55.229 15.301,43.156 5.486,31.251 -4.523,15.69 -3.649,-0.315 -3.55,-2.128 0.082,-1.5 0,0" fill="#fdba00"/>
    </g>
    <g transform="translate(724.75 1995.3)">
     <path d="m0 0c0.053 0.144 0.104 0.287 0.156 0.43 0.281 0.769-1.15 0.828-1.557 0.768-0.749-0.109-1.767-0.433-2.054-1.223-0.052-0.144-0.105-0.287-0.156-0.43-0.28-0.769 1.15-0.828 1.557-0.769 0.749 0.11 1.767 0.435 2.054 1.224" fill="#fdba00"/>
    </g>
    <g transform="translate(731.81 2000.1)">
     <path d="m0 0c0.104 0.286 0.208 0.572 0.312 0.859 0.265 0.728-1.167 0.689-1.521 0.632-0.677-0.108-1.804-0.401-2.074-1.146-0.105-0.286-0.208-0.573-0.313-0.86-0.264-0.727 1.168-0.688 1.522-0.631 0.677 0.108 1.803 0.401 2.074 1.146" fill="#fdba00"/>
    </g>
    <g transform="translate(738.71 2004.8)">
     <path d="m0 0c1.193 1.48 2.083 1.828 2.669 1.044 0.035-0.031 0.047-0.071 0.034-0.121 0.041 0.125 0.025 0.304 0.044 0.434 0.13 0.896-0.967 1.34-1.692 1.27-0.851-0.081-1.842-0.573-1.978-1.508-0.177-1.209 0.355-2.281 1.662-2.446 1.249-0.158 3.278 0.745 2.873 2.295-0.456 1.748-4.07 0.788-3.612-0.968" fill="#fdba00"/>
    </g>
    <g transform="translate(751.2 2010.8)">
     <path d="m0 0c-0.091 0.195-0.182 0.391-0.273 0.586-0.342 0.733-1.402 0.696-2.07 0.499-0.44-0.129-1.885-0.735-1.543-1.467 0.091-0.195 0.183-0.391 0.274-0.587 0.342-0.733 1.401-0.696 2.07-0.499 0.44 0.13 1.884 0.737 1.542 1.468" fill="#fdba00"/>
    </g>
    <g transform="translate(760.57 2017.2)">
     <path d="m0 0c-0.195-0.091-0.391-0.183-0.586-0.273-0.257-0.121-1.255-0.675-0.472-0.832 0.767-0.154 1.831 0.168 2.518 0.49 0.195 0.091 0.391 0.181 0.586 0.273 0.257 0.12 1.255 0.675 0.472 0.831-0.767 0.155-1.831-0.169-2.518-0.489" fill="#fdba00"/>
    </g>
    <g transform="translate(654.19 1884.5)">
     <path d="m0 0c3.313-14.005 7.784-27.648 13.401-40.897 0.519-1.225 4.075-0.122 3.613 0.967-5.617 13.249-10.088 26.894-13.402 40.898-0.287 1.212-3.909 0.287-3.612-0.968" fill="#fdba00"/>
    </g>
    <g transform="translate(671.7 1838.2)">
     <path d="m0 0c-0.135-2.026-0.014-4.6 2.303-5.312 1.812-0.558 4.902 0.146 5.194 2.372 0.218 1.664-3.448 1.101-3.64-0.353-0.039-0.301 0.012-0.045 0.171 0.011 0.22 0.076 0.435 0.102 0.648 0.161-0.156-0.043-0.088-0.029-0.233 0.037 0.105-0.048-0.188 0.136-0.214 0.159-0.813 0.767-0.656 2.288-0.59 3.278 0.112 1.702-3.543 1.095-3.639-0.353" fill="#fdba00"/>
    </g>
    <g transform="translate(874.6 1876.8)">
     <path d="m0 0c1.295-1.951 5.427-1.142 7.336-1.185 4.268-0.096 8.535-0.194 12.803-0.291 1.515-0.034 3.784 2.218 1.344 2.274-3.012 0.068-6.024 0.137-9.037 0.205-1.239 0.028-8.385-0.612-9.109 0.479-0.755 1.138-4.246-0.111-3.337-1.482" fill="#fdba00"/>
    </g>
    <g transform="translate(894.45 1874.4)">
     <path d="m0 0c-0.685-1.686-0.967-3.435-0.891-5.249 0.036-0.845 3.662-0.206 3.613 0.968-0.071 1.682 0.229 3.283 0.861 4.841 0.278 0.686-1.202 0.571-1.493 0.526-0.645-0.099-1.807-0.388-2.09-1.086" fill="#fdba00"/>
    </g>
    <g transform="translate(821.57 1978.6)">
     <path d="m0 0c1.129-9.539-3.351-18.924-6.375-27.764-2.804-8.193-5.445-16.592-5.941-25.296-0.726-12.725 3.593-26.073 14.858-33.009 0.961-0.592 4.304 0.833 2.887 1.705-13.044 8.032-15.762 24.748-13.295 38.759 1.42 8.061 4.22 15.774 6.893 23.483 2.599 7.495 5.539 15.031 4.585 23.09-0.134 1.137-3.767 0.345-3.612-0.968" fill="#fdba00"/>
    </g>
    <g transform="translate(834.16 1888.1)">
     <path d="m0 0c-0.038-0.302-0.011-0.011 0.229 0.11 0.293 0.12 0.586 0.242 0.879 0.363l-0.131-0.036c0.314 0.042 0.628 0.084 0.943 0.125l-0.138-5e-3c-0.808-0.036-1.897-0.248-2.387-0.975-0.461-0.683 0.392-1.041 0.966-1.017 1.111 0.049 3.072 0.513 3.246 1.907 0.098 0.777-1.021 0.811-1.547 0.731-0.472-0.07-0.965-0.201-1.37-0.46-0.253-0.163-0.649-0.414-0.69-0.743" fill="#fdba00"/>
    </g>
    <g transform="translate(748.45 2255.2)">
     <path d="m0 0c4.881 9.062 1.771 21.902-5.841 28.83-3.108 2.829-7.102 4.534-11.188 5.519-9.518 2.293-19.897 0.776-28.361-4.143-1.968-1.144-3.866-2.492-5.255-4.297-1.5-1.948-2.331-4.328-2.918-6.717-1.671-6.793-1.505-14.152 1.24-20.587 2.746-6.434 8.226-11.819 14.96-13.716 3.926-1.107 8.684-1.366 10.926-4.774 0.866-1.315 1.189-2.918 1.986-4.275 3.608-6.151 24.478-1.028 20.77 4.165-4.757 6.663-1.034 11.241 3.681 19.995" fill="#fdba00"/>
    </g>
    <g transform="translate(715.15 2285.2)">
     <path d="m0 0c8.546-0.486 18.265-2.172 22.777-9.445 4.456-7.185 1.788-16.477-0.997-24.459" fill="none" stroke="#ffe15a" stroke-linecap="round" stroke-miterlimit="10" stroke-width="3"/>
    </g>
    <g transform="translate(736.77 2246.9)">
     <path d="m0 0c-0.134-0.737-0.124-1.501 0.03-2.235" fill="none" stroke="#ffe15a" stroke-linecap="round" stroke-miterlimit="10" stroke-width="3"/>
    </g>
    <g transform="translate(745.89 2216.5)">
     <path d="m0 0c-1.497-1.106-3.444-1.583-5.283-1.293 1.764 1.362 3.834 2.33 6.012 2.812 0.728 0.161 1.503 0.284 2.085 0.75 0.583 0.466 0.853 1.423 0.333 1.959-4.574-0.727-9.035-2.153-13.182-4.213 0.324 2.013 2.119 3.492 4.007 4.261 1.888 0.77 3.949 1.022 5.872 1.7 0.495 0.173 1.006 0.396 1.307 0.825 0.302 0.428 0.289 1.117-0.155 1.394-5.142-1.958-10.693-2.834-16.187-2.551 0.274 1.44 1.572 2.498 2.957 2.982 1.383 0.483 2.877 0.516 4.335 0.677 2.568 0.283 5.09 0.983 7.437 2.065 0.395 0.182 0.793 0.381 1.089 0.698 0.868 0.933 0.53 2.42 0.138 3.633-0.217 0.668-0.854 1.498-1.428 1.092-0.05-0.904-0.128-1.88-0.717-2.568-0.534-0.623-1.373-0.873-2.167-1.078-4.566-1.18-9.263-1.852-13.975-2-0.893-0.029-1.812-0.034-2.645 0.288-0.834 0.321-1.571 1.043-1.65 1.932 3.532 1.258 7.243 1.463 10.959 1.964 2.786 0.377 5.533 0.993 8.275 1.608 0.567 0.127 1.163 0.269 1.592 0.662 0.429 0.392 0.608 1.123 0.221 1.556-3.535 0.288-8.373-0.347-12.116-1.381-0.696-0.192-6.808-0.745-9.372-1.72-2.582-0.982 0.441-2.689 0.181-2.781" fill="none" stroke="#565655" stroke-linecap="round" stroke-linejoin="round" stroke-miterlimit="10" stroke-width="2"/>
    </g>
   </g>
   <g clip-path="url(#d)">
    <g transform="translate(756.01 2286.1)">
     <path d="m0 0 17.642 20.162" fill="none" stroke="#ffe882" stroke-linecap="round" stroke-linejoin="round" stroke-miterlimit="10" stroke-width="3"/>
    </g>
    <g transform="translate(746.87 2291.1)">
     <path d="m0 0 10.929 26.904" fill="none" stroke="#ffe882" stroke-linecap="round" stroke-linejoin="round" stroke-miterlimit="10" stroke-width="3"/>
    </g>
    <g transform="translate(760.37 2276.9)">
     <path d="m0 0 26.562 7.19" fill="none" stroke="#ffe882" stroke-linecap="round" stroke-linejoin="round" stroke-miterlimit="10" stroke-width="3"/>
    </g>
   </g>
  </g>
 </g>
</svg>
