<svg width="101.21mm" height="19.704mm" version="1.1" viewBox="0 0 101.21 19.704" xmlns="http://www.w3.org/2000/svg">
 <defs>
  <clipPath id="a">
   <path d="m0 3080.8h1040v-3080.8h-1040z"/>
  </clipPath>
 </defs>
 <g transform="translate(-62.033 -109.5)">
  <g transform="matrix(.35278 0 0 -.35278 37.593 941.76)">
   <g clip-path="url(#a)">
    <g transform="translate(335.39 2303.3)">
     <path d="m0 0h-245.33c-11.476 0-20.779 9.303-20.779 20.779v14.297c0 11.477 9.303 20.779 20.779 20.779h245.33c11.476 0 20.779-9.302 20.779-20.779v-14.297c0-11.476-9.303-20.779-20.779-20.779" fill="#e8782d"/>
    </g>
   </g>
   <g transform="matrix(1 0 0 -1 142.96 2321)" fill="#59250e" aria-label="Hallazgos">
    <path d="m2.9375-23.328h6.0156v8.8906h8.875v-8.8906h6.0156v23.328h-6.0156v-9.8906h-8.875v9.8906h-6.0156z"/>
    <path d="m32.579-7.875q-1.75 0-2.6406 0.59375-0.875 0.59375-0.875 1.75 0 1.0625 0.70312 1.6719 0.71875 0.59375 1.9844 0.59375 1.5781 0 2.6562-1.125 1.0781-1.1406 1.0781-2.8438v-0.64062zm8.5469-2.1094v9.9844h-5.6406v-2.5938q-1.125 1.5938-2.5312 2.3281-1.4062 0.71875-3.4219 0.71875-2.7188 0-4.4219-1.5781-1.6875-1.5938-1.6875-4.125 0-3.0781 2.1094-4.5156 2.125-1.4375 6.6562-1.4375h3.2969v-0.4375q0-1.3281-1.0469-1.9375-1.0469-0.625-3.2656-0.625-1.7969 0-3.3438 0.35938t-2.875 1.0781v-4.2656q1.7969-0.4375 3.6094-0.65625 1.8125-0.23438 3.625-0.23438 4.7344 0 6.8281 1.875 2.1094 1.8594 2.1094 6.0625z"/>
    <path d="m41.632-24.312h5.5938v24.312h-5.5938z"/>
    <path d="m50.431-24.312h5.5938v24.312h-5.5938z"/>
    <path d="m67.075-7.875q-1.75 0-2.6406 0.59375-0.875 0.59375-0.875 1.75 0 1.0625 0.70312 1.6719 0.71875 0.59375 1.9844 0.59375 1.5781 0 2.6562-1.125 1.0781-1.1406 1.0781-2.8438v-0.64062zm8.5469-2.1094v9.9844h-5.6406v-2.5938q-1.125 1.5938-2.5312 2.3281-1.4062 0.71875-3.4219 0.71875-2.7188 0-4.4219-1.5781-1.6875-1.5938-1.6875-4.125 0-3.0781 2.1094-4.5156 2.125-1.4375 6.6562-1.4375h3.2969v-0.4375q0-1.3281-1.0469-1.9375-1.0469-0.625-3.2656-0.625-1.7969 0-3.3438 0.35938t-2.875 1.0781v-4.2656q1.7969-0.4375 3.6094-0.65625 1.8125-0.23438 3.625-0.23438 4.7344 0 6.8281 1.875 2.1094 1.8594 2.1094 6.0625z"/>
    <path d="m75.268-17.5h15.266v3.9062l-9.2188 9.5938h9.2188v4h-15.656v-3.9062l9.2188-9.5938h-8.8281z"/>
    <path d="m103.04-2.9688q-1.1562 1.5312-2.5469 2.25-1.3906 0.71875-3.2187 0.71875-3.2031 0-5.2969-2.5156-2.0938-2.5312-2.0938-6.4375 0-3.9219 2.0938-6.4219 2.0938-2.5156 5.2969-2.5156 1.8281 0 3.2187 0.71875 1.3906 0.71875 2.5469 2.2656v-2.5938h5.625v15.734q0 4.2188-2.6719 6.4375-2.6562 2.2344-7.7187 2.2344-1.6406 0-3.1719-0.25t-3.0781-0.76562v-4.3594q1.4688 0.84375 2.875 1.25 1.4062 0.42188 2.8281 0.42188 2.75 0 4.0313-1.2031t1.2812-3.7656zm-3.6875-10.891q-1.7344 0-2.7031 1.2812t-0.96875 3.625q0 2.4062 0.9375 3.6562 0.9375 1.2344 2.7344 1.2344 1.75 0 2.7188-1.2812t0.96875-3.6094q0-2.3438-0.96875-3.625t-2.7188-1.2812z"/>
    <path d="m118.18-13.922q-1.8594 0-2.8438 1.3438-0.96875 1.3281-0.96875 3.8438t0.96875 3.8594q0.98438 1.3281 2.8438 1.3281 1.8281 0 2.7969-1.3281 0.96875-1.3438 0.96875-3.8594t-0.96875-3.8438q-0.96875-1.3438-2.7969-1.3438zm0-4q4.5156 0 7.0469 2.4375 2.5469 2.4375 2.5469 6.75t-2.5469 6.75q-2.5312 2.4375-7.0469 2.4375-4.5312 0-7.0938-2.4375-2.5469-2.4375-2.5469-6.75t2.5469-6.75q2.5625-2.4375 7.0938-2.4375z"/>
    <path d="m141.99-16.953v4.25q-1.7969-0.75-3.4688-1.125-1.6719-0.375-3.1562-0.375-1.5938 0-2.375 0.40625-0.76563 0.39062-0.76563 1.2188 0 0.67188 0.57813 1.0312 0.59375 0.35938 2.1094 0.53125l0.98438 0.14062q4.2969 0.54688 5.7812 1.7969 1.4844 1.25 1.4844 3.9219 0 2.7969-2.0625 4.2031t-6.1562 1.4062q-1.7344 0-3.5938-0.28125-1.8438-0.26562-3.7969-0.8125v-4.25q1.6719 0.8125 3.4219 1.2188 1.7656 0.40625 3.5781 0.40625 1.6406 0 2.4688-0.45312 0.82812-0.45312 0.82812-1.3438 0-0.75-0.57812-1.1094-0.5625-0.375-2.2656-0.57812l-0.98437-0.125q-3.7344-0.46875-5.2344-1.7344t-1.5-3.8438q0-2.7812 1.9062-4.125t5.8438-1.3438q1.5469 0 3.25 0.23438 1.7031 0.23438 3.7031 0.73438z"/>
   </g>
  </g>
 </g>
</svg>
