<svg width="360mm" height="135mm" version="1.1" viewBox="0 0 360 135" xmlns="http://www.w3.org/2000/svg">
 <defs>
  <clipPath id="clipPath70">
   <path d="m0 3080.8v-29.39c14.865-32.507 72.761-79.676 284.18-78.098h755.82v107.49z"/>
  </clipPath>
  <linearGradient id="linearGradient80" x2="1" gradientTransform="matrix(404.01 245.18 245.18 -404.01 482.08 2999.7)" gradientUnits="userSpaceOnUse">
   <stop stop-color="#00baf0" offset="0"/>
   <stop stop-color="#00569f" offset="1"/>
  </linearGradient>
  <clipPath id="clipPath90">
   <path d="m0 3080.8h1040v-3080.8h-1040z"/>
  </clipPath>
  <clipPath id="clipPath102">
   <path d="m57.63 3080.8c6.911-116.32 168.49-109.51 234.96-102.69 62.479 6.408 125.73 8.59 188.39 3.536 63.503-5.122 161.31 0.113 169.95-82.047 2.295-21.839-0.048-43.99 2.58-65.793 2.482-20.585 10.486-45.76 31.336-54.406 20.252-8.395 39.084 0.658 58.077 9.711 16.408 7.822 32.939 15.644 50.61 12.214 22.349-4.341 37.579-24.444 55.02-37.45 19.241-14.348 40.106-26.734 62.247-36.046 40.947-17.22 85.127-22.605 129.2-21.173v374.14z"/>
  </clipPath>
  <linearGradient id="linearGradient112" x2="1" gradientTransform="matrix(397.14 241.01 241.01 -397.14 586.67 2916.3)" gradientUnits="userSpaceOnUse">
   <stop stop-color="#00baf0" offset="0"/>
   <stop stop-color="#00569f" offset="1"/>
  </linearGradient>
  <clipPath id="clipPath122">
   <path d="m0 3080.8h1040v-3080.8h-1040z"/>
  </clipPath>
  <clipPath id="clipPath130">
   <path d="m209.04 3085h876.52v-348.14h-876.52z"/>
  </clipPath>
  <clipPath id="clipPath134">
   <path d="m1082.4 2779.6c-9.832-22.933-48.098-34.873-70.11-39.176-68.677-13.424-120.48 13.537-178.97 44.714-6.089 3.245-12.43 6.407-19.295 7.116-14.512 1.499-23.943-12.22-34.379-19.99-9.639-7.178-21.988-9.959-34.006-9.995-43.66-0.13-92.829 17.974-111.46 60.221-8.072 18.299-16.089 35.735-19.739 57.282-2.916 17.216 1.163 39.513 9.788 71.368-8.881 8.977-23.887 15.087-35.181 18.441-34.501 10.248-65.677 4.356-101.53 6.926-59.454 4.262-123.26-1.081-180.06 20.384-45.221 17.09-70.806 47.29-98.419 84.764 57.373 6.989 119 1.019 176.72 0.486 120.37-1.11 240.74-2.822 361.11-4.611 96.583-1.436 193.17-2.969 289.75-4.586 12.988-0.218 25.977-0.436 38.965-0.66 1.241-43.363 2.482-86.727 3.725-130.09 0.928-32.435 1.856-64.871 2.785-97.306 0.508-17.737 6.255-43.81 1.751-61.104-0.373-1.434-0.856-2.828-1.437-4.184"/>
  </clipPath>
  <linearGradient id="linearGradient144" x2="1" gradientTransform="matrix(927.7 0 0 -927.7 209.04 2911)" gradientUnits="userSpaceOnUse">
   <stop stop-color="#00569f" offset="0"/>
   <stop stop-color="#00569f" offset=".031291"/>
   <stop stop-color="#fed669" offset=".62277"/>
   <stop stop-color="#fed669" offset="1"/>
  </linearGradient>
  <clipPath id="clipPath326">
   <path d="m658.25 2924.3h20.869v-39.54h-20.869z"/>
  </clipPath>
  <clipPath id="clipPath382">
   <path d="m677.23 2946.6h20.359v-44.37h-20.359z"/>
  </clipPath>
  <clipPath id="clipPath894">
   <path d="m0 3080.8h1040v-3080.8h-1040z"/>
  </clipPath>
 </defs>
 <g transform="translate(71.474 -93.251)">
  <g transform="matrix(.35278 0 0 -.35278 -76.69 1172.5)">
   <g clip-path="url(#clipPath70)">
    <path d="m0 3080.8v-29.39c14.865-32.507 72.761-79.676 284.18-78.098h755.82v107.49z" fill="url(#linearGradient80)"/>
   </g>
   <g clip-path="url(#clipPath90)">
    <g transform="translate(853.47 3047.9)">
     <path d="m0 0c17.668-5.566 37.104-12.922 44.859-34.22 7.376-20.26 0.967-47.818-11.843-66.226-4.733-6.8-10.469-13.086-12.76-21.596-15.837-58.828-29.817-110.62-76.175-142.27-36.361-24.824-78.56-26.8-114.08-10.743-32.613 14.744-61.292 46.505-69.285 91.408-5.769 32.406-0.287 68.755 11.204 101.21 11.49 32.45 28.654 61.484 46.981 88.558z" fill="#00baf0"/>
    </g>
   </g>
   <g clip-path="url(#clipPath102)">
    <path d="m57.63 3080.8c6.911-116.32 168.49-109.51 234.96-102.69 62.479 6.408 125.73 8.59 188.39 3.536 63.503-5.122 161.31 0.113 169.95-82.047 2.295-21.839-0.048-43.99 2.58-65.793 2.482-20.585 10.486-45.76 31.336-54.406 20.252-8.395 39.084 0.658 58.077 9.711 16.408 7.822 32.939 15.644 50.61 12.214 22.349-4.341 37.579-24.444 55.02-37.45 19.241-14.348 40.106-26.734 62.247-36.046 40.947-17.22 85.127-22.605 129.2-21.173v374.14z" fill="url(#linearGradient112)"/>
   </g>
   <g clip-path="url(#clipPath122)">
    <g clip-path="url(#clipPath130)" opacity=".3">
     <g clip-path="url(#clipPath134)">
      <path d="m1082.4 2779.6c-9.832-22.933-48.098-34.873-70.11-39.176-68.677-13.424-120.48 13.537-178.97 44.714-6.089 3.245-12.43 6.407-19.295 7.116-14.512 1.499-23.943-12.22-34.379-19.99-9.639-7.178-21.988-9.959-34.006-9.995-43.66-0.13-92.829 17.974-111.46 60.221-8.072 18.299-16.089 35.735-19.739 57.282-2.916 17.216 1.163 39.513 9.788 71.368-8.881 8.977-23.887 15.087-35.181 18.441-34.501 10.248-65.677 4.356-101.53 6.926-59.454 4.262-123.26-1.081-180.06 20.384-45.221 17.09-70.806 47.29-98.419 84.764 57.373 6.989 119 1.019 176.72 0.486 120.37-1.11 240.74-2.822 361.11-4.611 96.583-1.436 193.17-2.969 289.75-4.586 12.988-0.218 25.977-0.436 38.965-0.66 1.241-43.363 2.482-86.727 3.725-130.09 0.928-32.435 1.856-64.871 2.785-97.306 0.508-17.737 6.255-43.81 1.751-61.104-0.373-1.434-0.856-2.828-1.437-4.184" fill="url(#linearGradient144)"/>
     </g>
    </g>
    <g transform="translate(646.36 2800.3)">
     <path d="m0 0c-4.959-5.182-11.224 1.229-13.175 5.429-1.53 3.295-1.934 7.068-2.403 10.63-0.987 7.506-1.933 15.02-2.834 22.537-1.758 14.667-3.217 29.404-3.312 44.189-0.198 31.1 6.891 61.204 26.309 86.065 0.725 0.927-2.143 0.652-2.674-0.028-17.253-22.089-25.183-48.542-26.354-76.324-0.565-13.402 0.226-26.823 1.533-40.16 1.376-14.047 2.406-28.661 5.276-42.489 1.148-5.527 3.75-10.987 9.584-12.624 3.916-1.099 7.922-0.125 10.725 2.803 0.768 0.803-2.084 0.59-2.675-0.028" fill="#fff"/>
    </g>
    <g transform="translate(840.31 2867.7)">
     <path d="m0 0c-5.8-31.901-24.101-60.581-50.592-79.276-1.601-1.131 0.746-2.195 1.932-1.359 27.009 19.06 45.686 48.322 51.598 80.844 0.267 1.465-2.698 1.115-2.938-0.209" fill="#fff"/>
    </g>
    <g transform="translate(848.6 2909.4)">
     <path d="m0 0c9.098-51.396-15.5-100.79-57.232-130.51-1.916-1.365 2.575-1.024 3.511-0.357 42.245 30.09 67.452 79.964 58.228 132.08-0.204 1.153-4.742 0.119-4.507-1.208" fill="#fff"/>
    </g>
    <g transform="translate(666.3 2756.8)">
     <path d="m0 0c-29.84 17.659-51.704 46.954-60.259 80.542-0.239 0.941-3.142 0.185-2.897-0.776 8.633-33.899 30.743-63.31 60.837-81.119 0.764-0.453 3.446 0.686 2.319 1.353" fill="#a1daf8"/>
    </g>
    <g transform="translate(844.06 2820.5)">
     <path d="m0 0c-6.47-22.282-22.119-41.05-42.881-51.403-1.767-0.881-0.188-2.462 1.288-1.725 21.618 10.779 37.794 30.149 44.531 53.344 0.397 1.37-2.569 1.053-2.938-0.216" fill="#a1daf8"/>
    </g>
    <g transform="translate(817.69 2754.5)">
     <path d="m0 0c1.021-1.42 0.715-4.258-1.224-4.771-1.787-0.474-1.266-2.439 0.526-1.964 3.36 0.89 5.541 4.964 3.352 8.006-0.758 1.053-3.522-0.065-2.654-1.271" fill="#a1daf8"/>
    </g>
    <g transform="translate(767.08 2742.6)">
     <path d="m0 0c-14.923-2.451-29.98-3.142-45.066-2.124-0.619 0.042-3.297-1.07-1.884-1.165 15.537-1.049 31.04-0.282 46.405 2.242 1.15 0.189 2.589 1.383 0.545 1.047" fill="#a1daf8"/>
    </g>
    <g transform="translate(823.98 2737.8)">
     <path d="m0 0c18.619 3.819 36.178-5.322 51.464-14.963 14.429-9.1 28.357-18.393 44.037-25.302 30.661-13.508 64.282-19.964 97.747-19.585 18.618 0.211 37.138 2.589 55.243 6.906 1.749 0.417 1.37 1.827-0.378 1.41-34.807-8.299-71.299-8.978-106.32-1.508-17.263 3.681-34.097 9.335-50.031 16.937-15.378 7.336-28.946 17.302-43.553 25.936-14.845 8.774-31.167 15.152-48.585 11.579-1.769-0.363-1.371-1.768 0.378-1.41" fill="#00baf0"/>
    </g>
    <g transform="translate(857.79 2948)">
     <path d="m0 0c-0.362-1.818 0.817-3.586 2.636-3.948 1.818-0.363 3.587 0.818 3.949 2.636s-0.818 3.586-2.637 3.948c-1.818 0.363-3.586-0.818-3.948-2.636" fill="#fd0"/>
    </g>
    <g transform="translate(669.99 2962.4)">
     <path d="m0 0c-0.362-1.818 0.817-3.586 2.636-3.948 1.818-0.363 3.586 0.818 3.948 2.636s-0.817 3.586-2.636 3.948c-1.818 0.363-3.586-0.818-3.948-2.636" fill="#fd0"/>
    </g>
    <g transform="translate(665.19 2973.2)">
     <path d="m0 0c-0.362-1.818 0.818-3.586 2.637-3.948 1.818-0.363 3.586 0.818 3.948 2.636s-0.818 3.586-2.637 3.949c-1.817 0.362-3.586-0.819-3.948-2.637" fill="#fd0"/>
    </g>
    <g transform="translate(729.34 2762.7)">
     <path d="m0 0c-0.362-1.818 0.818-3.586 2.637-3.948 1.818-0.363 3.586 0.818 3.948 2.636s-0.818 3.586-2.637 3.948c-1.818 0.363-3.586-0.818-3.948-2.636" fill="#fd0"/>
    </g>
    <g transform="translate(893.74 2759.7)">
     <path d="m0 0c-0.362-1.818 0.817-3.586 2.636-3.948 1.818-0.363 3.586 0.818 3.948 2.636s-0.817 3.586-2.636 3.948c-1.818 0.363-3.586-0.818-3.948-2.636" fill="#fd0"/>
    </g>
    <g transform="translate(978.94 2754.3)">
     <path d="m0 0c-0.362-1.818 0.818-3.586 2.637-3.948 1.818-0.363 3.586 0.818 3.948 2.636s-0.818 3.586-2.636 3.948c-1.818 0.363-3.587-0.818-3.949-2.636" fill="#fd0"/>
    </g>
    <g transform="translate(846.32 2962.3)">
     <path d="m0 0c-0.271-1.363 0.613-2.689 1.977-2.961 1.364-0.271 2.689 0.614 2.961 1.977 0.272 1.364-0.614 2.69-1.977 2.961-1.363 0.272-2.69-0.613-2.961-1.977" fill="#fd0"/>
    </g>
    <g transform="translate(676.52 2971.3)">
     <path d="m0 0c-0.271-1.363 0.613-2.689 1.977-2.961 1.364-0.271 2.689 0.614 2.96 1.977 0.273 1.364-0.613 2.69-1.976 2.961-1.364 0.272-2.69-0.613-2.961-1.977" fill="#fd0"/>
    </g>
    <g transform="translate(774.73 2776.2)">
     <path d="m0 0c-0.271-1.364 0.613-2.689 1.977-2.961 1.364-0.271 2.689 0.613 2.96 1.977 0.273 1.364-0.613 2.69-1.976 2.961-1.364 0.272-2.69-0.613-2.961-1.977" fill="#fd0"/>
    </g>
    <g transform="translate(864.73 2773.8)">
     <path d="m0 0c-0.271-1.364 0.613-2.689 1.977-2.961s2.689 0.613 2.96 1.977c0.273 1.364-0.613 2.69-1.976 2.961-1.364 0.272-2.69-0.613-2.961-1.977" fill="#fd0"/>
    </g>
    <g transform="translate(967.93 2752.2)">
     <path d="m0 0c-0.272-1.364 0.613-2.689 1.977-2.961 1.363-0.271 2.689 0.613 2.96 1.977 0.272 1.364-0.613 2.69-1.976 2.961-1.364 0.272-2.69-0.613-2.961-1.977" fill="#fd0"/>
    </g>
    <g transform="translate(849.32 2951.6)">
     <path d="m0 0c-0.152-0.767 0.345-1.513 1.112-1.666 0.767-0.152 1.513 0.346 1.665 1.113 0.154 0.766-0.344 1.512-1.111 1.665-0.768 0.153-1.513-0.345-1.666-1.112" fill="#fd0"/>
    </g>
    <g transform="translate(867.03 2953.9)">
     <path d="m0 0c-0.152-0.767 0.346-1.513 1.112-1.666 0.768-0.152 1.513 0.346 1.666 1.113s-0.345 1.512-1.112 1.665-1.513-0.345-1.666-1.112" fill="#fd0"/>
    </g>
    <g transform="translate(660.03 2981.5)">
     <path d="m0 0c-0.152-0.767 0.346-1.513 1.112-1.666 0.768-0.152 1.513 0.346 1.666 1.112 0.153 0.767-0.345 1.513-1.112 1.666s-1.513-0.345-1.666-1.112" fill="#fd0"/>
    </g>
    <g transform="translate(869.91 2950.2)">
     <path d="m0 0c-0.152-0.767 0.346-1.513 1.112-1.666 0.768-0.152 1.513 0.346 1.666 1.113s-0.345 1.512-1.112 1.665c-0.768 0.153-1.513-0.345-1.666-1.112" fill="#fd0"/>
    </g>
    <g transform="translate(780.6 2779.9)">
     <path d="m0 0c-0.152-0.767 0.345-1.513 1.112-1.666 0.767-0.152 1.513 0.346 1.665 1.113 0.154 0.766-0.344 1.512-1.111 1.665-0.768 0.153-1.513-0.345-1.666-1.112" fill="#fd0"/>
    </g>
    <g transform="translate(903.6 2755.3)">
     <path d="m0 0c-0.152-0.767 0.345-1.513 1.112-1.666 0.767-0.152 1.513 0.346 1.665 1.113 0.154 0.767-0.344 1.512-1.111 1.665-0.768 0.153-1.513-0.345-1.666-1.112" fill="#fd0"/>
    </g>
    <g transform="translate(660.63 2791.1)">
     <path d="m0 0c-0.562-2.818 1.268-5.557 4.086-6.119 2.817-0.561 5.557 1.268 6.118 4.086 0.562 2.818-1.267 5.557-4.085 6.118-2.818 0.562-5.557-1.267-6.119-4.085" fill="#fd0"/>
    </g>
    <g transform="translate(846.8 2832.2)">
     <path d="m0 0c-0.562-2.818 1.268-5.557 4.085-6.119 2.818-0.561 5.558 1.268 6.119 4.086 0.562 2.818-1.267 5.557-4.086 6.118-2.817 0.562-5.556-1.267-6.118-4.085" fill="#a1daf8"/>
    </g>
    <g transform="translate(669.83 2770.6)">
     <path d="M 0,0 C -0.077,-0.388 0.175,-0.765 0.562,-0.842 0.95,-0.919 1.327,-0.667 1.404,-0.28 1.481,0.108 1.229,0.485 0.842,0.562 0.454,0.639 0.077,0.388 0,0" fill="#fd0"/>
    </g>
    <g transform="translate(646.44 2809.3)">
     <path d="m0 0c-0.433-2.175 0.979-4.289 3.153-4.722s4.288 0.978 4.722 3.153c0.433 2.174-0.979 4.288-3.153 4.722-2.174 0.433-4.288-0.979-4.722-3.153" fill="#fd0"/>
    </g>
    <g transform="translate(631.34 2770.9)">
     <path d="m0 0c-22.053 10.678-36.981 35.681-44.679 57.991-8.493 24.614-9.998 51.53-3.157 76.722 0.273 1.01-2.633 0.595-2.895-0.373-6.996-25.761-5.341-53.463 3.65-78.534 7.934-22.124 22.86-46.579 44.769-57.188 0.829-0.402 3.488 0.813 2.312 1.382" fill="#a1daf8"/>
    </g>
    <g transform="translate(867.06 2699.7)">
     <path d="m0 0c-26.474-5.745-53.783-8.368-80.584-3.249-26.701 5.1-51.131 17.533-73.697 32.328-1.537 1.008-6.66-1.319-5.418-2.134 23.54-15.433 48.969-28.191 76.871-33.245 27.795-5.035 56.074-2.038 83.469 3.906 3.479 0.756 2.823 3.146-0.641 2.394" fill="#7ddcf8"/>
    </g>
    <g transform="translate(412.19 2944.2)">
     <path d="m0 0c49.881 0.275 99.325-10.957 144.2-32.747 0.751-0.364 3.034 0.832 2.734 0.978-45.127 21.914-94.878 33.205-145.04 32.928-0.604-4e-3 -3.27-1.167-1.886-1.159" fill="#a1daf8"/>
    </g>
    <g transform="translate(640.52 2914.5)">
     <path d="m0 0 32.034 9.649s11.616-23.772 3.837-43.684l-31.015-12.788s15.734 34.034-4.856 46.823" fill="#dadada"/>
    </g>
    <g transform="translate(649.36 2910.6)">
     <path d="m0 0 21.8 6.716" fill="none" stroke="#3c3c3b" stroke-linecap="round" stroke-linejoin="round" stroke-miterlimit="10" stroke-width=".623"/>
    </g>
    <g transform="translate(651.86 2906.4)">
     <path d="m0 0 21.8 6.716" fill="none" stroke="#3c3c3b" stroke-linecap="round" stroke-linejoin="round" stroke-miterlimit="10" stroke-width=".623"/>
    </g>
    <g transform="translate(653.93 2901.7)">
     <path d="m0 0 21.8 6.716" fill="none" stroke="#3c3c3b" stroke-linecap="round" stroke-linejoin="round" stroke-miterlimit="10" stroke-width=".623"/>
    </g>
    <g transform="translate(655.36 2897)">
     <path d="m0 0 21.8 6.716" fill="none" stroke="#3c3c3b" stroke-linecap="round" stroke-linejoin="round" stroke-miterlimit="10" stroke-width=".623"/>
    </g>
    <g transform="translate(655.91 2891.7)">
     <path d="m0 0 21.8 6.716" fill="none" stroke="#3c3c3b" stroke-linecap="round" stroke-linejoin="round" stroke-miterlimit="10" stroke-width=".623"/>
    </g>
    <g transform="translate(652.26 2876.4)">
     <path d="m0 0 21.8 6.716" fill="none" stroke="#3c3c3b" stroke-linecap="round" stroke-linejoin="round" stroke-miterlimit="10" stroke-width=".623"/>
    </g>
    <g transform="translate(652.85 2881.1)">
     <path d="m0 0 21.8 6.716" fill="none" stroke="#3c3c3b" stroke-linecap="round" stroke-linejoin="round" stroke-miterlimit="10" stroke-width=".623"/>
    </g>
    <g clip-path="url(#clipPath326)" opacity=".2">
     <g transform="translate(671.51 2923.9)">
      <path d="m0 0-13.229-4.104s8.99-11.397-0.033-35.06c0 0 14.158 5.621 20.77 8.62 0.934 10.765-5.026 30.917-5.026 30.917z" fill="#6f6f6e"/>
     </g>
    </g>
    <g transform="translate(654.45 2886.2)">
     <path d="m0 0 21.8 6.716" fill="none" stroke="#3c3c3b" stroke-linecap="round" stroke-linejoin="round" stroke-miterlimit="10" stroke-width=".623"/>
    </g>
    <g transform="translate(659.06 2936.3)">
     <path d="m0 0 32.033 9.649s11.617-23.772 3.837-43.684l-31.015-12.788s15.735 34.034-4.855 46.823" fill="#ececec"/>
    </g>
    <g transform="translate(667.9 2932.5)">
     <path d="m0 0 21.8 6.716" fill="none" stroke="#3c3c3b" stroke-linecap="round" stroke-linejoin="round" stroke-miterlimit="10" stroke-width=".623"/>
    </g>
    <g transform="translate(670.4 2928.3)">
     <path d="m0 0 21.8 6.716" fill="none" stroke="#3c3c3b" stroke-linecap="round" stroke-linejoin="round" stroke-miterlimit="10" stroke-width=".623"/>
    </g>
    <g transform="translate(672.47 2923.6)">
     <path d="m0 0 21.8 6.716" fill="none" stroke="#3c3c3b" stroke-linecap="round" stroke-linejoin="round" stroke-miterlimit="10" stroke-width=".623"/>
    </g>
    <g transform="translate(673.9 2918.9)">
     <path d="m0 0 21.8 6.716" fill="none" stroke="#3c3c3b" stroke-linecap="round" stroke-linejoin="round" stroke-miterlimit="10" stroke-width=".623"/>
    </g>
    <g transform="translate(674.45 2913.5)">
     <path d="m0 0 21.8 6.716" fill="none" stroke="#3c3c3b" stroke-linecap="round" stroke-linejoin="round" stroke-miterlimit="10" stroke-width=".623"/>
    </g>
    <g transform="translate(670.8 2898.3)">
     <path d="m0 0 21.8 6.716" fill="none" stroke="#3c3c3b" stroke-linecap="round" stroke-linejoin="round" stroke-miterlimit="10" stroke-width=".623"/>
    </g>
    <g transform="translate(671.38 2903)">
     <path d="m0 0 21.8 6.716" fill="none" stroke="#3c3c3b" stroke-linecap="round" stroke-linejoin="round" stroke-miterlimit="10" stroke-width=".623"/>
    </g>
    <g transform="translate(672.98 2908.1)">
     <path d="m0 0 21.8 6.716" fill="none" stroke="#3c3c3b" stroke-linecap="round" stroke-linejoin="round" stroke-miterlimit="10" stroke-width=".623"/>
    </g>
    <g clip-path="url(#clipPath382)" opacity=".2">
     <g transform="translate(697.15 2910.9)">
      <path d="m0 0s-19.573-8.758-19.91-8.61 12.152 33.16 0.796 39.783l15.259 4.583s5.938-29.632 3.855-35.756" fill="#6f6f6e"/>
     </g>
    </g>
    <g transform="translate(677.25 2955.6)">
     <path d="m0 0 32.033 9.648s11.616-23.771 3.837-43.683l-31.015-12.788s15.734 34.033-4.855 46.823" fill="#f5f5f5"/>
    </g>
    <g transform="translate(686.09 2951.7)">
     <path d="m0 0 21.8 6.716" fill="#f5f5f5" stroke="#3c3c3b" stroke-linecap="round" stroke-linejoin="round" stroke-miterlimit="10" stroke-width=".623"/>
    </g>
    <g transform="translate(688.6 2947.6)">
     <path d="m0 0 21.8 6.716" fill="#f5f5f5" stroke="#3c3c3b" stroke-linecap="round" stroke-linejoin="round" stroke-miterlimit="10" stroke-width=".623"/>
    </g>
    <g transform="translate(690.66 2942.8)">
     <path d="m0 0 21.8 6.716" fill="#f5f5f5" stroke="#3c3c3b" stroke-linecap="round" stroke-linejoin="round" stroke-miterlimit="10" stroke-width=".623"/>
    </g>
    <g transform="translate(692.09 2938.2)">
     <path d="m0 0 21.8 6.716" fill="#f5f5f5" stroke="#3c3c3b" stroke-linecap="round" stroke-linejoin="round" stroke-miterlimit="10" stroke-width=".623"/>
    </g>
    <g transform="translate(692.65 2932.8)">
     <path d="m0 0 21.8 6.716" fill="#f5f5f5" stroke="#3c3c3b" stroke-linecap="round" stroke-linejoin="round" stroke-miterlimit="10" stroke-width=".623"/>
    </g>
    <g transform="translate(689 2917.5)">
     <path d="m0 0 21.8 6.716" fill="#f5f5f5" stroke="#3c3c3b" stroke-linecap="round" stroke-linejoin="round" stroke-miterlimit="10" stroke-width=".623"/>
    </g>
    <g transform="translate(689.58 2922.2)">
     <path d="m0 0 21.8 6.716" fill="#f5f5f5" stroke="#3c3c3b" stroke-linecap="round" stroke-linejoin="round" stroke-miterlimit="10" stroke-width=".623"/>
    </g>
    <g transform="translate(691.18 2927.3)">
     <path d="m0 0 21.8 6.716" fill="#f5f5f5" stroke="#3c3c3b" stroke-linecap="round" stroke-linejoin="round" stroke-miterlimit="10" stroke-width=".623"/>
    </g>
    <g transform="translate(679.69 2713.3)">
     <path d="m 0,0 -4.571,-1.699 c 0,0 -4.182,9.559 -5.693,14.549 -0.153,0.508 4.589,2.88 5.16,3.031 2.068,0.544 2.066,-1.485 2.455,-3.097 C -1.627,8.553 0,0 0,0" fill="#ba7300"/>
    </g>
    <g transform="translate(672.69 2711.5)">
     <path d="m0 0c-1.157-0.318-2.274-0.763-3.371-1.249-2.058-0.912-4.107-2.017-5.536-3.754-1.431-1.738-2.124-4.24-1.209-6.296 0.07-0.159 0.161-0.326 0.317-0.402 0.191-0.093 0.417-0.028 0.618 0.039 6.393 2.141 12.716 4.49 18.956 7.044 0.323 0.133 0.684 0.306 0.78 0.642 0.063 0.224-0.012 0.461-0.089 0.681-0.507 1.431-1.79 5.779-3.721 5.609-0.783-0.068-1.616-0.831-2.334-1.127-1.41-0.583-2.948-0.784-4.411-1.187" fill="#96e3f9"/>
    </g>
    <g transform="translate(663.54 2702.2)">
     <path d="m0 0c6.849 2.303 11.313 3.494 18.051 6.1" fill="none" stroke="#9d9d9c" stroke-linecap="round" stroke-linejoin="round" stroke-miterlimit="10" stroke-width="1.862"/>
    </g>
    <g transform="translate(816.32 2739.9)">
     <path d="m0 0c0.607-1.917 1.03-3.892 1.262-5.889-5.118 0.626-10.237 1.253-15.355 1.88 0.568 2.231 0.584 7.241 3.683 6.76 3.482-0.541 7.002-1.847 10.41-2.751" fill="#ba7300"/>
    </g>
    <g transform="translate(815.33 2732.7)">
     <path d="m0 0c-0.134-1.192-0.136-2.396-0.092-3.594 0.082-2.249 0.348-4.561 1.43-6.534 1.082-1.974 3.146-3.546 5.395-3.461 0.175 6e-3 0.363 0.028 0.493 0.145 0.157 0.142 0.179 0.377 0.192 0.589 0.388 6.73 0.555 13.474 0.5 20.216-3e-3 0.349-0.03 0.748-0.306 0.962-0.184 0.142-0.432 0.16-0.666 0.17-1.516 0.062-6.03 0.486-6.59-1.371-0.226-0.752 0.172-1.809 0.181-2.585 0.017-1.526-0.367-3.029-0.537-4.537" fill="#96e3f9"/>
    </g>
    <g transform="translate(820.6 2720.7)">
     <path d="m0 0c0.406 7.213 0.567 11.994 0.65 19.218" fill="none" stroke="#9d9d9c" stroke-linecap="round" stroke-linejoin="round" stroke-miterlimit="10" stroke-width="1.862"/>
    </g>
    <g transform="translate(735.92 2838.6)">
     <path d="m0 0c-4.272-1.528-5.313-3.36-9.707-5.17-4.203-1.731-8.353-3.969-12.534-5.945-13.141-6.208-25.645-14.253-37.156-22.97-19.439-14.72-17.85-39.286-14.209-61.442 0.825-5.021 2.814-8.631 4.505-13.428 0.843-2.392 3.111-7.345 3.88-8.403l7.275 0.607c-0.785 6.298-1.34 14.153-1.09 20.624 0.277 7.209 2.088 13.46 3.023 20.365 0.728 5.366-0.672 11.158 3.769 15.126 4.704 4.203 12.963 5.186 18.878 6.566 9.498 2.214 19.43 4.571 28.84 5.975-0.279-15.533 1.051-33.107 11.833-45.005 11.152-12.307 29.166-18.143 45.408-14.2 3.428 0.832 6.833 1.775 10.305 2.411 3.215 0.589 6.554 0.744 9.584 2.082 0 0 2.291 7.336 2.291 7.336-13.629 3.329-28.637 4.641-41.288 11.065-11.085 5.628-7.183 15.977-5.015 26.181 1.459 6.869 5.05 12.192 5.435 19.047 0.309 5.469 1.782 10.761 0.494 16.289-1.934 8.307-35.928 21.118-34.521 22.889" fill="#ffe15a"/>
    </g>
    <g transform="translate(763.96 2908)">
     <path d="m0 0c-3.126 1.005-8.474-1.692-11.573-2.899-4.189-1.631-8.044-2.982-12.497-3.459-0.719-3.395-0.277-7.948-1.043-11.511-1.571-7.299 1.989-3.865 5.909-5.397-2.332-4.888-3.829-10.413-6.054-15.482-2.785-6.346-6.814-12.148-9.214-18.627-1.281-3.46-2.431-7.851-0.631-11.283 0.916-1.745 2.488-2.12 3.472-3.42 0.982-1.296 1.324-3.947 1.689-5.581 1.433-6.427 1.577-17.159 10.317-17.184 4.328-0.012 9.353 1.397 13.633 2.057 2.911 0.45 5.803 0.849 8.645 1.494 2.488 0.563 3.862-0.039 6.154 0.068 8.245 0.388 5.727 15.553 8.492 21.036-0.315 0.082-0.979 0.755-1.19 0.446-4.171 3.32-1.961 8.555-0.139 14.199 1.879 5.819 5.013 11.581 7.202 17.331 2.261 5.942 2.868 10.327-5.619 11.553-2.259 0.326-6.658 1.55-6.494 4.254 0.171 2.821 2.945 6.531 4.597 8.182 2.08 2.076 5.91 4.489 7.265 6.957 1.809 3.298-1.362 5.021-3.131 7.49-3.399-3.892-6.678-7.409-12.069-8.342-1.721-0.298-7.982-0.824-9.37 0.304-1.593 1.293 1.394 5.59 1.192 7.594-0.106-0.271 0.575 0.487 0.457 0.22" fill="#96e3f9"/>
    </g>
    <g transform="translate(776.95 2865.5)">
     <path d="m0 0c6.759-5.727 10.201-14.284 13.532-22.439 3.239-7.927 6.836-17.95 5.628-26.553-0.339-2.412-1.305-5.385-2.867-7.358-0.885-1.117-5.2-4.085-0.845-4.711 1.318 0.883 3.354 1.856 5.02 1.899 2.68-3.883-10.716-10.786-3.835-11.417 6.428-0.589 10.02 4.855 10.505 10.54 0.832 9.761 2.755 20.864 0.774 30.475-2.217 10.762-5.5 20.03-10.364 29.772-1.002 2.008-1.889 5.454-4.06 6.02-2.674 0.697-13.011-3.64-13.488-6.228" fill="#ba7300"/>
    </g>
    <g transform="translate(751.66 2940)">
     <path d="m0 0c-1.64-0.547-4.317 0.672-5.398 1.918-2.987 3.44-1.162 8.325 0.936 11.874 1.284 2.173 3.776 3.646 5.695 5.212 1.634 1.332 4.22 3.575 6.449 3.738 2.072 2.466 7.348 3.557 10.438 4.318 3.248 0.799 6.247 1.842 9.629 1.957 5.639 0.191 11.594-0.147 16.848-2.169 7.094-2.73 14.176-6.962 14.939-15.332 0.574-6.304-0.937-12.284 0.972-18.476 1.614-5.24 3.75-10.083 6.028-15.086 2.964-6.51 6.833-13.397 7.18-20.665 0.338-7.07 1.472-15.641-1.331-22.298-1.906-4.53-4.331-9.719-7.521-13.497-3.365-3.986-7.945-6.74-11.715-10.325-4.328-4.116-8.193-10.328-13.405-13.239-3.265-1.825-8.434-2.007-11.563 0.427-4.648 3.616-0.101 13.189 1.303 17.365 1.49 4.426 3.807 8.498 5.507 12.81 1.322 3.35 3.613 8.291 0.172 10.895-2.918 2.209-11.709 1.817-11.809 6.105-0.134 5.797 6.634 9.43 10.053 12.951 3.181 3.277 3.041 4.454 0.255 7.587-3.094 3.479-2.747 5.902-2.45 10.557 0.215 3.364-1.265 5.423-3.819 7.477-4.29 3.45-8.501 7.265-13.037 10.363-3.414 2.334-6.539 5.932-10.93 5.815-1.287-0.034-2.251 0.11-3.426-0.282" fill="#00569f"/>
    </g>
    <g transform="translate(756.21 2940.7)">
     <path d="m0 0c-0.095 1.687 1.677 3.925 3.23 4.655 1.499 0.705 3.262 0.282 4.855 0.378 3.779 0.228 6.198 0.866 8.857 3.635 2.322 2.417 4.239 3.98 7.313 2.033 4.541-2.875 2.703-7.333 2.832-11.83 0.04-1.424 0.105-3.525 0.532-4.878 0.382-1.213 1.354-1.802 1.902-2.797 2.342-4.252-1.876-9.824-4.66-12.78-4.418-4.69-10.594-8.47-17.185-6.055-2.891 1.058-4.015 3.992-5.033 6.636-1.113 2.891-2.939 5.735-3.227 8.864-0.188 2.043 0.25 4.016 0.514 6.027 0.186 1.425-0.184 2.503-0.234 3.882-0.025 0.709-0.071 1.234 0.304 2.23" fill="#ba7300"/>
    </g>
    <g transform="translate(786.28 2927.7)">
     <path d="m0 0c1.403 3.185 6.277 6.829 5.275 10.846-0.479 1.924-2.196 2.383-3.625 1.011-1.369-1.314-1.543-4.159-2.531-5.691-1.263-1.957-1.828-3.812 0.881-6.166" fill="#ba7300"/>
    </g>
    <g transform="translate(765.55 2915.5)">
     <path d="m0 0c-0.946-1.448-0.699-4.691-1.206-6.685-0.708-2.789-2.166-5.72-2.039-8.684 6.019-3.947 12.067-0.351 17.049 4.014 2.953 2.587 4.853 3.938 5.429 7.766 0.647 4.299 0.318 8.695 0.674 13.038-3.26 0.597-9.306-4.266-12.341-5.894-1.986-1.066-4.872-3.538-7.566-3.555" fill="#ba7300"/>
    </g>
    <g transform="translate(705.77 2934.6)">
     <path d="m0 0c-0.376-0.174-0.738-0.356-1.085-0.542-0.404-0.218-0.781-0.434-0.976-0.871-0.151-0.34-0.136-0.732 0.283-0.844 0.275-0.075 0.566-0.034 0.849 2e-3 2.866 0.36 5.827 0.162 8.636-0.503 0.182-0.044 0.371-0.093 0.514-0.214 0.299-0.256 0.281-0.722 0.179-1.102-0.335-1.253-1.277-2.153-2.438-2.664-1.119-0.492-2.563-0.797-3.42-1.727-0.162-0.175-0.315-0.368-0.38-0.597-0.155-0.558 0.276-1.129 0.789-1.397 1.638-0.854 4.697 0.768 6.439 0.152 1.654-0.586 2.271-2.55 2.738-4.242 1.072-3.89 2.508-7.669 4.036-11.4 0.73-1.781 1.479-3.561 2.283-5.3 0.77-1.662 1.293-3.443 2.061-5.113 1.033-2.248 2.29-4.417 3.979-6.239 1.258-1.355 2.732-2.492 4.284-3.487 0.799-0.512 1.621-0.988 2.453-1.443 0.663-0.362 1.412-0.929 2.181-0.972 1.097-0.061 1.253 10.698 1.202 12.996-5e-3 0.255-0.014 0.513-0.094 0.755-0.133 0.401-0.445 0.714-0.741 1.016-0.912 0.928-1.777 1.904-2.59 2.921-2.148 2.684-3.922 5.643-5.69 8.591-3.617 6.032-7.234 12.064-10.85 18.097-1.072 1.786-2.214 3.645-4.006 4.707-3.152 1.866-7.386 0.926-10.636-0.58" fill="#ba7300"/>
    </g>
    <g transform="translate(761.55 2935.2)">
     <path d="m0 0c-0.148-2.267-0.548-4.474-1.203-6.649-0.172-0.57 1.627-0.324 1.8 0.249 0.656 2.174 1.055 4.382 1.204 6.649 0.044 0.672-1.764 0.307-1.801-0.249" fill="#7c3800"/>
    </g>
    <g transform="translate(761.46 2928.1)">
     <path d="m0 0c1.53 0.28 2.967 0.824 4.278 1.662 0.308 0.197 0.203 0.397-0.118 0.44-0.412 0.055-0.932-0.122-1.276-0.342-0.792-0.507-1.639-0.862-2.565-1.031-0.248-0.046-1-0.193-1.052-0.516-0.054-0.329 0.564-0.244 0.733-0.213" fill="#7c3800"/>
    </g>
    <g transform="translate(739.15 2856.7)">
     <path d="m0 0c-3.39-9.347-5.116-18.974-5.185-28.917-0.01-1.665 3.623-0.985 3.632 0.38 0.069 9.943 1.795 19.57 5.185 28.917 0.5 1.378-3.148 0.953-3.632-0.38" fill="#00569f"/>
    </g>
    <g transform="translate(736.25 2823.5)">
     <path d="m0 0c0.319-1.878 1.08-3.628 2.201-5.167 0.913-1.255 4.371 0.107 3.317 1.557-1.008 1.384-1.619 2.891-1.906 4.578-0.268 1.581-3.891 0.679-3.612-0.968" fill="#00569f"/>
    </g>
    <g transform="translate(742.66 2816.7)">
     <path d="m0 0c1.079-1.522 3.096-1.041 4.703-0.772 3.707 0.619 7.402 1.324 11.103 1.986 1.371 0.245 3.269 1.626 0.716 1.169-1.938-0.347-3.877-0.694-5.816-1.041-1.402-0.251-6.148-1.706-7.094-0.374-0.572 0.808-3.813-0.685-3.612-0.968" fill="#00569f"/>
    </g>
    <g transform="translate(767.28 2818.6)">
     <path d="m0 0c1.008 0.274 2.016 0.548 3.023 0.823 0.33 0.089 1.773 0.45 1.675 0.975-0.091 0.489-1.752 0.059-1.938 8e-3 -1.008-0.274-2.016-0.548-3.024-0.823-0.328-0.089-1.771-0.45-1.673-0.975 0.09-0.489 1.751-0.059 1.937-8e-3" fill="#00569f"/>
    </g>
    <g transform="translate(739.82 2884.3)">
     <path d="M 0,0 C 2.43,-0.421 4.876,-0.094 7.154,0.831 7.616,1.019 8.622,1.578 8.143,2.188 7.687,2.768 6.279,2.38 5.766,2.171 4.608,1.701 3.467,1.643 2.24,1.855 1.42,1.998 0.311,1.74 -0.314,1.171 -0.85,0.682 -0.767,0.133 0,0" fill="#00569f"/>
    </g>
    <g transform="translate(740.41 2894.8)">
     <path d="m0 0c-0.108-1.682-0.216-3.363-0.323-5.044-0.103-1.599 3.541-0.941 3.627 0.398 0.107 1.682 0.215 3.363 0.323 5.044 0.102 1.599-3.541 0.941-3.627-0.398" fill="#00569f"/>
    </g>
    <g transform="translate(746.35 2899.1)">
     <path d="m0 0c1.896 0.425 3.717 1.135 5.386 2.13 0.622 0.371 1.392 1.053 0.862 1.829-0.471 0.689-1.819 0.627-2.448 0.251-1.406-0.838-2.852-1.428-4.449-1.786-0.714-0.16-1.691-0.852-1.482-1.696 0.22-0.886 1.456-0.879 2.131-0.728" fill="#00569f"/>
    </g>
    <g transform="translate(777.39 2898.2)">
     <path d="m0 0c1.972 1.898 4.006 3.729 6.115 5.473 0.537 0.444 0.463 0.813-0.246 0.917-0.749 0.111-1.961-0.193-2.554-0.684-2.276-1.882-4.482-3.839-6.609-5.888-0.608-0.585 0.53-0.723 0.886-0.713 0.808 0.024 1.811 0.32 2.408 0.895" fill="#00569f"/>
    </g>
    <g transform="translate(778.41 2865.6)">
     <path d="m0 0c3.378 3.267 7.544 5.102 12.227 5.424 1.964 0.136 2.848 2.628 0.371 2.457-5.927-0.407-11.319-2.826-15.584-6.952-1.59-1.537 1.917-1.963 2.986-0.929" fill="#00569f"/>
    </g>
    <g transform="translate(747.03 2950.1)">
     <path d="m0 0c-2.005-3.062-0.76-7.191 2.717-8.477 3.924-1.451 7.28 0.896 9.564 3.916 1.372 1.815-2.042 2.289-3.009 1.01-1.241-1.641-2.788-3.67-5.001-2.259-1.895 1.208-1.958 3.709-0.828 5.436 0.503 0.768-0.441 1.378-1.087 1.466-0.923 0.127-1.857-0.33-2.356-1.092" fill="#a1daf8"/>
    </g>
    <g transform="translate(759.91 2948.8)">
     <path d="m0 0c7.224-5.76 15.59 4.297 18.265 10.142 0.385 0.842-3.11 0.501-3.588-0.543-1.626-3.555-6.575-12.041-11.298-8.276-0.876 0.698-4.157-0.703-3.379-1.323" fill="#a1daf8"/>
    </g>
    <g transform="translate(777.69 2954.2)">
     <path d="m0 0c6.218-1.205 7.539-7.106 8.223-12.527 0.173-1.375 3.801-0.534 3.612 0.967-0.787 6.239-2.735 12.355-9.671 13.699-1.298 0.251-4.266-1.732-2.164-2.139" fill="#a1daf8"/>
    </g>
    <g transform="translate(787.27 2925.8)">
     <path d="m0 0c1.626-7.166 8.284-11.33 7.697-19.359-0.529-7.239-6.837-10.185-9.795-16.113-0.844-1.694 2.789-1.485 3.409-0.243 3.125 6.263 9.43 9.068 10.022 16.722 0.654 8.451-6.014 12.437-7.721 19.961-0.33 1.456-3.951 0.527-3.612-0.968" fill="#a1daf8"/>
    </g>
    <g transform="translate(780.03 2887)">
     <path d="m0 0c-0.046-0.104-0.092-0.208-0.137-0.312-0.723-1.648 2.876-1.278 3.379-0.132 0.045 0.104 0.091 0.207 0.137 0.311 0.723 1.649-2.876 1.279-3.379 0.133" fill="#a1daf8"/>
    </g>
    <g transform="translate(782.25 2842.7)">
     <path d="m0 0c2.339-4.295 9.067-1.193 11.992 0.695 5.839 3.769 9.076 10.088 12.049 16.14 0.907 1.846-2.743 1.883-3.458 0.428-1.691-3.443-3.373-6.931-5.737-9.975-1.299-1.672-9.265-9.869-11.541-5.689-0.78 1.432-4.22 0.081-3.305-1.599" fill="#a1daf8"/>
    </g>
    <g transform="translate(805.21 2958.8)">
     <path d="m0 0c-0.059 0.149-0.116 0.298-0.175 0.448-0.295 0.757-1.433 0.707-2.075 0.518-0.491-0.145-1.835-0.722-1.537-1.486 0.058-0.149 0.116-0.299 0.175-0.448 0.295-0.757 1.432-0.707 2.074-0.518 0.492 0.145 1.836 0.722 1.538 1.486" fill="#a1daf8"/>
    </g>
    <g transform="translate(803.91 2954.1)">
     <path d="m0 0c-0.045-0.104-0.091-0.208-0.137-0.311-0.735-1.677 2.869-1.34 3.387-0.162 0.046 0.104 0.091 0.207 0.137 0.311 0.735 1.677-2.869 1.341-3.387 0.162" fill="#a1daf8"/>
    </g>
    <g transform="translate(805.67 2949)">
     <path d="m0 0c-0.046-0.104-0.091-0.208-0.137-0.312-0.344-0.784 0.317-1.38 1.08-1.439 0.806-0.062 1.995 0.258 2.359 1.085 0.045 0.104 0.091 0.208 0.136 0.312 0.344 0.784-0.316 1.38-1.081 1.439-0.804 0.062-1.995-0.258-2.357-1.085" fill="#a1daf8"/>
    </g>
    <g transform="translate(809.9 2942.3)">
     <path d="m0 0c-0.961 0.687-2.469 0.574-3.337-0.233-0.559-0.519-0.952-1.45-0.162-1.988 0.722-0.492 1.946-0.421 2.599 0.186l-1.861-0.139c0.736-0.526 1.926-0.391 2.599 0.187 0.597 0.512 0.929 1.439 0.162 1.987" fill="#a1daf8"/>
    </g>
    <g transform="translate(781.95 2848.3)">
     <path d="m0 0c-0.045-0.104-0.091-0.208-0.137-0.311-0.762-1.74 2.855-1.486 3.406-0.23 0.045 0.104 0.09 0.208 0.136 0.311 0.764 1.74-2.853 1.486-3.405 0.23" fill="#a1daf8"/>
    </g>
    <g transform="translate(784.6 2852)">
     <path d="M 0,0 C 2.034,0 2.797,2.57 0.34,2.57 -1.695,2.57 -2.457,0 0,0" fill="#a1daf8"/>
    </g>
    <g transform="translate(788.29 2858.4)">
     <path d="m0 0c0.046 0.104 0.091 0.208 0.137 0.312 0.246 0.56-1.234 0.319-1.428 0.281-0.471-0.094-0.94-0.224-1.378-0.424-0.239-0.109-0.638-0.268-0.75-0.523-0.045-0.104-0.091-0.208-0.137-0.312-0.245-0.56 1.234-0.319 1.428-0.281 0.472 0.093 0.941 0.223 1.378 0.424 0.24 0.109 0.638 0.268 0.75 0.523" fill="#a1daf8"/>
    </g>
    <g transform="translate(777.16 2824.2)">
     <path d="m0 0c-0.104 0.045-0.208 0.091-0.312 0.136-0.671 0.295-1.666-8e-3 -2.315-0.247-0.136-0.05-1.621-0.721-1.098-0.951 0.105-0.045 0.208-0.091 0.312-0.136 0.672-0.295 1.666 8e-3 2.315 0.247 0.136 0.05 1.621 0.721 1.098 0.951" fill="#00569f"/>
    </g>
    <g transform="translate(778.41 2828.1)">
     <path d="m0 0c0.045 0.104 0.091 0.208 0.137 0.311 0.118 0.27-0.169 0.543-0.368 0.645-0.332 0.169-0.836 0.176-1.191 0.124-0.795-0.117-1.709-0.44-2.054-1.224-0.045-0.104-0.09-0.208-0.136-0.311-0.118-0.27 0.169-0.543 0.368-0.645 0.332-0.169 0.836-0.176 1.19-0.124 0.795 0.117 1.709 0.44 2.054 1.224" fill="#00569f"/>
    </g>
    <g transform="translate(778.98 2832.2)">
     <path d="m0 0c-0.059 0.149-0.117 0.299-0.175 0.448-0.198 0.509-1.595 0.118-1.941 0.021-0.242-0.069-1.857-0.515-1.671-0.989 0.058-0.149 0.116-0.298 0.174-0.448 0.199-0.509 1.594-0.118 1.942-0.02 0.241 0.068 1.856 0.514 1.671 0.988" fill="#00569f"/>
    </g>
    <g transform="translate(732.15 2844.3)">
     <path d="m0 0c-0.104 0.046-0.208 0.091-0.312 0.137-0.666 0.292-1.669-0.022-2.312-0.257-0.136-0.05-1.614-0.71-1.103-0.934 0.105-0.046 0.208-0.092 0.312-0.137 0.666-0.292 1.67 0.022 2.312 0.257 0.137 0.05 1.615 0.709 1.103 0.934" fill="#00569f"/>
    </g>
    <g transform="translate(732.24 2838.2)">
     <path d="M 0,0 C 1.316,0 3.85,1.983 1.423,1.983 0.105,1.983 -2.427,0 0,0" fill="#00569f"/>
    </g>
    <g transform="translate(729.44 2848.7)">
     <path d="m0 0c-0.045-0.104-0.091-0.208-0.137-0.311-0.12-0.274 0.177-0.571 0.378-0.68 0.331-0.178 0.837-0.195 1.196-0.145 0.825 0.116 1.694 0.456 2.044 1.256 0.046 0.104 0.092 0.207 0.137 0.311 0.121 0.275-0.176 0.571-0.377 0.679-0.331 0.179-0.837 0.196-1.196 0.145-0.824-0.115-1.693-0.455-2.045-1.255" fill="#00569f"/>
    </g>
    <g transform="translate(737.34 2858.8)">
     <path d="M 0,0 C 4.187,10.428 8.151,20.939 11.894,31.535 12.323,32.751 8.711,32.304 8.28,31.086 4.538,20.49 0.573,9.979 -3.613,-0.449 -4.08,-1.611 -0.482,-1.201 0,0" fill="#00569f"/>
    </g>
    <g transform="translate(762.65 2905.8)">
     <path d="m0 0c-0.059 0.149-0.116 0.298-0.175 0.448-0.314 0.807-1.384 0.906-2.12 0.686-0.581-0.174-1.815-0.826-1.492-1.654 0.058-0.149 0.116-0.299 0.175-0.448 0.314-0.807 1.383-0.907 2.12-0.687 0.581 0.174 1.815 0.826 1.492 1.655" fill="#00569f"/>
    </g>
    <g transform="translate(757.68 2902)">
     <path d="m0 0c-0.046-0.104-0.092-0.208-0.137-0.312-0.116-0.265 0.162-0.519 0.361-0.615 0.332-0.162 0.835-0.16 1.185-0.108 0.771 0.117 1.723 0.428 2.061 1.199 0.045 0.103 0.091 0.207 0.136 0.311 0.117 0.265-0.162 0.52-0.36 0.616-0.333 0.161-0.835 0.16-1.185 0.107-0.771-0.116-1.723-0.427-2.061-1.198" fill="#00569f"/>
    </g>
    <g transform="translate(768.84 2879)">
     <path d="m0 0c2.019-4.022 3.792-8.141 5.326-12.371 0.469-1.292 4.054-0.249 3.612 0.968-1.534 4.23-3.307 8.349-5.325 12.371-0.634 1.261-4.156 0.115-3.613-0.968" fill="#00569f"/>
    </g>
    <g transform="translate(731.49 2802.1)">
     <path d="m0 0c-0.348-8.485 0.387-16.801 2.233-25.094 0.373-1.677 3.993-0.738 3.613 0.969-1.793 8.053-2.524 16.15-2.185 24.396 0.077 1.886-3.594 1.372-3.661-0.271" fill="#fdba00"/>
    </g>
    <g transform="translate(707.68 2788.6)">
     <path d="m0 0c-0.051-0.04-0.102-0.081-0.153-0.121-0.197-0.155-0.442-0.495-0.36-0.772 0.022-0.074 0.043-0.147 0.065-0.22 0.131-0.442 0.723-0.518 1.101-0.531 3.2-0.11 6.957 1.656 9.99 2.583 3.952 1.209 7.872 2.513 11.774 3.873 2.383 0.831 0.212 2.032-1.421 1.463-3.354-1.17-6.725-2.285-10.121-3.333-2.408-0.743-6.298-2.644-8.812-2.557 0.368-0.177 0.735-0.354 1.101-0.531-0.09-0.143-0.181-0.287-0.271-0.431 1.602 1.266-1.987 1.293-2.893 0.577" fill="#fdba00"/>
    </g>
    <g transform="translate(701.9 2787.1)">
     <path d="m0 0c-7e-3 -0.025-0.014-0.05-0.021-0.075 0.107 0.22 0.214 0.439 0.321 0.658-0.014-0.016-0.029-0.032-0.043-0.048 0.238 0.174 0.475 0.349 0.714 0.524-0.02-8e-3 -0.04-0.017-0.06-0.026l0.96 0.258c0.72 0.109 1.142-0.17 1.267-0.839-0.108-0.22-0.214-0.439-0.322-0.659 0.015 0.022 0.03 0.043 0.045 0.064 0.208 0.3 0.403 0.612 0.3 0.997-0.093 0.344-0.432 0.614-0.759 0.714-0.781 0.242-2.046 0.045-2.554-0.684-0.305-0.438-0.511-0.832-0.262-1.341 0.184-0.375 0.534-0.608 0.924-0.738 1.237-0.411 2.779 0.207 3.146 1.485 0.094 0.327-0.188 0.715-0.431 0.884-0.329 0.227-0.842 0.308-1.229 0.266-0.896-0.096-1.737-0.54-1.996-1.44" fill="#fdba00"/>
    </g>
    <g transform="translate(696.91 2786.9)">
     <path d="m0 0c0.065 0.041 0.13 0.081 0.194 0.122 0.321 0.086 0.641 0.171 0.96 0.257 0.31 0.03 0.588-0.044 0.833-0.222-0.587 0.626-1.718 0.522-2.426 0.172-0.504-0.249-1.514-1.035-0.901-1.688 0.96-1.023 2.609-0.737 3.672-0.048 0.586 0.38 0.967 1.223 0.245 1.675-0.758 0.475-1.886 0.179-2.577-0.268" fill="#fdba00"/>
    </g>
    <g transform="translate(690.86 2783.8)">
     <path d="m0 0 0.088 0.145c0.195 0.138 0.39 0.275 0.584 0.413-0.029-0.013-0.059-0.026-0.088-0.039 0.739 0.161 1.478 0.321 2.217 0.482l-0.094 0.015c0.181-0.057 0.362-0.114 0.543-0.17-0.016-0.076-0.031-0.152-0.048-0.228-0.332-0.199-0.665-0.397-0.997-0.596 0.03 0.011 0.06 0.021 0.09 0.032 0.326 0.117 1.541 0.661 1.041 1.159-0.488 0.488-1.842 0.051-2.347-0.129-0.448-0.16-1.189-0.462-1.307-1.009-0.105-0.483 0.371-0.65 0.77-0.695 0.782-0.088 1.659 0.148 2.352 0.514 0.367 0.194 0.951 0.569 0.809 1.074-0.175 0.619-1.59 0.297-1.985 0.183-0.367-0.104-1.803-0.527-1.628-1.151" fill="#fdba00"/>
    </g>
    <g transform="translate(685.61 2782.9)">
     <path d="m0 0-0.082-0.261c-0.251-0.8 1.112-0.924 1.582-0.86 0.765 0.105 1.782 0.456 2.04 1.276l0.082 0.261c0.251 0.799-1.113 0.924-1.583 0.859-0.765-0.104-1.782-0.455-2.039-1.275" fill="#fdba00"/>
    </g>
    <g transform="translate(680.53 2780.3)">
     <path d="m0 0c-2.191-1.856-3.508-4.339-3.855-7.183-0.057-0.459 3.476-0.137 3.612 0.968 0.311 2.549 1.561 4.821 3.515 6.477 0.639 0.541-0.563 0.62-0.856 0.604-0.814-0.046-1.782-0.329-2.416-0.866" fill="#fdba00"/>
    </g>
    <g transform="translate(675.78 2764.4)">
     <path d="m0 0c3e-3 -0.025 5e-3 -0.051 8e-3 -0.077 0.047 0.157 0.093 0.314 0.138 0.471-0.013-0.021-0.027-0.042-0.041-0.063 0.191 0.153 0.381 0.307 0.572 0.461-0.024-0.015-0.047-0.029-0.071-0.043 0.456 0.15 0.914 0.302 1.371 0.453-0.028-5e-3 -0.055-0.01-0.082-0.015 0.392-0.027 0.786-0.053 1.178-0.08 0.038-0.02 0.077-0.04 0.115-0.06-0.165 0.229-0.734 0.257-0.959 0.257-0.458 0-0.992-0.111-1.413-0.292-0.469-0.203-1.449-0.699-0.997-1.324 0.448-0.62 1.765-0.3 2.335-0.11 0.6 0.199 1.543 0.625 1.458 1.39-0.03 0.271-0.492 0.392-0.68 0.425-0.42 0.073-0.938 9e-3 -1.341-0.107-0.54-0.157-1.674-0.542-1.591-1.286" fill="#fdba00"/>
    </g>
    <g transform="translate(667.36 2774.9)">
     <path d="m0 0c0.525 17.864 19.498 33.37 34.505 39.838 2.17 0.936-1.231 0.778-2.067 0.418-8.661-3.734-16.53-9.036-23.009-15.92-6.462-6.864-12.755-15.569-13.041-25.304-0.015-0.49 3.582-0.049 3.612 0.968" fill="#fdba00"/>
    </g>
    <g transform="translate(709.9 2819.5)">
     <path d="m0 0c0.037 0.084 0.073 0.167 0.11 0.251 0.12 0.273-0.173 0.562-0.374 0.668-0.332 0.176-0.837 0.189-1.194 0.139-0.814-0.117-1.699-0.451-2.048-1.245-0.036-0.084-0.073-0.168-0.11-0.252-0.119-0.273 0.174-0.561 0.374-0.668 0.332-0.175 0.837-0.189 1.194-0.138 0.815 0.116 1.699 0.451 2.048 1.245" fill="#fdba00"/>
    </g>
    <g transform="translate(714.24 2821.7)">
     <path d="m0 0c0.073 0.168 0.147 0.335 0.221 0.503 0.351 0.801-0.327 1.475-1.111 1.552-0.845 0.083-1.977-0.265-2.349-1.115-0.074-0.168-0.148-0.335-0.221-0.503-0.352-0.801 0.327-1.475 1.109-1.551 0.847-0.083 1.978 0.264 2.351 1.114" fill="#fdba00"/>
    </g>
    <g transform="translate(717.21 2824.3)">
     <path d="m0 0c-8e-3 0.027-0.015 0.053-0.022 0.08 0.122 0.162 0.245 0.324 0.367 0.487-0.023-0.018-0.046-0.035-0.069-0.053 0.247 0.142 0.494 0.283 0.741 0.425-0.03-0.011-0.06-0.021-0.089-0.031 0.471 0.096 0.943 0.193 1.414 0.29 0.07-4e-3 0.14-9e-3 0.212-0.013 0.186-0.079 0.374-0.159 0.561-0.238-0.054 0.04-0.043 0.136-0.014 0.272 0.25 1.242-3.37 0.653-3.601-0.496-0.062-0.305-0.094-0.609 0.05-0.889 0.24-0.466 0.823-0.546 1.301-0.546 0.871 1e-3 2.873 0.472 2.761 1.68-0.024 0.274-0.496 0.405-0.684 0.439-0.418 0.077-0.939 0.015-1.342-0.101-0.565-0.164-1.655-0.548-1.586-1.306" fill="#fdba00"/>
    </g>
    <g transform="translate(726.34 2827.9)">
     <path d="m0 0-0.141 0.362c-0.258 0.663-1.507 0.431-2.012 0.286-0.369-0.106-1.854-0.603-1.601-1.254 0.048-0.121 0.095-0.241 0.142-0.362 0.258-0.663 1.508-0.431 2.012-0.286 0.37 0.107 1.854 0.604 1.6 1.254" fill="#fdba00"/>
    </g>
    <g transform="translate(731.4 2831.7)">
     <path d="m0 0c-0.121-0.047-0.241-0.094-0.362-0.141-0.431-0.169-1.519-0.815-0.98-1.391 0.533-0.571 1.792-0.233 2.383-3e-3 0.12 0.047 0.241 0.094 0.361 0.141 0.432 0.168 1.519 0.814 0.98 1.391-0.533 0.571-1.792 0.233-2.382 3e-3" fill="#fdba00"/>
    </g>
    <g transform="translate(661.89 2755.5)">
     <path d="m0 0c1.463-8.526 3.604-16.849 6.437-25.023 0.485-1.401 4.08-0.382 3.612 0.968-2.833 8.174-4.974 16.496-6.437 25.023-0.238 1.388-3.866 0.508-3.612-0.968" fill="#fdba00"/>
    </g>
    <g transform="translate(670.6 2727.1)">
     <path d="m0 0c-0.154-1.172-0.25-2.718 1.163-3.121 0.922-0.262 2.009-0.058 2.887 0.266 0.62 0.229 1.55 0.612 1.7 1.352 0.131 0.642-1.122 0.45-1.456 0.387-0.472-0.088-0.943-0.219-1.375-0.432-0.219-0.107-0.683-0.313-0.736-0.575-9e-3 -0.043-0.081-0.363-0.073-0.228 0.689 0.214 1.377 0.429 2.066 0.643 0.137-0.029 0.137-0.028-2e-3 2e-3 -0.135 0.069-0.288 0.153-0.408 0.347-0.353 0.57-0.282 1.347-0.199 1.979 0.084 0.643-1.086 0.457-1.456 0.387-0.472-0.088-0.943-0.219-1.376-0.432-0.206-0.101-0.702-0.321-0.735-0.575" fill="#fdba00"/>
    </g>
    <g transform="translate(793.57 2742.5)">
     <path d="m0 0c0.682-1.187 3.269-0.851 4.396-0.95 2.553-0.224 5.106-0.448 7.659-0.673 0.757-0.066 4.106 1.275 2.355 1.429-1.802 0.158-3.603 0.316-5.406 0.474-0.786 0.07-4.96-0.063-5.391 0.688-0.49 0.854-3.882-0.499-3.613-0.968" fill="#fdba00"/>
    </g>
    <g transform="translate(805.51 2740.6)">
     <path d="m0 0c-0.504-1.039-0.805-2.154-0.83-3.31-0.019-0.856 0.907-1.149 1.638-1.065 0.659 0.077 1.989 0.523 2.008 1.393 0.021 0.94 0.201 1.819 0.612 2.667 0.381 0.784-0.343 1.315-1.067 1.386-0.806 0.08-1.976-0.278-2.361-1.071" fill="#fdba00"/>
    </g>
    <g transform="translate(765.82 2805.7)">
     <path d="m0 0c0.189-6.149-2.987-11.737-5.255-17.293-1.888-4.625-3.665-9.416-4.225-14.412-0.876-7.788 1.386-15.803 7.871-20.568 1.207-0.887 4.42 0.821 2.804 2.007-7.471 5.492-8.272 15.481-6.078 23.839 2.314 8.81 8.819 17.437 8.531 26.743-0.055 1.81-3.695 1.194-3.648-0.316" fill="#fdba00"/>
    </g>
    <g transform="translate(769.83 2750.8)">
     <path d="M 0,0 C 0.002,0.022 0.004,0.045 0.006,0.068 0.187,0.254 0.369,0.441 0.551,0.627 0.609,0.658 0.668,0.688 0.728,0.719 1.047,0.804 1.367,0.89 1.687,0.976 1.644,0.974 1.6,0.972 1.556,0.97 0.83,0.937 -0.34,0.442 -0.465,-0.376 -0.601,-1.26 0.556,-1.387 1.15,-1.36 2.195,-1.312 3.357,-0.702 3.637,0.362 3.855,1.196 2.568,1.414 2.021,1.346 1.228,1.247 0.225,0.858 0,0" fill="#fdba00"/>
    </g>
    <g transform="translate(645.99 2893.4)">
     <path d="m0 0c-2.17-0.56-0.468 6.212-0.217 6.931 0.957 2.74 2.42 5.286 3.972 7.726 2.339 3.678 4.943 7.193 7.745 10.53 5.841 6.959 12.616 13.128 20.046 18.353 7.493 5.269 15.707 9.566 24.323 12.677 4.288 1.548 9.893 3.887 14.528 4.054 0.984 0.035 4.004 0.027 4.149-1.525 0.066-0.714-1.64-2.031-2.04-2.509-0.937-1.118-1.663-1.962-2.123-3.356-0.367-1.114 3.222-0.648 3.6 0.496 0.828 2.509 6.856 6.208 2.836 8.745-3.141 1.982-9.974-0.83-13.094-1.661-11.913-3.173-23.264-8.408-33.454-15.343-9.917-6.749-18.756-15.109-25.913-24.746-2.211-2.978-16.393-25.234-3.917-22.016 2.153 0.555 1.728 2.203-0.441 1.644" fill="#ee6900"/>
    </g>
    <g transform="translate(621.48 2883.8)">
     <path d="m0 0c-0.031 0.246-0.062 0.491-0.095 0.736 3e-3 0.029 7e-3 0.057 7e-3 0.086 8e-3 0.302-2e-3 0.605 0.024 0.906 0.074 0.884 0.345 1.708 0.791 2.476 0.414 0.714 0.949 1.32 1.608 1.819 0.733 0.555 1.55 0.921 2.448 1.106 0.734 0.151 1.47 0.165 2.21 0.047 0.817-0.132 1.574-0.42 2.273-0.859 0.624-0.393 1.161-0.883 1.608-1.472 0.485-0.64 0.835-1.345 1.037-2.122 0.037-0.14 0.075-0.282 0.112-0.422 0.033-0.246 0.064-0.491 0.096-0.736-3e-3 -0.025-8e-3 -0.051-7e-3 -0.076 0.026-0.509-5e-3 -1.013-0.102-1.513-0.093-0.47-0.238-0.924-0.437-1.36-0.197-0.43-0.443-0.829-0.731-1.205-0.389-0.508-0.848-0.939-1.372-1.303-0.412-0.286-0.857-0.515-1.328-0.688-0.192-0.07-0.388-0.126-0.59-0.19-0.195 1.506-0.387 2.995-0.58 4.494 0.694 0.09 1.383 0.179 2.077 0.269-2e-3 0.518-5e-3 1.026-7e-3 1.548-0.765-0.099-1.515-0.195-2.272-0.293-0.033 0.246-0.064 0.481-0.093 0.715-0.058 0.474 0.223 0.836 0.696 0.898 0.458 0.06 0.916 0.118 1.374 0.178 0.034 4e-3 0.067 0.011 0.1 0.017-0.066 0.508-0.129 1.004-0.194 1.505-0.03-1e-3 -0.055 1e-3 -0.081-2e-3 -0.461-0.059-0.923-0.118-1.384-0.18-0.513-0.068-0.967-0.264-1.342-0.629-0.429-0.417-0.681-0.924-0.696-1.521-9e-3 -0.351 0.057-0.705 0.09-1.057 3e-3 -0.038 9e-3 -0.075 0.016-0.121-0.386-0.05-0.759-0.098-1.135-0.147 0.066-0.51 0.131-1.011 0.197-1.524 0.378 0.049 0.751 0.098 1.128 0.146 0.194-1.499 0.386-2.988 0.58-4.49-0.172 6e-3 -0.338 7e-3 -0.502 0.02-0.765 0.061-1.495 0.26-2.186 0.596-0.567 0.277-1.077 0.639-1.537 1.071-0.444 0.417-0.813 0.893-1.111 1.423-0.214 0.38-0.392 0.777-0.511 1.198-0.062 0.218-0.119 0.437-0.179 0.656" fill="#fff"/>
    </g>
    <g transform="translate(670.55 2961.1)">
     <path d="m0 0c-0.081 0.234-0.161 0.467-0.242 0.701-4e-3 0.028-6e-3 0.058-0.011 0.086-0.055 0.297-0.126 0.592-0.162 0.891-0.108 0.881-0.011 1.743 0.269 2.585 0.259 0.784 0.661 1.487 1.204 2.11 0.604 0.692 1.329 1.217 2.171 1.582 0.687 0.297 1.405 0.462 2.154 0.496 0.826 0.038 1.626-0.089 2.399-0.377 0.692-0.257 1.318-0.628 1.875-1.114 0.606-0.526 1.092-1.145 1.448-1.864 0.066-0.131 0.131-0.261 0.197-0.391 0.081-0.234 0.162-0.468 0.243-0.701 3e-3 -0.025 3e-3 -0.051 9e-3 -0.076 0.129-0.492 0.202-0.992 0.208-1.502 6e-3 -0.48-0.043-0.953-0.15-1.421-0.105-0.461-0.264-0.901-0.469-1.328-0.278-0.577-0.64-1.093-1.079-1.555-0.345-0.365-0.733-0.68-1.16-0.945-0.173-0.108-0.353-0.202-0.538-0.306-0.498 1.435-0.989 2.853-1.484 4.281 0.661 0.229 1.317 0.457 1.978 0.686-0.108 0.507-0.214 1.004-0.323 1.515-0.728-0.253-1.442-0.5-2.165-0.751-0.081 0.234-0.16 0.458-0.236 0.682-0.154 0.451 0.049 0.864 0.499 1.021 0.436 0.152 0.873 0.302 1.308 0.454 0.033 0.011 0.064 0.025 0.095 0.037-0.168 0.484-0.332 0.956-0.497 1.433-0.029-6e-3 -0.055-0.01-0.078-0.018-0.441-0.152-0.88-0.303-1.319-0.458-0.489-0.171-0.894-0.456-1.186-0.89-0.334-0.496-0.478-1.044-0.371-1.63 0.062-0.346 0.2-0.678 0.304-1.017 0.011-0.036 0.024-0.071 0.04-0.115-0.368-0.128-0.722-0.251-1.08-0.375 0.169-0.487 0.334-0.964 0.503-1.452 0.36 0.125 0.715 0.248 1.075 0.373 0.495-1.428 0.987-2.847 1.483-4.278-0.17-0.029-0.332-0.062-0.495-0.082-0.763-0.097-1.518-0.051-2.262 0.138-0.612 0.155-1.185 0.404-1.723 0.734-0.52 0.318-0.978 0.709-1.378 1.167-0.287 0.328-0.542 0.681-0.745 1.069-0.105 0.2-0.205 0.403-0.309 0.605" fill="#fff"/>
    </g>
    <g transform="translate(633.27 2929.8)">
     <path d="m0 0c-0.073 0.236-0.146 0.472-0.22 0.708-3e-3 0.029-4e-3 0.059-8e-3 0.087-0.044 0.299-0.105 0.596-0.131 0.896-0.079 0.884 0.047 1.742 0.354 2.575 0.286 0.775 0.71 1.463 1.274 2.067 0.627 0.672 1.37 1.173 2.222 1.509 0.697 0.274 1.42 0.415 2.17 0.425 0.827 0.01 1.622-0.144 2.386-0.457 0.682-0.28 1.295-0.672 1.837-1.176 0.587-0.547 1.052-1.181 1.385-1.912 0.06-0.133 0.122-0.265 0.183-0.397 0.073-0.237 0.146-0.473 0.219-0.709 2e-3 -0.025 1e-3 -0.052 7e-3 -0.076 0.112-0.497 0.169-0.999 0.158-1.508-0.011-0.479-0.076-0.951-0.198-1.415-0.12-0.457-0.294-0.892-0.514-1.312-0.296-0.567-0.675-1.07-1.129-1.518-0.357-0.353-0.756-0.655-1.19-0.906-0.177-0.102-0.361-0.19-0.549-0.288-0.449 1.451-0.894 2.885-1.341 4.328 0.669 0.208 1.333 0.413 2.001 0.621-0.091 0.51-0.181 1.01-0.272 1.524-0.737-0.229-1.459-0.452-2.189-0.678-0.074 0.237-0.144 0.463-0.214 0.689-0.137 0.457 0.077 0.862 0.532 1.004 0.442 0.137 0.883 0.273 1.325 0.41 0.032 0.01 0.063 0.023 0.094 0.034-0.151 0.489-0.298 0.967-0.448 1.449-0.03-6e-3 -0.056-8e-3 -0.079-0.016-0.444-0.137-0.89-0.273-1.333-0.413-0.494-0.155-0.909-0.426-1.216-0.85-0.35-0.485-0.512-1.028-0.425-1.617 0.052-0.348 0.177-0.685 0.27-1.027 0.01-0.036 0.022-0.072 0.036-0.116-0.371-0.116-0.73-0.227-1.092-0.339 0.153-0.492 0.302-0.974 0.454-1.468 0.365 0.113 0.724 0.225 1.087 0.337 0.448-1.444 0.892-2.878 1.34-4.325-0.171-0.023-0.334-0.05-0.498-0.065-0.765-0.071-1.517 0-2.256 0.213-0.606 0.175-1.171 0.444-1.697 0.792-0.509 0.335-0.954 0.74-1.339 1.212-0.275 0.337-0.518 0.698-0.708 1.092-0.099 0.204-0.192 0.411-0.288 0.616" fill="#fff"/>
    </g>
    <g transform="translate(717.66 2970)">
     <path d="m0 0c0.038 0.244 0.077 0.489 0.116 0.733 0.01 0.027 0.022 0.053 0.03 0.081 0.092 0.288 0.169 0.581 0.278 0.862 0.32 0.827 0.813 1.542 1.457 2.153 0.598 0.568 1.283 0.999 2.057 1.292 0.858 0.325 1.746 0.446 2.66 0.371 0.746-0.062 1.457-0.255 2.133-0.578 0.747-0.356 1.392-0.846 1.938-1.464 0.488-0.553 0.866-1.175 1.129-1.866 0.285-0.751 0.422-1.525 0.397-2.328-5e-3 -0.146-7e-3 -0.291-0.011-0.437-0.038-0.244-0.078-0.488-0.117-0.733-8e-3 -0.023-0.021-0.046-0.027-0.071-0.118-0.495-0.29-0.971-0.525-1.422-0.221-0.426-0.488-0.82-0.802-1.182-0.311-0.358-0.659-0.671-1.041-0.951-0.516-0.377-1.078-0.661-1.684-0.862-0.476-0.159-0.967-0.254-1.468-0.287-0.204-0.013-0.408-0.011-0.62-0.016 0.239 1.5 0.474 2.983 0.71 4.476 0.693-0.11 1.378-0.219 2.07-0.328 0.143 0.498 0.284 0.986 0.428 1.488-0.761 0.12-1.507 0.239-2.262 0.359 0.039 0.245 0.074 0.479 0.113 0.712 0.077 0.471 0.449 0.739 0.921 0.665 0.456-0.072 0.912-0.145 1.368-0.216 0.034-6e-3 0.068-8e-3 0.101-0.012 0.08 0.506 0.159 0.999 0.238 1.498-0.029 8e-3 -0.054 0.017-0.078 0.021-0.46 0.073-0.919 0.147-1.379 0.218-0.512 0.079-1.003 0.02-1.466-0.225-0.528-0.28-0.913-0.696-1.096-1.263-0.107-0.335-0.143-0.692-0.211-1.04-7e-3 -0.037-0.012-0.075-0.019-0.121-0.384 0.061-0.755 0.12-1.13 0.179-0.08-0.508-0.159-1.007-0.24-1.518 0.377-0.059 0.748-0.118 1.123-0.178-0.237-1.492-0.472-2.975-0.709-4.471-0.163 0.055-0.321 0.102-0.476 0.161-0.718 0.274-1.361 0.671-1.929 1.188-0.467 0.425-0.854 0.916-1.173 1.46-0.308 0.526-0.529 1.087-0.665 1.679-0.099 0.425-0.158 0.856-0.153 1.293 2e-3 0.227 9e-3 0.453 0.014 0.68" fill="#fff"/>
    </g>
    <g transform="translate(661.92 2916.1)">
     <path d="m0 0c7.12 9.217 15.917 16.655 26.22 22.094 2.166 1.144 0.227 3.303-1.65 2.312-10.821-5.712-20.147-13.52-27.63-23.206-1.419-1.837 1.973-2.607 3.06-1.2" fill="#fdba00"/>
    </g>
    <g transform="translate(719.62 2959.2)">
     <path d="m0 0c2.879 0.564 5.647-1.866 6.489-4.45 0.293-0.898 3.883 0.139 3.613 0.968-1.306 4.008-5.535 5.687-9.457 4.918-0.423-0.083-2.093-0.415-2.108-1.022-0.016-0.644 1.046-0.496 1.463-0.414" fill="#ee6900"/>
    </g>
    <g transform="translate(645.67 2887.5)">
     <path d="m0 0c-3.107-0.792-6.253 2.463-6.977 5.153-0.214 0.797-3.83-0.16-3.612-0.968 1.308-4.86 6.435-6.43 10.887-5.296 0.332 0.084 1.804 0.492 1.657 1.04-0.145 0.541-1.691 0.138-1.955 0.071" fill="#ffe15a"/>
    </g>
    <g transform="translate(647.94 2916.2)">
     <path d="m0 0c2.313 4.637 5.384 8.695 9.204 12.195 0.654 0.599 0.236 1.327-0.433 1.618-0.838 0.364-1.942-0.123-2.555-0.684-3.992-3.657-7.229-7.966-9.645-12.81-0.876-1.756 2.767-1.646 3.429-0.319" fill="#ee6900"/>
    </g>
    <g transform="translate(683.75 2948.9)">
     <path d="m0 0c3.16 1.838 6.32 3.676 9.48 5.515 0.682 0.396 0.35 0.671-0.213 0.796-0.766 0.169-1.907-0.308-2.554-0.685-3.16-1.838-6.32-3.676-9.482-5.514-0.681-0.397-0.349-0.671 0.214-0.796 0.766-0.17 1.907 0.307 2.555 0.684" fill="#fdba00"/>
    </g>
    <g transform="translate(787.16 2715.8)">
     <path d="m0 0c-0.438-2.201 0.99-4.34 3.191-4.779 2.202-0.439 4.341 0.99 4.78 3.191 0.438 2.201-0.991 4.341-3.192 4.779-2.201 0.439-4.341-0.99-4.779-3.191" fill="#fd0"/>
    </g>
    <g transform="translate(848.96 2789.6)">
     <path d="m0 0c-0.438-2.201 0.99-4.341 3.191-4.779 2.202-0.439 4.341 0.99 4.78 3.191 0.438 2.201-0.991 4.34-3.192 4.779-2.201 0.438-4.341-0.99-4.779-3.191" fill="#fd0"/>
    </g>
    <g transform="translate(966.56 2762)">
     <path d="m0 0c-0.438-2.201 0.99-4.341 3.191-4.779 2.201-0.439 4.34 0.99 4.779 3.191 0.438 2.201-0.991 4.34-3.191 4.779-2.201 0.438-4.341-0.99-4.779-3.191" fill="#fd0"/>
    </g>
    <g transform="translate(259.4 3042)">
     <path d="m0 0v-0.595c0-0.711 0.702-1.052 1.35-0.988 0.576 0.058 1.59 0.458 1.59 1.192v0.596c0 0.71-0.701 1.052-1.349 0.987-0.577-0.057-1.591-0.457-1.591-1.192" fill="#fd0"/>
    </g>
    <g transform="translate(267.13 3031.3)">
     <path d="m0 0v-1.189c0-0.703 0.706-1.011 1.338-0.945 0.557 0.058 1.597 0.445 1.597 1.168v1.189c0 0.703-0.706 1.011-1.337 0.945-0.557-0.059-1.598-0.445-1.598-1.168" fill="#fd0"/>
    </g>
    <g transform="translate(271.58 3033.2)">
     <path d="m0 0c7.722 0 7.734 12 0 12-7.721 0-7.734-12 0-12" fill="#fd0"/>
    </g>
    <g transform="translate(398.93 2994)">
     <path d="m0 0-0.595 0.595c-1.088 1.088-2.704 1.757-4.242 1.757-1.472 0-3.23-0.654-4.243-1.757-1.05-1.144-1.829-2.645-1.757-4.243 0.071-1.591 0.608-3.094 1.757-4.243l0.595-0.594c1.088-1.088 2.704-1.758 4.242-1.758 1.472 0 3.23 0.654 4.243 1.758 1.05 1.143 1.829 2.644 1.757 4.242-0.071 1.592-0.609 3.095-1.757 4.243" fill="#fd0"/>
    </g>
    <g transform="translate(530.89 2960)">
     <path d="m0 0c7.721 0 7.733 12 0 12-7.722 0-7.734-12 0-12" fill="#fd0"/>
    </g>
    <g transform="translate(404.8 2987.4)">
     <path d="m0 0c7.722 0 7.734 12 0 12-7.721 0-7.734-12 0-12" fill="#fd0"/>
    </g>
    <g transform="translate(615.35 2937.4)">
     <path d="m0 0c7.722 0 7.734 12 0 12-7.721 0-7.733-12 0-12" fill="#fd0"/>
    </g>
    <g transform="translate(627.79 2967.8)">
     <path d="M 0,0 V -0.595 C 0,-2.133 0.669,-3.75 1.757,-4.837 2.798,-5.878 4.505,-6.662 6,-6.595 c 1.552,0.07 3.161,0.579 4.242,1.758 C 11.32,-3.664 12,-2.22 12,-0.595 V 0 C 12,1.539 11.33,3.155 10.242,4.243 9.201,5.283 7.494,6.067 6,6 4.448,5.931 2.839,5.421 1.757,4.243 0.68,3.069 0,1.625 0,0" fill="#fd0"/>
    </g>
    <g transform="translate(543.38 2960.6)">
     <path d="m0 0c3.86 0 3.866 6 0 6-3.861 0-3.867-6 0-6" fill="#fd0"/>
    </g>
    <g transform="translate(538.62 2968.4)">
     <path d="m0 0c3.861 0 3.867 6 0 6-3.86 0-3.867-6 0-6" fill="#fd0"/>
    </g>
    <g transform="translate(625.46 2948.1)">
     <path d="m0 0c3.86 0 3.867 6 0 6-3.86 0-3.867-6 0-6" fill="#fd0"/>
    </g>
    <g transform="translate(620.68 2959.5)">
     <path d="m0 0v-0.595c0-1.569 1.38-3.072 3-3 1.625 0.073 3 1.318 3 3v0.595c0 1.569-1.38 3.073-3 3-1.626-0.073-3-1.318-3-3" fill="#fd0"/>
    </g>
    <g transform="translate(576.69 2951.7)">
     <path d="m0 0c3.86 0 3.867 6 0 6-3.861 0-3.867-6 0-6" fill="#fd0"/>
    </g>
    <g transform="translate(416.36 2978.2)">
     <path d="m0 0 1.189-1.189c1.112-1.112 3.147-1.194 4.243 0 1.099 1.197 1.186 3.057 0 4.242l-1.189 1.19c-1.112 1.111-3.147 1.194-4.243 0-1.1-1.198-1.186-3.057 0-4.243" fill="#fd0"/>
    </g>
    <g transform="translate(452.38 2973.7)">
     <path d="m0 0c3.86 0 3.867 6 0 6-3.861 0-3.867-6 0-6" fill="#fd0"/>
    </g>
    <g transform="translate(392.91 2996.3)">
     <path d="m0 0c3.86 0 3.867 6 0 6-3.861 0-3.867-6 0-6" fill="#fd0"/>
    </g>
    <g transform="translate(373.88 2989.2)">
     <path d="m0 0c3.861 0 3.867 6 0 6-3.861 0-3.867-6 0-6" fill="#fd0"/>
    </g>
    <g transform="translate(382.8 2985)">
     <path d="m0 0c3.861 0 3.867 6 0 6-3.86 0-3.867-6 0-6" fill="#fd0"/>
    </g>
    <g transform="translate(277.52 3021.9)">
     <path d="m0 0c3.861 0 3.867 6 0 6-3.861 0-3.867-6 0-6" fill="#fd0"/>
    </g>
    <g transform="translate(249.57 3048.4)">
     <path d="m0 0c1.931 0 1.934 3 0 3-1.93 0-1.934-3 0-3" fill="#fd0"/>
    </g>
    <g transform="translate(257.43 3052.7)">
     <path d="m0 0-0.595-0.595c-0.572-0.573-0.572-1.549 0-2.121 0.575-0.575 1.547-0.575 2.122 0l0.595 0.594c0.572 0.573 0.572 1.549 0 2.122-0.575 0.575-1.547 0.574-2.122 0" fill="#fd0"/>
    </g>
    <g transform="translate(255.52 3045.4)">
     <path d="m0 0h-0.595c-0.784 0-1.536-0.69-1.5-1.5 0.037-0.813 0.659-1.5 1.5-1.5h0.595c0.785 0 1.537 0.69 1.5 1.5-0.036 0.813-0.659 1.5-1.5 1.5" fill="#fd0"/>
    </g>
    <g transform="translate(290.14 3017)">
     <path d="m0 0-0.595-0.595c-0.572-0.572-0.572-1.549 0-2.121 0.575-0.575 1.547-0.575 2.121 0l0.595 0.594c0.573 0.573 0.573 1.549 0 2.122-0.575 0.575-1.546 0.575-2.121 0" fill="#fd0"/>
    </g>
    <g transform="translate(310.83 3006.1)">
     <path d="m0 0c1.93 0 1.934 3 0 3-1.931 0-1.934-3 0-3" fill="#fd0"/>
    </g>
    <g transform="translate(304.29 3007.9)">
     <path d="m0 0c1.93 0 1.934 3 0 3-1.931 0-1.934-3 0-3" fill="#fd0"/>
    </g>
    <g transform="translate(366.14 2988.9)">
     <path d="m0 0c1.93 0 1.934 3 0 3-1.93 0-1.934-3 0-3" fill="#fd0"/>
    </g>
    <g transform="translate(427.4 2982.3)">
     <path d="m0 0c1.931 0 1.934 3 0 3-1.93 0-1.934-3 0-3" fill="#fd0"/>
    </g>
    <g transform="translate(399.36 2971.6)">
     <path d="m0 0c1.931 0 1.934 3 0 3-1.93 0-1.934-3 0-3" fill="#fd0"/>
    </g>
   </g>
   <g clip-path="url(#clipPath894)">
    <g transform="translate(50.912 3015.4)">
     <path d="m0 0c31.932-29.579 73.188-47.991 116.53-52.027 0.833-0.077 3.375 1.327 1.801 1.474-43.037 4.008-83.917 22.277-115.63 51.649-0.693 0.643-3.403-0.446-2.701-1.096" fill="#00baf0"/>
    </g>
    <g transform="translate(154.94 2952.2)">
     <path d="m0 0c30.961-2.833 62.059-3.257 93.086-1.283 0.719 0.046 3.167 1.184 1.283 1.064-30.649-1.95-61.389-1.517-91.972 1.282-0.657 0.06-3.051-1.003-2.397-1.063" fill="#a1daf8"/>
    </g>
    <g transform="translate(331.49 2933.5)">
     <path d="m0 0c-0.117-0.136-0.233-0.271-0.35-0.407 0.746 0.25 1.493 0.499 2.239 0.749 0.154-0.038 3.823 2.345 4.343 2.544 1.817 0.695 3.646 1.351 5.496 1.955 2.54 0.828 5.107 1.57 7.695 2.233 5.911 1.515 11.931 2.585 18.001 3.214 12.21 1.266 24.49 0.627 36.539-1.663 0.885-0.168 3.401 1.218 1.788 1.524-16.012 3.044-32.457 3.159-48.485 0.128-7.264-1.373-14.405-3.357-21.329-5.948-0.532-0.2-11.195-4.186-5.836-5.512 0.734-0.181 1.755 0.187 2.238 0.75 0.117 0.136 0.233 0.271 0.349 0.407 0.79 0.92-2.096 0.716-2.688 0.026" fill="#a1daf8"/>
    </g>
    <g transform="translate(258.86 2967)">
     <path d="m0 0c24.659 9.666 52.092 12.612 78.333 14.198 31.289 1.89 62.887 0.975 93.98-3.062 16.515-2.145 32.938-5.25 48.926-9.954 0.682-0.201 3.246 0.896 2.373 1.152-29.784 8.763-61.106 12.336-92.048 13.569-31.097 1.24-62.585 0.116-93.319-5.023-13.327-2.227-26.656-5.225-39.262-10.166-1.911-0.75-0.115-1.158 1.017-0.714" fill="#a1daf8"/>
    </g>
    <g transform="translate(507.34 2964.6)">
     <path d="m0 0c24.875-0.673 54.707-3.132 74.893-19.461 15.682-12.686 20.167-32.507 21.2-51.747 0.027-0.481 2.941-7e-3 2.899 0.776-1.063 19.762-5.871 39.955-22.247 52.646-20.459 15.855-49.97 18.272-74.86 18.946-0.609 0.016-3.282-1.122-1.885-1.16" fill="#a1daf8"/>
    </g>
   </g>
  </g>
 </g>
</svg>
