<?xml version="1.0" encoding="UTF-8" standalone="no"?>
<!-- Generator: Adobe Illustrator 23.0.3, SVG Export Plug-In . SVG Version: 6.00 Build 0)  -->

<svg
   xmlns:dc="http://purl.org/dc/elements/1.1/"
   xmlns:cc="http://creativecommons.org/ns#"
   xmlns:rdf="http://www.w3.org/1999/02/22-rdf-syntax-ns#"
   xmlns:svg="http://www.w3.org/2000/svg"
   xmlns="http://www.w3.org/2000/svg"
   xmlns:sodipodi="http://sodipodi.sourceforge.net/DTD/sodipodi-0.dtd"
   xmlns:inkscape="http://www.inkscape.org/namespaces/inkscape"
   version="1.1"
   x="0px"
   y="0px"
   viewBox="0 0 520.4 216.14"
   style="enable-background:new 0 0 520.4 216.14;"
   xml:space="preserve"
   id="svg953"
   sodipodi:docname="home-hero.svg"
   inkscape:version="0.92.4 (unknown)"><metadata
   id="metadata959"><rdf:RDF><cc:Work
       rdf:about=""><dc:format>image/svg+xml</dc:format><dc:type
         rdf:resource="http://purl.org/dc/dcmitype/StillImage" /></cc:Work></rdf:RDF></metadata><defs
   id="defs957">
	
	
	

		<linearGradient
   id="SVGID_1_"
   gradientUnits="userSpaceOnUse"
   x1="236.92239"
   y1="38.8288"
   x2="433.51169"
   y2="-80.475403">
			<stop
   offset="0"
   style="stop-color:#1DBAED"
   id="stop6" />
			<stop
   offset="1"
   style="stop-color:#0057A0"
   id="stop8" />
		</linearGradient>
		
		
		<linearGradient
   id="SVGID_2_"
   gradientUnits="userSpaceOnUse"
   x1="287.82031"
   y1="79.407501"
   x2="481.06589"
   y2="-37.8675">
			<stop
   offset="0"
   style="stop-color:#1DBAED"
   id="stop17" />
			<stop
   offset="1"
   style="stop-color:#0057A0"
   id="stop19" />
		</linearGradient>
		
		
		
		
		
		
		
		
	</defs><sodipodi:namedview
   pagecolor="#ffffff"
   bordercolor="#666666"
   borderopacity="1"
   objecttolerance="10"
   gridtolerance="10"
   guidetolerance="10"
   inkscape:pageopacity="0"
   inkscape:pageshadow="2"
   inkscape:window-width="1920"
   inkscape:window-height="1022"
   id="namedview955"
   showgrid="false"
   inkscape:zoom="3.3154121"
   inkscape:cx="184.89421"
   inkscape:cy="119.67744"
   inkscape:window-x="949"
   inkscape:window-y="31"
   inkscape:window-maximized="1"
   inkscape:current-layer="svg953" />
<style
   type="text/css"
   id="style2">
	.st0{display:none;opacity:0.36;}
	.st1{fill:#3B93C9;}
	.st2{fill:#8AB3BC;}
	.st3{fill:#0480B6;}
	.st4{fill:#FEE164;}
	.st5{fill:#FCBA13;}
	.st6{fill:none;stroke:#8AB3BC;stroke-width:2;stroke-miterlimit:10;}
	.st7{fill:none;stroke:#FCBA13;stroke-width:2;stroke-miterlimit:10;}
	.st8{fill:none;stroke:#FEE164;stroke-width:2;stroke-miterlimit:10;}
	.st9{fill:#B2DEF6;}
	.st10{fill:none;stroke:#0480B6;stroke-width:5;stroke-linecap:round;stroke-linejoin:round;stroke-miterlimit:10;}
	.st11{fill:#0E3C60;}
	.st12{fill:#0480B6;stroke:#0480B6;stroke-width:0.75;stroke-miterlimit:10;}
	.st13{fill:#1DBAED;}
	.st14{fill:#7CCBF1;}
	.st15{fill:#009DD7;}
	.st16{fill:#0088C5;}
	.st17{fill:#0057A0;}
	.st18{fill:#047D3F;}
	.st19{fill:#95C13D;}
	.st20{fill:#61150B;}
	.st21{fill:#B8732A;}
	.st22{fill:#3D3C3B;}
	.st23{fill:#EB6824;}
	.st24{fill:none;stroke:#0480B6;stroke-width:2;stroke-miterlimit:10;}
	.st25{fill:none;stroke:#0480B6;stroke-width:0.75;stroke-linecap:round;stroke-linejoin:round;stroke-miterlimit:10;}
	.st26{fill:#58595B;}
	.st27{fill:none;stroke:#000000;stroke-width:3;stroke-miterlimit:10;}
	.st28{fill:none;stroke:#0057A0;stroke-width:3;stroke-miterlimit:10;}
	.st29{fill:none;stroke:#0E3C60;stroke-width:3;stroke-miterlimit:10;}
	.st30{fill:url(#SVGID_1_);}
	.st31{fill:url(#SVGID_2_);}
	.st32{opacity:0.3;}
	.st33{fill:url(#SVGID_3_);}
	.st34{fill:#FFFFFF;}
	.st35{fill:#A3D9F6;}
	.st36{fill:#FEDD00;}
	.st37{fill:#9FD7F5;}
	.st38{fill:#DBDAD9;}
	.st39{fill:none;stroke:#3D3C3B;stroke-width:0.6233;stroke-linecap:round;stroke-linejoin:round;stroke-miterlimit:10;}
	.st40{opacity:0.2;fill:#70706F;}
	.st41{fill:#ECECEC;}
	.st42{fill:#F5F6F6;}
	.st43{fill:#F5F6F6;stroke:#3D3C3B;stroke-width:0.6233;stroke-linecap:round;stroke-linejoin:round;stroke-miterlimit:10;}
	.st44{fill:none;stroke:#9C9C9C;stroke-width:1.8615;stroke-linecap:round;stroke-linejoin:round;stroke-miterlimit:10;}
	.st45{fill:#7B3B1A;}
	.st46{fill:none;stroke:#FFFFFF;stroke-width:2.2498;stroke-miterlimit:10;}
	.st47{font-family:'MyriadPro-Bold';}
	.st48{font-size:9.095px;}
	.st49{opacity:0.5;clip-path:url(#SVGID_5_);}
	.st50{fill:#FABCB4;}
	.st51{clip-path:url(#SVGID_5_);}
	.st52{fill:url(#SVGID_6_);}
	.st53{clip-path:url(#SVGID_5_);fill:#E6E6E5;}
	.st54{opacity:0.4;clip-path:url(#SVGID_5_);}
	.st55{fill:#1A1A1A;}
	.st56{fill:none;stroke:#9C9C9C;stroke-width:1.8648;stroke-linecap:round;stroke-linejoin:round;stroke-miterlimit:10;}
	.st57{fill:#D9B827;}
	.st58{fill:#9C9C9C;}
	.st59{clip-path:url(#SVGID_5_);fill:#C6BDBD;}
	.st60{clip-path:url(#SVGID_5_);fill:#0057A0;}
	.st61{clip-path:url(#SVGID_5_);fill:#FFFFFF;}
	.st62{fill:#FFFFFF;stroke:#000000;stroke-width:3;stroke-miterlimit:10;}
</style>
<g
   id="_x31_">
</g>
<g
   id="Layer_1">
</g>
<path
   class="st30"
   d="m 0.49,-0.86 c 0,0 -16.35,53.72 140.14,52.55 122.62,0 376.92,0 376.92,0 v -54.3 z"
   id="path11"
   style="fill:url(#SVGID_1_)"
   inkscape:connector-curvature="0" /><g
   id="g15">
			<path
   class="st13"
   d="m 417.64,15.39 c 8.6,2.71 18.05,6.29 21.83,16.65 3.59,9.86 0.47,23.27 -5.76,32.23 -2.3,3.31 -5.09,6.37 -6.21,10.51 -7.71,28.63 -14.51,53.83 -37.07,69.23 -17.69,12.08 -38.23,13.04 -55.51,5.23 -15.87,-7.17 -29.82,-22.63 -33.71,-44.48 -2.81,-15.77 -0.14,-33.46 5.45,-49.25 5.59,-15.79 13.94,-29.92 22.86,-43.09 z"
   id="path13"
   inkscape:connector-curvature="0"
   style="fill:#1dbaed" />
		</g><path
   class="st31"
   d="m 30.56,-10.78 c -5.84,67.15 79.99,63.65 114.16,60.14 30.4,-3.12 61.18,-4.18 91.67,-1.72 30.9,2.49 78.49,-0.06 82.7,39.92 1.12,10.63 -0.02,21.41 1.26,32.01 1.21,10.02 5.1,22.27 15.25,26.47 18.37,7.61 34.34,-14.27 52.89,-10.67 10.87,2.11 18.29,11.89 26.77,18.22 9.36,6.98 19.52,13.01 30.29,17.54 21.69,9.12 45.25,11.42 68.58,10.04 10.43,-0.62 21.15,0.23 20.95,-13.19 -0.99,-67.67 -0.88,-110.23 -0.88,-177.9 -0.01,0.01 -503.64,-0.86 -503.64,-0.86 z"
   id="path22"
   style="fill:url(#SVGID_2_)"
   inkscape:connector-curvature="0" /><g
   id="g793">
			<g
   class="st32"
   id="g31"
   style="opacity:0.3">
				<linearGradient
   id="SVGID_3_"
   gradientUnits="userSpaceOnUse"
   x1="104.0658"
   y1="81.900703"
   x2="555.54742"
   y2="81.900703">
					<stop
   offset="0.0313"
   style="stop-color:#0057A0"
   id="stop24" />
					<stop
   offset="0.6228"
   style="stop-color:#FFD37E"
   id="stop26" />
				</linearGradient>
				<path
   class="st33"
   d="m 529.04,145.94 c -4.78,11.16 -23.4,16.97 -34.12,19.06 -33.42,6.53 -58.63,-6.59 -87.09,-21.76 -2.96,-1.58 -6.05,-3.12 -9.39,-3.46 -7.06,-0.73 -11.65,5.95 -16.73,9.73 -4.69,3.49 -10.7,4.85 -16.55,4.86 -21.24,0.06 -45.17,-8.75 -54.24,-29.3 -3.93,-8.9 -7.83,-17.39 -9.6,-27.87 -1.42,-8.38 0.57,-19.23 4.76,-34.73 -4.32,-4.37 -11.62,-7.34 -17.12,-8.97 -16.79,-4.99 -31.96,-2.12 -49.4,-3.37 -28.93,-2.07 -59.98,0.53 -87.62,-9.92 -22,-8.32 -34.45,-23.01 -47.89,-41.25 27.92,-3.4 57.9,-0.5 85.99,-0.24 58.57,0.54 121.91,-2.36 180.48,-1.48 47,0.7 90.88,-0.7 137.87,0.08 6.32,0.11 15.85,-0.04 22.17,0.07 0.6,21.1 -3.64,48.33 -3.04,69.43 0.45,15.78 0.9,31.57 1.36,47.35 0.25,8.63 3.04,21.32 0.85,29.73 -0.17,0.7 -0.4,1.38 -0.69,2.04 z"
   id="path29"
   style="fill:url(#SVGID_3_)"
   inkscape:connector-curvature="0" />
			</g>
			<g
   id="g37">
				<g
   id="g35">
					<path
   class="st34"
   d="m 316.37,135.69 c -3.52,2.97 -5.64,-3.77 -6,-5.57 -0.31,-1.54 -0.45,-3.12 -0.65,-4.68 -0.45,-3.5 -0.9,-7 -1.3,-10.51 -0.77,-6.69 -1.37,-13.41 -1.38,-20.14 -0.01,-14.94 3.53,-29.1 12.74,-41.08 0.72,-0.94 -2.15,-0.66 -2.67,0.03 -11.34,14.75 -13.85,32.51 -12.65,50.66 0.59,8.86 1.01,18.64 3.16,27.27 1.32,5.29 6.55,8.18 11.04,4.39 1.22,-1.06 -1.64,-0.92 -2.29,-0.37 z"
   id="path33"
   inkscape:connector-curvature="0"
   style="fill:#ffffff" />
				</g>
			</g>
			<g
   id="g43">
				<g
   id="g41">
					<path
   class="st34"
   d="m 410.49,103.13 c -2.92,15.46 -11.57,29.02 -24.36,38.17 -1.6,1.14 0.75,2.2 1.93,1.36 13.31,-9.53 22.33,-23.66 25.37,-39.74 0.27,-1.46 -2.69,-1.11 -2.94,0.21 z"
   id="path39"
   inkscape:connector-curvature="0"
   style="fill:#ffffff" />
				</g>
			</g>
			<g
   id="g49">
				<g
   id="g47">
					<path
   class="st34"
   d="m 414.12,83.07 c 4.26,24.98 -7.38,48.55 -27.59,63.1 -1.91,1.38 2.58,1.03 3.51,0.36 20.73,-14.93 32.98,-38.97 28.59,-64.67 -0.2,-1.15 -4.74,-0.13 -4.51,1.21 z"
   id="path45"
   inkscape:connector-curvature="0"
   style="fill:#ffffff" />
				</g>
			</g>
			<g
   id="g55">
				<g
   id="g53">
					<path
   class="st35"
   d="m 327.16,156.68 c -14.51,-8.71 -24.89,-22.68 -29.17,-39.04 -0.25,-0.94 -3.15,-0.18 -2.9,0.78 4.36,16.66 14.99,30.76 29.75,39.62 0.76,0.45 3.44,-0.69 2.32,-1.36 z"
   id="path51"
   inkscape:connector-curvature="0"
   style="fill:#a3d9f6" />
				</g>
			</g>
			<g
   id="g61">
				<g
   id="g59">
					<path
   class="st35"
   d="m 412.39,125.81 c -3.25,10.8 -10.45,19.64 -20.52,24.79 -1.76,0.9 -0.18,2.48 1.29,1.73 10.66,-5.45 18.55,-14.69 22.01,-26.18 0.48,-1.61 -2.4,-1.59 -2.78,-0.34 z"
   id="path57"
   inkscape:connector-curvature="0"
   style="fill:#a3d9f6" />
				</g>
			</g>
			<g
   id="g67">
				<g
   id="g65">
					<path
   class="st35"
   d="m 399.55,158.5 c 0.23,0.32 0.28,0.72 0.15,1.11 -0.04,0.13 -0.11,0.24 -0.15,0.3 -0.03,0.04 -0.19,0.26 -0.1,0.12 0.03,-0.06 0.41,-0.13 0.05,-0.03 -0.56,0.15 -1.37,0.68 -1.19,1.37 0.19,0.7 1.16,0.74 1.71,0.59 1.97,-0.52 3.53,-2.85 2.18,-4.73 -0.75,-1.05 -3.52,0.07 -2.65,1.27 z"
   id="path63"
   inkscape:connector-curvature="0"
   style="fill:#a3d9f6" />
				</g>
			</g>
			<g
   id="g73">
				<g
   id="g71">
					<path
   class="st35"
   d="m 375.74,163.69 c -7.17,1.15 -14.34,1.46 -21.59,1 -0.62,-0.04 -3.3,1.08 -1.88,1.17 7.7,0.49 15.3,0.1 22.92,-1.12 1.16,-0.19 2.6,-1.38 0.55,-1.05 z"
   id="path69"
   inkscape:connector-curvature="0"
   style="fill:#a3d9f6" />
				</g>
			</g>
			<g
   id="g79">
				<g
   id="g77">
					<path
   class="st13"
   d="m 403,166.71 c 12.43,-2.3 22.72,6.09 32.59,12.3 8.7,5.47 18.19,9.6 28.07,12.41 19.76,5.61 40.7,5.66 60.65,0.98 1.75,-0.41 1.37,-1.82 -0.38,-1.41 -22.35,5.24 -46.1,4.09 -67.59,-4.15 -9.81,-3.77 -18.25,-9.34 -27.12,-14.83 -7.89,-4.88 -16.39,-8.6 -25.81,-6.86 -1.36,0.24 -2.41,1.93 -0.41,1.56 z"
   id="path75"
   inkscape:connector-curvature="0"
   style="fill:#1dbaed" />
				</g>
			</g>
			<circle
   class="st36"
   cx="421.35001"
   cy="64.330002"
   r="1.63"
   id="circle81"
   style="fill:#fedd00" />
			<circle
   class="st36"
   cx="329.95999"
   cy="57.32"
   r="1.63"
   id="circle83"
   style="fill:#fedd00" />
			<circle
   class="st36"
   cx="327.63"
   cy="52.07"
   r="1.63"
   id="circle85"
   style="fill:#fedd00" />
			<circle
   class="st36"
   cx="358.84"
   cy="154.48"
   r="1.63"
   id="circle87"
   style="fill:#fedd00" />
			<circle
   class="st36"
   cx="438.84"
   cy="155.94"
   r="1.63"
   id="circle89"
   style="fill:#fedd00" />
			<circle
   class="st36"
   cx="480.29999"
   cy="158.57001"
   r="1.63"
   id="circle91"
   style="fill:#fedd00" />
			<circle
   class="st36"
   cx="415.37"
   cy="57.259998"
   r="1.23"
   id="circle93"
   style="fill:#fedd00" />
			<circle
   class="st36"
   cx="332.73999"
   cy="52.880001"
   r="1.23"
   id="circle95"
   style="fill:#fedd00" />
			<circle
   class="st36"
   cx="380.53"
   cy="147.84"
   r="1.23"
   id="circle97"
   style="fill:#fedd00" />
			<circle
   class="st36"
   cx="424.32001"
   cy="149"
   r="1.23"
   id="circle99"
   style="fill:#fedd00" />
			<circle
   class="st36"
   cx="474.54001"
   cy="159.50999"
   r="1.23"
   id="circle101"
   style="fill:#fedd00" />
			<circle
   class="st36"
   cx="416.29999"
   cy="62.360001"
   r="0.69"
   id="circle103"
   style="fill:#fedd00" />
			<circle
   class="st36"
   cx="424.91"
   cy="61.240002"
   r="0.69"
   id="circle105"
   style="fill:#fedd00" />
			<circle
   class="st36"
   cx="324.19"
   cy="47.810001"
   r="0.69"
   id="circle107"
   style="fill:#fedd00" />
			<circle
   class="st36"
   cx="426.32001"
   cy="63.049999"
   r="0.69"
   id="circle109"
   style="fill:#fedd00" />
			<circle
   class="st36"
   cx="382.85999"
   cy="145.92999"
   r="0.69"
   id="circle111"
   style="fill:#fedd00" />
			<circle
   class="st36"
   cx="442.70999"
   cy="157.89999"
   r="0.69"
   id="circle113"
   style="fill:#fedd00" />
			<circle
   class="st36"
   cx="326.29001"
   cy="140.85001"
   r="2.53"
   id="circle115"
   style="fill:#fedd00" />
			<circle
   class="st35"
   cx="416.88"
   cy="120.86"
   r="2.53"
   id="circle117"
   style="fill:#a3d9f6" />
			<circle
   class="st36"
   cx="328.62"
   cy="150.39999"
   r="0.34999999"
   id="circle119"
   style="fill:#fedd00" />
			<circle
   class="st36"
   cx="318.82001"
   cy="131.88"
   r="1.95"
   id="circle121"
   style="fill:#fedd00" />
			<g
   id="g127">
				<g
   id="g125">
					<path
   class="st35"
   d="m 310.15,149.85 c -22.06,-11.23 -28.95,-43.31 -23.14,-65.32 0.25,-0.96 -2.64,-0.53 -2.89,0.4 -5.95,22.53 1.22,54.83 23.7,66.27 0.79,0.39 3.46,-0.77 2.33,-1.35 z"
   id="path123"
   inkscape:connector-curvature="0"
   style="fill:#a3d9f6" />
				</g>
			</g>
			<g
   id="g133">
				<g
   id="g131">
					<path
   class="st37"
   d="m 424.09,184.22 c -12.67,2.71 -25.66,3.92 -38.47,1.41 -12.7,-2.49 -24.29,-8.48 -35.05,-15.49 -1.54,-1 -6.66,1.33 -5.42,2.13 11.74,7.65 24.31,13.96 38.22,16.41 13.8,2.43 27.77,0.85 41.35,-2.06 3.5,-0.76 2.84,-3.15 -0.63,-2.4 z"
   id="path129"
   inkscape:connector-curvature="0"
   style="fill:#9fd7f5" />
				</g>
			</g>
			<g
   id="g139">
				<g
   id="g137">
					<path
   class="st35"
   d="m 202.8,66.36 c 24.22,-0.06 47.97,5.36 69.79,15.87 0.81,0.39 3.47,-0.81 2.32,-1.36 -22.17,-10.68 -46.35,-16.15 -70.96,-16.09 -1.05,0 -3.09,1.58 -1.15,1.58 z"
   id="path135"
   inkscape:connector-curvature="0"
   style="fill:#a3d9f6" />
				</g>
			</g>
			<g
   id="g617">
				<path
   class="st38"
   d="m 314.02,80.32 15.59,-4.7 c 0,0 5.65,11.57 1.87,21.26 l -15.09,6.22 c -0.01,0 7.65,-16.56 -2.37,-22.78 z"
   id="path141"
   inkscape:connector-curvature="0"
   style="fill:#dbdad9" />
				<line
   class="st39"
   x1="318.32001"
   y1="82.209999"
   x2="328.92999"
   y2="78.940002"
   id="line143"
   style="fill:none;stroke:#3d3c3b;stroke-width:0.62330002;stroke-linecap:round;stroke-linejoin:round;stroke-miterlimit:10" />
				<line
   class="st39"
   x1="319.54001"
   y1="84.230003"
   x2="330.14999"
   y2="80.959999"
   id="line145"
   style="fill:none;stroke:#3d3c3b;stroke-width:0.62330002;stroke-linecap:round;stroke-linejoin:round;stroke-miterlimit:10" />
				<line
   class="st39"
   x1="320.54999"
   y1="86.529999"
   x2="331.14999"
   y2="83.260002"
   id="line147"
   style="fill:none;stroke:#3d3c3b;stroke-width:0.62330002;stroke-linecap:round;stroke-linejoin:round;stroke-miterlimit:10" />
				<line
   class="st39"
   x1="321.23999"
   y1="88.790001"
   x2="331.85001"
   y2="85.519997"
   id="line149"
   style="fill:none;stroke:#3d3c3b;stroke-width:0.62330002;stroke-linecap:round;stroke-linejoin:round;stroke-miterlimit:10" />
				<line
   class="st39"
   x1="321.51001"
   y1="91.419998"
   x2="332.12"
   y2="88.150002"
   id="line151"
   style="fill:none;stroke:#3d3c3b;stroke-width:0.62330002;stroke-linecap:round;stroke-linejoin:round;stroke-miterlimit:10" />
				<line
   class="st39"
   x1="319.73999"
   y1="98.830002"
   x2="330.34"
   y2="95.559998"
   id="line153"
   style="fill:none;stroke:#3d3c3b;stroke-width:0.62330002;stroke-linecap:round;stroke-linejoin:round;stroke-miterlimit:10" />
				<line
   class="st39"
   x1="320.01999"
   y1="96.559998"
   x2="330.63"
   y2="93.290001"
   id="line155"
   style="fill:none;stroke:#3d3c3b;stroke-width:0.62330002;stroke-linecap:round;stroke-linejoin:round;stroke-miterlimit:10" />
				<path
   class="st40"
   d="m 329.1,75.72 -6.44,2 c 0,0 4.37,5.55 -0.02,17.06 0,0 6.89,-2.74 10.11,-4.19 0.45,-5.24 -2.45,-15.04 -2.45,-15.04 z"
   id="path157"
   inkscape:connector-curvature="0"
   style="opacity:0.2;fill:#70706f" />
				<line
   class="st39"
   x1="320.79999"
   y1="94.080002"
   x2="331.41"
   y2="90.809998"
   id="line159"
   style="fill:none;stroke:#3d3c3b;stroke-width:0.62330002;stroke-linecap:round;stroke-linejoin:round;stroke-miterlimit:10" />
				<g
   id="g179">
					<path
   class="st41"
   d="m 323.04,69.67 15.59,-4.7 c 0,0 5.65,11.57 1.87,21.26 l -15.09,6.22 c -0.01,0 7.65,-16.56 -2.37,-22.78 z"
   id="path161"
   inkscape:connector-curvature="0"
   style="fill:#ececec" />
					<line
   class="st39"
   x1="327.34"
   y1="71.559998"
   x2="337.95001"
   y2="68.290001"
   id="line163"
   style="fill:none;stroke:#3d3c3b;stroke-width:0.62330002;stroke-linecap:round;stroke-linejoin:round;stroke-miterlimit:10" />
					<line
   class="st39"
   x1="328.56"
   y1="73.580002"
   x2="339.17001"
   y2="70.32"
   id="line165"
   style="fill:none;stroke:#3d3c3b;stroke-width:0.62330002;stroke-linecap:round;stroke-linejoin:round;stroke-miterlimit:10" />
					<line
   class="st39"
   x1="329.57001"
   y1="75.879997"
   x2="340.17001"
   y2="72.620003"
   id="line167"
   style="fill:none;stroke:#3d3c3b;stroke-width:0.62330002;stroke-linecap:round;stroke-linejoin:round;stroke-miterlimit:10" />
					<line
   class="st39"
   x1="330.26001"
   y1="78.139999"
   x2="340.87"
   y2="74.879997"
   id="line169"
   style="fill:none;stroke:#3d3c3b;stroke-width:0.62330002;stroke-linecap:round;stroke-linejoin:round;stroke-miterlimit:10" />
					<line
   class="st39"
   x1="330.53"
   y1="80.769997"
   x2="341.14001"
   y2="77.5"
   id="line171"
   style="fill:none;stroke:#3d3c3b;stroke-width:0.62330002;stroke-linecap:round;stroke-linejoin:round;stroke-miterlimit:10" />
					<line
   class="st39"
   x1="328.76001"
   y1="88.190002"
   x2="339.35999"
   y2="84.919998"
   id="line173"
   style="fill:none;stroke:#3d3c3b;stroke-width:0.62330002;stroke-linecap:round;stroke-linejoin:round;stroke-miterlimit:10" />
					<line
   class="st39"
   x1="329.04001"
   y1="85.910004"
   x2="339.64999"
   y2="82.639999"
   id="line175"
   style="fill:none;stroke:#3d3c3b;stroke-width:0.62330002;stroke-linecap:round;stroke-linejoin:round;stroke-miterlimit:10" />
					<line
   class="st39"
   x1="329.82001"
   y1="83.43"
   x2="340.42999"
   y2="80.160004"
   id="line177"
   style="fill:none;stroke:#3d3c3b;stroke-width:0.62330002;stroke-linecap:round;stroke-linejoin:round;stroke-miterlimit:10" />
				</g>
				<path
   class="st40"
   d="m 341.58,82.06 c 0,0 -9.52,4.26 -9.69,4.19 -0.16,-0.07 5.91,-16.14 0.39,-19.36 l 7.43,-2.23 c -0.01,0 2.88,14.42 1.87,17.4 z"
   id="path181"
   inkscape:connector-curvature="0"
   style="opacity:0.2;fill:#70706f" />
				<g
   id="g201">
					<path
   class="st42"
   d="m 331.9,60.3 15.59,-4.7 c 0,0 5.65,11.57 1.87,21.26 l -15.09,6.22 c -0.01,0 7.64,-16.56 -2.37,-22.78 z"
   id="path183"
   inkscape:connector-curvature="0"
   style="fill:#f5f6f6" />
					<line
   class="st43"
   x1="336.20001"
   y1="62.189999"
   x2="346.81"
   y2="58.919998"
   id="line185"
   style="fill:#f5f6f6;stroke:#3d3c3b;stroke-width:0.62330002;stroke-linecap:round;stroke-linejoin:round;stroke-miterlimit:10" />
					<line
   class="st43"
   x1="337.41"
   y1="64.209999"
   x2="348.01999"
   y2="60.950001"
   id="line187"
   style="fill:#f5f6f6;stroke:#3d3c3b;stroke-width:0.62330002;stroke-linecap:round;stroke-linejoin:round;stroke-miterlimit:10" />
					<line
   class="st43"
   x1="338.42001"
   y1="66.510002"
   x2="349.03"
   y2="63.25"
   id="line189"
   style="fill:#f5f6f6;stroke:#3d3c3b;stroke-width:0.62330002;stroke-linecap:round;stroke-linejoin:round;stroke-miterlimit:10" />
					<line
   class="st43"
   x1="339.12"
   y1="68.769997"
   x2="349.72"
   y2="65.510002"
   id="line191"
   style="fill:#f5f6f6;stroke:#3d3c3b;stroke-width:0.62330002;stroke-linecap:round;stroke-linejoin:round;stroke-miterlimit:10" />
					<line
   class="st43"
   x1="339.39001"
   y1="71.400002"
   x2="349.98999"
   y2="68.129997"
   id="line193"
   style="fill:#f5f6f6;stroke:#3d3c3b;stroke-width:0.62330002;stroke-linecap:round;stroke-linejoin:round;stroke-miterlimit:10" />
					<line
   class="st43"
   x1="337.60999"
   y1="78.82"
   x2="348.22"
   y2="75.550003"
   id="line195"
   style="fill:#f5f6f6;stroke:#3d3c3b;stroke-width:0.62330002;stroke-linecap:round;stroke-linejoin:round;stroke-miterlimit:10" />
					<line
   class="st43"
   x1="337.89001"
   y1="76.540001"
   x2="348.5"
   y2="73.269997"
   id="line197"
   style="fill:#f5f6f6;stroke:#3d3c3b;stroke-width:0.62330002;stroke-linecap:round;stroke-linejoin:round;stroke-miterlimit:10" />
					<line
   class="st43"
   x1="338.67001"
   y1="74.059998"
   x2="349.28"
   y2="70.790001"
   id="line199"
   style="fill:#f5f6f6;stroke:#3d3c3b;stroke-width:0.62330002;stroke-linecap:round;stroke-linejoin:round;stroke-miterlimit:10" />
				</g>
				<g
   id="g555">
					<path
   class="st21"
   d="m 333.08,178.22 -2.22,0.83 c 0,0 -2.03,-4.65 -2.77,-7.08 -0.07,-0.25 2.23,-1.4 2.51,-1.47 1.01,-0.26 1,0.72 1.19,1.51 0.5,2.05 1.29,6.21 1.29,6.21 z"
   id="path203"
   inkscape:connector-curvature="0"
   style="fill:#b8732a" />
					<path
   class="st9"
   d="m 329.67,179.06 c -0.56,0.15 -1.11,0.37 -1.64,0.61 -1,0.44 -2,0.98 -2.69,1.83 -0.69,0.85 -1.03,2.06 -0.59,3.06 0.03,0.08 0.08,0.16 0.15,0.2 0.09,0.05 0.2,0.01 0.3,-0.02 3.11,-1.04 6.19,-2.18 9.22,-3.43 0.16,-0.06 0.33,-0.15 0.38,-0.31 0.03,-0.11 -0.01,-0.22 -0.04,-0.33 -0.25,-0.7 -0.87,-2.81 -1.81,-2.73 -0.38,0.03 -0.79,0.4 -1.14,0.55 -0.67,0.27 -1.42,0.37 -2.14,0.57 z"
   id="path205"
   inkscape:connector-curvature="0"
   style="fill:#b2def6" />
					<path
   class="st44"
   d="m 325.22,183.6 c 3.33,-1.12 5.5,-1.7 8.78,-2.97"
   id="path207"
   inkscape:connector-curvature="0"
   style="fill:none;stroke:#9c9c9c;stroke-width:1.86150002;stroke-linecap:round;stroke-linejoin:round;stroke-miterlimit:10" />
					<path
   class="st21"
   d="m 399.56,165.24 c 0.3,0.93 0.5,1.89 0.61,2.87 -2.49,-0.3 -4.98,-0.61 -7.47,-0.91 0.28,-1.09 0.28,-3.52 1.79,-3.29 1.7,0.26 3.42,0.89 5.07,1.33 z"
   id="path209"
   inkscape:connector-curvature="0"
   style="fill:#b8732a" />
					<path
   class="st9"
   d="m 399.08,168.74 c -0.07,0.58 -0.07,1.17 -0.04,1.75 0.04,1.09 0.17,2.22 0.7,3.18 0.53,0.96 1.53,1.73 2.63,1.68 0.08,0 0.18,-0.01 0.24,-0.07 0.08,-0.07 0.09,-0.18 0.09,-0.29 0.19,-3.28 0.27,-6.56 0.24,-9.84 0,-0.17 -0.01,-0.36 -0.15,-0.47 -0.09,-0.07 -0.21,-0.08 -0.32,-0.08 -0.74,-0.03 -2.93,-0.24 -3.21,0.67 -0.11,0.37 0.08,0.88 0.09,1.26 0,0.74 -0.18,1.48 -0.27,2.21 z"
   id="path211"
   inkscape:connector-curvature="0"
   style="fill:#b2def6" />
					<path
   class="st44"
   d="m 401.65,174.62 c 0.2,-3.51 0.28,-5.84 0.32,-9.35"
   id="path213"
   inkscape:connector-curvature="0"
   style="fill:none;stroke:#9c9c9c;stroke-width:1.86150002;stroke-linecap:round;stroke-linejoin:round;stroke-miterlimit:10" />
					<path
   class="st4"
   d="m 360.44,117.24 c -2.08,0.74 -2.59,1.64 -4.72,2.52 -2.05,0.84 -4.06,1.93 -6.1,2.89 -6.39,3.02 -12.48,6.94 -18.08,11.18 -9.46,7.16 -8.69,19.12 -6.91,29.9 0.4,2.44 1.37,4.2 2.19,6.53 0.41,1.16 1.51,3.57 1.89,4.09 l 3.54,-0.3 c -0.38,-3.06 -0.65,-6.89 -0.53,-10.04 0.14,-3.51 1.02,-6.55 1.47,-9.91 0.35,-2.61 -0.33,-5.43 1.83,-7.36 2.29,-2.05 6.31,-2.52 9.19,-3.19 4.62,-1.08 9.46,-2.22 14.03,-2.91 -0.14,7.56 0.51,16.11 5.76,21.9 5.43,5.99 14.19,8.83 22.1,6.91 1.67,-0.4 3.32,-0.86 5.01,-1.17 1.56,-0.29 3.19,-0.36 4.66,-1.01 0,0 1.11,-3.57 1.11,-3.57 -6.63,-1.62 -13.93,-2.26 -20.09,-5.38 -5.39,-2.74 -3.5,-7.77 -2.44,-12.74 0.71,-3.34 2.46,-5.93 2.65,-9.27 0.15,-2.66 0.87,-5.24 0.24,-7.93 -0.94,-4.05 -17.48,-10.28 -16.8,-11.14 z"
   id="path215"
   inkscape:connector-curvature="0"
   style="fill:#fee164" />
					<path
   class="st9"
   d="m 374.09,83.48 c -1.52,-0.49 -4.12,0.82 -5.63,1.41 -2.04,0.79 -3.91,1.45 -6.08,1.68 -0.35,1.65 -0.13,3.87 -0.51,5.6 -0.76,3.55 0.97,1.88 2.88,2.63 -1.13,2.38 -1.86,5.07 -2.95,7.53 -1.36,3.09 -3.32,5.91 -4.48,9.06 -0.62,1.68 -1.18,3.82 -0.31,5.49 0.45,0.85 1.21,1.03 1.69,1.66 0.48,0.63 0.64,1.92 0.82,2.72 0.7,3.13 0.77,8.35 5.02,8.36 2.11,0.01 4.55,-0.68 6.63,-1 1.42,-0.22 2.82,-0.41 4.21,-0.73 1.21,-0.27 1.88,0.02 2.99,-0.03 4.01,-0.19 2.79,-7.57 4.13,-10.24 -0.15,-0.04 -0.48,-0.37 -0.58,-0.22 -2.03,-1.62 -0.95,-4.16 -0.07,-6.91 0.91,-2.83 2.44,-5.64 3.5,-8.43 1.1,-2.89 1.4,-5.03 -2.73,-5.62 -1.1,-0.16 -3.24,-0.75 -3.16,-2.07 0.08,-1.37 1.43,-3.18 2.24,-3.98 1.01,-1.01 2.88,-2.18 3.53,-3.39 0.88,-1.6 -0.66,-2.44 -1.52,-3.64 -1.65,1.89 -3.25,3.61 -5.87,4.06 -0.84,0.14 -3.88,0.4 -4.56,-0.15 -0.78,-0.63 0.68,-2.72 0.58,-3.7 -0.05,0.15 0.28,-0.22 0.23,-0.09 z"
   id="path217"
   inkscape:connector-curvature="0"
   style="fill:#b2def6" />
					<path
   class="st21"
   d="m 380.41,104.16 c 3.29,2.79 4.96,6.95 6.58,10.92 1.58,3.86 3.33,8.73 2.74,12.92 -0.16,1.17 -0.63,2.62 -1.4,3.58 -0.43,0.54 -2.53,1.99 -0.41,2.29 0.64,-0.43 1.63,-0.9 2.44,-0.92 1.3,1.89 -5.21,5.25 -1.87,5.56 3.13,0.29 4.88,-2.36 5.11,-5.13 0.4,-4.75 1.34,-10.15 0.38,-14.83 -1.08,-5.24 -2.68,-9.75 -5.04,-14.49 -0.49,-0.98 -0.92,-2.65 -1.98,-2.93 -1.29,-0.34 -6.32,1.77 -6.55,3.03 z"
   id="path219"
   inkscape:connector-curvature="0"
   style="fill:#b8732a" />
					<path
   class="st17"
   d="m 368.1,67.88 c -0.8,0.27 -2.1,-0.33 -2.63,-0.93 -1.45,-1.67 -0.56,-4.05 0.46,-5.78 0.62,-1.06 1.84,-1.77 2.77,-2.54 0.79,-0.65 2.05,-1.74 3.14,-1.82 1.01,-1.2 3.58,-1.73 5.08,-2.1 1.58,-0.39 3.04,-0.9 4.69,-0.95 2.74,-0.09 5.64,0.07 8.2,1.06 3.45,1.33 6.9,3.39 7.27,7.46 0.28,3.07 -0.46,5.98 0.47,8.99 0.79,2.55 1.82,4.91 2.93,7.34 1.44,3.17 3.33,6.52 3.49,10.06 0.16,3.44 0.72,7.61 -0.65,10.85 -0.93,2.2 -2.11,4.73 -3.66,6.57 -1.64,1.94 -3.87,3.28 -5.7,5.02 -2.11,2 -3.99,5.03 -6.52,6.44 -1.59,0.89 -4.1,0.98 -5.63,-0.21 -2.26,-1.76 -0.05,-6.42 0.63,-8.45 0.72,-2.15 1.85,-4.13 2.68,-6.23 0.64,-1.63 1.76,-4.03 0.08,-5.3 -1.42,-1.07 -5.7,-0.88 -5.75,-2.97 -0.07,-2.82 3.23,-4.59 4.89,-6.3 1.55,-1.59 1.48,-2.17 0.12,-3.69 -1.51,-1.69 -1.34,-2.87 -1.19,-5.14 0.1,-1.64 -0.62,-2.64 -1.86,-3.64 -2.09,-1.68 -4.14,-3.53 -6.34,-5.04 -1.66,-1.14 -3.18,-2.89 -5.32,-2.83 -0.61,0 -1.07,-0.07 -1.65,0.13 z"
   id="path221"
   inkscape:connector-curvature="0"
   style="fill:#0057a0" />
					<path
   class="st21"
   d="m 370.32,67.57 c -0.05,-0.82 0.82,-1.91 1.57,-2.27 0.73,-0.34 1.59,-0.14 2.36,-0.18 1.84,-0.11 3.02,-0.42 4.31,-1.77 1.13,-1.18 2.06,-1.94 3.56,-0.99 2.21,1.4 1.32,3.57 1.38,5.76 0.02,0.69 0.05,1.72 0.26,2.37 0.19,0.59 0.66,0.88 0.93,1.36 1.14,2.07 -0.91,4.78 -2.27,6.22 -2.15,2.28 -5.15,4.12 -8.36,2.95 -1.41,-0.52 -1.95,-1.94 -2.45,-3.23 -0.54,-1.41 -1.43,-2.79 -1.57,-4.31 -0.09,-0.99 0.12,-1.95 0.25,-2.93 0.09,-0.69 -0.09,-1.22 -0.11,-1.89 -0.02,-0.35 -0.05,-0.61 0.14,-1.09 z"
   id="path223"
   inkscape:connector-curvature="0"
   style="fill:#b8732a" />
					<path
   class="st21"
   d="m 384.95,73.89 c 0.68,-1.55 3.05,-3.32 2.57,-5.28 -0.23,-0.94 -1.07,-1.16 -1.76,-0.49 -0.67,0.64 -0.75,2.02 -1.23,2.77 -0.63,0.95 -0.9,1.86 0.42,3 z"
   id="path225"
   inkscape:connector-curvature="0"
   style="fill:#b8732a" />
					<path
   class="st21"
   d="m 374.86,79.8 c -0.46,0.7 -0.34,2.28 -0.59,3.25 -0.34,1.36 -1.05,2.78 -0.99,4.23 2.93,1.92 5.87,0.17 8.3,-1.95 1.44,-1.26 2.36,-1.92 2.64,-3.78 0.31,-2.09 0.15,-4.23 0.33,-6.34 -1.59,-0.29 -4.53,2.08 -6.01,2.87 -0.96,0.51 -2.37,1.71 -3.68,1.72 z"
   id="path227"
   inkscape:connector-curvature="0"
   style="fill:#b8732a" />
					<path
   class="st21"
   d="m 345.77,70.52 c -0.18,0.08 -0.36,0.17 -0.53,0.26 -0.2,0.11 -0.38,0.21 -0.47,0.42 -0.07,0.17 -0.07,0.36 0.14,0.41 0.13,0.04 0.28,0.02 0.41,0 1.39,-0.18 2.84,-0.08 4.2,0.24 0.09,0.02 0.18,0.04 0.25,0.1 0.15,0.12 0.14,0.35 0.09,0.54 -0.16,0.61 -0.62,1.05 -1.19,1.3 -0.54,0.24 -1.25,0.39 -1.66,0.84 -0.08,0.09 -0.15,0.18 -0.18,0.29 -0.08,0.27 0.13,0.55 0.38,0.68 0.8,0.42 2.29,-0.37 3.13,-0.07 0.8,0.28 1.11,1.24 1.33,2.06 0.52,1.89 1.22,3.73 1.96,5.55 0.35,0.87 0.72,1.73 1.11,2.58 0.37,0.81 0.63,1.68 1,2.49 0.5,1.09 1.11,2.15 1.94,3.04 0.61,0.66 1.33,1.21 2.08,1.7 0.39,0.25 0.79,0.48 1.19,0.7 0.32,0.18 0.69,0.45 1.06,0.47 0.53,0.03 0.61,-5.21 0.58,-6.32 0,-0.12 -0.01,-0.25 -0.05,-0.37 -0.06,-0.2 -0.22,-0.35 -0.36,-0.49 -0.44,-0.45 -0.86,-0.93 -1.26,-1.42 -1.04,-1.31 -1.91,-2.75 -2.77,-4.18 -1.76,-2.94 -3.52,-5.87 -5.28,-8.81 -0.52,-0.87 -1.08,-1.77 -1.95,-2.29 -1.51,-0.91 -3.57,-0.46 -5.15,0.28 z"
   id="path229"
   inkscape:connector-curvature="0"
   style="fill:#b8732a" />
					<g
   id="g235">
						<g
   id="g233">
							<path
   class="st45"
   d="m 372.43,70.23 c -0.07,1.04 -0.24,2.06 -0.54,3.06 -0.31,1.02 1.49,1.05 1.74,0.24 0.34,-1.12 0.56,-2.25 0.64,-3.41 0.06,-0.98 -1.78,-0.75 -1.84,0.11 z"
   id="path231"
   inkscape:connector-curvature="0"
   style="fill:#7b3b1a" />
						</g>
					</g>
					<g
   id="g241">
						<g
   id="g239">
							<path
   class="st45"
   d="m 372.79,73.85 c 0.9,-0.17 1.74,-0.48 2.52,-0.97 0.31,-0.19 0.2,-0.4 -0.12,-0.44 -0.42,-0.05 -0.93,0.12 -1.28,0.34 -0.25,0.16 -0.51,0.28 -0.81,0.34 -0.27,0.05 -0.97,0.18 -1.05,0.51 -0.08,0.34 0.6,0.25 0.74,0.22 z"
   id="path237"
   inkscape:connector-curvature="0"
   style="fill:#7b3b1a" />
						</g>
					</g>
					<g
   id="g247">
						<g
   id="g245">
							<path
   class="st17"
   d="m 361.18,108.17 c -1.69,4.67 -2.59,9.42 -2.63,14.4 -0.02,1.81 3.64,1.21 3.65,-0.31 0.04,-4.72 0.81,-9.3 2.42,-13.74 0.68,-1.91 -2.93,-1.77 -3.44,-0.35 z"
   id="path243"
   inkscape:connector-curvature="0"
   style="fill:#0057a0" />
						</g>
					</g>
					<g
   id="g253">
						<g
   id="g251">
							<path
   class="st17"
   d="m 359.68,124.84 c 0.16,0.96 0.57,1.84 1.14,2.63 0.81,1.11 4.29,-0.17 3.34,-1.48 -0.46,-0.64 -0.73,-1.34 -0.86,-2.11 -0.14,-0.8 -1.54,-0.7 -2.08,-0.55 -0.66,0.19 -1.68,0.67 -1.54,1.51 z"
   id="path249"
   inkscape:connector-curvature="0"
   style="fill:#0057a0" />
						</g>
					</g>
					<g
   id="g259">
						<g
   id="g257">
							<path
   class="st17"
   d="m 362.92,128.35 c 0.69,0.98 2.25,0.69 3.26,0.51 1.72,-0.3 3.43,-0.61 5.15,-0.92 0.59,-0.1 1.96,-0.41 2.07,-1.17 0.11,-0.75 -1.06,-0.75 -1.53,-0.67 -1.03,0.18 -2.06,0.37 -3.09,0.55 -0.51,0.09 -1.03,0.18 -1.54,0.28 -0.17,0.03 -0.34,0.06 -0.51,0.09 -0.49,0.22 -0.63,0.2 -0.43,-0.05 -0.66,-0.9 -4.16,0.28 -3.38,1.38 z"
   id="path255"
   inkscape:connector-curvature="0"
   style="fill:#0057a0" />
						</g>
					</g>
					<g
   id="g265">
						<g
   id="g263">
							<path
   class="st17"
   d="m 375.78,127.26 c 0.49,-0.13 0.98,-0.27 1.47,-0.4 0.34,-0.09 1.77,-0.46 1.67,-1.01 -0.1,-0.51 -1.74,-0.1 -1.95,-0.04 -0.49,0.13 -0.98,0.27 -1.47,0.4 -0.34,0.09 -1.77,0.46 -1.67,1.01 0.1,0.52 1.74,0.1 1.95,0.04 z"
   id="path261"
   inkscape:connector-curvature="0"
   style="fill:#0057a0" />
						</g>
					</g>
					<g
   id="g271">
						<g
   id="g269">
							<path
   class="st17"
   d="m 361.76,95.46 c 1.49,0.26 3.02,0.03 4.41,-0.54 0.4,-0.16 1.54,-0.78 0.99,-1.34 -0.53,-0.54 -1.8,-0.21 -2.37,0.03 -0.47,0.19 0.31,-0.02 -0.2,0.07 0.32,-0.06 -0.13,0.01 0.02,0 0.14,-0.02 -0.3,0 -0.3,0 0.2,0.01 -0.34,-0.06 -0.3,-0.05 -0.84,-0.15 -1.9,0.14 -2.55,0.68 -0.57,0.48 -0.44,1.03 0.3,1.15 z"
   id="path267"
   inkscape:connector-curvature="0"
   style="fill:#0057a0" />
						</g>
					</g>
					<g
   id="g277">
						<g
   id="g275">
							<path
   class="st17"
   d="m 361.71,90.04 c -0.05,0.82 -0.1,1.64 -0.16,2.45 -0.05,0.77 0.99,0.79 1.54,0.71 0.47,-0.07 0.96,-0.2 1.37,-0.46 0.24,-0.15 0.67,-0.41 0.69,-0.73 0.05,-0.82 0.1,-1.64 0.16,-2.45 0.05,-0.77 -0.99,-0.79 -1.54,-0.71 -0.47,0.07 -0.96,0.2 -1.37,0.46 -0.24,0.15 -0.67,0.42 -0.69,0.73 z"
   id="path273"
   inkscape:connector-curvature="0"
   style="fill:#0057a0" />
						</g>
					</g>
					<g
   id="g283">
						<g
   id="g281">
							<path
   class="st17"
   d="m 365.65,88.28 c 1.16,-0.26 2.24,-0.74 3.27,-1.34 0.59,-0.35 0.96,-1.21 0.25,-1.64 -0.78,-0.48 -1.87,-0.15 -2.57,0.28 -0.34,0.2 0.13,-0.04 -0.2,0.11 -0.18,0.08 -0.37,0.16 -0.55,0.24 -0.13,0.05 -0.11,0.04 0.07,-0.02 -0.08,0.03 -0.16,0.05 -0.25,0.08 -0.19,0.06 -0.39,0.11 -0.58,0.15 -0.63,0.14 -1.73,0.76 -1.52,1.56 0.21,0.82 1.47,0.71 2.08,0.58 z"
   id="path279"
   inkscape:connector-curvature="0"
   style="fill:#0057a0" />
						</g>
					</g>
					<g
   id="g289">
						<g
   id="g287">
							<path
   class="st17"
   d="m 381.28,88.6 c 1,-0.96 2.03,-1.88 3.1,-2.76 0.6,-0.5 0.34,-1.18 -0.36,-1.34 -0.87,-0.21 -1.88,0.13 -2.55,0.68 -1.07,0.88 -2.1,1.8 -3.1,2.76 -0.55,0.53 -0.39,1.17 0.36,1.34 0.81,0.2 1.94,-0.09 2.55,-0.68 z"
   id="path285"
   inkscape:connector-curvature="0"
   style="fill:#0057a0" />
						</g>
					</g>
					<g
   id="g295">
						<g
   id="g293">
							<path
   class="st17"
   d="m 381.88,104.31 c 1.42,-1.38 3.11,-2.13 5.08,-2.26 0.7,-0.05 1.93,-0.52 2.02,-1.35 0.09,-0.88 -0.98,-1.04 -1.62,-0.99 -3.19,0.22 -6.15,1.54 -8.45,3.76 -0.6,0.58 -0.31,1.28 0.41,1.53 0.84,0.28 1.94,-0.1 2.56,-0.69 z"
   id="path291"
   inkscape:connector-curvature="0"
   style="fill:#0057a0" />
						</g>
					</g>
					<g
   id="g301">
						<g
   id="g299">
							<path
   class="st35"
   d="m 365.02,63.09 c -1.12,1.71 -0.44,3.81 1.6,4.34 2.39,0.62 4.73,-0.66 6.14,-2.52 0.5,-0.66 -0.43,-0.87 -0.93,-0.87 -0.76,0.01 -1.91,0.28 -2.4,0.94 -0.13,0.17 -0.81,0.88 -0.79,0.95 0.02,0.08 0.62,-0.21 0.65,-0.16 -0.01,-0.01 -0.53,-0.27 -0.55,-0.28 -0.72,-0.56 -0.88,-1.7 -0.39,-2.46 0.44,-0.67 -0.39,-0.87 -0.93,-0.87 -0.71,0 -1.96,0.26 -2.4,0.93 z"
   id="path297"
   inkscape:connector-curvature="0"
   style="fill:#a3d9f6" />
						</g>
					</g>
					<g
   id="g307">
						<g
   id="g305">
							<path
   class="st35"
   d="m 371.23,63.88 c 1.68,1.34 4.37,0.62 6.11,-0.26 2.1,-1.06 3.61,-3.06 4.57,-5.16 0.25,-0.55 -1.24,-0.29 -1.42,-0.26 -0.53,0.1 -1.86,0.34 -2.13,0.93 -0.43,0.94 -0.94,1.83 -1.6,2.64 -0.7,0.86 -1.14,1.68 -2.11,0.91 -0.73,-0.57 -3.84,0.87 -3.42,1.2 z"
   id="path303"
   inkscape:connector-curvature="0"
   style="fill:#a3d9f6" />
						</g>
					</g>
					<g
   id="g313">
						<g
   id="g311">
							<path
   class="st35"
   d="m 380.22,61.56 c 2.81,0.55 3.31,3.31 3.62,5.75 0.18,1.47 3.81,0.61 3.61,-0.97 -0.41,-3.22 -1.53,-6.32 -5.09,-7.01 -0.87,-0.17 -1.93,-0.01 -2.55,0.68 -0.49,0.54 -0.42,1.38 0.41,1.55 z"
   id="path309"
   inkscape:connector-curvature="0"
   style="fill:#a3d9f6" />
						</g>
					</g>
					<g
   id="g319">
						<g
   id="g317">
							<path
   class="st35"
   d="m 384.5,75.05 c 0.81,3.18 3.86,5.36 3.76,8.84 -0.1,3.51 -3.22,5.21 -4.75,8.04 -0.94,1.75 2.71,1.73 3.44,0.37 1.71,-3.18 4.8,-4.74 4.96,-8.71 0.15,-3.93 -2.91,-6.01 -3.8,-9.51 -0.4,-1.61 -4.02,-0.66 -3.61,0.97 z"
   id="path315"
   inkscape:connector-curvature="0"
   style="fill:#a3d9f6" />
						</g>
					</g>
					<g
   id="g325">
						<g
   id="g323">
							<path
   class="st35"
   d="m 380.93,94 c -0.02,0.05 -0.04,0.1 -0.07,0.15 -0.3,0.69 1.21,0.61 1.5,0.56 0.68,-0.12 1.77,-0.39 2.09,-1.1 0.02,-0.05 0.04,-0.1 0.07,-0.15 0.3,-0.69 -1.21,-0.61 -1.5,-0.56 -0.68,0.11 -1.77,0.38 -2.09,1.1 z"
   id="path321"
   inkscape:connector-curvature="0"
   style="fill:#a3d9f6" />
						</g>
					</g>
					<g
   id="g331">
						<g
   id="g329">
							<path
   class="st35"
   d="m 381.99,115.31 c 1.36,2.5 5.58,0.7 7.35,-0.4 3.08,-1.92 4.76,-5.08 6.31,-8.25 0.44,-0.89 -3.07,-0.56 -3.6,0.51 -0.76,1.55 -1.52,3.12 -2.56,4.51 -0.44,0.59 -3.25,3.84 -3.89,2.66 -0.61,-1.11 -4.08,0.12 -3.61,0.97 z"
   id="path327"
   inkscape:connector-curvature="0"
   style="fill:#a3d9f6" />
						</g>
					</g>
					<g
   id="g337">
						<g
   id="g335">
							<path
   class="st35"
   d="m 395.09,58.49 c -0.03,-0.07 -0.06,-0.15 -0.09,-0.22 -0.32,-0.82 -1.37,-0.97 -2.14,-0.74 -0.61,0.18 -1.81,0.86 -1.48,1.71 0.03,0.07 0.06,0.15 0.09,0.22 0.32,0.82 1.37,0.97 2.14,0.74 0.61,-0.19 1.81,-0.87 1.48,-1.71 z"
   id="path333"
   inkscape:connector-curvature="0"
   style="fill:#a3d9f6" />
						</g>
					</g>
					<g
   id="g343">
						<g
   id="g341">
							<path
   class="st35"
   d="m 392.61,60.82 c -0.02,0.05 -0.04,0.1 -0.07,0.15 -0.36,0.81 0.33,1.53 1.13,1.61 0.87,0.09 1.97,-0.27 2.35,-1.13 0.02,-0.05 0.04,-0.1 0.07,-0.15 0.36,-0.81 -0.33,-1.53 -1.13,-1.61 -0.87,-0.09 -1.97,0.27 -2.35,1.13 z"
   id="path339"
   inkscape:connector-curvature="0"
   style="fill:#a3d9f6" />
						</g>
					</g>
					<g
   id="g349">
						<g
   id="g347">
							<path
   class="st35"
   d="m 393.44,63.95 c -0.02,0.05 -0.04,0.1 -0.07,0.15 -0.25,0.56 1.23,0.32 1.43,0.28 0.47,-0.09 0.94,-0.22 1.38,-0.42 0.24,-0.11 0.64,-0.27 0.75,-0.52 0.02,-0.05 0.04,-0.1 0.07,-0.15 0.25,-0.56 -1.23,-0.32 -1.43,-0.28 -0.47,0.09 -0.94,0.22 -1.38,0.42 -0.24,0.11 -0.64,0.26 -0.75,0.52 z"
   id="path345"
   inkscape:connector-curvature="0"
   style="fill:#a3d9f6" />
						</g>
					</g>
					<g
   id="g355">
						<g
   id="g353">
							<path
   class="st35"
   d="m 397.19,66.37 c -0.84,-0.49 -2.19,-0.24 -2.93,0.33 -0.49,0.38 -1.05,1.1 -0.28,1.54 0.7,0.4 1.95,0.17 2.57,-0.3 0.03,-0.02 0.05,-0.04 0.08,-0.06 -0.29,0.13 -0.58,0.25 -0.88,0.38 0.03,-0.01 0.06,-0.02 0.1,-0.02 -0.32,0.04 -0.63,0.07 -0.95,0.11 0.03,0 0.07,0.01 0.1,0.01 -0.25,-0.06 -0.5,-0.12 -0.74,-0.18 0.03,0.02 0.06,0.03 0.09,0.05 0.73,0.42 1.91,0.15 2.57,-0.3 0.52,-0.39 1.04,-1.12 0.27,-1.56 z"
   id="path351"
   inkscape:connector-curvature="0"
   style="fill:#a3d9f6" />
						</g>
					</g>
					<g
   id="g361">
						<g
   id="g359">
							<path
   class="st35"
   d="m 381.94,112.36 c -0.02,0.05 -0.04,0.1 -0.07,0.15 -0.35,0.8 0.33,1.47 1.11,1.54 0.84,0.08 1.98,-0.26 2.35,-1.11 0.02,-0.05 0.04,-0.1 0.07,-0.15 0.35,-0.8 -0.33,-1.47 -1.11,-1.54 -0.84,-0.09 -1.98,0.26 -2.35,1.11 z"
   id="path357"
   inkscape:connector-curvature="0"
   style="fill:#a3d9f6" />
						</g>
					</g>
					<g
   id="g367">
						<g
   id="g365">
							<path
   class="st35"
   d="m 383.47,110.97 c 1.17,0 3.9,-1.75 1.49,-1.75 -1.17,0 -3.9,1.75 -1.49,1.75 z"
   id="path363"
   inkscape:connector-curvature="0"
   style="fill:#a3d9f6" />
						</g>
					</g>
					<g
   id="g373">
						<g
   id="g371">
							<path
   class="st35"
   d="m 386.84,107.43 c 0.02,-0.05 0.04,-0.1 0.07,-0.15 0.25,-0.56 -1.23,-0.32 -1.43,-0.28 -0.47,0.09 -0.94,0.22 -1.38,0.42 -0.24,0.11 -0.64,0.27 -0.75,0.52 -0.02,0.05 -0.04,0.1 -0.07,0.15 -0.25,0.56 1.23,0.32 1.43,0.28 0.47,-0.09 0.94,-0.22 1.38,-0.42 0.24,-0.11 0.64,-0.27 0.75,-0.52 z"
   id="path369"
   inkscape:connector-curvature="0"
   style="fill:#a3d9f6" />
						</g>
					</g>
					<g
   id="g379">
						<g
   id="g377">
							<path
   class="st17"
   d="m 381.11,123.66 c -0.05,-0.02 -0.1,-0.04 -0.15,-0.07 -0.78,-0.34 -1.87,-0.13 -2.56,0.33 -0.45,0.3 -1.12,1.08 -0.31,1.44 0.05,0.02 0.1,0.04 0.15,0.07 0.78,0.34 1.87,0.13 2.56,-0.33 0.46,-0.3 1.13,-1.08 0.31,-1.44 z"
   id="path375"
   inkscape:connector-curvature="0"
   style="fill:#0057a0" />
						</g>
					</g>
					<g
   id="g385">
						<g
   id="g383">
							<path
   class="st17"
   d="m 382.04,122.21 c 0.02,-0.05 0.04,-0.1 0.07,-0.15 0.12,-0.27 -0.16,-0.52 -0.36,-0.62 -0.33,-0.16 -0.84,-0.16 -1.19,-0.11 -0.77,0.12 -1.72,0.43 -2.06,1.2 -0.02,0.05 -0.04,0.1 -0.07,0.15 -0.12,0.27 0.16,0.52 0.36,0.62 0.33,0.16 0.84,0.16 1.19,0.11 0.78,-0.12 1.73,-0.43 2.06,-1.2 z"
   id="path381"
   inkscape:connector-curvature="0"
   style="fill:#0057a0" />
						</g>
					</g>
					<g
   id="g391">
						<g
   id="g389">
							<path
   class="st17"
   d="m 382.32,120.1 c -0.03,-0.07 -0.06,-0.15 -0.09,-0.22 -0.3,-0.78 -1.42,-0.77 -2.09,-0.57 -0.52,0.15 -1.83,0.75 -1.52,1.54 0.03,0.07 0.06,0.15 0.08,0.22 0.3,0.78 1.42,0.77 2.09,0.57 0.53,-0.16 1.84,-0.76 1.53,-1.54 z"
   id="path387"
   inkscape:connector-curvature="0"
   style="fill:#0057a0" />
						</g>
					</g>
					<g
   id="g397">
						<g
   id="g395">
							<path
   class="st17"
   d="m 359.25,114 c -0.05,-0.02 -0.1,-0.04 -0.15,-0.07 -0.31,-0.14 -0.85,-0.07 -1.16,-0.02 -0.46,0.07 -0.96,0.22 -1.37,0.44 -0.44,0.23 -1.14,0.78 -0.4,1.1 0.05,0.02 0.1,0.04 0.15,0.07 0.31,0.14 0.85,0.07 1.16,0.02 0.46,-0.07 0.96,-0.22 1.37,-0.44 0.43,-0.23 1.14,-0.78 0.4,-1.1 z"
   id="path393"
   inkscape:connector-curvature="0"
   style="fill:#0057a0" />
						</g>
					</g>
					<g
   id="g403">
						<g
   id="g401">
							<path
   class="st17"
   d="m 358.83,118.21 c 2.04,0 2.79,-2.58 0.34,-2.58 -2.04,0 -2.8,2.58 -0.34,2.58 z"
   id="path399"
   inkscape:connector-curvature="0"
   style="fill:#0057a0" />
						</g>
					</g>
					<g
   id="g409">
						<g
   id="g407">
							<path
   class="st17"
   d="m 356.45,112.05 c -0.02,0.05 -0.04,0.1 -0.07,0.15 -0.34,0.78 0.31,1.36 1.07,1.41 0.8,0.06 2,-0.26 2.36,-1.08 0.02,-0.05 0.04,-0.1 0.07,-0.15 0.34,-0.78 -0.31,-1.36 -1.07,-1.41 -0.79,-0.05 -2,0.26 -2.36,1.08 z"
   id="path405"
   inkscape:connector-curvature="0"
   style="fill:#0057a0" />
						</g>
					</g>
					<g
   id="g415">
						<g
   id="g413">
							<path
   class="st17"
   d="m 362.03,107.21 c 2.04,-5.08 3.96,-10.19 5.79,-15.35 0.23,-0.65 -3.24,-0.29 -3.56,0.64 -1.82,5.16 -3.75,10.27 -5.79,15.35 -0.24,0.6 3.19,0.29 3.56,-0.64 z"
   id="path411"
   inkscape:connector-curvature="0"
   style="fill:#0057a0" />
						</g>
					</g>
					<g
   id="g421">
						<g
   id="g419">
							<path
   class="st17"
   d="m 374.38,84.27 c -0.03,-0.07 -0.06,-0.15 -0.09,-0.22 -0.24,-0.62 -1.54,-0.32 -1.99,-0.19 -0.32,0.09 -1.86,0.57 -1.63,1.16 0.03,0.07 0.06,0.15 0.09,0.22 0.24,0.62 1.54,0.32 1.99,0.19 0.32,-0.09 1.86,-0.57 1.63,-1.16 z"
   id="path417"
   inkscape:connector-curvature="0"
   style="fill:#0057a0" />
						</g>
					</g>
					<g
   id="g427">
						<g
   id="g425">
							<path
   class="st17"
   d="m 370.18,86.05 c -0.02,0.05 -0.04,0.1 -0.07,0.15 -0.35,0.8 0.33,1.48 1.11,1.56 0.85,0.09 1.98,-0.27 2.35,-1.12 0.02,-0.05 0.04,-0.1 0.07,-0.15 0.35,-0.8 -0.33,-1.48 -1.11,-1.56 -0.86,-0.09 -1.98,0.26 -2.35,1.12 z"
   id="path423"
   inkscape:connector-curvature="0"
   style="fill:#0057a0" />
						</g>
					</g>
					<g
   id="g433">
						<g
   id="g431">
							<path
   class="st17"
   d="m 375.54,97.82 c 0.98,1.96 1.84,3.96 2.59,6.02 0.47,1.29 4.05,0.25 3.61,-0.97 -0.75,-2.06 -1.61,-4.06 -2.59,-6.02 -0.63,-1.26 -4.16,-0.11 -3.61,0.97 z"
   id="path429"
   inkscape:connector-curvature="0"
   style="fill:#0057a0" />
						</g>
					</g>
					<g
   id="g439">
						<g
   id="g437">
							<path
   class="st5"
   d="m 357.38,135.14 c -0.17,4.15 0.17,8.23 1.07,12.29 0.27,1.2 3.89,0.29 3.61,-0.97 -0.87,-3.89 -1.24,-7.8 -1.08,-11.79 0.06,-1.43 -3.56,-0.69 -3.6,0.47 z"
   id="path435"
   inkscape:connector-curvature="0"
   style="fill:#fcba13" />
						</g>
					</g>
					<g
   id="g445">
						<g
   id="g443">
							<path
   class="st5"
   d="m 346.01,141.62 c -0.02,0.02 -0.05,0.04 -0.07,0.06 -0.13,0.1 -0.48,0.33 -0.41,0.57 0.01,0.04 0.02,0.07 0.03,0.11 0.07,0.23 0.47,0.28 0.64,0.29 1.81,0.06 3.67,-0.74 5.38,-1.26 2.12,-0.64 4.23,-1.33 6.32,-2.06 0.4,-0.14 1.42,-0.54 1.06,-1.09 -0.33,-0.49 -1.98,0.05 -2.34,0.17 -1.55,0.54 -3.11,1.06 -4.68,1.55 -0.69,0.21 -1.38,0.42 -2.08,0.62 -0.29,0.08 -2.4,0.48 -1.34,0.52 0.21,0.1 0.43,0.19 0.64,0.29 -0.01,-0.04 -0.02,-0.07 -0.03,-0.11 -0.14,0.19 -0.28,0.38 -0.41,0.57 0.02,-0.02 0.05,-0.04 0.07,-0.06 1.46,-1.14 -2.11,-0.7 -2.78,-0.17 z"
   id="path441"
   inkscape:connector-curvature="0"
   style="fill:#fcba13" />
						</g>
					</g>
					<g
   id="g451">
						<g
   id="g449">
							<path
   class="st5"
   d="m 342.98,142.47 c -0.01,0.02 -0.02,0.04 -0.03,0.06 0.53,-0.33 1.07,-0.66 1.6,-1 -0.02,0.01 -0.04,0.01 -0.06,0.02 0.55,-0.02 1.1,-0.04 1.66,-0.06 0.07,0.11 0.13,0.22 0.2,0.32 0.3,-0.69 -1.21,-0.6 -1.5,-0.55 -0.67,0.11 -1.78,0.39 -2.09,1.1 -0.28,0.66 0.8,0.8 1.18,0.78 0.91,-0.04 2.18,-0.35 2.63,-1.22 0.13,-0.24 -0.16,-0.44 -0.33,-0.51 -0.34,-0.13 -0.83,-0.1 -1.17,-0.04 -0.73,0.12 -1.72,0.39 -2.09,1.1 z"
   id="path447"
   inkscape:connector-curvature="0"
   style="fill:#fcba13" />
						</g>
					</g>
					<g
   id="g457">
						<g
   id="g455">
							<path
   class="st5"
   d="m 340.95,142.35 c -0.03,0.02 -0.07,0.03 -0.1,0.05 0.61,-0.16 1.22,-0.33 1.82,-0.49 -0.04,0 -0.08,0 -0.11,0.01 0.24,0.03 0.48,0.05 0.72,0.08 0.01,0 0.02,0.01 0.03,0.01 -0.56,-0.48 -1.76,-0.14 -2.35,0.11 -0.29,0.12 -1.59,0.72 -1.03,1.2 0.82,0.7 2.37,0.16 3.18,-0.24 0.41,-0.2 1.15,-0.85 0.39,-1.13 -0.78,-0.3 -1.86,0.05 -2.55,0.4 z"
   id="path453"
   inkscape:connector-curvature="0"
   style="fill:#fcba13" />
						</g>
					</g>
					<g
   id="g463">
						<g
   id="g461">
							<path
   class="st5"
   d="m 337.59,144.13 c 0,0.02 0,0.05 0.01,0.07 0.05,-0.13 0.11,-0.26 0.16,-0.39 -0.02,0.02 -0.04,0.04 -0.05,0.06 0.8,-0.3 1.61,-0.6 2.41,-0.89 -0.02,0 -0.05,0 -0.08,0 0.35,0.1 0.7,0.21 1.04,0.31 -0.01,0.02 -0.03,0.03 -0.04,0.05 -0.13,0.14 -0.26,0.27 -0.39,0.41 0.02,-0.01 0.04,-0.03 0.06,-0.04 0.15,-0.09 0.47,-0.36 0.41,-0.6 -0.06,-0.24 -0.47,-0.3 -0.65,-0.31 -0.88,-0.08 -1.81,0.24 -2.55,0.68 -0.22,0.13 -0.56,0.41 -0.49,0.71 0.1,0.42 0.83,0.39 1.12,0.38 0.69,-0.04 1.43,-0.22 2.03,-0.59 0.32,-0.19 0.66,-0.42 0.62,-0.83 -0.06,-0.77 -3.69,-0.1 -3.61,0.98 z"
   id="path459"
   inkscape:connector-curvature="0"
   style="fill:#fcba13" />
						</g>
					</g>
					<g
   id="g469">
						<g
   id="g467">
							<path
   class="st5"
   d="m 335.12,144.01 c -0.01,0.04 -0.03,0.08 -0.04,0.13 -0.26,0.82 0.26,1.46 1.11,1.54 0.76,0.07 2.08,-0.25 2.35,-1.11 0.01,-0.04 0.03,-0.08 0.04,-0.13 0.26,-0.82 -0.26,-1.46 -1.11,-1.54 -0.76,-0.07 -2.08,0.25 -2.35,1.11 z"
   id="path465"
   inkscape:connector-curvature="0"
   style="fill:#fcba13" />
						</g>
					</g>
					<g
   id="g475">
						<g
   id="g473">
							<path
   class="st5"
   d="m 332.83,145.22 c -1.16,0.98 -1.96,2.35 -2.15,3.87 -0.18,1.49 3.46,0.86 3.62,-0.43 0.14,-1.11 0.59,-2.05 1.44,-2.78 0.59,-0.5 0.35,-1.18 -0.36,-1.35 -0.86,-0.2 -1.89,0.13 -2.55,0.69 z"
   id="path471"
   inkscape:connector-curvature="0"
   style="fill:#fcba13" />
						</g>
					</g>
					<g
   id="g481">
						<g
   id="g479">
							<path
   class="st5"
   d="m 330.26,153.36 c -0.01,0.02 -0.01,0.05 -0.02,0.07 0.37,-0.28 0.75,-0.57 1.12,-0.85 -0.02,0.01 -0.05,0.02 -0.07,0.03 0.79,-0.03 1.57,-0.06 2.36,-0.08 -0.02,-0.01 -0.04,-0.03 -0.06,-0.04 -0.63,-0.44 -1.7,-0.19 -2.36,0.08 -0.25,0.1 -1.64,0.81 -1.02,1.24 0.63,0.44 1.51,0.25 2.18,0.03 0.49,-0.16 1.32,-0.45 1.45,-1.02 0.26,-1.08 -3.34,-0.52 -3.58,0.54 z"
   id="path477"
   inkscape:connector-curvature="0"
   style="fill:#fcba13" />
						</g>
					</g>
					<g
   id="g487">
						<g
   id="g485">
							<path
   class="st5"
   d="m 328.01,147.99 c 0.45,-8.59 9.11,-15.86 16.38,-19.06 2.16,-0.95 -1.25,-0.71 -2.05,-0.36 -7.94,3.5 -17.45,10.98 -17.95,20.38 -0.01,0.41 3.57,0.03 3.62,-0.96 z"
   id="path483"
   inkscape:connector-curvature="0"
   style="fill:#fcba13" />
						</g>
					</g>
					<g
   id="g493">
						<g
   id="g491">
							<path
   class="st5"
   d="m 348.71,126.39 c 0.02,-0.04 0.04,-0.08 0.05,-0.12 0.12,-0.27 -0.17,-0.57 -0.38,-0.67 -0.33,-0.18 -0.84,-0.19 -1.19,-0.14 -0.82,0.12 -1.7,0.45 -2.05,1.25 -0.02,0.04 -0.04,0.08 -0.05,0.12 -0.12,0.27 0.17,0.57 0.38,0.67 0.33,0.18 0.84,0.19 1.19,0.14 0.82,-0.12 1.7,-0.45 2.05,-1.25 z"
   id="path489"
   inkscape:connector-curvature="0"
   style="fill:#fcba13" />
						</g>
					</g>
					<g
   id="g499">
						<g
   id="g497">
							<path
   class="st5"
   d="m 350.83,125.03 c 0.04,-0.08 0.07,-0.16 0.11,-0.24 0.25,-0.56 -1.23,-0.33 -1.43,-0.29 -0.47,0.09 -0.94,0.22 -1.38,0.42 -0.24,0.11 -0.64,0.27 -0.75,0.53 -0.04,0.08 -0.07,0.16 -0.11,0.24 -0.25,0.56 1.23,0.33 1.43,0.29 0.47,-0.09 0.94,-0.22 1.38,-0.42 0.24,-0.11 0.64,-0.27 0.75,-0.53 z"
   id="path495"
   inkscape:connector-curvature="0"
   style="fill:#fcba13" />
						</g>
					</g>
					<g
   id="g505">
						<g
   id="g503">
							<path
   class="st5"
   d="m 350.42,124.21 c 0,0.02 -0.01,0.05 -0.01,0.07 0.12,-0.16 0.25,-0.32 0.37,-0.48 -0.02,0.01 -0.04,0.03 -0.06,0.04 0.57,-0.23 1.13,-0.45 1.7,-0.68 -0.03,0 -0.05,0 -0.08,0.01 0.39,0.03 0.79,0.06 1.18,0.09 -0.02,-0.01 -0.05,-0.02 -0.07,-0.04 0.12,0.12 0.24,0.23 0.36,0.35 -0.06,-0.09 -0.07,-0.12 -0.03,-0.08 0.22,-1.25 -3.4,-0.64 -3.6,0.5 -0.16,0.88 0.65,1.09 1.4,1.04 0.58,-0.04 1.17,-0.18 1.68,-0.48 0.3,-0.17 0.73,-0.45 0.77,-0.82 0.09,-0.76 -1.03,-0.74 -1.53,-0.66 -0.47,0.07 -0.96,0.2 -1.37,0.46 -0.25,0.12 -0.67,0.37 -0.71,0.68 z"
   id="path501"
   inkscape:connector-curvature="0"
   style="fill:#fcba13" />
						</g>
					</g>
					<g
   id="g511">
						<g
   id="g509">
							<path
   class="st5"
   d="m 356.71,122.19 c -0.02,-0.06 -0.05,-0.12 -0.07,-0.18 -0.31,-0.79 -1.4,-0.84 -2.11,-0.63 -0.55,0.16 -1.82,0.79 -1.51,1.6 0.02,0.06 0.05,0.12 0.07,0.18 0.31,0.79 1.4,0.84 2.11,0.63 0.55,-0.16 1.82,-0.79 1.51,-1.6 z"
   id="path507"
   inkscape:connector-curvature="0"
   style="fill:#fcba13" />
						</g>
					</g>
					<g
   id="g517">
						<g
   id="g515">
							<path
   class="st5"
   d="m 357.85,120.1 c -0.06,0.02 -0.12,0.05 -0.18,0.07 -0.53,0.21 -1.47,0.93 -0.93,1.56 0.54,0.64 1.77,0.35 2.41,0.1 0.06,-0.02 0.12,-0.05 0.18,-0.07 0.53,-0.21 1.47,-0.93 0.93,-1.56 -0.55,-0.64 -1.77,-0.35 -2.41,-0.1 z"
   id="path513"
   inkscape:connector-curvature="0"
   style="fill:#fcba13" />
						</g>
					</g>
					<g
   id="g523">
						<g
   id="g521">
							<path
   class="st5"
   d="m 323.49,157.92 c 0.71,4.15 1.75,8.2 3.13,12.18 0.56,1.63 4.17,0.63 3.61,-0.97 -1.38,-3.98 -2.42,-8.03 -3.13,-12.18 -0.28,-1.65 -3.9,-0.74 -3.61,0.97 z"
   id="path519"
   inkscape:connector-curvature="0"
   style="fill:#fcba13" />
						</g>
					</g>
					<g
   id="g529">
						<g
   id="g527">
							<path
   class="st5"
   d="m 327.72,171.83 c -0.12,0.91 0.18,1.54 1.17,1.62 0.71,0.06 1.47,-0.11 2.13,-0.36 0.46,-0.17 1.21,-0.48 1.36,-1.02 0.17,-0.64 -1.15,-0.45 -1.46,-0.39 -0.47,0.09 -0.94,0.22 -1.38,0.43 -0.23,0.11 -0.66,0.31 -0.74,0.58 -0.06,0.18 0,0.14 0.19,-0.12 0.25,-0.12 0.5,-0.24 0.76,-0.37 0.26,-0.07 0.52,-0.14 0.78,-0.21 0.28,-0.02 0.56,-0.04 0.84,-0.06 -0.14,-0.01 -0.13,0 0.03,0.03 0.15,0.05 0.17,0.04 0.05,-0.03 -0.02,-0.08 -0.09,-0.17 -0.11,-0.26 -0.07,-0.27 -0.03,-0.55 0,-0.81 0.03,-0.22 -0.58,-0.27 -0.64,-0.28 -0.43,-0.03 -0.92,0.05 -1.32,0.17 -0.55,0.15 -1.58,0.42 -1.66,1.08 z"
   id="path525"
   inkscape:connector-curvature="0"
   style="fill:#fcba13" />
						</g>
					</g>
					<g
   id="g535">
						<g
   id="g533">
							<path
   class="st5"
   d="m 387.72,164.56 c 0.51,0.89 1.99,0.76 2.85,0.84 1.24,0.11 2.48,0.22 3.73,0.33 0.83,0.07 1.98,-0.26 2.36,-1.09 0.36,-0.8 -0.32,-1.39 -1.09,-1.46 -0.88,-0.08 -1.75,-0.15 -2.63,-0.23 -0.75,-0.07 -1.7,0.01 -2.43,-0.2 0.2,0.13 0.4,0.27 0.61,0.4 -0.03,-0.05 -0.06,-0.1 -0.09,-0.15 -0.77,-1.36 -4.23,-0.04 -3.31,1.56 z"
   id="path531"
   inkscape:connector-curvature="0"
   style="fill:#fcba13" />
						</g>
					</g>
					<g
   id="g541">
						<g
   id="g539">
							<path
   class="st5"
   d="m 393.45,164.93 c -0.27,0.56 -0.45,1.1 -0.47,1.73 -0.03,0.8 0.95,0.92 1.58,0.83 0.47,-0.07 0.97,-0.2 1.37,-0.47 0.25,-0.17 0.67,-0.46 0.68,-0.79 0.01,-0.39 0.06,-0.82 0.23,-1.18 0.75,-1.6 -2.86,-1.25 -3.39,-0.12 z"
   id="path537"
   inkscape:connector-curvature="0"
   style="fill:#fcba13" />
						</g>
					</g>
					<g
   id="g547">
						<g
   id="g545">
							<path
   class="st5"
   d="m 374.07,133.65 c -0.26,8.39 -9.81,17.86 -0.89,25.14 0.72,0.59 3.85,-0.84 3.41,-1.19 -8.61,-7.03 0.83,-16.71 1.09,-24.91 0.02,-0.44 -3.58,-0.02 -3.61,0.96 z"
   id="path543"
   inkscape:connector-curvature="0"
   style="fill:#fcba13" />
						</g>
					</g>
					<g
   id="g553">
						<g
   id="g551">
							<path
   class="st5"
   d="m 376.05,160.22 c 0.01,0 0.02,0 0.03,0 0.66,-0.26 1.32,-0.51 1.98,-0.77 -0.03,0.01 -0.07,0.01 -0.1,0.02 -0.46,0.07 -0.96,0.23 -1.38,0.42 -0.17,0.08 -0.67,0.29 -0.75,0.51 -0.21,0.56 1.27,0.29 1.42,0.26 0.56,-0.09 1.15,-0.26 1.66,-0.53 0.26,-0.14 0.59,-0.3 0.7,-0.59 0.22,-0.56 -1.21,-0.3 -1.42,-0.26 -0.47,0.09 -0.94,0.22 -1.38,0.42 -0.24,0.11 -0.66,0.27 -0.76,0.52 z"
   id="path549"
   inkscape:connector-curvature="0"
   style="fill:#fcba13" />
						</g>
					</g>
				</g>
				<g
   id="g561">
					<g
   id="g559">
						<path
   class="st23"
   d="m 317.08,90.12 c -1.2,0.11 2.63,-7.27 2.49,-7.06 1.06,-1.67 2.28,-3.27 3.55,-4.79 2.49,-2.96 5.32,-5.63 8.42,-7.95 3.36,-2.51 7.03,-4.6 10.92,-6.18 1.59,-0.65 4.82,-2.42 6.62,-2.13 3.45,0.55 1.58,1.51 0.93,2.97 -0.39,0.87 3.12,0.52 3.59,-0.54 0.67,-1.49 2.85,-2.55 1.58,-4.17 -1,-1.28 -3.87,-0.33 -5.04,-0.08 -6.52,1.35 -12.78,4.03 -18.36,7.64 -5.93,3.84 -11.16,8.82 -15.11,14.69 -1.73,2.57 -6.13,9.83 -0.17,9.29 1.64,-0.14 3.11,-1.92 0.58,-1.69 z"
   id="path557"
   inkscape:connector-curvature="0"
   style="fill:#eb6824" />
					</g>
				</g>
				<g
   id="g567">
					<g
   id="g565">
						<path
   class="st34"
   d="m 304.76,95.24 c -0.02,-0.12 -0.03,-0.24 -0.05,-0.36 0,-0.01 0,-0.03 0,-0.04 0,-0.15 0,-0.29 0.01,-0.44 0.04,-0.43 0.17,-0.83 0.38,-1.2 0.2,-0.35 0.46,-0.64 0.78,-0.89 0.36,-0.27 0.75,-0.45 1.19,-0.54 0.36,-0.07 0.72,-0.08 1.08,-0.02 0.4,0.06 0.77,0.2 1.11,0.42 0.3,0.19 0.57,0.43 0.78,0.72 0.24,0.31 0.41,0.65 0.5,1.03 0.02,0.07 0.04,0.14 0.05,0.21 0.02,0.12 0.03,0.24 0.05,0.36 0,0.01 0,0.02 0,0.04 0.01,0.25 0,0.49 -0.05,0.74 -0.05,0.23 -0.12,0.45 -0.21,0.66 -0.1,0.21 -0.22,0.4 -0.36,0.59 -0.19,0.25 -0.41,0.46 -0.67,0.63 -0.2,0.14 -0.42,0.25 -0.65,0.34 -0.09,0.03 -0.19,0.06 -0.29,0.09 -0.09,-0.73 -0.19,-1.46 -0.28,-2.19 0.34,-0.04 0.67,-0.09 1.01,-0.13 0,-0.25 0,-0.5 0,-0.75 -0.37,0.05 -0.74,0.1 -1.11,0.14 -0.02,-0.12 -0.03,-0.23 -0.04,-0.35 -0.03,-0.23 0.11,-0.41 0.34,-0.44 0.22,-0.03 0.45,-0.06 0.67,-0.09 0.02,0 0.03,-0.01 0.05,-0.01 -0.03,-0.25 -0.06,-0.49 -0.09,-0.73 -0.01,0 -0.03,0 -0.04,0 -0.22,0.03 -0.45,0.06 -0.67,0.09 -0.25,0.03 -0.47,0.13 -0.65,0.31 -0.21,0.2 -0.33,0.45 -0.34,0.74 0,0.17 0.03,0.34 0.04,0.51 0,0.02 0,0.04 0.01,0.06 -0.19,0.02 -0.37,0.05 -0.55,0.07 0.03,0.25 0.06,0.49 0.1,0.74 0.18,-0.02 0.37,-0.05 0.55,-0.07 0.09,0.73 0.19,1.45 0.28,2.18 -0.08,0 -0.16,0 -0.24,-0.01 -0.37,-0.03 -0.73,-0.13 -1.06,-0.29 -0.28,-0.13 -0.52,-0.31 -0.75,-0.52 -0.22,-0.2 -0.4,-0.43 -0.54,-0.69 -0.1,-0.18 -0.19,-0.38 -0.25,-0.58 -0.04,-0.11 -0.07,-0.22 -0.09,-0.33 z"
   id="path563"
   inkscape:connector-curvature="0"
   style="fill:#ffffff" />
					</g>
				</g>
				<g
   id="g573">
					<g
   id="g571">
						<path
   class="st34"
   d="m 328.63,57.61 c -0.04,-0.11 -0.08,-0.23 -0.12,-0.34 0,-0.01 0,-0.03 -0.01,-0.04 -0.03,-0.14 -0.06,-0.29 -0.08,-0.43 -0.05,-0.43 -0.01,-0.85 0.13,-1.26 0.13,-0.38 0.32,-0.72 0.59,-1.03 0.29,-0.34 0.65,-0.59 1.06,-0.77 0.33,-0.14 0.68,-0.22 1.05,-0.24 0.4,-0.02 0.79,0.04 1.17,0.18 0.34,0.13 0.64,0.31 0.91,0.54 0.29,0.26 0.53,0.56 0.7,0.91 0.03,0.06 0.06,0.13 0.1,0.19 0.04,0.11 0.08,0.23 0.12,0.34 0,0.01 0,0.02 0,0.04 0.06,0.24 0.1,0.48 0.1,0.73 0,0.23 -0.02,0.46 -0.07,0.69 -0.05,0.22 -0.13,0.44 -0.23,0.65 -0.13,0.28 -0.31,0.53 -0.52,0.76 -0.17,0.18 -0.36,0.33 -0.56,0.46 -0.08,0.05 -0.17,0.1 -0.26,0.15 -0.24,-0.7 -0.48,-1.39 -0.72,-2.08 0.32,-0.11 0.64,-0.22 0.96,-0.33 -0.05,-0.25 -0.1,-0.49 -0.16,-0.74 -0.35,0.12 -0.7,0.24 -1.05,0.37 -0.04,-0.11 -0.08,-0.22 -0.11,-0.33 -0.07,-0.22 0.02,-0.42 0.24,-0.5 0.21,-0.07 0.42,-0.15 0.64,-0.22 0.02,-0.01 0.03,-0.01 0.05,-0.02 -0.08,-0.24 -0.16,-0.47 -0.24,-0.7 -0.01,0 -0.03,0 -0.04,0.01 -0.21,0.07 -0.43,0.15 -0.64,0.22 -0.24,0.08 -0.43,0.22 -0.58,0.43 -0.16,0.24 -0.23,0.51 -0.18,0.79 0.03,0.17 0.1,0.33 0.15,0.49 0.01,0.02 0.01,0.03 0.02,0.06 -0.18,0.06 -0.35,0.12 -0.53,0.18 0.08,0.24 0.16,0.47 0.24,0.71 0.18,-0.06 0.35,-0.12 0.52,-0.18 0.24,0.69 0.48,1.38 0.72,2.08 -0.08,0.01 -0.16,0.03 -0.24,0.04 -0.37,0.05 -0.74,0.02 -1.1,-0.07 -0.3,-0.08 -0.58,-0.2 -0.84,-0.36 -0.25,-0.15 -0.48,-0.34 -0.67,-0.57 -0.14,-0.16 -0.26,-0.33 -0.36,-0.52 -0.06,-0.09 -0.11,-0.19 -0.16,-0.29 z"
   id="path569"
   inkscape:connector-curvature="0"
   style="fill:#ffffff" />
					</g>
				</g>
				<g
   id="g579">
					<g
   id="g577">
						<path
   class="st34"
   d="m 310.49,72.86 c -0.04,-0.11 -0.07,-0.23 -0.11,-0.34 0,-0.01 0,-0.03 0,-0.04 -0.02,-0.15 -0.05,-0.29 -0.06,-0.44 -0.04,-0.43 0.02,-0.85 0.17,-1.25 0.14,-0.38 0.35,-0.71 0.62,-1.01 0.31,-0.33 0.67,-0.57 1.08,-0.73 0.34,-0.13 0.69,-0.2 1.06,-0.21 0.4,-0.01 0.79,0.07 1.16,0.22 0.33,0.14 0.63,0.33 0.89,0.57 0.29,0.27 0.51,0.57 0.67,0.93 0.03,0.06 0.06,0.13 0.09,0.19 0.04,0.11 0.07,0.23 0.11,0.34 0,0.01 0,0.02 0,0.04 0.05,0.24 0.08,0.49 0.08,0.73 -0.01,0.23 -0.04,0.46 -0.1,0.69 -0.06,0.22 -0.14,0.43 -0.25,0.64 -0.14,0.28 -0.33,0.52 -0.55,0.74 -0.17,0.17 -0.37,0.32 -0.58,0.44 -0.09,0.05 -0.18,0.09 -0.27,0.14 -0.22,-0.71 -0.43,-1.4 -0.65,-2.11 0.33,-0.1 0.65,-0.2 0.97,-0.3 -0.04,-0.25 -0.09,-0.49 -0.13,-0.74 -0.36,0.11 -0.71,0.22 -1.07,0.33 -0.04,-0.12 -0.07,-0.23 -0.1,-0.34 -0.07,-0.22 0.04,-0.42 0.26,-0.49 0.21,-0.07 0.43,-0.13 0.64,-0.2 0.02,0 0.03,-0.01 0.05,-0.02 -0.07,-0.24 -0.15,-0.47 -0.22,-0.7 -0.01,0 -0.03,0 -0.04,0.01 -0.22,0.07 -0.43,0.13 -0.65,0.2 -0.24,0.08 -0.44,0.21 -0.59,0.41 -0.17,0.24 -0.25,0.5 -0.21,0.79 0.02,0.17 0.09,0.33 0.13,0.5 0,0.02 0.01,0.04 0.02,0.06 -0.18,0.06 -0.36,0.11 -0.53,0.16 0.07,0.24 0.15,0.47 0.22,0.71 0.18,-0.05 0.35,-0.11 0.53,-0.16 0.22,0.7 0.43,1.4 0.65,2.1 -0.08,0.01 -0.16,0.02 -0.24,0.03 -0.37,0.03 -0.74,0 -1.1,-0.1 -0.3,-0.09 -0.57,-0.22 -0.83,-0.39 -0.25,-0.16 -0.46,-0.36 -0.65,-0.59 -0.13,-0.16 -0.25,-0.34 -0.34,-0.53 -0.04,-0.08 -0.08,-0.18 -0.13,-0.28 z"
   id="path575"
   inkscape:connector-curvature="0"
   style="fill:#ffffff" />
					</g>
				</g>
				<g
   id="g585">
					<g
   id="g583">
						<path
   class="st34"
   d="m 351.56,53.31 c 0.02,-0.12 0.04,-0.24 0.06,-0.36 0.01,-0.01 0.01,-0.03 0.02,-0.04 0.04,-0.14 0.08,-0.28 0.14,-0.42 0.16,-0.4 0.4,-0.75 0.71,-1.05 0.29,-0.28 0.62,-0.49 1,-0.63 0.42,-0.16 0.85,-0.22 1.29,-0.18 0.36,0.03 0.71,0.12 1.04,0.28 0.36,0.17 0.68,0.41 0.94,0.71 0.24,0.27 0.42,0.57 0.55,0.91 0.14,0.37 0.21,0.74 0.19,1.13 0,0.07 0,0.14 -0.01,0.21 -0.02,0.12 -0.04,0.24 -0.06,0.36 0,0.01 -0.01,0.02 -0.01,0.03 -0.06,0.24 -0.14,0.47 -0.26,0.69 -0.11,0.21 -0.24,0.4 -0.39,0.58 -0.15,0.17 -0.32,0.33 -0.51,0.46 -0.25,0.18 -0.52,0.32 -0.82,0.42 -0.23,0.08 -0.47,0.12 -0.71,0.14 -0.1,0.01 -0.2,0.01 -0.3,0.01 0.12,-0.73 0.23,-1.45 0.35,-2.18 0.34,0.05 0.67,0.11 1.01,0.16 0.07,-0.24 0.14,-0.48 0.21,-0.72 -0.37,-0.06 -0.73,-0.12 -1.1,-0.17 0.02,-0.12 0.04,-0.23 0.06,-0.35 0.04,-0.23 0.22,-0.36 0.45,-0.32 0.22,0.03 0.44,0.07 0.67,0.11 0.02,0 0.03,0 0.05,0.01 0.04,-0.25 0.08,-0.49 0.12,-0.73 -0.01,0 -0.03,-0.01 -0.04,-0.01 -0.22,-0.04 -0.45,-0.07 -0.67,-0.11 -0.25,-0.04 -0.49,-0.01 -0.71,0.11 -0.26,0.14 -0.44,0.34 -0.53,0.61 -0.05,0.16 -0.07,0.34 -0.1,0.51 0,0.02 -0.01,0.04 -0.01,0.06 -0.19,-0.03 -0.37,-0.06 -0.55,-0.09 -0.04,0.25 -0.08,0.49 -0.12,0.74 0.18,0.03 0.36,0.06 0.55,0.09 -0.12,0.73 -0.23,1.45 -0.35,2.18 -0.08,-0.03 -0.16,-0.05 -0.23,-0.08 -0.35,-0.13 -0.66,-0.33 -0.94,-0.58 -0.23,-0.21 -0.42,-0.45 -0.57,-0.71 -0.15,-0.26 -0.26,-0.53 -0.32,-0.82 -0.05,-0.21 -0.08,-0.42 -0.07,-0.63 -0.04,-0.11 -0.03,-0.22 -0.03,-0.33 z"
   id="path581"
   inkscape:connector-curvature="0"
   style="fill:#ffffff" />
					</g>
				</g>
				<g
   id="g591">
					<g
   id="g589">
						<path
   class="st5"
   d="m 325.38,79.27 c 3.41,-4.4 7.63,-7.91 12.54,-10.51 0.67,-0.35 0.88,-0.98 0.3,-1.47 -0.63,-0.53 -1.98,0.01 -2.56,0.32 -5.36,2.84 -9.95,6.74 -13.66,11.54 -1.01,1.3 2.62,1.09 3.38,0.12 z"
   id="path587"
   inkscape:connector-curvature="0"
   style="fill:#fcba13" />
					</g>
				</g>
				<g
   id="g597">
					<g
   id="g595">
						<path
   class="st23"
   d="m 352.34,58.87 c 0.27,-0.05 0.94,0.28 1.26,0.51 0.56,0.4 0.93,0.92 1.14,1.57 0.28,0.86 3.87,-0.18 3.61,-0.97 -0.74,-2.28 -3.22,-2.9 -5.36,-2.48 -0.51,0.1 -1.96,0.36 -2.11,1 -0.14,0.62 1.19,0.42 1.46,0.37 z"
   id="path593"
   inkscape:connector-curvature="0"
   style="fill:#eb6824" />
					</g>
				</g>
				<g
   id="g603">
					<g
   id="g601">
						<path
   class="st4"
   d="m 316.45,93.14 c 0.47,-0.12 0.04,-0.08 -0.24,-0.17 -0.35,-0.11 -0.68,-0.3 -0.98,-0.52 -0.6,-0.46 -0.98,-1.05 -1.18,-1.78 -0.21,-0.8 -3.83,0.16 -3.61,0.97 0.76,2.83 3.87,3.23 6.3,2.61 0.33,-0.08 1.8,-0.49 1.66,-1.04 -0.14,-0.54 -1.68,-0.14 -1.95,-0.07 z"
   id="path599"
   inkscape:connector-curvature="0"
   style="fill:#fee164" />
					</g>
				</g>
				<g
   id="g609">
					<g
   id="g607">
						<path
   class="st23"
   d="m 318.51,79.54 c 1.1,-2.2 2.55,-4.11 4.37,-5.78 0.63,-0.58 0.27,-1.36 -0.43,-1.62 -0.88,-0.32 -1.91,0.09 -2.55,0.68 -1.98,1.82 -3.6,3.98 -4.81,6.39 -0.88,1.77 2.76,1.66 3.42,0.33 z"
   id="path605"
   inkscape:connector-curvature="0"
   style="fill:#eb6824" />
					</g>
				</g>
				<g
   id="g615">
					<g
   id="g613">
						<path
   class="st5"
   d="m 335.77,63.6 c 1.54,-0.89 3.08,-1.79 4.61,-2.68 0.61,-0.36 0.42,-0.75 -0.21,-0.8 -0.85,-0.07 -1.83,0.26 -2.55,0.68 -1.54,0.89 -3.08,1.79 -4.61,2.68 -0.61,0.36 -0.42,0.75 0.21,0.8 0.85,0.07 1.82,-0.26 2.55,-0.68 z"
   id="path611"
   inkscape:connector-curvature="0"
   style="fill:#fcba13" />
					</g>
				</g>
			</g>
			<circle
   class="st36"
   cx="387.31"
   cy="177.37"
   r="1.98"
   id="circle619"
   style="fill:#fedd00" />
			<circle
   class="st36"
   cx="417.39001"
   cy="141.46001"
   r="1.98"
   id="circle621"
   style="fill:#fedd00" />
			<circle
   class="st36"
   cx="474.60999"
   cy="154.89"
   r="1.98"
   id="circle623"
   style="fill:#fedd00" />
			<g
   id="g629">
				<g
   id="g627">
					<path
   class="st36"
   d="m 127.81,18.29 c 0,0.1 0,0.19 0,0.29 0,0.71 0.7,1.05 1.35,0.99 0.58,-0.06 1.59,-0.46 1.59,-1.19 0,-0.1 0,-0.19 0,-0.29 0,-0.71 -0.7,-1.05 -1.35,-0.99 -0.57,0.06 -1.59,0.46 -1.59,1.19 z"
   id="path625"
   inkscape:connector-curvature="0"
   style="fill:#fedd00" />
				</g>
			</g>
			<g
   id="g635">
				<g
   id="g633">
					<path
   class="st36"
   d="m 131.58,23.51 c 0,0.19 0,0.39 0,0.58 0,0.7 0.71,1.01 1.34,0.94 0.56,-0.06 1.6,-0.45 1.6,-1.17 0,-0.19 0,-0.39 0,-0.58 0,-0.7 -0.71,-1.01 -1.34,-0.94 -0.56,0.06 -1.6,0.45 -1.6,1.17 z"
   id="path631"
   inkscape:connector-curvature="0"
   style="fill:#fedd00" />
				</g>
			</g>
			<g
   id="g641">
				<g
   id="g639">
					<path
   class="st36"
   d="m 134.49,25.64 c 7.72,0 7.73,-12 0,-12 -7.72,0 -7.73,12 0,12 z"
   id="path637"
   inkscape:connector-curvature="0"
   style="fill:#fedd00" />
				</g>
			</g>
			<g
   id="g647">
				<g
   id="g645">
					<path
   class="st36"
   d="m 198.64,39.42 c -0.1,-0.1 -0.19,-0.19 -0.29,-0.29 -1.09,-1.09 -2.7,-1.76 -4.24,-1.76 -1.47,0 -3.23,0.65 -4.24,1.76 -1.05,1.14 -1.83,2.64 -1.76,4.24 0.07,1.59 0.61,3.09 1.76,4.24 0.1,0.1 0.19,0.19 0.29,0.29 1.09,1.09 2.7,1.76 4.24,1.76 1.47,0 3.23,-0.65 4.24,-1.76 1.05,-1.14 1.83,-2.64 1.76,-4.24 -0.07,-1.59 -0.61,-3.09 -1.76,-4.24 z"
   id="path643"
   inkscape:connector-curvature="0"
   style="fill:#fedd00" />
				</g>
			</g>
			<g
   id="g653">
				<g
   id="g651">
					<path
   class="st36"
   d="m 260.68,61.24 c 7.72,0 7.73,-12 0,-12 -7.72,0 -7.74,12 0,12 z"
   id="path649"
   inkscape:connector-curvature="0"
   style="fill:#fedd00" />
				</g>
			</g>
			<g
   id="g659">
				<g
   id="g657">
					<path
   class="st36"
   d="m 199.32,47.92 c 7.72,0 7.73,-12 0,-12 -7.72,0 -7.73,12 0,12 z"
   id="path655"
   inkscape:connector-curvature="0"
   style="fill:#fedd00" />
				</g>
			</g>
			<g
   id="g665">
				<g
   id="g663">
					<path
   class="st36"
   d="m 301.77,72.23 c 7.72,0 7.73,-12 0,-12 -7.72,0 -7.73,12 0,12 z"
   id="path661"
   inkscape:connector-curvature="0"
   style="fill:#fedd00" />
				</g>
			</g>
			<g
   id="g671">
				<g
   id="g669">
					<path
   class="st36"
   d="m 304.75,54.37 c 0,0.1 0,0.19 0,0.29 0,1.54 0.67,3.15 1.76,4.24 1.04,1.04 2.75,1.82 4.24,1.76 1.55,-0.07 3.16,-0.58 4.24,-1.76 1.08,-1.17 1.76,-2.62 1.76,-4.24 0,-0.1 0,-0.19 0,-0.29 0,-1.54 -0.67,-3.15 -1.76,-4.24 -1.04,-1.04 -2.75,-1.82 -4.24,-1.76 -1.55,0.07 -3.16,0.58 -4.24,1.76 -1.08,1.17 -1.76,2.61 -1.76,4.24 z"
   id="path667"
   inkscape:connector-curvature="0"
   style="fill:#fedd00" />
				</g>
			</g>
			<g
   id="g677">
				<g
   id="g675">
					<path
   class="st36"
   d="m 266.75,59.39 c 3.86,0 3.87,-6 0,-6 -3.86,0 -3.86,6 0,6 z"
   id="path673"
   inkscape:connector-curvature="0"
   style="fill:#fedd00" />
				</g>
			</g>
			<g
   id="g683">
				<g
   id="g681">
					<path
   class="st36"
   d="m 264.44,55.63 c 3.86,0 3.87,-6 0,-6 -3.86,0 -3.87,6 0,6 z"
   id="path679"
   inkscape:connector-curvature="0"
   style="fill:#fedd00" />
				</g>
			</g>
			<g
   id="g689">
				<g
   id="g687">
					<path
   class="st36"
   d="m 306.69,65.47 c 3.86,0 3.87,-6 0,-6 -3.86,0 -3.86,6 0,6 z"
   id="path685"
   inkscape:connector-curvature="0"
   style="fill:#fedd00" />
				</g>
			</g>
			<g
   id="g695">
				<g
   id="g693">
					<path
   class="st36"
   d="m 302.83,58.42 c 0,0.1 0,0.19 0,0.29 0,1.57 1.38,3.07 3,3 1.63,-0.07 3,-1.32 3,-3 0,-0.1 0,-0.19 0,-0.29 0,-1.57 -1.38,-3.07 -3,-3 -1.63,0.07 -3,1.32 -3,3 z"
   id="path691"
   inkscape:connector-curvature="0"
   style="fill:#fedd00" />
				</g>
			</g>
			<g
   id="g701">
				<g
   id="g699">
					<path
   class="st36"
   d="m 282.96,63.73 c 3.86,0 3.87,-6 0,-6 -3.86,0 -3.87,6 0,6 z"
   id="path697"
   inkscape:connector-curvature="0"
   style="fill:#fedd00" />
				</g>
			</g>
			<g
   id="g707">
				<g
   id="g705">
					<path
   class="st36"
   d="m 203.86,50.41 c 0.19,0.19 0.39,0.39 0.58,0.58 1.11,1.11 3.15,1.19 4.24,0 1.1,-1.2 1.19,-3.06 0,-4.24 -0.19,-0.19 -0.39,-0.39 -0.58,-0.58 -1.11,-1.11 -3.15,-1.19 -4.24,0 -1.1,1.2 -1.19,3.06 0,4.24 z"
   id="path703"
   inkscape:connector-curvature="0"
   style="fill:#fedd00" />
				</g>
			</g>
			<g
   id="g713">
				<g
   id="g711">
					<path
   class="st36"
   d="m 222.47,53.03 c 3.86,0 3.87,-6 0,-6 -3.86,0 -3.86,6 0,6 z"
   id="path709"
   inkscape:connector-curvature="0"
   style="fill:#fedd00" />
				</g>
			</g>
			<g
   id="g719">
				<g
   id="g717">
					<path
   class="st36"
   d="m 193.53,42.03 c 3.86,0 3.87,-6 0,-6 -3.86,0 -3.86,6 0,6 z"
   id="path715"
   inkscape:connector-curvature="0"
   style="fill:#fedd00" />
				</g>
			</g>
			<g
   id="g725">
				<g
   id="g723">
					<path
   class="st36"
   d="m 184.27,45.5 c 3.86,0 3.87,-6 0,-6 -3.86,0 -3.86,6 0,6 z"
   id="path721"
   inkscape:connector-curvature="0"
   style="fill:#fedd00" />
				</g>
			</g>
			<g
   id="g731">
				<g
   id="g729">
					<path
   class="st36"
   d="m 188.61,47.53 c 3.86,0 3.87,-6 0,-6 -3.86,0 -3.86,6 0,6 z"
   id="path727"
   inkscape:connector-curvature="0"
   style="fill:#fedd00" />
				</g>
			</g>
			<g
   id="g737">
				<g
   id="g735">
					<path
   class="st36"
   d="m 137.39,29.58 c 3.86,0 3.87,-6 0,-6 -3.86,0 -3.87,6 0,6 z"
   id="path733"
   inkscape:connector-curvature="0"
   style="fill:#fedd00" />
				</g>
			</g>
			<g
   id="g743">
				<g
   id="g741">
					<path
   class="st36"
   d="m 123.79,15.93 c 1.93,0 1.93,-3 0,-3 -1.94,0 -1.94,3 0,3 z"
   id="path739"
   inkscape:connector-curvature="0"
   style="fill:#fedd00" />
				</g>
			</g>
			<g
   id="g749">
				<g
   id="g747">
					<path
   class="st36"
   d="m 127.07,12.5 c -0.1,0.1 -0.19,0.19 -0.29,0.29 -0.57,0.57 -0.57,1.55 0,2.12 0.57,0.57 1.55,0.57 2.12,0 0.1,-0.1 0.19,-0.19 0.29,-0.29 0.57,-0.57 0.57,-1.55 0,-2.12 -0.58,-0.57 -1.55,-0.57 -2.12,0 z"
   id="path745"
   inkscape:connector-curvature="0"
   style="fill:#fedd00" />
				</g>
			</g>
			<g
   id="g755">
				<g
   id="g753">
					<path
   class="st36"
   d="m 126.68,15.82 c -0.1,0 -0.19,0 -0.29,0 -0.78,0 -1.54,0.69 -1.5,1.5 0.04,0.81 0.66,1.5 1.5,1.5 0.1,0 0.19,0 0.29,0 0.78,0 1.54,-0.69 1.5,-1.5 -0.04,-0.81 -0.66,-1.5 -1.5,-1.5 z"
   id="path751"
   inkscape:connector-curvature="0"
   style="fill:#fedd00" />
				</g>
			</g>
			<g
   id="g761">
				<g
   id="g759">
					<path
   class="st36"
   d="m 142.98,29.86 c -0.1,0.1 -0.19,0.19 -0.29,0.29 -0.57,0.57 -0.57,1.55 0,2.12 0.57,0.57 1.55,0.57 2.12,0 0.1,-0.1 0.19,-0.19 0.29,-0.29 0.57,-0.57 0.57,-1.55 0,-2.12 -0.57,-0.57 -1.54,-0.57 -2.12,0 z"
   id="path757"
   inkscape:connector-curvature="0"
   style="fill:#fedd00" />
				</g>
			</g>
			<g
   id="g767">
				<g
   id="g765">
					<path
   class="st36"
   d="m 153.59,36.48 c 1.93,0 1.93,-3 0,-3 -1.93,0 -1.93,3 0,3 z"
   id="path763"
   inkscape:connector-curvature="0"
   style="fill:#fedd00" />
				</g>
			</g>
			<g
   id="g773">
				<g
   id="g771">
					<path
   class="st36"
   d="m 150.41,35.61 c 1.93,0 1.93,-3 0,-3 -1.93,0 -1.93,3 0,3 z"
   id="path769"
   inkscape:connector-curvature="0"
   style="fill:#fedd00" />
				</g>
			</g>
			<g
   id="g779">
				<g
   id="g777">
					<path
   class="st36"
   d="m 180.51,44.87 c 1.93,0 1.93,-3 0,-3 -1.93,0 -1.93,3 0,3 z"
   id="path775"
   inkscape:connector-curvature="0"
   style="fill:#fedd00" />
				</g>
			</g>
			<g
   id="g785">
				<g
   id="g783">
					<path
   class="st36"
   d="m 210.32,48.05 c 1.93,0 1.93,-3 0,-3 -1.93,0 -1.93,3 0,3 z"
   id="path781"
   inkscape:connector-curvature="0"
   style="fill:#fedd00" />
				</g>
			</g>
			<g
   id="g791">
				<g
   id="g789">
					<path
   class="st36"
   d="m 196.67,53.29 c 1.93,0 1.93,-3 0,-3 -1.93,0 -1.93,3 0,3 z"
   id="path787"
   inkscape:connector-curvature="0"
   style="fill:#fedd00" />
				</g>
			</g>
		</g><g
   id="g799">
			<g
   id="g797">
				<path
   class="st13"
   d="M 26.43,31.46 C 42.16,45.91 62.1,54.8 83.36,56.87 84.19,56.95 86.74,55.55 85.16,55.4 64.2,53.35 44.64,44.61 29.13,30.36 c -0.7,-0.64 -3.41,0.46 -2.7,1.1 z"
   id="path795"
   inkscape:connector-curvature="0"
   style="fill:#1dbaed" />
			</g>
		</g><g
   id="g805">
			<g
   id="g803">
				<path
   class="st35"
   d="m 77.12,62.23 c 15.18,1.36 30.37,1.57 45.58,0.62 0.72,-0.04 3.17,-1.18 1.28,-1.06 -14.83,0.92 -29.67,0.7 -44.47,-0.62 -0.65,-0.06 -3.04,1 -2.39,1.06 z"
   id="path801"
   inkscape:connector-curvature="0"
   style="fill:#a3d9f6" />
			</g>
		</g><g
   id="g811">
			<g
   id="g809">
				<path
   class="st35"
   d="m 163.41,70.65 c -0.11,0.06 -0.22,0.13 -0.33,0.19 0.75,-0.05 1.49,-0.11 2.24,-0.16 0.11,0.12 6.81,-2.45 7.45,-2.62 2.94,-0.78 5.95,-1.33 8.98,-1.63 5.85,-0.58 11.65,-0.25 17.43,0.8 0.88,0.16 3.4,-1.23 1.79,-1.52 -7.65,-1.4 -15.42,-1.56 -23.09,-0.22 -3.11,0.54 -6.18,1.31 -9.17,2.3 -1.91,0.63 -5.26,1.15 -6.39,3.08 -0.11,0.19 -0.17,0.38 0,0.57 0.11,0.12 0.21,0.23 0.32,0.35 0.49,0.55 1.75,0.12 2.24,-0.16 0.11,-0.06 0.22,-0.13 0.33,-0.19 1.67,-0.95 -0.89,-1.31 -1.8,-0.79 z"
   id="path807"
   inkscape:connector-curvature="0"
   style="fill:#a3d9f6" />
			</g>
		</g><g
   id="g817">
			<g
   id="g815">
				<path
   class="st35"
   d="m 128.57,54.92 c 16.14,-6.24 34.59,-7.18 51.71,-7.22 18.46,-0.04 37.29,1.58 55.07,6.75 0.68,0.2 3.25,-0.9 2.37,-1.15 -18.98,-5.53 -39.18,-7.07 -58.88,-6.8 -17.06,0.23 -35.23,1.48 -51.3,7.7 -1.91,0.75 -0.11,1.16 1.03,0.72 z"
   id="path813"
   inkscape:connector-curvature="0"
   style="fill:#a3d9f6" />
			</g>
		</g><g
   id="g823">
			<g
   id="g821">
				<path
   class="st35"
   d="m 248.73,56.22 c 12.14,0.37 26.82,1.52 36.58,9.71 7.38,6.19 9.39,15.66 9.92,24.84 0.03,0.48 2.94,0 2.9,-0.78 -0.57,-9.69 -2.89,-19.53 -10.95,-25.74 -10.03,-7.72 -24.4,-8.83 -36.56,-9.2 -0.61,-0.01 -3.29,1.12 -1.89,1.17 z"
   id="path819"
   inkscape:connector-curvature="0"
   style="fill:#a3d9f6" />
			</g>
		</g>
</svg>