<svg width="1030.2" height="284.79" version="1.0" viewBox="0 0 10302 2847.9" xmlns="http://www.w3.org/2000/svg">
 <path d="m5227.3 2809.2c-11-17-2-2776 9-2776 13 0 19 2771 6 2780-5 3-12 1-15-4z" fill="#9fadb6"/>
 <g transform="translate(-718.71 -552.22)">
  <g transform="translate(-144.09 -118.96)" fill="#565657">
   <path d="m9e3 3491c-29-25-32-32-20-40 11-7 20-5 35 9 16 15 35 20 73 20 62 0 96-14 111-47 14-30 14-73 1-73-5 0-10 4-10 9 0 16-81 42-112 36-82-18-147-108-133-183 22-120 117-178 217-134 44 19 45 19 57 0 6-10 16-16 21-13 13 8 13 335 1 367-17 44-70 72-141 76-60 3-67 1-100-27zm157-141c46-27 56-53 51-127-3-54-8-68-29-84-113-87-258 64-169 179 40 52 95 64 147 32z"/>
   <path d="m6702 3397c-7-9-13-77-14-188l-3-174-78-3c-68-2-78-5-75-20s23-17 186-20c176-2 182-2 182 17 0 18-8 20-82 23l-83 3v177c0 177-7 217-33 185z"/>
   <path d="m7371 3383c-68-33-97-88-87-167 7-60 29-93 82-123 67-39 166-24 194 27 17 31-13 36-50 9-42-32-97-31-137 1-36 29-43 47-43 113 0 59 10 79 54 106 46 29 97 27 134-4 33-28 52-32 52-12 0 19-29 43-73 62-50 21-65 19-126-12z"/>
   <path d="m8162 3399c-48-10-104-59-115-100-13-49-2-134 22-168 21-30 85-61 124-61 12 0 42 7 67 16 58 21 92 70 98 141 9 110-88 195-196 172zm74-39c15-6 40-24 56-40 23-25 28-39 28-80 0-43-5-56-33-86-79-87-207-35-207 84 0 49 18 81 59 109 38 26 57 28 97 13z"/>
   <path d="m8695 3403c-89-19-150-85-150-163 0-67 44-132 104-154 60-21 86-20 135 4 55 27 79 63 84 126 6 68-11 117-51 147-25 19-96 51-101 46-1-1-10-3-21-6zm66-48c84-44 92-177 14-225-42-26-91-25-131 2-83 57-71 184 20 224 41 17 61 17 97-1z"/>
   <path d="m9562 3389c-69-35-92-73-92-155 1-60 4-73 28-100 37-42 82-64 135-64 48 0 109 33 115 63 5 25-27 22-55-5-58-54-166-8-178 76-10 63 2 101 41 136 45 39 96 41 144 5 38-28 60-32 60-11 0 26-92 76-139 76-9 0-35-10-59-21z"/>
   <path d="m9935 3401c-75-25-121-91-119-171 1-116 112-188 218-141 37 16 46 17 46 5 0-8 9-14 20-14 19 0 20 7 20 160s-1 160-20 160c-13 0-20-7-20-20 0-25-2-25-46 5-37 25-61 29-99 16zm85-46c38-20 60-63 59-117-2-68-12-90-52-111-48-25-97-17-137 23-50 49-52 119-5 173 41 47 86 57 135 32z"/>
   <path d="m6957 3371c-37-24-48-38-58-73-6-24-9-65-5-92 13-110 135-167 240-112 35 18 75 82 78 127l3 34-143 3c-143 3-143 3-136 25 22 75 122 107 189 61 25-18 45-18 45 1 0 22-73 55-123 55-31 0-56-8-90-29zm209-173c-9-48-66-88-123-88-52 0-113 60-113 111 0 5 55 9 121 9h122z"/>
   <path d="m7647 3387c-3-7-6-73-6-145-2-140 8-184 35-161 8 6 14 21 15 33 0 11 3 15 6 8 8-19 78-52 113-52 44 0 107 35 125 70 11 21 15 61 15 145 0 106-2 116-17 113-16-3-18-18-21-115-3-107-4-113-31-142-34-36-85-42-130-15-47 28-56 52-61 164-4 86-8 105-21 108-9 2-19-3-22-11z"/>
   <path d="m8437 3394c-4-4-7-99-7-211 0-197 1-203 20-203 20 0 20 5 18 207-3 194-8 230-31 207z"/>
   <path d="m9355 3378c-3-13-4-84-3-158 3-117 5-135 20-138 21-4 24 18 20 186-2 106-6 132-17 132-8 0-17-10-20-22z"/>
   <path d="m8700 3022c0-20 49-72 68-72 23 0 12 28-23 59-42 36-45 37-45 13z"/>
   <path d="m9354 3025c-9-21 3-45 21-45 10 0 15 10 15 30 0 32-26 43-36 15z"/>
   <path d="m8378 2630c-83-25-122-84-116-174 5-83 32-120 100-141 52-15 83-12 130 11 22 12 27 11 32-1 3-8 12-15 21-15 13 0 15 20 13 157-2 118-6 157-16 161-7 2-16-5-19-16-5-20-6-20-50 4-49 26-54 27-95 14zm108-64c32-32 34-39 34-97 0-70-2-75-44-107-38-29-83-28-128 3-30 20-38 33-43 69-10 65 2 102 43 136 51 42 93 41 138-4z"/>
   <path d="m8785 2630c-50-11-95-39-115-73-21-34-27-118-11-159 33-86 156-126 232-75 33 22 51 57 29 57-6 0-28-11-48-25-48-33-79-32-129 5-44 33-58 73-46 142 13 87 118 127 189 73 37-28 54-32 54-11 0 35-101 78-155 66z"/>
   <path d="m6582 2423c3-189 5-208 21-211s17 12 17 207c0 205-1 211-20 211-20 0-20-5-18-207z"/>
   <path d="m6724 2617c-2-7-3-78-2-157 3-129 5-145 21-148 13-3 17 3 17 24v27l23-21c48-45 105-53 171-22 60 27 71 58 71 195 0 91-3 110-15 110s-16-21-20-112c-5-106-6-113-33-141-38-39-69-44-120-18-54 27-72 63-74 151-1 39-2 82-2 98-1 28-27 39-37 14z"/>
   <path d="m7134 2617c-2-7-3-78-2-157 3-129 5-145 21-148 13-3 17 3 17 23v26l34-26c46-35 95-42 151-21 71 28 85 60 85 200 0 106-2 117-17 114-16-3-19-19-23-120-5-114-6-117-35-142-62-54-161-19-185 65-6 19-10 71-10 116 0 68-3 83-15 83-9 0-18-6-21-13z"/>
   <path d="m7603 2608c-33-17-47-32-63-71-25-58-22-106 11-162 28-46 71-69 134-69 67 0 114 27 143 84 27 54 28 101 3 156-35 76-143 106-228 62zm143-27c35-21 64-75 64-118 0-35-31-86-65-109-35-23-108-14-140 16-53 50-56 136-7 182 56 53 96 60 148 29z"/>
   <path d="m8028 2608c-46-75-140-278-135-291 12-31 32-5 91 114 33 66 64 118 70 116s38-56 71-121c60-117 77-138 83-103 3 16-8 42-47 114-5 10-29 57-52 106-23 48-47 87-54 87s-19-10-27-22z"/>
   <path d="m9024 2617c-2-7-3-78-2-157 3-129 5-145 21-148s17 10 17 157c0 138-2 161-15 161-9 0-18-6-21-13z"/>
   <path d="m9218 2610c-53-28-78-75-78-145 0-47 5-65 26-93 29-38 93-71 137-72 38 0 99 33 131 70 22 27 26 41 26 97 0 50-5 72-21 94-46 65-148 87-221 49zm130-24c53-28 67-53 67-123 0-61-2-66-35-93-67-56-169-28-191 54-18 64-3 113 43 147 45 32 75 36 116 15z"/>
   <path d="m9555 2618c-3-8-4-79-3-158 3-129 5-145 21-148 13-3 17 3 17 23v27l30-26c52-43 122-46 187-6 40 24 56 90 51 210-2 67-6 85-18 85s-16-21-20-111c-5-111-11-129-50-161-24-20-89-15-121 8-44 31-53 56-59 163-3 67-9 101-17 104-7 2-15-3-18-10z"/>
   <path d="m9020 2256c0-25 12-46 26-46 9 0 14 11 14 30 0 23-4 30-20 30-11 0-20-6-20-14z"/>
   <path d="m9286 2261c-3-4 10-26 28-47 28-31 37-37 47-27 11 11 6 20-21 48-35 36-45 41-54 26z"/>
   <path d="m8643 1959c-33-21-42-42-23-54 6-3 22 3 36 14 20 15 41 21 80 21 47 0 57-4 84-31 22-24 30-41 30-68 0-20-4-31-8-25-47 68-190 53-235-26-26-43-26-138 0-182 38-67 147-95 206-53 27 19 37 19 37 0 0-8 9-15 20-15 19 0 20 7 20 164 0 94-5 176-11 195-26 74-161 108-236 60zm165-159c35-28 40-43 41-108 1-48-3-58-33-88-27-27-42-34-72-34-53 0-98 37-114 93-33 118 85 209 178 137z"/>
   <path d="m9115 1861c-44-9-87-35-112-70-18-23-23-44-23-91 0-86 29-130 103-155 57-19 66-18 159 23 5 2 8-4 8-13 0-10 7-15 18-13 15 3 17 19 17 158s-2 155-17 158c-13 2-18-3-18-17 0-25-8-26-37-6-33 23-65 32-98 26zm82-53c42-30 57-66 51-130-5-44-11-57-39-80-43-36-90-37-141-2-27 19-39 36-44 61-23 124 79 214 173 151z"/>
   <path d="m6582 1653c3-177 5-208 18-208s15 31 18 208c2 203 2 207-18 207s-20-4-18-207z"/>
   <path d="m6724 1847c-2-7-3-78-2-157 3-129 5-145 21-148 13-3 17 3 17 23v26l35-26c49-38 102-43 159-15 63 32 78 72 74 205-2 81-6 100-18 100s-16-21-20-110c-6-124-20-156-78-175-26-10-39-8-69 7-57 27-77 72-80 173-2 47-5 91-8 98-6 16-24 16-31-1z"/>
   <path d="m7168 1706c-61-123-74-157-64-165s16-8 24 1c15 18 98 183 111 218 5 17 14 30 19 30s26-35 47-77c20-43 44-92 53-110 26-53 46-73 61-64 11 7 9 17-9 52-13 24-31 60-40 79-59 116-100 185-112 188-8 1-42-56-90-152z"/>
   <path d="m7554 1842c-120-57-115-239 7-292 60-25 78-25 139 1 39 17 53 30 70 63 11 23 20 57 20 74v32h-140c-159 0-167 5-107 65 45 45 92 53 145 26 48-25 62-26 62-7 0 45-128 70-196 38zm196-167c0-29-30-75-60-90-64-33-135-11-168 52-27 50-21 53 108 53 102 0 120-2 120-15z"/>
   <path d="m7909 1844c-43-18-69-61-43-71 10-4 20 1 26 10 25 46 120 61 176 27 31-19 37-29 32-60-3-22-2-21-83-30-132-15-175-49-151-118 28-81 212-91 262-15 13 21 13 23-3 30-11 4-22 0-29-9-42-57-177-51-201 9-11 32 25 52 105 59 118 10 170 57 136 123-29 55-147 78-227 45z"/>
   <path d="m8283 1836c-27-24-28-27-31-145l-4-120-26-3c-38-4-41-28-3-28 29 0 30-2 33-47 2-35 7-48 18-48s16 13 18 48l3 47h45c59 0 55 24-4 28l-42 3v107c0 134 11 157 71 147 40-7 49 1 27 23-20 20-75 14-105-12z"/>
   <path d="m8470 1700c0-136 2-160 15-160s15 24 15 160-2 160-15 160-15-24-15-160z"/>
   <path d="m9447 1839c-105-56-100-234 8-288 23-11 59-21 80-21 39 0 110 34 119 57 10 26-23 25-57-1-56-43-111-32-160 32-25 33-28 43-24 91 3 47 9 59 40 88 47 43 104 46 153 8 18-14 37-25 43-25 22 0 10 29-21 51-45 32-130 36-181 8z"/>
   <path d="m9747 1854c-4-4-7-77-7-161 0-154 0-154 23-151 22 3 22 5 22 158 0 132-2 155-15 158-9 1-19 0-23-4z"/>
   <path d="m9947 1842c-85-42-114-146-64-232 24-43 91-80 143-80 44 0 111 38 134 76 24 37 29 119 11 166-27 72-145 109-224 70zm138-36c77-45 83-156 11-211-124-94-268 89-155 198 44 42 88 46 144 13z"/>
   <path d="m10280 1700c0-136 2-160 15-160 10 0 15 10 15 27 0 24 1 25 18 11 83-74 202-57 236 34 23 58 19 243-4 243-12 0-16-21-20-110-4-94-8-115-27-138-32-41-74-52-116-32-63 30-72 47-75 149-3 112-8 136-27 136-13 0-15-25-15-160z"/>
   <path d="m10934 1841c-46-21-79-66-89-123-10-53 31-139 76-162 57-29 100-30 157-6 56 24 81 61 85 127l2 38-137 3c-131 2-138 4-138 23 0 28 57 78 98 85 25 5 47 1 79-15 43-21 63-21 63 0 0 16-81 49-120 49-19 0-53-9-76-19zm196-162c0-28-34-78-64-94-43-23-108-16-140 17-30 30-49 66-41 78 9 14 245 13 245-1z"/>
   <path d="m8472 1475c2-14 8-26 13-26 6 0 11 12 13 26 2 18-1 25-13 25s-15-7-13-25z"/>
   <path d="m9740 1475c0-29 27-45 41-24 14 22 6 44-19 47-18 3-22-1-22-23z"/>
   <path d="m10010 1484c0-19 50-74 67-74 23 0 14 30-17 60-34 33-50 38-50 14z"/>
   <path d="m7009 1079c-84-37-117-147-69-234 39-72 133-100 207-62 27 14 32 15 37 2 3-8 12-15 21-15 13 0 15 23 15 160s-2 160-15 160c-9 0-20-10-25-22-5-13-9-18-9-12-1 13-72 44-99 44-9-1-38-10-63-21zm127-40c40-24 46-43 42-129-3-61-5-66-37-87-46-31-89-29-134 5-70 53-69 145 2 205 39 33 81 35 127 6z"/>
   <path d="m7428 1084c-21-9-38-20-38-25s-4-9-10-9c-5 0-10 9-10 20 0 24-25 27-34 4-3-9-6-101-6-205 0-165 2-190 16-196 24-9 34 15 34 80 0 53 2 57 15 43 48-47 148-37 202 20 69 74 50 214-36 258-45 24-93 27-133 10zm103-39c41-22 69-71 69-123 0-37-6-50-33-77-52-52-107-58-157-17-19 15-24 32-28 80-6 82 2 109 41 132 39 24 68 25 108 5z"/>
   <path d="m8429 1089c-20-6-52-26-70-45-33-34-34-38-34-115 0-80 0-81 37-114 58-54 130-65 183-29 26 18 45 18 45-1 0-8 7-15 15-15 13 0 15 24 15 160s-2 160-15 160c-8 0-15-9-15-20 0-25-5-25-40 0-36 25-75 31-121 19zm117-62c62-57 57-165-10-207-45-27-82-25-128 6-31 22-38 34-44 71-9 62 9 113 48 141 47 32 91 29 134-11z"/>
   <path d="m10365 1090c-11-4-30-10-42-15-27-9-69-77-78-127-9-49 32-139 72-157 62-29 87-32 136-14 26 9 48 22 49 27 1 6 4-20 7-59 5-56 10-70 24-73 16-3 17 12 17 207 0 183-2 211-15 211-9 0-20-10-25-22-5-13-9-18-9-12-1 13-73 44-99 43-9-1-26-4-37-9zm101-50c27-17 34-29 40-65 3-25 3-64 0-88-13-83-104-112-176-55-33 26-56 84-46 121 3 14 18 40 33 57 45 54 94 63 149 30z"/>
   <path d="m6587 1083c-4-3-7-94-7-200v-194l23 3c26 4 24-9 26 196l1 162h118c116 0 151 8 138 29-8 12-287 16-299 4z"/>
   <path d="m7790 1071c-19-10-44-33-55-52-27-46-27-132 0-179 22-37 92-80 133-80 45 0 116 39 142 78 52 79 20 205-61 239-45 19-118 16-159-6zm159-42c68-50 64-156-7-204-73-50-158-19-183 66-37 121 90 212 190 138z"/>
   <path d="m8117 1076c-3-7-5-78-4-157 2-128 4-144 20-147 12-2 17 3 17 17 0 26 8 26 40 1 30-24 80-27 80-5 0 8-9 15-20 15s-37 15-57 34l-38 34-3 111c-3 82-8 111-17 111-7 0-15-6-18-14z"/>
   <path d="m8784 1067c-26-22-27-28-32-145-5-118-5-121-29-124-31-4-31-22 1-26 21-3 25-9 28-45 2-30 8-43 20-45 13-3 17 6 20 40 3 43 3 43 46 46 28 2 42 8 42 17s-14 15-42 17l-43 3v111c0 130 9 149 62 139 41-7 59 1 42 21-19 23-84 17-115-9z"/>
   <path d="m9022 1074c-18-8-37-25-42-38s-13-27-19-30c-5-4-13-26-16-51-6-35-2-55 18-98 21-47 30-56 77-76 60-26 103-23 159 11 38 24 70 86 71 138 0 53-38 122-80 142-42 21-122 22-168 2zm145-35c46-29 66-71 60-127-14-125-176-153-228-39-10 23-19 51-19 62 0 51 76 125 129 125 13 0 39-9 58-21z"/>
   <path d="m9355 1078c-3-8-4-79-3-158 3-129 5-145 21-148 12-2 17 3 17 18v21l29-20c35-25 91-28 91-6 0 9-9 15-25 15-14 0-39 13-57 29-32 28-32 30-38 141-3 78-9 115-17 118-7 2-15-3-18-10z"/>
   <path d="m9567 1083c-9-8-9-276-1-297 7-19 30-21 37-3 7 20 9 271 1 290-6 17-25 22-37 10z"/>
   <path d="m9765 1075c-16-7-41-28-55-47-35-47-36-148-1-196 24-35 95-72 134-72 39 1 104 37 131 73 22 29 27 46 27 97 1 58-6 76-43 120-33 39-132 52-193 25zm117-25c43-17 69-46 78-83 28-127-96-216-191-137-65 53-60 158 9 205 39 27 67 31 104 15z"/>
   <path d="m10720 1068c-40-20-47-30-65-81-20-57-20-57 0-115 19-52 25-59 74-84 62-32 108-31 165 3 53 31 104 158 64 160-7 0-69 1-138 2-110 2-125 4-128 20-5 25 49 74 91 82 27 5 48 2 82-15 32-16 50-19 57-12 15 15 1 32-38 48-49 21-113 17-164-8zm205-175c-18-76-116-115-183-73-32 19-66 76-56 92 3 5 59 8 126 8h120z"/>
   <path d="m9563 714c-3-8 1-22 10-31 14-14 16-13 26 6 7 12 9 26 6 31-10 15-35 12-42-6z"/>
  </g>
 </g>
 <g transform="translate(-718.71 -597.89)">
  <g>
   <g fill="#1b549f">
    <path d="m3617 3413c-4-3-7-485-7-1070v-1063l-462-2-463-3-3-309c-2-219 1-313 9-322 17-21 2581-21 2598 0 8 9 11 103 9 322l-3 309-497 3-498 2-2 1068-3 1067-336 3c-184 1-338-1-342-5z"/>
   </g>
   <g fill="#276bb2">
    <path d="m2687 3403c-7-7-10-1897-3-1904 2-2 157-2 343 1l338 5v1900l-336 3c-184 1-338-1-342-5z"/>
   </g>
   <g fill="#2f86c5">
    <path d="m2697 3414c-20-20 32-24 308-24 205 0 306-3 310-11 4-6 13-8 21-5 9 3 14-2 14-14 0-11-6-19-12-18-7 2-13-4-13-12s6-14 13-12c9 1 12-183 12-898v-900l-325-2c-208-2-325-7-325-13s119-10 338-10h337l3 949c1 672-1 953-9 962-8 10-81 13-338 14-180 0-330-3-334-6z"/>
    <path d="m4286 3403c-3-3-6-482-6-1063 0-925 2-1059 15-1070 14-11 19-7 16 13-1 4-1 482-1 1062s-4 1056-9 1059c-4 3-11 3-15-1z"/>
    <path d="m1727 2443c-4-3-7-410-7-903 0-747 2-899 14-909 9-8 109-11 347-9l334 3v1820l-341 3c-187 1-343-1-347-5z"/>
   </g>
   <g fill="#4fbbe8">
    <path d="m732 3408c-19-19-17-2761 2-2777 9-8 109-11 347-9l334 3 7 55c3 30 6 499 7 1042l1 987 492 1c461 0 493 1 500 17 3 10 7 160 7 333 1 270-1 319-15 338l-15 22h-828c-630 0-830-3-839-12z"/>
    <path d="m2675 3289c-10-27 0-1774 10-1774 7 0 11 303 13 884 2 821-1 947-23 890z"/>
    <path d="m1735 2449c-4-5 0-11 7-14 7-2 159-4 338-2l325 2v-890c0-585 3-891 10-893 7-1 11 300 13 885 2 820 1 888-15 905s-37 19-345 18c-191-1-330-5-333-11z"/>
    <path d="m1715 2419c-10-27 0-1774 10-1774 7 0 11 303 13 884 2 821-1 947-23 890z"/>
   </g>
  </g>
  <g fill="#9fadb6">
   <path d="m3612 3418c-9-9-12-254-12-1070v-1058h-454c-374 0-456-2-465-14-15-18-15-624 1-643 15-18 2598-19 2616-1s17 631-1 647c-10 7-161 11-503 11h-498c-5 0-3-7 4-15 11-13 78-15 496-15h484v-610h-2585l6 610h452c339 0 456 3 465 12s12 260 12 1070v1058h338c270-1 337 2 337 12 0 18-675 24-693 6z"/>
   <path d="m2683 3407c-13-16-11-117 2-117 6 0 10 21 10 48 0 26 4 52 8 59 10 16-8 26-20 10z"/>
   <path d="m3357 3414c-4-4-4-11-1-15 3-5 6-430 7-946 1-617 5-938 12-938s11 322 12 942c2 762 0 943-11 952-7 6-16 8-19 5z"/>
   <path d="m1713 2444c-9-25 13-40 26-16 10 19 6 32-11 32-5 0-11-7-15-16z"/>
   <path d="m1405 718c-9-24-2-93 10-93 14 0 19 85 6 98-7 7-12 5-16-5z"/>
   <path d="m2401 642c-13-25 2-38 19-16 9 10 10 18 3 25-8 8-14 5-22-9z"/>
  </g>
  <g>
   <g fill="#1b549f">
    <path d="m3620 2340v-1070h-930l2-312 3-313h2590l3 313 2 312h-1e3v2140h-670z"/>
   </g>
   <g fill="#276bb2">
    <path d="m2690 2453v-948l670 6v1889h-670zm647 930c-4-3-10-3-14 0-3 4 0 7 7 7s10-3 7-7zm0-60c-4-3-7 0-7 7s3 10 7 7c3-4 3-10 0-14z"/>
   </g>
   <g fill="#2f86c5">
    <path d="m2853 3403c86-2 228-2 315 0 86 1 15 3-158 3s-244-2-157-3z"/>
    <path d="m3343 3404c16-5 17-59 17-950v-944l-332-3-333-2 338-3 337-2-2 952c-3 944-3 953-23 955-16 1-16 1-2-3z"/>
    <path d="m4293 3350c0-30 2-43 4-27 2 15 2 39 0 55-2 15-4 2-4-28z"/>
    <path d="m3323 3383c4-3 10-3 14 0 3 4 0 7-7 7s-10-3-7-7z"/>
    <path d="m3330 3330c0-7 3-10 7-7 3 4 3 10 0 14-4 3-7 0-7-7z"/>
    <path d="m4295 2315c0-539 1-758 2-487 2 272 2 713 0 980-1 268-2 46-2-493z"/>
    <path d="m1732 1538 3-903 338-3 337-2v1810h-680z"/>
    <path d="m4290 1306c0-14 4-27 8-30 5-3 6 8 4 25-5 35-12 38-12 5z"/>
   </g>
   <g fill="#4fbbe8">
    <path d="m735 3398c-3-7-4-632-3-1388l3-1375 338-3c185-1 338-1 339 0 1 2 5 471 8 1043l5 1040h490c426 0 491 2 497 15 11 25 9 639-2 661-10 19-30 19-841 19-654 0-831-3-834-12z"/>
    <path d="m3370 3380c0-7 3-10 7-7 3 4 3 10 0 14-4 3-7 0-7-7z"/>
    <path d="m2685 2405c0-490 1-688 2-442 2 247 2 647 0 890-1 243-2 42-2-448z"/>
    <path d="m1748 2443c6-2 18-2 25 0 6 3 1 5-13 5s-19-2-12-5z"/>
    <path d="m1948 2443c83-2 221-2 305 0 83 1 15 3-153 3s-236-2-152-3z"/>
    <path d="m2415 1540c0-492 1-694 2-447 2 246 2 648 0 895-1 246-2 44-2-448z"/>
    <path d="m1725 1535c0-490 1-688 2-442 2 247 2 647 0 890-1 243-2 42-2-448z"/>
   </g>
  </g>
 </g>
</svg>
