<?xml version="1.0" encoding="UTF-8" standalone="no"?>
<!-- Generator: Adobe Illustrator 23.0.3, SVG Export Plug-In . SVG Version: 6.00 Build 0)  -->

<svg
   xmlns:dc="http://purl.org/dc/elements/1.1/"
   xmlns:cc="http://creativecommons.org/ns#"
   xmlns:rdf="http://www.w3.org/1999/02/22-rdf-syntax-ns#"
   xmlns:svg="http://www.w3.org/2000/svg"
   xmlns="http://www.w3.org/2000/svg"
   xmlns:sodipodi="http://sodipodi.sourceforge.net/DTD/sodipodi-0.dtd"
   xmlns:inkscape="http://www.inkscape.org/namespaces/inkscape"
   version="1.1"
   x="0px"
   y="0px"
   viewBox="0 0 80.949993 20.65"
   xml:space="preserve"
   id="svg953"
   sodipodi:docname="logo.svg"
   inkscape:version="0.92.4 (unknown)"
   width="80.949997"
   height="20.65"><metadata
   id="metadata959"><rdf:RDF><cc:Work
       rdf:about=""><dc:format>image/svg+xml</dc:format><dc:type
         rdf:resource="http://purl.org/dc/dcmitype/StillImage" /><dc:title></dc:title></cc:Work></rdf:RDF></metadata><defs
   id="defs957">
	
	
	

		<linearGradient
   id="SVGID_1_"
   gradientUnits="userSpaceOnUse"
   x1="236.92239"
   y1="38.8288"
   x2="433.51169"
   y2="-80.475403">
			<stop
   offset="0"
   style="stop-color:#1DBAED"
   id="stop6" />
			<stop
   offset="1"
   style="stop-color:#0057A0"
   id="stop8" />
		</linearGradient>
		
		
		<linearGradient
   id="SVGID_2_"
   gradientUnits="userSpaceOnUse"
   x1="287.82031"
   y1="79.407501"
   x2="481.06589"
   y2="-37.8675">
			<stop
   offset="0"
   style="stop-color:#1DBAED"
   id="stop17" />
			<stop
   offset="1"
   style="stop-color:#0057A0"
   id="stop19" />
		</linearGradient>
		
		
		
		
		
		
		
		
	</defs><sodipodi:namedview
   pagecolor="#ffffff"
   bordercolor="#666666"
   borderopacity="1"
   objecttolerance="10"
   gridtolerance="10"
   guidetolerance="10"
   inkscape:pageopacity="0"
   inkscape:pageshadow="2"
   inkscape:window-width="1920"
   inkscape:window-height="1053"
   id="namedview955"
   showgrid="false"
   inkscape:zoom="3.3154121"
   inkscape:cx="71.5351"
   inkscape:cy="-65.382559"
   inkscape:window-x="0"
   inkscape:window-y="1080"
   inkscape:window-maximized="1"
   inkscape:current-layer="svg953"
   fit-margin-top="0"
   fit-margin-left="0"
   fit-margin-right="0"
   fit-margin-bottom="0" />
<style
   type="text/css"
   id="style2">
	.st0{display:none;opacity:0.36;}
	.st1{fill:#3B93C9;}
	.st2{fill:#8AB3BC;}
	.st3{fill:#0480B6;}
	.st4{fill:#FEE164;}
	.st5{fill:#FCBA13;}
	.st6{fill:none;stroke:#8AB3BC;stroke-width:2;stroke-miterlimit:10;}
	.st7{fill:none;stroke:#FCBA13;stroke-width:2;stroke-miterlimit:10;}
	.st8{fill:none;stroke:#FEE164;stroke-width:2;stroke-miterlimit:10;}
	.st9{fill:#B2DEF6;}
	.st10{fill:none;stroke:#0480B6;stroke-width:5;stroke-linecap:round;stroke-linejoin:round;stroke-miterlimit:10;}
	.st11{fill:#0E3C60;}
	.st12{fill:#0480B6;stroke:#0480B6;stroke-width:0.75;stroke-miterlimit:10;}
	.st13{fill:#1DBAED;}
	.st14{fill:#7CCBF1;}
	.st15{fill:#009DD7;}
	.st16{fill:#0088C5;}
	.st17{fill:#0057A0;}
	.st18{fill:#047D3F;}
	.st19{fill:#95C13D;}
	.st20{fill:#61150B;}
	.st21{fill:#B8732A;}
	.st22{fill:#3D3C3B;}
	.st23{fill:#EB6824;}
	.st24{fill:none;stroke:#0480B6;stroke-width:2;stroke-miterlimit:10;}
	.st25{fill:none;stroke:#0480B6;stroke-width:0.75;stroke-linecap:round;stroke-linejoin:round;stroke-miterlimit:10;}
	.st26{fill:#58595B;}
	.st27{fill:none;stroke:#000000;stroke-width:3;stroke-miterlimit:10;}
	.st28{fill:none;stroke:#0057A0;stroke-width:3;stroke-miterlimit:10;}
	.st29{fill:none;stroke:#0E3C60;stroke-width:3;stroke-miterlimit:10;}
	.st30{fill:url(#SVGID_1_);}
	.st31{fill:url(#SVGID_2_);}
	.st32{opacity:0.3;}
	.st33{fill:url(#SVGID_3_);}
	.st34{fill:#FFFFFF;}
	.st35{fill:#A3D9F6;}
	.st36{fill:#FEDD00;}
	.st37{fill:#9FD7F5;}
	.st38{fill:#DBDAD9;}
	.st39{fill:none;stroke:#3D3C3B;stroke-width:0.6233;stroke-linecap:round;stroke-linejoin:round;stroke-miterlimit:10;}
	.st40{opacity:0.2;fill:#70706F;}
	.st41{fill:#ECECEC;}
	.st42{fill:#F5F6F6;}
	.st43{fill:#F5F6F6;stroke:#3D3C3B;stroke-width:0.6233;stroke-linecap:round;stroke-linejoin:round;stroke-miterlimit:10;}
	.st44{fill:none;stroke:#9C9C9C;stroke-width:1.8615;stroke-linecap:round;stroke-linejoin:round;stroke-miterlimit:10;}
	.st45{fill:#7B3B1A;}
	.st46{fill:none;stroke:#FFFFFF;stroke-width:2.2498;stroke-miterlimit:10;}
	.st47{font-family:'MyriadPro-Bold';}
	.st48{font-size:9.095px;}
	.st49{opacity:0.5;clip-path:url(#SVGID_5_);}
	.st50{fill:#FABCB4;}
	.st51{clip-path:url(#SVGID_5_);}
	.st52{fill:url(#SVGID_6_);}
	.st53{clip-path:url(#SVGID_5_);fill:#E6E6E5;}
	.st54{opacity:0.4;clip-path:url(#SVGID_5_);}
	.st55{fill:#1A1A1A;}
	.st56{fill:none;stroke:#9C9C9C;stroke-width:1.8648;stroke-linecap:round;stroke-linejoin:round;stroke-miterlimit:10;}
	.st57{fill:#D9B827;}
	.st58{fill:#9C9C9C;}
	.st59{clip-path:url(#SVGID_5_);fill:#C6BDBD;}
	.st60{clip-path:url(#SVGID_5_);fill:#0057A0;}
	.st61{clip-path:url(#SVGID_5_);fill:#FFFFFF;}
	.st62{fill:#FFFFFF;stroke:#000000;stroke-width:3;stroke-miterlimit:10;}
</style>
<g
   id="_x31_"
   transform="translate(-31.23,-10.43)">
</g>
<g
   id="Layer_1"
   transform="translate(-31.23,-10.43)">
</g>
<g
   id="g950"
   transform="translate(-31.23,-10.43)">
		<g
   id="g914">
			<g
   id="g858">
				<path
   style="fill:#ffffff"
   inkscape:connector-curvature="0"
   id="path854"
   d="m 55.05,15.89 h 0.85 v 3.38 h 2.54 v 0.85 H 55.9 v 5.92 c 0,0.47 0.17,0.87 0.49,1.2 0.33,0.33 0.73,0.49 1.2,0.49 h 0.85 v 0.85 h -0.85 c -0.7,0 -1.3,-0.25 -1.79,-0.74 -0.5,-0.5 -0.74,-1.09 -0.74,-1.79 V 15.89 Z"
   class="st34" />
				<path
   style="fill:#ffffff"
   inkscape:connector-curvature="0"
   id="path856"
   d="m 58.62,28.77 h -1.04 c -0.75,0 -1.4,-0.27 -1.93,-0.8 -0.53,-0.53 -0.8,-1.18 -0.8,-1.93 V 15.7 h 1.23 v 3.38 h 2.54 v 1.23 h -2.54 v 5.73 c 0,0.42 0.14,0.77 0.44,1.06 0.3,0.29 0.64,0.44 1.06,0.44 h 1.04 z M 55.24,16.08 v 9.96 c 0,0.65 0.23,1.19 0.69,1.66 0.46,0.46 1,0.69 1.66,0.69 h 0.65 v -0.46 h -0.65 c -0.52,0 -0.97,-0.19 -1.33,-0.55 -0.37,-0.37 -0.55,-0.81 -0.55,-1.33 v -6.11 h 2.54 V 19.48 H 55.7 V 16.1 h -0.46 z"
   class="st34" />
			</g>
			<g
   id="g864">
				<path
   style="fill:#ffffff"
   inkscape:connector-curvature="0"
   id="path860"
   d="m 60.62,26.04 c 0,0.47 0.17,0.87 0.49,1.2 0.33,0.33 0.73,0.49 1.2,0.49 0.47,0 0.87,-0.17 1.2,-0.49 0.33,-0.33 0.49,-0.73 0.49,-1.2 h 0.85 c 0,0.7 -0.25,1.3 -0.74,1.79 -0.49,0.49 -1.09,0.74 -1.79,0.74 -0.7,0 -1.3,-0.25 -1.79,-0.74 -0.5,-0.5 -0.74,-1.09 -0.74,-1.79 v -4.23 c 0,-0.7 0.25,-1.3 0.74,-1.79 0.5,-0.5 1.09,-0.74 1.79,-0.74 0.7,0 1.3,0.25 1.79,0.74 0.49,0.49 0.74,1.09 0.74,1.79 v 2.54 h -4.23 z m 3.39,-4.23 c 0,-0.47 -0.17,-0.87 -0.49,-1.2 -0.33,-0.33 -0.73,-0.49 -1.2,-0.49 -0.47,0 -0.87,0.17 -1.2,0.49 -0.33,0.33 -0.49,0.73 -0.49,1.2 v 1.69 h 3.38 z"
   class="st34" />
				<path
   style="fill:#ffffff"
   inkscape:connector-curvature="0"
   id="path862"
   d="m 62.31,28.77 c -0.75,0 -1.4,-0.27 -1.93,-0.8 -0.53,-0.53 -0.8,-1.18 -0.8,-1.93 v -4.23 c 0,-0.75 0.27,-1.4 0.8,-1.93 0.53,-0.53 1.18,-0.8 1.93,-0.8 0.75,0 1.4,0.27 1.93,0.8 0.53,0.53 0.8,1.18 0.8,1.93 v 2.73 h -4.23 v 1.5 c 0,0.42 0.14,0.77 0.44,1.06 0.3,0.29 0.64,0.44 1.06,0.44 0.42,0 0.77,-0.14 1.06,-0.44 0.3,-0.3 0.44,-0.64 0.44,-1.06 v -0.19 h 1.23 v 0.19 c 0,0.75 -0.27,1.4 -0.8,1.93 -0.53,0.53 -1.18,0.8 -1.93,0.8 z m 0,-9.31 c -0.65,0 -1.19,0.23 -1.66,0.69 -0.46,0.46 -0.69,1.01 -0.69,1.66 v 4.23 c 0,0.65 0.23,1.19 0.69,1.66 0.46,0.46 1,0.69 1.66,0.69 0.65,0 1.19,-0.23 1.66,-0.69 0.42,-0.42 0.64,-0.9 0.68,-1.46 h -0.46 c -0.04,0.44 -0.22,0.82 -0.54,1.14 -0.37,0.37 -0.81,0.55 -1.33,0.55 -0.52,0 -0.97,-0.19 -1.33,-0.55 -0.37,-0.37 -0.55,-0.81 -0.55,-1.33 v -1.88 h 4.23 v -2.35 c 0,-0.65 -0.23,-1.19 -0.69,-1.66 -0.47,-0.47 -1.01,-0.7 -1.67,-0.7 z m 1.89,4.23 h -3.77 v -1.88 c 0,-0.52 0.19,-0.97 0.55,-1.33 0.37,-0.37 0.81,-0.55 1.33,-0.55 0.52,0 0.97,0.19 1.33,0.55 0.37,0.37 0.55,0.81 0.55,1.33 v 1.88 z m -3.39,-0.38 h 3 v -1.5 c 0,-0.42 -0.14,-0.77 -0.44,-1.06 -0.3,-0.29 -0.64,-0.44 -1.06,-0.44 -0.42,0 -0.77,0.14 -1.06,0.44 -0.3,0.3 -0.44,0.64 -0.44,1.06 z"
   class="st34" />
			</g>
			<g
   id="g870">
				<path
   style="fill:#ffffff"
   inkscape:connector-curvature="0"
   id="path866"
   d="m 67.04,21.81 v 6.77 H 66.2 v -9.3 h 0.85 v 0.65 c 0.47,-0.43 1.04,-0.65 1.69,-0.65 0.7,0 1.3,0.25 1.79,0.74 0.49,0.49 0.74,1.09 0.74,1.79 v 6.77 h -0.85 v -6.77 c 0,-0.47 -0.17,-0.87 -0.49,-1.2 -0.33,-0.33 -0.73,-0.49 -1.2,-0.49 -0.47,0 -0.87,0.17 -1.2,0.49 -0.32,0.33 -0.49,0.73 -0.49,1.2 z"
   class="st34" />
				<path
   style="fill:#ffffff"
   inkscape:connector-curvature="0"
   id="path868"
   d="m 71.46,28.77 h -1.23 v -6.96 c 0,-0.42 -0.14,-0.77 -0.44,-1.06 -0.3,-0.29 -0.64,-0.44 -1.06,-0.44 -0.42,0 -0.77,0.14 -1.06,0.44 -0.3,0.3 -0.44,0.64 -0.44,1.06 v 6.96 H 66 v -9.69 h 1.23 v 0.45 c 0.44,-0.3 0.94,-0.45 1.5,-0.45 0.75,0 1.4,0.27 1.93,0.8 0.53,0.53 0.8,1.18 0.8,1.93 z m -0.84,-0.39 h 0.46 v -6.57 c 0,-0.65 -0.23,-1.19 -0.69,-1.66 -0.46,-0.46 -1,-0.69 -1.66,-0.69 -0.61,0 -1.12,0.2 -1.56,0.6 l -0.32,0.3 v -0.9 h -0.46 v 8.92 h 0.46 v -6.57 c 0,-0.52 0.19,-0.97 0.55,-1.33 0.37,-0.37 0.81,-0.55 1.33,-0.55 0.52,0 0.97,0.19 1.33,0.55 0.37,0.37 0.55,0.81 0.55,1.33 v 6.57 z"
   class="st34" />
			</g>
			<g
   id="g876">
				<path
   style="fill:#ffffff"
   inkscape:connector-curvature="0"
   id="path872"
   d="m 76.85,19.92 v -4.03 h 0.85 v 12.69 h -0.85 v -0.65 c -0.47,0.43 -1.04,0.65 -1.69,0.65 -0.7,0 -1.3,-0.25 -1.79,-0.74 -0.49,-0.49 -0.74,-1.09 -0.74,-1.79 v -4.23 c 0,-0.7 0.25,-1.3 0.74,-1.79 0.49,-0.49 1.09,-0.74 1.79,-0.74 0.65,-0.02 1.21,0.2 1.69,0.63 z m 0,1.89 c 0,-0.47 -0.17,-0.87 -0.49,-1.2 -0.33,-0.33 -0.73,-0.49 -1.2,-0.49 -0.47,0 -0.87,0.17 -1.2,0.49 -0.33,0.33 -0.49,0.73 -0.49,1.2 v 4.23 c 0,0.47 0.17,0.87 0.49,1.2 0.33,0.33 0.73,0.49 1.2,0.49 0.47,0 0.87,-0.17 1.2,-0.49 0.33,-0.33 0.49,-0.73 0.49,-1.2 z"
   class="st34" />
				<path
   style="fill:#ffffff"
   inkscape:connector-curvature="0"
   id="path874"
   d="m 77.89,28.77 h -1.23 v -0.45 c -0.44,0.3 -0.94,0.45 -1.5,0.45 -0.75,0 -1.4,-0.27 -1.93,-0.8 -0.53,-0.53 -0.8,-1.18 -0.8,-1.93 v -4.23 c 0,-0.75 0.27,-1.4 0.8,-1.93 0.53,-0.53 1.18,-0.8 1.93,-0.8 0.56,0 1.06,0.15 1.5,0.45 V 15.7 h 1.23 z m -0.85,-0.39 h 0.46 v -12.3 h -0.46 v 4.28 l -0.32,-0.3 c -0.44,-0.4 -0.95,-0.6 -1.56,-0.6 -0.65,0 -1.19,0.23 -1.66,0.69 -0.46,0.46 -0.69,1.01 -0.69,1.66 v 4.23 c 0,0.65 0.23,1.19 0.69,1.66 0.46,0.46 1,0.69 1.66,0.69 0.61,0 1.12,-0.2 1.56,-0.6 l 0.32,-0.3 z m -1.88,-0.46 c -0.52,0 -0.97,-0.19 -1.33,-0.55 C 73.46,27 73.28,26.56 73.28,26.04 v -4.23 c 0,-0.52 0.19,-0.97 0.55,-1.33 0.37,-0.37 0.81,-0.55 1.33,-0.55 0.52,0 0.97,0.19 1.33,0.55 0.37,0.37 0.55,0.81 0.55,1.33 v 4.23 c 0,0.52 -0.19,0.97 -0.55,1.33 -0.37,0.37 -0.82,0.55 -1.33,0.55 z m 0,-7.61 c -0.42,0 -0.77,0.14 -1.06,0.44 -0.3,0.3 -0.44,0.64 -0.44,1.06 v 4.23 c 0,0.42 0.14,0.77 0.44,1.06 0.3,0.29 0.64,0.44 1.06,0.44 0.42,0 0.77,-0.14 1.06,-0.44 0.3,-0.3 0.44,-0.64 0.44,-1.06 v -4.23 c 0,-0.42 -0.14,-0.77 -0.44,-1.06 -0.3,-0.3 -0.65,-0.44 -1.06,-0.44 z"
   class="st34" />
			</g>
			<g
   id="g882">
				<path
   style="fill:#ffffff"
   inkscape:connector-curvature="0"
   id="path878"
   d="m 79.88,26.04 c 0,0.47 0.17,0.87 0.49,1.2 0.33,0.33 0.73,0.49 1.2,0.49 0.47,0 0.87,-0.17 1.2,-0.49 0.33,-0.33 0.49,-0.73 0.49,-1.2 h 0.85 c 0,0.7 -0.25,1.3 -0.74,1.79 -0.49,0.49 -1.09,0.74 -1.79,0.74 -0.7,0 -1.3,-0.25 -1.79,-0.74 -0.49,-0.49 -0.74,-1.09 -0.74,-1.79 v -4.23 c 0,-0.7 0.25,-1.3 0.74,-1.79 0.49,-0.49 1.09,-0.74 1.79,-0.74 0.7,0 1.3,0.25 1.79,0.74 0.49,0.49 0.74,1.09 0.74,1.79 v 2.54 h -4.23 z m 3.39,-4.23 c 0,-0.47 -0.17,-0.87 -0.49,-1.2 -0.33,-0.33 -0.73,-0.49 -1.2,-0.49 -0.47,0 -0.87,0.17 -1.2,0.49 -0.33,0.33 -0.49,0.73 -0.49,1.2 v 1.69 h 3.38 z"
   class="st34" />
				<path
   style="fill:#ffffff"
   inkscape:connector-curvature="0"
   id="path880"
   d="m 81.58,28.77 c -0.75,0 -1.4,-0.27 -1.93,-0.8 -0.53,-0.53 -0.8,-1.18 -0.8,-1.93 v -4.23 c 0,-0.75 0.27,-1.4 0.8,-1.93 0.53,-0.53 1.18,-0.8 1.93,-0.8 0.75,0 1.4,0.27 1.93,0.8 0.53,0.53 0.8,1.18 0.8,1.93 v 2.73 h -4.23 v 1.5 c 0,0.42 0.14,0.77 0.44,1.06 0.3,0.29 0.64,0.44 1.06,0.44 0.42,0 0.77,-0.14 1.06,-0.44 0.3,-0.3 0.44,-0.64 0.44,-1.06 v -0.19 h 1.23 v 0.19 c 0,0.75 -0.27,1.4 -0.8,1.93 -0.54,0.53 -1.19,0.8 -1.93,0.8 z m 0,-9.31 c -0.65,0 -1.19,0.23 -1.66,0.69 -0.46,0.46 -0.69,1.01 -0.69,1.66 v 4.23 c 0,0.65 0.23,1.19 0.69,1.66 0.46,0.46 1,0.69 1.66,0.69 0.65,0 1.19,-0.23 1.66,-0.69 0.42,-0.42 0.64,-0.9 0.68,-1.46 h -0.46 c -0.04,0.44 -0.22,0.82 -0.54,1.14 -0.37,0.37 -0.81,0.55 -1.33,0.55 -0.52,0 -0.97,-0.19 -1.33,-0.55 -0.37,-0.37 -0.55,-0.81 -0.55,-1.33 v -1.88 h 4.23 v -2.35 c 0,-0.65 -0.23,-1.19 -0.69,-1.66 -0.48,-0.47 -1.02,-0.7 -1.67,-0.7 z m 1.88,4.23 h -3.77 v -1.88 c 0,-0.52 0.19,-0.97 0.55,-1.33 0.37,-0.37 0.81,-0.55 1.33,-0.55 0.52,0 0.97,0.19 1.33,0.55 0.37,0.37 0.55,0.81 0.55,1.33 v 1.88 z m -3.38,-0.38 h 3 v -1.5 c 0,-0.42 -0.14,-0.77 -0.44,-1.06 -0.3,-0.29 -0.64,-0.44 -1.06,-0.44 -0.42,0 -0.77,0.14 -1.06,0.44 -0.3,0.3 -0.44,0.64 -0.44,1.06 z"
   class="st34" />
			</g>
			<g
   id="g888">
				<path
   style="fill:#ffffff"
   inkscape:connector-curvature="0"
   id="path884"
   d="m 86.3,21.81 v 6.77 h -0.85 v -9.3 h 0.85 v 0.65 c 0.47,-0.43 1.04,-0.65 1.69,-0.65 0.7,0 1.3,0.25 1.79,0.74 0.5,0.5 0.74,1.09 0.74,1.79 v 6.77 h -0.85 v -6.77 c 0,-0.47 -0.17,-0.87 -0.49,-1.2 -0.33,-0.33 -0.73,-0.49 -1.2,-0.49 -0.47,0 -0.87,0.17 -1.2,0.49 -0.31,0.33 -0.48,0.73 -0.48,1.2 z"
   class="st34" />
				<path
   style="fill:#ffffff"
   inkscape:connector-curvature="0"
   id="path886"
   d="M 90.73,28.77 H 89.5 v -6.96 c 0,-0.42 -0.14,-0.77 -0.44,-1.06 -0.3,-0.29 -0.64,-0.44 -1.06,-0.44 -0.42,0 -0.77,0.14 -1.06,0.44 -0.3,0.3 -0.44,0.64 -0.44,1.06 v 6.96 h -1.23 v -9.69 h 1.23 v 0.45 c 0.44,-0.3 0.94,-0.45 1.5,-0.45 0.75,0 1.4,0.27 1.93,0.8 0.53,0.53 0.8,1.18 0.8,1.93 z m -0.85,-0.39 h 0.46 v -6.57 c 0,-0.65 -0.23,-1.19 -0.69,-1.66 -0.46,-0.46 -1,-0.69 -1.66,-0.69 -0.61,0 -1.12,0.2 -1.56,0.6 l -0.32,0.3 v -0.9 h -0.46 v 8.92 h 0.46 v -6.57 c 0,-0.52 0.19,-0.97 0.55,-1.33 0.37,-0.37 0.81,-0.55 1.33,-0.55 0.52,0 0.97,0.19 1.33,0.55 0.37,0.37 0.55,0.81 0.55,1.33 v 6.57 z"
   class="st34" />
			</g>
			<g
   id="g894">
				<path
   style="fill:#ffffff"
   inkscape:connector-curvature="0"
   id="path890"
   d="m 92.72,26.04 c 0,0.47 0.17,0.87 0.49,1.2 0.33,0.33 0.73,0.49 1.2,0.49 0.47,0 0.87,-0.17 1.2,-0.49 0.33,-0.33 0.49,-0.73 0.49,-1.2 h 0.85 c 0,0.7 -0.25,1.3 -0.74,1.79 -0.49,0.49 -1.09,0.74 -1.79,0.74 -0.7,0 -1.3,-0.25 -1.79,-0.74 -0.5,-0.5 -0.74,-1.09 -0.74,-1.79 v -4.23 c 0,-0.7 0.25,-1.3 0.74,-1.79 0.5,-0.5 1.09,-0.74 1.79,-0.74 0.7,0 1.3,0.25 1.79,0.74 0.49,0.49 0.74,1.09 0.74,1.79 H 96.1 c 0,-0.47 -0.17,-0.87 -0.49,-1.2 -0.33,-0.33 -0.73,-0.49 -1.2,-0.49 -0.47,0 -0.87,0.17 -1.2,0.49 -0.33,0.33 -0.49,0.73 -0.49,1.2 z"
   class="st34" />
				<path
   style="fill:#ffffff"
   inkscape:connector-curvature="0"
   id="path892"
   d="m 94.42,28.77 c -0.75,0 -1.4,-0.27 -1.93,-0.8 -0.53,-0.53 -0.8,-1.18 -0.8,-1.93 v -4.23 c 0,-0.75 0.27,-1.4 0.8,-1.93 0.53,-0.53 1.18,-0.8 1.93,-0.8 0.75,0 1.4,0.27 1.93,0.8 0.53,0.53 0.8,1.18 0.8,1.93 V 22 h -1.23 v -0.19 c 0,-0.42 -0.14,-0.77 -0.44,-1.06 -0.3,-0.29 -0.64,-0.44 -1.06,-0.44 -0.42,0 -0.77,0.14 -1.06,0.44 -0.3,0.3 -0.44,0.64 -0.44,1.06 v 4.23 c 0,0.42 0.14,0.77 0.44,1.06 0.3,0.29 0.64,0.44 1.06,0.44 0.42,0 0.77,-0.14 1.06,-0.44 0.3,-0.3 0.44,-0.64 0.44,-1.06 v -0.19 h 1.23 v 0.19 c 0,0.75 -0.27,1.4 -0.8,1.93 -0.54,0.53 -1.18,0.8 -1.93,0.8 z m 0,-9.31 c -0.65,0 -1.19,0.23 -1.66,0.69 -0.46,0.46 -0.69,1.01 -0.69,1.66 v 4.23 c 0,0.65 0.23,1.19 0.69,1.66 0.46,0.46 1,0.69 1.66,0.69 0.65,0 1.19,-0.23 1.66,-0.69 0.42,-0.42 0.64,-0.9 0.68,-1.46 H 96.3 c -0.04,0.44 -0.22,0.82 -0.54,1.14 -0.37,0.37 -0.81,0.55 -1.33,0.55 -0.52,0 -0.97,-0.19 -1.33,-0.55 -0.37,-0.37 -0.55,-0.81 -0.55,-1.33 v -4.23 c 0,-0.52 0.19,-0.97 0.55,-1.33 0.37,-0.37 0.81,-0.55 1.33,-0.55 0.52,0 0.97,0.19 1.33,0.55 0.32,0.32 0.5,0.7 0.54,1.14 h 0.46 C 96.72,21.06 96.5,20.58 96.08,20.17 95.61,19.69 95.07,19.46 94.42,19.46 Z"
   class="st34" />
			</g>
			<g
   id="g900">
				<path
   style="fill:#ffffff"
   inkscape:connector-curvature="0"
   id="path896"
   d="m 98.3,17.58 v -0.85 h 0.85 v 0.85 z m 0.85,1.69 v 9.3 H 98.3 v -9.3 z"
   class="st34" />
				<path
   style="fill:#ffffff"
   inkscape:connector-curvature="0"
   id="path898"
   d="m 99.34,28.77 h -1.23 v -9.69 h 1.23 z m -0.85,-0.39 h 0.46 v -8.92 h -0.46 z m 0.85,-10.61 h -1.23 v -1.23 h 1.23 z m -0.85,-0.38 h 0.46 v -0.46 h -0.46 z"
   class="st34" />
			</g>
			<g
   id="g906">
				<path
   style="fill:#ffffff"
   inkscape:connector-curvature="0"
   id="path902"
   d="m 104.72,19.92 v -0.65 h 0.85 v 9.3 h -0.85 v -0.65 c -0.47,0.43 -1.04,0.65 -1.69,0.65 -0.7,0 -1.3,-0.25 -1.79,-0.74 -0.49,-0.49 -0.74,-1.09 -0.74,-1.79 v -4.23 c 0,-0.7 0.25,-1.3 0.74,-1.79 0.49,-0.49 1.09,-0.74 1.79,-0.74 0.65,-0.01 1.22,0.21 1.69,0.64 z m 0,1.89 c 0,-0.47 -0.17,-0.87 -0.49,-1.2 -0.33,-0.33 -0.73,-0.49 -1.2,-0.49 -0.47,0 -0.87,0.17 -1.2,0.49 -0.33,0.33 -0.49,0.73 -0.49,1.2 v 4.23 c 0,0.47 0.17,0.87 0.49,1.2 0.33,0.33 0.73,0.49 1.2,0.49 0.47,0 0.87,-0.17 1.2,-0.49 0.33,-0.33 0.49,-0.73 0.49,-1.2 z"
   class="st34" />
				<path
   style="fill:#ffffff"
   inkscape:connector-curvature="0"
   id="path904"
   d="m 105.76,28.77 h -1.23 v -0.45 c -0.44,0.3 -0.94,0.45 -1.5,0.45 -0.75,0 -1.4,-0.27 -1.93,-0.8 -0.53,-0.53 -0.8,-1.18 -0.8,-1.93 v -4.23 c 0,-0.75 0.27,-1.4 0.8,-1.93 0.53,-0.53 1.18,-0.8 1.93,-0.8 0.56,0 1.06,0.15 1.5,0.45 v -0.45 h 1.23 z m -0.85,-0.39 h 0.46 v -8.92 h -0.46 v 0.9 l -0.32,-0.3 c -0.44,-0.4 -0.95,-0.6 -1.56,-0.6 -0.65,0 -1.19,0.23 -1.66,0.69 -0.46,0.46 -0.69,1.01 -0.69,1.66 v 4.23 c 0,0.65 0.23,1.19 0.69,1.66 0.46,0.46 1,0.69 1.66,0.69 0.61,0 1.12,-0.2 1.56,-0.6 l 0.32,-0.3 z m -1.88,-0.46 c -0.52,0 -0.97,-0.19 -1.33,-0.55 -0.37,-0.37 -0.55,-0.81 -0.55,-1.33 v -4.23 c 0,-0.52 0.19,-0.97 0.55,-1.33 0.37,-0.37 0.81,-0.55 1.33,-0.55 0.52,0 0.97,0.19 1.33,0.55 0.37,0.37 0.55,0.81 0.55,1.33 v 4.23 c 0,0.52 -0.19,0.97 -0.55,1.33 -0.37,0.37 -0.81,0.55 -1.33,0.55 z m 0,-7.61 c -0.42,0 -0.77,0.14 -1.06,0.44 -0.3,0.3 -0.44,0.64 -0.44,1.06 v 4.23 c 0,0.42 0.14,0.77 0.44,1.06 0.3,0.29 0.64,0.44 1.06,0.44 0.42,0 0.77,-0.14 1.06,-0.44 0.3,-0.3 0.44,-0.64 0.44,-1.06 v -4.23 c 0,-0.42 -0.14,-0.77 -0.44,-1.06 -0.3,-0.3 -0.64,-0.44 -1.06,-0.44 z"
   class="st34" />
			</g>
			<g
   id="g912">
				<path
   style="fill:#ffffff"
   inkscape:connector-curvature="0"
   id="path908"
   d="m 111.99,26.04 c 0,0.7 -0.25,1.3 -0.74,1.79 -0.5,0.5 -1.09,0.74 -1.79,0.74 -0.7,0 -1.3,-0.25 -1.79,-0.74 -0.49,-0.49 -0.74,-1.09 -0.74,-1.79 h 0.85 c 0,0.47 0.17,0.87 0.49,1.2 0.33,0.33 0.73,0.49 1.2,0.49 0.47,0 0.87,-0.17 1.2,-0.49 0.33,-0.33 0.49,-0.73 0.49,-1.2 0,-0.47 -0.17,-0.87 -0.49,-1.2 -0.33,-0.33 -0.73,-0.49 -1.2,-0.49 -0.7,0 -1.3,-0.25 -1.79,-0.74 -0.49,-0.49 -0.74,-1.09 -0.74,-1.79 0,-0.7 0.25,-1.3 0.74,-1.79 0.49,-0.49 1.09,-0.74 1.79,-0.74 0.7,0 1.3,0.25 1.79,0.74 0.5,0.5 0.74,1.09 0.74,1.79 h -0.85 c 0,-0.47 -0.17,-0.87 -0.49,-1.2 -0.33,-0.33 -0.73,-0.49 -1.2,-0.49 -0.47,0 -0.87,0.17 -1.2,0.49 -0.33,0.33 -0.49,0.73 -0.49,1.2 0,0.47 0.17,0.87 0.49,1.2 0.33,0.33 0.73,0.49 1.2,0.49 0.7,0 1.3,0.25 1.79,0.74 0.49,0.49 0.74,1.09 0.74,1.79 z"
   class="st34" />
				<path
   style="fill:#ffffff"
   inkscape:connector-curvature="0"
   id="path910"
   d="m 109.45,28.77 c -0.75,0 -1.4,-0.27 -1.93,-0.8 -0.53,-0.53 -0.8,-1.18 -0.8,-1.93 v -0.19 h 1.23 v 0.19 c 0,0.42 0.14,0.77 0.44,1.06 0.3,0.29 0.64,0.44 1.06,0.44 0.42,0 0.77,-0.14 1.06,-0.44 0.3,-0.3 0.44,-0.64 0.44,-1.06 0,-0.42 -0.14,-0.77 -0.44,-1.06 -0.3,-0.29 -0.64,-0.44 -1.06,-0.44 -0.75,0 -1.4,-0.27 -1.93,-0.8 -0.53,-0.53 -0.8,-1.18 -0.8,-1.93 0,-0.75 0.27,-1.4 0.8,-1.93 0.53,-0.53 1.18,-0.8 1.93,-0.8 0.75,0 1.4,0.27 1.93,0.8 0.53,0.53 0.8,1.18 0.8,1.93 V 22 h -1.23 v -0.19 c 0,-0.42 -0.14,-0.77 -0.44,-1.06 -0.3,-0.29 -0.64,-0.44 -1.06,-0.44 -0.42,0 -0.77,0.14 -1.06,0.44 -0.3,0.3 -0.44,0.64 -0.44,1.06 0,0.42 0.14,0.77 0.44,1.06 0.3,0.29 0.64,0.44 1.06,0.44 0.75,0 1.4,0.27 1.93,0.8 0.53,0.53 0.8,1.18 0.8,1.93 0,0.75 -0.27,1.4 -0.8,1.93 -0.53,0.53 -1.18,0.8 -1.93,0.8 z m -2.34,-2.54 c 0.04,0.57 0.26,1.05 0.68,1.46 0.46,0.46 1,0.69 1.66,0.69 0.65,0 1.19,-0.23 1.66,-0.69 0.46,-0.46 0.69,-1.01 0.69,-1.66 0,-0.65 -0.23,-1.19 -0.69,-1.66 -0.46,-0.46 -1,-0.69 -1.66,-0.69 -0.52,0 -0.97,-0.19 -1.33,-0.55 -0.37,-0.37 -0.55,-0.81 -0.55,-1.33 0,-0.52 0.19,-0.97 0.55,-1.33 0.37,-0.37 0.81,-0.55 1.33,-0.55 0.52,0 0.97,0.19 1.33,0.55 0.32,0.32 0.5,0.7 0.54,1.14 h 0.46 c -0.04,-0.57 -0.26,-1.05 -0.68,-1.46 -0.46,-0.46 -1,-0.69 -1.66,-0.69 -0.65,0 -1.19,0.23 -1.66,0.69 -0.46,0.46 -0.69,1.01 -0.69,1.66 0,0.65 0.23,1.19 0.69,1.66 0.46,0.46 1,0.69 1.66,0.69 0.52,0 0.97,0.19 1.33,0.55 0.37,0.37 0.55,0.81 0.55,1.33 0,0.52 -0.19,0.97 -0.55,1.33 -0.37,0.37 -0.81,0.55 -1.33,0.55 -0.52,0 -0.97,-0.19 -1.33,-0.55 -0.32,-0.32 -0.5,-0.7 -0.54,-1.14 z"
   class="st34" />
			</g>
		</g>
		<g
   id="g918">
			<path
   style="fill:#ffffff"
   inkscape:connector-curvature="0"
   id="path916"
   d="m 36.07,21.95 c -0.02,-0.07 -1.54,-7.13 6.86,-9.1 l 0.26,1.12 c -7.29,1.71 -6.05,7.47 -6,7.72 z"
   class="st34" />
		</g>
		<g
   id="g922">
			<path
   style="fill:#ffffff"
   inkscape:connector-curvature="0"
   id="path920"
   d="m 43.79,28.04 c -0.86,0 -1.69,-0.13 -2.5,-0.39 -3.81,-1.23 -5.63,-4.91 -5.7,-5.06 l 1.04,-0.5 -0.52,0.25 0.52,-0.25 c 0.02,0.03 1.69,3.4 5.03,4.47 2.06,0.66 4.35,0.33 6.8,-0.99 l 0.54,1 c -1.81,0.98 -3.55,1.47 -5.21,1.47 z"
   class="st34" />
		</g>
		<g
   id="g926">
			<path
   style="fill:#ffffff"
   inkscape:connector-curvature="0"
   id="path924"
   d="m 40.09,31.08 c -1.97,0 -4.03,-0.17 -6.01,-0.61 l -0.41,-0.09 -0.3,-3.53 1.15,-0.1 0.23,2.68 c 4.44,0.89 9.24,0.41 12.53,-0.17 l 0.2,1.14 c -2.04,0.35 -4.64,0.68 -7.39,0.68 z"
   class="st34" />
		</g>
		<g
   id="g936">
			<g
   id="g930">
				<path
   style="fill:#ffffff"
   inkscape:connector-curvature="0"
   id="path928"
   d="m 32.6,14.8 -0.18,-2.18 0.42,-0.15 c 0.14,-0.05 3.43,-1.21 8.05,-1.6 l 0.1,1.15 c -3.54,0.3 -6.32,1.08 -7.34,1.4 l 0.11,1.28 z"
   class="st34" />
			</g>
			<g
   id="g934">
				<path
   style="fill:#ffffff"
   inkscape:connector-curvature="0"
   id="path932"
   d="M 50.93,19.97 H 49.78 V 12.53 C 49.4,12.45 49.02,12.37 48.63,12.31 l 0.2,-1.14 c 0.56,0.1 1.12,0.21 1.66,0.34 l 0.44,0.11 z"
   class="st34" />
			</g>
		</g>
		<g
   id="g940">
			<circle
   style="fill:#ffffff"
   id="circle938"
   r="2.6800001"
   cy="13.11"
   cx="44.470001"
   class="st34" />
		</g>
		<g
   id="g944">
			<circle
   style="fill:#ffffff"
   id="circle942"
   r="5.02"
   cy="19.969999"
   cx="36.25"
   class="st34" />
		</g>
		<g
   id="g948">
			<circle
   style="fill:#ffffff"
   id="circle946"
   r="3.22"
   cy="24.76"
   cx="49.75"
   class="st34" />
		</g>
	</g>
</svg>