<?xml version="1.0" encoding="UTF-8" standalone="no"?>
<svg
   xmlns:dc="http://purl.org/dc/elements/1.1/"
   xmlns:cc="http://creativecommons.org/ns#"
   xmlns:rdf="http://www.w3.org/1999/02/22-rdf-syntax-ns#"
   xmlns:svg="http://www.w3.org/2000/svg"
   xmlns="http://www.w3.org/2000/svg"
   xmlns:sodipodi="http://sodipodi.sourceforge.net/DTD/sodipodi-0.dtd"
   xmlns:inkscape="http://www.inkscape.org/namespaces/inkscape"
   version="1.0"
   width="555px"
   height="428px"
   viewBox="0 0 5550 4280"
   preserveAspectRatio="xMidYMid meet"
   id="svg930"
   sodipodi:docname="57564708_2025444534230959_964168910402224128_n.svg"
   inkscape:version="0.92.4 (unknown)">
  <metadata
     id="metadata936">
    <rdf:RDF>
      <cc:Work
         rdf:about="">
        <dc:format>image/svg+xml</dc:format>
        <dc:type
           rdf:resource="http://purl.org/dc/dcmitype/StillImage" />
      </cc:Work>
    </rdf:RDF>
  </metadata>
  <defs
     id="defs934" />
  <sodipodi:namedview
     pagecolor="#ffffff"
     bordercolor="#666666"
     borderopacity="1"
     objecttolerance="10"
     gridtolerance="10"
     guidetolerance="10"
     inkscape:pageopacity="0"
     inkscape:pageshadow="2"
     inkscape:window-width="1920"
     inkscape:window-height="1022"
     id="namedview932"
     showgrid="false"
     inkscape:zoom="1.5543609"
     inkscape:cx="255.53912"
     inkscape:cy="239.3195"
     inkscape:window-x="949"
     inkscape:window-y="31"
     inkscape:window-maximized="1"
     inkscape:current-layer="svg930" />
  <g
     id="layer101"
     transform="translate(6.4335125,205.8724)"
     style="fill:#010101;stroke:none">
    <path
       d="M 508,1155 C 278,1097 149,931 148,690 148,448 290,268 531,205 640,176 839,184 931,221 l 27,10 -16,48 -15,48 -56,-17 C 699,256 511,287 400,387 237,534 232,821 390,963 c 54,49 116,81 182,97 87,20 255,8 340,-25 13,-5 19,2 27,32 6,21 11,43 11,49 0,40 -325,69 -442,39 z"
       id="path2"
       inkscape:connector-curvature="0" />
    <path
       d="m 1676,1154 c -127,-31 -249,-122 -302,-225 -39,-78 -54,-142 -54,-240 0,-201 98,-360 273,-443 97,-46 163,-59 282,-59 92,1 240,25 248,41 2,4 -2,28 -10,54 l -14,47 -32,-14 c -50,-20 -183,-37 -240,-30 -176,22 -284,92 -346,224 -23,50 -26,68 -26,171 0,103 3,121 26,171 52,111 149,185 277,210 77,15 229,7 291,-15 24,-9 47,-14 50,-10 3,3 11,23 17,45 12,39 11,41 -14,50 -100,39 -314,50 -426,23 z"
       id="path4"
       inkscape:connector-curvature="0" />
    <path
       d="m 2491,1154 c -271,-73 -410,-380 -301,-666 69,-184 243,-299 455,-301 145,-1 248,37 342,126 99,93 143,203 143,357 0,245 -134,427 -355,485 -73,19 -212,18 -284,-1 z m 284,-100 c 71,-25 164,-119 196,-199 20,-52 24,-76 23,-180 0,-109 -2,-126 -26,-178 -36,-76 -115,-159 -181,-188 -41,-18 -70,-23 -142,-24 -82,0 -96,3 -157,33 -113,55 -177,152 -200,298 -26,168 54,352 183,420 87,45 204,52 304,18 z"
       id="path6"
       inkscape:connector-curvature="0" />
    <path
       d="M 1070,680 V 200 h 63 62 l -2,477 -3,478 -60,3 -60,3 z"
       id="path8"
       inkscape:connector-curvature="0" />
    <path
       d="m 3234,1098 c 3,-35 17,-220 31,-413 14,-192 28,-380 31,-417 l 7,-68 h 83 c 46,0 84,2 84,4 0,2 49,134 109,293 60,159 121,332 137,384 15,51 30,98 34,102 4,4 26,-47 50,-115 23,-68 92,-246 153,-396 l 110,-272 h 83 c 82,0 84,0 84,24 0,33 48,795 55,874 l 6,62 h -60 -60 l -5,-42 c -9,-68 -36,-613 -36,-715 0,-51 -3,-93 -7,-93 -5,0 -22,42 -40,93 -17,52 -82,222 -143,378 -62,156 -118,303 -127,327 l -15,42 h -51 -52 L 3582,837 C 3477,545 3448,459 3420,352 c -6,-23 -14,-40 -19,-38 -4,3 -8,49 -9,103 -2,88 -21,400 -38,651 l -7,92 h -60 -59 z"
       id="path10"
       inkscape:connector-curvature="0" />
  </g>
  <g
     id="g2255"
     transform="translate(-501.81398,-1839.9846)">
    <path
       d="m 845.23907,5603.4658 c -86,-31 -137,-113 -137,-221 0,-129 70,-217 194,-244 50,-10 142.00003,-6 166.00003,9 13,8 4,71 -11,71 -5,0 -7,4 -3,9 3,6 -7,6 -27,0 -112.00003,-32 -208.00003,34 -208.00003,143 0,65 22,113 62,138 27,17 46,20 105,18 65.00003,-3 72.00003,-1 77.00003,17 11,41 6,63 -16,69 -41,10 -162.00003,5 -202.00003,-9 z"
       id="path13"
       inkscape:connector-curvature="0"
       style="fill:#3c3c3c;stroke:none" />
    <path
       d="m 1199.2391,5600.4658 c -70,-38 -103,-126 -80,-212 40,-149 261,-175 331,-39 17,34 20,55 17,106 -4,67 -21,100 -71,137 -40,30 -149,34 -197,8 z m 131,-71 c 34,-27 40,-125 9,-163 -40,-51 -102,-26 -116,46 -8,45 2,85 28,114 26,27 48,28 79,3 z"
       id="path15"
       inkscape:connector-curvature="0"
       style="fill:#3c3c3c;stroke:none" />
    <path
       d="m 1546.2391,5611.4658 c -4,-3 -7,-82 -7,-175 v -168 h 45 c 39,0 45,3 45,21 v 20 l 26,-20 c 52,-41 140,-35 165,11 10,18 11,18 40,-6 63,-53 151,-40 183,27 13,30 16,60 14,164 l -3,128 -47,3 -48,3 v -113 c 0,-125 -11,-158 -55,-158 -43,0 -55,33 -55,157 v 113 h -50 -50 v -113 c 0,-124 -11,-157 -55,-157 -42,0 -54,33 -56,158 l -1,112 h -42 c -24,0 -46,-3 -49,-7 z"
       id="path17"
       inkscape:connector-curvature="0"
       style="fill:#3c3c3c;stroke:none" />
    <path
       d="m 2187.2391,5589.4658 -33,-29 -3,-146 -3,-146 h 50 51 v 99 c 0,55 5,112 11,128 19,49 47,56 84,18 24,-23 25,-31 25,-135 v -110 h 50 50 v 165 c 0,91 1,168 3,173 3,10 -40,15 -69,8 -16,-4 -24,-14 -24,-27 0,-20 -1,-20 -31,5 -45,38 -117,37 -161,-3 z"
       id="path19"
       inkscape:connector-curvature="0"
       style="fill:#3c3c3c;stroke:none" />
    <path
       d="m 2566.2391,5611.4658 c -4,-3 -7,-82 -7,-175 v -168 h 45 c 38,0 45,3 45,20 0,24 13,26 30,5 7,-8 29,-20 50,-26 50,-15 102,2 132,44 21,29 23,43 23,167 v 135 h -50 -50 l -5,-116 c -5,-124 -15,-149 -55,-149 -45,0 -55,27 -55,147 0,92 -3,112 -16,117 -21,8 -79,8 -87,-1 z"
       id="path21"
       inkscape:connector-curvature="0"
       style="fill:#3c3c3c;stroke:none" />
    <path
       d="m 2978.2391,5614.4658 c -2,-2 -3,-81 -1,-175 l 3,-171 h 49 50 v 175 175 h -48 c -27,0 -51,-2 -53,-4 z"
       id="path23"
       inkscape:connector-curvature="0"
       style="fill:#3c3c3c;stroke:none" />
    <path
       d="m 3244.2391,5604.4658 c -37,-17 -70,-52 -84,-89 -27,-71 0,-175 57,-216 40,-28 127,-45 172,-34 31,8 35,13 31,39 -4,35 -18,46 -48,39 -30,-7 -89,18 -102,43 -21,40 -13,91 20,124 28,28 34,30 79,25 l 48,-6 5,37 c 2,20 2,39 0,42 -11,12 -150,9 -178,-4 z"
       id="path25"
       inkscape:connector-curvature="0"
       style="fill:#3c3c3c;stroke:none" />
    <path
       d="m 3498.2391,5589.4658 c -24,-24 -29,-38 -29,-76 0,-38 5,-52 28,-75 30,-30 86,-50 140,-50 35,0 43,-18 17,-40 -15,-12 -96,-10 -126,4 -13,5 -19,-1 -28,-25 -14,-39 -9,-44 68,-60 89,-18 151,1 188,58 14,22 19,54 21,160 l 4,133 h -46 c -31,0 -48,-5 -54,-16 -9,-16 -11,-16 -33,0 -14,9 -43,16 -72,16 -40,0 -53,-5 -78,-29 z m 153,-58 c 11,-10 18,-30 18,-51 0,-34 -1,-34 -32,-28 -18,4 -42,15 -52,26 -17,16 -18,23 -8,45 14,29 46,33 74,8 z"
       id="path27"
       inkscape:connector-curvature="0"
       style="fill:#3c3c3c;stroke:none" />
    <path
       d="m 3927.2391,5598.4658 c -53,-28 -81,-80 -81,-149 0,-78 32,-134 98,-169 29,-15 157,-23 170,-10 4,3 3,22 0,41 -7,35 -8,36 -56,35 -39,-1 -54,4 -74,22 -74,69 -13,184 90,167 33,-5 35,-4 41,30 9,46 -3,53 -86,52 -44,0 -77,-6 -102,-19 z"
       id="path29"
       inkscape:connector-curvature="0"
       style="fill:#3c3c3c;stroke:none" />
    <path
       d="m 4192.2391,5611.4658 c -10,-3 -13,-48 -13,-174 v -169 h 55 55 v 169 c 0,145 -2,170 -16,175 -18,7 -63,7 -81,-1 z"
       id="path31"
       inkscape:connector-curvature="0"
       style="fill:#3c3c3c;stroke:none" />
    <path
       d="m 4438.2391,5595.4658 c -56,-37 -79,-81 -79,-149 0,-103 51,-167 146,-183 132,-21 235,89 205,220 -21,90 -80,135 -177,135 -47,0 -69,-5 -95,-23 z m 128,-62 c 68,-47 44,-195 -31,-195 -64,0 -93,134 -41,185 28,29 42,31 72,10 z"
       id="path33"
       inkscape:connector-curvature="0"
       style="fill:#3c3c3c;stroke:none" />
    <path
       d="m 4786.2391,5611.4658 c -4,-3 -7,-82 -7,-175 v -168 h 46 c 37,0 47,4 51,20 5,19 6,18 35,-3 39,-29 118,-29 149,-1 42,38 49,66 49,204 v 131 l -52,-3 -53,-3 -3,-119 c -1,-67 -7,-126 -14,-133 -16,-19 -55,-16 -78,7 -18,18 -20,33 -20,135 v 115 h -48 c -27,0 -52,-3 -55,-7 z"
       id="path35"
       inkscape:connector-curvature="0"
       style="fill:#3c3c3c;stroke:none" />
    <path
       d="m 2989.2391,5208.4658 c -11,-11 -20,-27 -20,-35 0,-20 36,-55 56,-55 34,0 54,20 54,55 0,53 -52,73 -90,35 z"
       id="path37"
       inkscape:connector-curvature="0"
       style="fill:#3c3c3c;stroke:none" />
    <path
       d="m 4201.2391,5212.4658 c -41,-28 -16,-94 36,-94 47,0 69,61 34,93 -23,21 -41,21 -70,1 z"
       id="path39"
       inkscape:connector-curvature="0"
       style="fill:#3c3c3c;stroke:none" />
    <path
       d="m 4494.2391,5220.4658 c 6,-4 11,-14 13,-22 2,-8 13,-30 24,-47 17,-29 25,-33 64,-33 24,0 44,3 44,6 0,3 -18,28 -41,55 -35,42 -46,49 -77,49 -21,0 -32,-4 -27,-8 z"
       id="path41"
       inkscape:connector-curvature="0"
       style="fill:#3c3c3c;stroke:none" />
    <path
       d="m 2870.2391,4977.4658 c -32,-10 -33,-12 -26,-47 4,-20 8,-39 10,-41 2,-2 18,2 36,8 57,20 98,14 130,-18 17,-17 29,-40 29,-55 v -26 l -32,20 c -67,40 -153,13 -191,-60 -25,-48 -20,-158 9,-197 51,-68 127,-91 189,-55 28,17 35,18 35,7 0,-11 12,-15 48,-15 h 47 l -5,194 c -5,212 -8,221 -74,270 -31,24 -148,32 -205,15 z m 154,-233 c 12,-9 19,-30 23,-67 3,-45 0,-59 -18,-81 -26,-33 -48,-35 -84,-7 -22,17 -26,28 -26,73 0,30 6,61 16,74 17,25 60,29 89,8 z"
       id="path43"
       inkscape:connector-curvature="0"
       style="fill:#3c3c3c;stroke:none" />
    <path
       d="m 1762.2391,4829.4658 c -130,-61 -114,-286 24,-332 44,-14 114,-7 149,16 33,22 64,89 64,142 0,52 -10,56 -134,51 -76,-3 -86,-1 -86,14 0,31 56,51 126,45 l 63,-5 6,30 c 4,17 3,34 -3,40 -5,5 -45,12 -88,14 -65,4 -87,1 -121,-15 z m 137,-216 c 0,-22 -37,-55 -60,-55 -23,0 -60,33 -60,55 0,12 13,15 60,15 47,0 60,-3 60,-15 z"
       id="path45"
       inkscape:connector-curvature="0"
       style="fill:#3c3c3c;stroke:none" />
    <path
       d="m 2079.2391,4839.4658 c -21,-6 -25,-13 -23,-40 0,-18 4,-35 7,-38 3,-3 26,0 52,6 55,14 84,7 84,-20 0,-15 -15,-27 -52,-43 -29,-13 -61,-33 -71,-44 -24,-26 -25,-84 -2,-118 30,-47 125,-69 190,-44 24,9 26,14 20,43 -4,17 -9,33 -10,35 -2,2 -22,-2 -45,-8 -31,-8 -45,-8 -56,1 -26,21 -15,39 39,63 61,27 85,51 92,92 12,67 -55,125 -144,123 -31,-1 -67,-4 -81,-8 z"
       id="path47"
       inkscape:connector-curvature="0"
       style="fill:#3c3c3c;stroke:none" />
    <path
       d="m 2440.2391,4834.4658 c -40,-23 -50,-54 -51,-158 0,-98 0,-98 -25,-98 -22,0 -25,-4 -25,-40 0,-36 3,-40 25,-40 22,0 25,-4 25,-34 0,-31 3,-34 44,-45 25,-6 47,-11 50,-11 3,0 6,20 6,45 v 45 h 40 40 v 40 40 h -40 -40 v 71 c 0,86 11,109 51,109 29,0 30,1 27,43 l -3,42 -50,2 c -28,2 -61,-3 -74,-11 z"
       id="path49"
       inkscape:connector-curvature="0"
       style="fill:#3c3c3c;stroke:none" />
    <path
       d="m 3274.2391,4837.4658 c -87,-51 -67,-182 33,-208 20,-6 54,-13 75,-16 42,-7 46,-17 15,-39 -27,-19 -51,-19 -101,-2 -38,14 -38,14 -44,-15 -8,-43 -8,-43 33,-56 57,-17 131,-15 170,3 56,27 68,61 72,207 l 4,127 h -46 c -33,0 -48,-5 -53,-15 -5,-14 -8,-14 -24,1 -23,21 -107,29 -134,13 z m 123,-75 c 30,-21 32,-84 2,-84 -58,0 -95,46 -64,81 21,23 33,24 62,3 z"
       id="path51"
       inkscape:connector-curvature="0"
       style="fill:#3c3c3c;stroke:none" />
    <path
       d="m 3694.2391,4834.4658 c -76,-35 -113,-118 -94,-209 14,-64 62,-111 131,-127 45,-11 122,-9 134,3 3,3 2,21 -1,41 -7,35 -8,36 -45,30 -51,-8 -95,16 -110,60 -15,45 -4,81 33,112 26,22 38,25 74,20 42,-5 42,-5 49,30 3,19 3,38 0,42 -14,13 -141,12 -171,-2 z"
       id="path53"
       inkscape:connector-curvature="0"
       style="fill:#3c3c3c;stroke:none" />
    <path
       d="m 4204.2391,4834.4658 c -122,-53 -129,-261 -12,-323 20,-11 56,-17 98,-18 54,0 72,4 102,25 110,75 92,265 -30,316 -41,18 -119,17 -158,0 z m 132,-93 c 41,-63 11,-173 -47,-173 -60,0 -92,98 -55,170 13,25 22,30 50,30 27,0 39,-6 52,-27 z"
       id="path55"
       inkscape:connector-curvature="0"
       style="fill:#3c3c3c;stroke:none" />
    <path
       d="m 5162.2391,4829.4658 c -130,-61 -114,-286 24,-332 44,-14 114,-7 149,16 36,23 66,95 62,148 l -3,42 h -108 c -102,0 -108,1 -105,20 5,32 46,46 120,42 l 66,-4 6,30 c 4,17 2,35 -4,41 -5,5 -44,11 -87,13 -62,3 -86,0 -120,-16 z m 137,-216 c 0,-19 -35,-55 -54,-55 -28,0 -47,13 -62,41 l -15,29 h 66 c 51,0 65,-3 65,-15 z"
       id="path57"
       inkscape:connector-curvature="0"
       style="fill:#3c3c3c;stroke:none" />
    <path
       d="m 729.23907,4603.4658 v -235 h 50 50 v 235 235 h -50 -50 z"
       id="path59"
       inkscape:connector-curvature="0"
       style="fill:#3c3c3c;stroke:none" />
    <path
       d="m 929.23907,4684.4658 c 0,-85 -3,-161 -6,-170 -5,-13 2,-16 45,-16 45.00003,0 51.00003,3 51.00003,20 0,21 0,21 28,0 40,-30 101,-36 140,-16 53,27 62,59 62,206 v 130 h -50 -50 v -108 c 0,-123 -11,-152 -60,-152 -49,0 -60,29 -60,152 v 108 h -50.00003 -50 z"
       id="path61"
       inkscape:connector-curvature="0"
       style="fill:#3c3c3c;stroke:none" />
    <path
       d="m 1353.2391,4670.4658 -60,-167 55,-3 c 30,-2 57,1 60,7 3,5 19,57 35,115 16,59 31,104 33,102 3,-2 11,-30 19,-63 8,-32 22,-82 30,-110 l 15,-53 h 55 c 41,0 55,3 51,13 -2,6 -31,83 -63,170 l -58,157 h -55 -56 z"
       id="path63"
       inkscape:connector-curvature="0"
       style="fill:#3c3c3c;stroke:none" />
    <path
       d="m 2629.2391,4668.4658 v -170 h 55 55 v 170 170 h -55 -55 z"
       id="path65"
       inkscape:connector-curvature="0"
       style="fill:#3c3c3c;stroke:none" />
    <path
       d="m 3929.2391,4668.4658 v -170 h 55 55 v 170 170 h -55 -55 z"
       id="path67"
       inkscape:connector-curvature="0"
       style="fill:#3c3c3c;stroke:none" />
    <path
       d="m 4529.2391,4668.4658 v -170 h 50 c 43,0 50,3 50,20 0,18 2,18 36,-5 58,-39 131,-29 169,23 17,23 20,46 23,165 l 4,137 h -50 -50 l -3,-113 c -4,-125 -13,-147 -60,-147 -47,0 -59,30 -59,152 v 108 h -55 -55 z"
       id="path69"
       inkscape:connector-curvature="0"
       style="fill:#3c3c3c;stroke:none" />
    <path
       d="m 5469.2391,4714.4658 c 0,-68 -3,-144 -6,-170 l -7,-46 h 52 c 45,0 51,3 51,20 0,21 0,21 28,0 39,-29 101,-36 139,-17 51,27 63,68 63,211 v 126 h -50 -50 v -102 c 0,-122 -11,-152 -57,-156 -51,-5 -63,23 -63,150 v 108 h -50 -50 z"
       id="path71"
       inkscape:connector-curvature="0"
       style="fill:#3c3c3c;stroke:none" />
    <path
       d="m 2659.2391,4445.4658 c -30,-15 -38,-58 -15,-81 19,-19 66,-21 83,-4 20,20 14,65 -10,82 -27,19 -26,19 -58,3 z"
       id="path73"
       inkscape:connector-curvature="0"
       style="fill:#3c3c3c;stroke:none" />
    <path
       d="m 3958.2391,4444.4658 c -50,-24 -28,-96 30,-96 34,0 51,17 51,51 0,42 -41,65 -81,45 z"
       id="path75"
       inkscape:connector-curvature="0"
       style="fill:#3c3c3c;stroke:none" />
    <path
       d="m 4246.2391,4452.4658 c -3,-3 7,-27 22,-52 25,-43 31,-47 69,-50 52,-4 53,7 6,64 -26,33 -42,44 -63,44 -15,0 -30,-3 -34,-6 z"
       id="path77"
       inkscape:connector-curvature="0"
       style="fill:#3c3c3c;stroke:none" />
    <path
       d="m 857.23907,4064.4658 c -56,-20 -85,-42 -115,-88 -23,-34 -28,-55 -32,-116 -2,-41 2,-92 8,-114 15,-50 75,-116 126,-139 44,-20 156.00003,-26 199.00003,-9 22,8 24,13 17,32 -5,13 -15,21 -23,19 -28,-9 -100.00003,-13 -133.00003,-7 -106,20 -167,169 -116,282 40,89 130,120 249.00003,88 19,-5 22,-2 22,19 0,22 -7,28 -37,36 -51.00003,15 -120.00003,13 -165.00003,-3 z"
       id="path79"
       inkscape:connector-curvature="0"
       style="fill:#3c3c3c;stroke:none" />
    <path
       d="m 1215.2391,4068.4658 c -99,-30 -137,-181 -71,-281 29,-45 97,-75 149,-65 68,13 116,75 116,151 v 35 h -121 -121 l 6,33 c 4,17 18,43 31,57 23,22 34,25 103,25 63,1 77,4 80,17 6,31 -104,48 -172,28 z m 134,-224 c 0,-40 -36,-76 -76,-76 -20,0 -44,5 -55,10 -19,10 -49,59 -49,80 0,6 34,10 90,10 88,0 90,-1 90,-24 z"
       id="path81"
       inkscape:connector-curvature="0"
       style="fill:#3c3c3c;stroke:none" />
    <path
       d="m 1930.2391,4061.4658 c -29,-24 -40,-77 -41,-190 0,-92 0,-93 -25,-93 -20,0 -25,-5 -25,-25 0,-20 5,-25 25,-25 21,0 25,-5 25,-30 0,-24 6,-33 26,-40 40,-16 46,-12 42,28 l -3,37 43,3 c 37,3 42,6 42,28 0,22 -4,24 -42,24 h -43 l 2,111 c 2,66 7,117 14,125 6,8 25,14 41,14 25,0 29,4 26,23 -2,18 -10,23 -44,25 -28,2 -48,-3 -63,-15 z"
       id="path83"
       inkscape:connector-curvature="0"
       style="fill:#3c3c3c;stroke:none" />
    <path
       d="m 2419.2391,4067.4658 c -65,-26 -103,-90 -103,-170 1,-91 43,-147 125,-170 95,-25 182,30 203,129 29,139 -101,260 -225,211 z m 116,-57 c 32,-26 44,-55 44,-112 0,-117 -85,-170 -162,-101 -31,28 -33,33 -33,100 0,64 3,72 29,100 35,36 87,42 122,13 z"
       id="path85"
       inkscape:connector-curvature="0"
       style="fill:#3c3c3c;stroke:none" />
    <path
       d="m 2929.2391,4055.4658 c -19,-12 -43,-38 -54,-57 -28,-48 -28,-140 0,-195 40,-79 153,-107 211,-53 l 23,21 v -101 -102 h 30 30 v 250 250 h -25 c -20,0 -25,-5 -25,-27 v -26 l -22,21 c -50,46 -117,54 -168,19 z m 129,-41 c 37,-19 51,-55 51,-127 0,-54 -3,-64 -29,-90 -69,-69 -161,-12 -161,101 0,104 62,155 139,116 z"
       id="path87"
       inkscape:connector-curvature="0"
       style="fill:#3c3c3c;stroke:none" />
    <path
       d="m 3342.2391,4058.4658 c -134,-60 -115,-292 27,-330 97,-26 180,38 180,140 v 40 h -120 c -134,0 -139,3 -100,68 26,43 61,55 138,48 56,-5 62,-4 62,14 0,39 -117,52 -187,20 z m 147,-214 c 0,-91 -138,-105 -168,-17 -6,16 -8,32 -5,35 4,3 44,6 90,6 81,0 83,-1 83,-24 z"
       id="path89"
       inkscape:connector-curvature="0"
       style="fill:#3c3c3c;stroke:none" />
    <path
       d="m 1489.2391,3898.4658 v -170 h 25 c 20,0 25,5 25,26 v 26 l 30,-25 c 42,-36 101,-44 143,-20 54,32 67,71 67,211 v 122 h -30 -30 v -112 c 0,-123 -9,-153 -51,-177 -22,-12 -31,-13 -58,-1 -50,20 -61,53 -61,180 v 110 h -30 -30 z"
       id="path91"
       inkscape:connector-curvature="0"
       style="fill:#3c3c3c;stroke:none" />
    <path
       d="m 2109.2391,3899.4658 v -171 h 25 c 18,0 26,7 31,26 7,26 7,26 23,7 18,-23 52,-43 73,-43 8,0 15,13 16,30 2,21 -2,30 -12,30 -29,0 -64,22 -77,49 -7,14 -14,73 -15,131 l -4,105 -30,3 -30,3 z"
       id="path93"
       inkscape:connector-curvature="0"
       style="fill:#3c3c3c;stroke:none" />
  </g>
  <path
     style="fill:#4dbdd7;stroke:none"
     inkscape:connector-curvature="0"
     id="path800"
     d="m 42.010831,1568.4335 c -4,-21 -2,-55 4,-55 4,0 1232.999969,0 2731.999969,0 h 2725 v 30 30 h -2730 c -1502,0 -2729.999969,-2 -2730.999969,-5 z" />
</svg>
