<svg width="101.21mm" height="19.704mm" version="1.1" viewBox="0 0 101.21 19.704" xmlns="http://www.w3.org/2000/svg">
 <g transform="translate(60.387 -51.315)">
  <g transform="matrix(.35278 0 0 -.35278 -237.82 281.76)">
   <path d="m769.08 597.36h-245.33c-11.476 0-20.779 9.304-20.779 20.779v14.297c0 11.477 9.303 20.779 20.779 20.779h245.33c11.477 0 20.779-9.302 20.779-20.779v-14.297c0-11.475-9.302-20.779-20.779-20.779" fill="#ffe15a"/>
   <g transform="matrix(1 0 0 -1 582.42 615.07)" fill="#b56d0d" aria-label="Recursos">
    <path d="m11.54-13.048q1.8998 0 2.7163-0.70655 0.83216-0.70655 0.83216-2.3238 0-1.6015-0.83216-2.2924-0.81646-0.69085-2.7163-0.69085h-2.5436v6.0135zm-2.5436 4.1765v8.8711h-6.0449v-23.442h9.2322q4.6318 0 6.7829 1.5544 2.1667 1.5544 2.1667 4.9144 0 2.3238-1.1305 3.8154-1.1148 1.4916-3.3757 2.1982 1.2404 0.28262 2.2139 1.2875 0.98917 0.98917 1.994 3.0146l3.2815 6.6573h-6.4374l-2.8576-5.8251q-0.86356-1.7585-1.7585-2.4023-0.87926-0.64374-2.3552-0.64374z"/>
    <path d="m39.323-8.8397v1.6015h-13.142q0.20411 1.9783 1.4288 2.9675 1.2247 0.98917 3.4228 0.98917 1.7742 0 3.6269-0.51814 1.8684-0.53384 3.8311-1.6015v4.3335q-1.994 0.75365-3.9881 1.1305-1.994 0.39253-3.9881 0.39253-4.7731 0-7.4266-2.418-2.6378-2.4337-2.6378-6.8143 0-4.3021 2.5907-6.7672 2.6064-2.4651 7.1597-2.4651 4.1451 0 6.6259 2.4965 2.4965 2.4965 2.4965 6.673zm-5.778-1.8684q0-1.6015-0.94206-2.575-0.92636-0.98917-2.4337-0.98917-1.6329 0-2.6535 0.92636-1.0206 0.91066-1.2718 2.6378z"/>
    <path d="m52.957-17.036v4.5847q-1.1462-0.78505-2.3081-1.1619-1.1462-0.37683-2.3866-0.37683-2.3552 0-3.6741 1.3817-1.3032 1.366-1.3032 3.8311 0 2.4651 1.3032 3.8468 1.3189 1.366 3.6741 1.366 1.3189 0 2.4965-0.39253 1.1933-0.39253 2.1982-1.1619v4.6004q-1.3189 0.48673-2.6849 0.72225-1.3503 0.25122-2.7163 0.25122-4.7574 0-7.4423-2.4337-2.6849-2.4494-2.6849-6.7986 0-4.3492 2.6849-6.7829 2.6849-2.4494 7.4423-2.4494 1.3817 0 2.7163 0.25122 1.3503 0.23552 2.6849 0.72225z"/>
    <path d="m53.061-6.8457v-10.74h5.6524v1.7585q0 1.4288-0.0157 3.5955-0.0157 2.151-0.0157 2.8733 0 2.1196 0.10991 3.0617 0.10991 0.92636 0.37683 1.3503 0.34542 0.54954 0.89496 0.84786 0.56524 0.29832 1.2875 0.29832 1.7585 0 2.7634-1.3503t1.0049-3.7526v-8.6827h5.621v17.585h-5.621v-2.5436q-1.2718 1.5387-2.7006 2.2767-1.4131 0.72225-3.1245 0.72225-3.046 0-4.6475-1.8684-1.5858-1.8684-1.5858-5.4326z"/>
    <path d="m85.06-12.796q-0.73795-0.34542-1.4759-0.50244-0.72225-0.17271-1.4602-0.17271-2.1667 0-3.3443 1.3974-1.1619 1.3817-1.1619 3.9724v8.1018h-5.621v-17.585h5.621v2.889q1.0834-1.7271 2.4808-2.5122 1.4131-0.80076 3.3757-0.80076 0.28262 0 0.61234 0.0314 0.32972 0.0157 0.95776 0.09421z"/>
    <path d="m97.954-17.036v4.2707q-1.8056-0.75365-3.4856-1.1305-1.68-0.37682-3.1716-0.37682-1.6015 0-2.3866 0.40823-0.76935 0.39253-0.76935 1.2247 0 0.67515 0.58094 1.0363 0.59664 0.36112 2.1196 0.53384l0.98917 0.14131q4.3178 0.54954 5.8094 1.8056t1.4916 3.941q0 2.8105-2.0725 4.2236-2.0725 1.4131-6.1862 1.4131-1.7428 0-3.6112-0.28262-1.8527-0.26692-3.8154-0.81646v-4.2707q1.68 0.81646 3.4385 1.2247 1.7742 0.40823 3.5955 0.40823 1.6486 0 2.4808-0.45533 0.83216-0.45533 0.83216-1.3503 0-0.75365-0.58094-1.1148-0.56524-0.37683-2.2767-0.58094l-0.98917-0.12561q-3.7526-0.47103-5.2599-1.7428-1.5073-1.2718-1.5073-3.8625 0-2.7948 1.9155-4.1451 1.9155-1.3503 5.8722-1.3503 1.5544 0 3.2658 0.23552t3.7212 0.73795z"/>
    <path d="m106.54-13.99q-1.8684 0-2.8576 1.3503-0.97347 1.3346-0.97347 3.8625 0 2.5279 0.97347 3.8782 0.98916 1.3346 2.8576 1.3346 1.837 0 2.8105-1.3346 0.97347-1.3503 0.97347-3.8782 0-2.5279-0.97347-3.8625-0.97346-1.3503-2.8105-1.3503zm0-4.0195q4.5376 0 7.0812 2.4494 2.5593 2.4494 2.5593 6.7829t-2.5593 6.7829q-2.5436 2.4494-7.0812 2.4494-4.5533 0-7.1283-2.4494-2.5593-2.4494-2.5593-6.7829t2.5593-6.7829q2.575-2.4494 7.1283-2.4494z"/>
    <path d="m130.46-17.036v4.2707q-1.8056-0.75365-3.4856-1.1305-1.68-0.37682-3.1716-0.37682-1.6015 0-2.3866 0.40823-0.76935 0.39253-0.76935 1.2247 0 0.67515 0.58094 1.0363 0.59664 0.36112 2.1196 0.53384l0.98916 0.14131q4.3178 0.54954 5.8094 1.8056t1.4916 3.941q0 2.8105-2.0725 4.2236-2.0725 1.4131-6.1862 1.4131-1.7428 0-3.6112-0.28262-1.8527-0.26692-3.8154-0.81646v-4.2707q1.68 0.81646 3.4385 1.2247 1.7742 0.40823 3.5956 0.40823 1.6486 0 2.4808-0.45533 0.83216-0.45533 0.83216-1.3503 0-0.75365-0.58094-1.1148-0.56524-0.37683-2.2767-0.58094l-0.98917-0.12561q-3.7526-0.47103-5.2599-1.7428-1.5073-1.2718-1.5073-3.8625 0-2.7948 1.9155-4.1451 1.9155-1.3503 5.8722-1.3503 1.5544 0 3.2658 0.23552 1.7114 0.23552 3.7212 0.73795z"/>
   </g>
  </g>
 </g>
</svg>
