<?xml version="1.0" encoding="UTF-8"?>
<svg width="138.99mm" height="135.6mm" version="1.1" viewBox="0 0 138.99 135.6" xmlns="http://www.w3.org/2000/svg">
<defs>
<clipPath id="cs">
<path d="m142.61 673.66c-12.429-4.458-23.013-13.088-31.356-23.843-41.546-53.559-32.549-151.6-13.87-213.17 16.009-52.765 49.475-102.6 99.861-121.13 22.806-8.39 48.942-10.718 75.502-8.985 38.241 2.496 77.365 13.409 108.71 26.772 18.591 7.927 36.097 20.23 47.463 37.934 11.367 17.704 15.801 41.311 8.439 61.318-13.971 37.969-60.529 48.488-90.33 66.594-30.839 18.74-60.141 44.022-72.308 81.09-6.95 21.175-12.299 43.67-25.353 61.187-17.221 23.109-49.617 36.716-79.263 36.714-9.662-1e-3 -19.036-1.446-27.492-4.48"/>
</clipPath>
<linearGradient id="en" x2="1" gradientTransform="matrix(-622.24 437.42 -437.42 -622.24 511.23 275.82)" gradientUnits="userSpaceOnUse">
<stop stop-color="#ffbcb3" offset="0"/>
<stop stop-color="#97c000" offset=".20091"/>
<stop stop-color="#97c000" offset="1"/>
</linearGradient>
<clipPath id="ct">
<path d="m93.477 451.31c0-80.917 61.948-146.51 138.36-146.51 76.416 0 138.36 65.597 138.36 146.51 0 80.916-61.947 146.51-138.36 146.51-76.415 0-138.36-65.597-138.36-146.51"/>
</clipPath>
<clipPath id="cu">
<path d="m127.7 582.84h133.55v-614.58h-133.55z"/>
</clipPath>
<clipPath id="cv">
<path d="m174.72 481.72h46.702v-41.809h-46.702z"/>
</clipPath>
<clipPath id="cw">
<path d="m152.68 397.46h32.133v-45.847h-32.133z"/>
</clipPath>
<clipPath id="cx">
<path d="m196.61 283.4h45.897v-6.732h-45.897z"/>
</clipPath>
<clipPath id="cy">
<path d="m154.31 284.39h27.749v-4.464h-27.749z"/>
</clipPath>
<clipPath id="cz">
<path d="m150.31 326.68h4.137v-41.744h-4.137z"/>
</clipPath>
<clipPath id="da">
<path d="m168.71 287.88h46.181v-4.361h-46.181z"/>
</clipPath>
<clipPath id="db">
<path d="m172.78 450.39h26.668v-10.927h-26.668z"/>
</clipPath>
<clipPath id="dc">
<path d="m147.72 446.22h18.997v-26.893h-18.997z"/>
</clipPath>
<clipPath id="dd">
<path d="m146.73 396.15h16.691v-2.445h-16.691z"/>
</clipPath>
<clipPath id="de">
<path d="m162.27 261.57h24.643v-21.784h-24.643z"/>
</clipPath>
<clipPath id="df">
<path d="m172.01 246.07h19.294v-15.091h-19.294z"/>
</clipPath>
<clipPath id="dg">
<path d="m221.22 262.63h3.29v-24.992h-3.29z"/>
</clipPath>
<clipPath id="dh">
<path d="m214.96 235.01h3.663v-2.971h-3.663z"/>
</clipPath>
<clipPath id="di">
<path d="m165.53 189.78h10.2v-68.911h-10.2z"/>
</clipPath>
<clipPath id="dj">
<path d="m202.21 211.62h29.108v-205.66h-29.108z"/>
</clipPath>
<clipPath id="dk">
<path d="m239.36 264.58h7.098v-73.858h-7.098z"/>
</clipPath>
<clipPath id="dl">
<path d="m213.76 15.69h12.855v-2.818h-12.855z"/>
</clipPath>
<clipPath id="dn">
<path d="m168.72 13.235h15.846v-6.617h-15.846z"/>
</clipPath>
<clipPath id="do">
<path d="m193.77 257.22h4.167v-4.313h-4.167z"/>
</clipPath>
<clipPath id="dp">
<path d="m192.02 243.03h4.167v-4.313h-4.167z"/>
</clipPath>
<clipPath id="dq">
<path d="m180.09 229.35h4.167v-4.314h-4.167z"/>
</clipPath>
<clipPath id="dr">
<path d="m162.68 228.21h4.166v-4.313h-4.166z"/>
</clipPath>
<clipPath id="ds">
<path d="m159.91 214.06h4.166v-4.314h-4.166z"/>
</clipPath>
<clipPath id="dt">
<path d="m172.22 96.072h4.167v-4.3134h-4.167z"/>
</clipPath>
<clipPath id="du">
<path d="m168.41 43.86h4.367v-4.5207h-4.367z"/>
</clipPath>
<clipPath id="dv">
<path d="m167.95 34.916h4.367v-4.5207h-4.367z"/>
</clipPath>
<clipPath id="dw">
<path d="m229.63 23.899h4.366v-4.5206h-4.366z"/>
</clipPath>
<clipPath id="dx">
<path d="m237.33 112.12h4.167v-4.314h-4.167z"/>
</clipPath>
<clipPath id="dy">
<path d="m236.37 95.832h4.37v-5.3345h-4.37z"/>
</clipPath>
<clipPath id="dz">
<path d="m167.22 397.38h5.335v-4.37h-5.335z"/>
</clipPath>
<clipPath id="ea">
<path d="m142.92 399.65h4.166v-4.314h-4.166z"/>
</clipPath>
<clipPath id="eb">
<path d="m143.36 410.38h4.353v-4.786h-4.353z"/>
</clipPath>
<clipPath id="ec">
<path d="m244.64 296.44h4.37v-5.334h-4.37z"/>
</clipPath>
<clipPath id="ed">
<path d="m245.26 286.21h4.166v-4.313h-4.166z"/>
</clipPath>
<clipPath id="ee">
<path d="m242.03 342.51h4.166v-4.314h-4.166z"/>
</clipPath>
<clipPath id="ef">
<path d="m230.05 367.61h4.167v-4.313h-4.167z"/>
</clipPath>
<clipPath id="eg">
<path d="m232.58 357.28h4.166v-4.313h-4.166z"/>
</clipPath>
<clipPath id="eh">
<path d="m215.55 442.86h4.167v-4.313h-4.167z"/>
</clipPath>
<clipPath id="ei">
<path d="m206.34 442.31h4.167v-4.313h-4.167z"/>
</clipPath>
<clipPath id="ej">
<path d="m171.24 454.32h4.167v-4.314h-4.167z"/>
</clipPath>
<clipPath id="ek">
<path d="m176.82 443.83h4.166v-4.314h-4.166z"/>
</clipPath>
<clipPath id="el">
<path d="m169.91 448.26h4.167v-4.313h-4.167z"/>
</clipPath>
<clipPath id="em">
<path d="m230.22 552.58h12.663v-23.538h-12.663z"/>
</clipPath>
<clipPath id="bu">
<path d="m227.58 544.4h3.391v-8.61h-3.391z"/>
</clipPath>
<clipPath id="bv">
<path d="m218.49 545.89h3.403v-8.608h-3.403z"/>
</clipPath>
<clipPath id="bw">
<path d="m169.93 558.61h23.37v-21.681h-23.37z"/>
</clipPath>
<clipPath id="bx">
<path d="m185.6 576.36h6.943v-15.124h-6.943z"/>
</clipPath>
<clipPath id="by">
<path d="m180.99 568.3h6.371v-8.865h-6.371z"/>
</clipPath>
<clipPath id="bz">
<path d="m174.32 561.27h6.579v-5.774h-6.579z"/>
</clipPath>
<clipPath id="ca">
<path d="m157.19 558.47h20.412v-10.33h-20.412z"/>
</clipPath>
<clipPath id="cb">
<path d="m182.68 513.06h12.194v-27.084h-12.194z"/>
</clipPath>
<clipPath id="cc">
<path d="m173.64 517.97h9.593v-11.735h-9.593z"/>
</clipPath>
<clipPath id="cd">
<path d="m171.01 507.86h10.068v-8.562h-10.068z"/>
</clipPath>
<clipPath id="ce">
<path d="m160.56 501.07h14.917v-12.339h-14.917z"/>
</clipPath>
<clipPath id="cf">
<path d="m194.06 531.86h2.958v-9.618h-2.958z"/>
</clipPath>
<clipPath id="cg">
<path d="m204.94 556.67h4.37v-5.335h-4.37z"/>
</clipPath>
<clipPath id="ch">
<path d="m192.65 553.23h4.167v-4.314h-4.167z"/>
</clipPath>
<clipPath id="ci">
<path d="m182.05 545.61h4.167v-4.313h-4.167z"/>
</clipPath>
<clipPath id="cj">
<path d="m171.19 533.91h5.24v-5.371h-5.24z"/>
</clipPath>
<clipPath id="ck">
<path d="m237.42 471.33h4.167v-4.313h-4.167z"/>
</clipPath>
<clipPath id="cl">
<path d="m226.83 463.71h4.166v-4.313h-4.166z"/>
</clipPath>
<clipPath id="cm">
<path d="m237.06 464.2h4.167v-4.314h-4.167z"/>
</clipPath>
<clipPath id="cn">
<path d="m214.46 461.28h4.166v-4.313h-4.166z"/>
</clipPath>
<clipPath id="co">
<path d="m201.33 464h4.167v-4.313h-4.167z"/>
</clipPath>
<clipPath id="cp">
<path d="m190.92 479.84h4.166v-4.313h-4.166z"/>
</clipPath>
<clipPath id="cq">
<path d="m195.75 474.49h4.167v-4.314h-4.167z"/>
</clipPath>
<clipPath id="cr">
<path d="m177.35 493.8h4.167v-4.313h-4.167z"/>
</clipPath>
<clipPath id="dm">
<path d="m176.98 486.68h4.167v-4.314h-4.167z"/>
</clipPath>
</defs>
<g transform="translate(-204.81 -230.81)">
<g transform="matrix(.35278 0 0 -.35278 182.89 470.04)">
<g transform="translate(271.63 294.3)">
<path d="m0 0c-29.128-1.733-57.789 0.596-82.799 8.984-55.255 18.537-91.954 68.37-109.51 121.13-20.484 61.568-30.35 159.61 15.211 213.17 9.148 10.755 20.755 19.385 34.386 23.844 37.726 12.342 92.03-1.595 117.07-32.234 14.315-17.517 20.183-40.013 27.804-61.187 13.342-37.068 45.475-62.351 79.295-81.089 32.68-18.107 83.737-28.627 99.059-66.595 8.074-20.006 3.21-43.615-9.255-61.319s-31.661-30.006-52.05-37.933c-34.37-13.364-77.274-24.277-119.21-26.772" fill="#285110"/>
</g>
<g clip-path="url(#cs)">
<path d="m142.61 673.66c-12.429-4.458-23.013-13.088-31.356-23.843-41.546-53.559-32.549-151.6-13.87-213.17 16.009-52.765 49.475-102.6 99.861-121.13 22.806-8.39 48.942-10.718 75.502-8.985 38.241 2.496 77.365 13.409 108.71 26.772 18.591 7.927 36.097 20.23 47.463 37.934 11.367 17.704 15.801 41.311 8.439 61.318-13.971 37.969-60.529 48.488-90.33 66.594-30.839 18.74-60.141 44.022-72.308 81.09-6.95 21.175-12.299 43.67-25.353 61.187-17.221 23.109-49.617 36.716-79.263 36.714-9.662-1e-3 -19.036-1.446-27.492-4.48" fill="url(#en)"/>
</g>
<g clip-path="url(#ct)">
<g clip-path="url(#cu)" opacity=".2">
<g transform="translate(127.75 387.95)">
<path d="m0 0s-3.062 55.899 36.658 73.847c0.056-0.101 0.118-0.198 0.175-0.298l0.775 15.063c-0.533 0.358-1.101 0.906-1.751 1.726-2.571 3.243-5.143 6.485-7.714 9.727-2.59 3.266-5.18 6.532-7.769 9.796-0.875 1.105-3.032 2.925-3.419 4.312 0 1e-3 -3.597 12.662 2.711 26.937 1.892 4.283 4.055 8.259 6.156 11.736-5.952 1.294-17.066 5.473-12.045 18.299 3.413 8.719 10.507 17.572 19.184 21.493 5.569 2.515 12.116 3.066 17.848 0.946 9.868-3.651 12.599-12.24 11.915-21.582 5.772-0.103 10.638 0.358 12.072 0.785 2.279 0.68 19.137 1.406 30.452-15.103 11.314-16.509-1.456-28.33-1.456-28.33s0.271 1.705 0.201 3.927l-0.963-18.753s2.741-2.53 4.757-9.8c1.772-6.391 1.787-13.508 0.337-19.96-0.965-4.295-5.314-16.257-11.421-15.48-0.846 0.108-1.635 0.484-2.472 0.65-4.769 0.942-8.492-3.019-12.981-3.661l-0.351-6.828c0.026 0.012 0.052 0.022 0.078 0.034 0.487 0.229 2.39-1.666 4.559-4.102 0.044 0.532 0.277 1.05 0.706 1.436 0.798 0.721 1.982 0.735 2.799 0.091l0.792 1.758c0.738 1.663 2.422 2.684 4.236 2.591l1.203-0.063 13.4-0.688c3.096-0.159 5.066-3.374 3.794-6.196l-3.236-7.192c1e-3 -2e-3 5.964-10.916-7.541-21.616l29.31-47.055c0.092-0.14 0.178-0.285 0.266-0.427l0.28-0.452-0.016-4e-3c1.823-3.2 2.481-6.966 1.533-10.683-2.045-8.015-10.71-12.724-19.354-10.519-1.347 0.344-2.608 0.843-3.779 1.457 1.879-18.437 3.555-36.887 5.735-55.095 0.397-3.317 0.772-6.807-0.514-9.89-1.408-3.378-4.407-5.475-7.879-6.855l2.664-0.545s-0.332-223.53-17.495-267.42l-9.597 1.964c-0.991-5.955-2.003-11.324-2.431-13.553 1.53-0.015 3.064 0.017 4.582-0.059 2.419-0.12 4.816-0.508 7.189-0.988 4.452-0.9 8.97-2.188 12.544-5.008 3.574-2.818 6.025-7.481 5.114-11.972-0.071-0.348-0.176-0.718-0.452-0.94-0.334-0.27-0.809-0.239-1.235-0.195-13.535 1.42-27.023 3.287-40.433 5.597-0.695 0.12-1.481 0.305-1.815 0.929-0.223 0.417-0.178 0.922-0.12 1.393 0.368 2.994 0.992 11.828 4.628 12.736-0.066 2.543-0.214 8.615-0.285 14.661l-6.796 1.391 4.795 55.116c-8.979-42.564-17.636-66.71-17.636-66.71-3.845-0.585-7.243-0.49-10.233 0.034-0.955-5.692-1.91-10.752-2.322-12.899 1.53-0.015 3.063 0.016 4.582-0.059 2.419-0.12 4.816-0.509 7.189-0.988 4.452-0.9 8.97-2.188 12.544-5.008 3.574-2.818 6.026-7.48 5.114-11.972-0.071-0.348-0.176-0.718-0.451-0.94-0.335-0.269-0.81-0.239-1.236-0.195-13.535 1.42-27.022 3.287-40.433 5.597-0.694 0.12-1.481 0.305-1.815 0.929-0.223 0.417-0.178 0.922-0.12 1.393 0.368 2.994 0.992 11.828 4.628 12.737-0.076 2.924-0.26 10.523-0.312 17.376-3.545 3.054-5.157 6.05-5.157 6.05 17.936 60.329-4.014 199.14-4.014 199.14-4.079 19.554-0.442 45.741 2.522 61.362-4.434 0.904-8.841 1.936-13.206 3.131-1.579 0.431-3.221 0.921-4.402 2.054-2.592 2.492-1.849 6.732-0.96 10.214 3.84 15.033 6.817 30.355 7.49 45.856 0.773 17.798-1.488 35.611-1.855 53.407z"/>
</g>
</g>
<g transform="translate(209.33 -5.3796)">
<path d="m 0,0 9.751,-1.352 c 0,0 4.101,20.848 4.915,31.431 0.083,1.077 -10.297,3.69 -11.489,3.735 -4.312,0.167 -3.427,-3.865 -3.496,-7.24 C -0.5,17.715 0,0 0,0" fill="#ba7300"/>
</g>
<g transform="translate(166.85 -12.294)">
<path d="m 0,0 9.751,-1.351 c 0,0 4.101,20.847 4.915,31.43 0.083,1.077 -10.297,3.69 -11.489,3.735 C -1.135,33.981 -0.25,29.95 -0.319,26.574 -0.5,17.715 0,0 0,0" fill="#ba7300"/>
</g>
<g transform="translate(174.72 442.21)">
<path d="m0 0 44.672-2.296 2.031 39.514-44.672 2.296z" fill="#ba7300"/>
</g>
<g clip-path="url(#cv)" opacity=".10001">
<g transform="translate(174.72 442.21)">
<path d="m0 0 44.672-2.296 2.031 39.514-44.672 2.296z"/>
</g>
</g>
<g transform="translate(243.46 532.75)">
<path d="m0 0-2.089-40.661-5.933-14.875-19.747-3.757-18.544 10.495-17.177 28.641 8.821 28.172 27.474 2.924z" fill="#ba7300"/>
</g>
<g transform="translate(162.75 286.25)">
<path d="m0 0 69.375-9.85 0.052 0.383 16.633-3.403s-0.332-223.53-17.495-267.42l-29.107 5.956 4.795 55.116c-8.979-42.564-17.636-66.71-17.636-66.71-19.935-3.031-28.022 12.055-28.022 12.055 17.936 60.328-4.014 199.14-4.014 199.14-6.198 29.712 5.419 74.74 5.419 74.74" fill="#641000"/>
</g>
<g transform="translate(231.92 531.13)">
<path d="m0 0s-4.426-3.489-15.885 0.815c-11.459 4.306-20.895 6.649-18.136-27.471 0 0 1.968-3.022 8.879-2.846s9.002-0.462 10.257-12.207c0 0 1.411-3.523 9.857-4.488 8.445-0.965 12.866 5.71 15.019 17.545 0 0 2.741-2.531 4.757-9.801 1.772-6.391 1.787-13.508 0.337-19.96-0.965-4.295-5.314-16.257-11.42-15.48-0.847 0.108-1.636 0.485-2.473 0.65-5.873 1.16-10.159-5.115-16.243-3.471-3.77 1.019-5.303 1.962-9.278 0.807-4.935-1.433-8.254 2.798-10.415 6.655-3.358 5.994-6.944 11.729-12.493 15.951-0.243 0.185-0.502 0.372-0.803 0.42-0.345 0.056-0.689-0.08-1.01-0.227-3.816-1.75-5.108-3.548-8.132 0.265-2.572 3.243-5.143 6.486-7.714 9.728-2.59 3.265-5.18 6.531-7.77 9.796-0.875 1.104-3.031 2.924-3.418 4.311 0 1e-3 -3.597 12.662 2.711 26.938 6.309 14.276 15.63 25.212 15.63 25.212s7.32 8.119 16.797 6.57 20.424-0.784 22.703-0.106c2.279 0.68 19.137 1.407 30.451-15.103 11.315-16.509-1.456-28.329-1.456-28.329s2.663 16.587-10.752 13.826" fill="#ffbcb3"/>
</g>
<g transform="translate(200.85 557.11)">
<path d="m0 0c-2.501-1.226-13.359-2.574-15.048-3.143-3.535-1.188-6.953-2.804-9.971-5.01-1.078-0.788-7.611-8.717-7.684-8.711-8e-3 0-22.211 1.676-15.489 18.846 3.413 8.72 10.507 17.573 19.184 21.494 5.569 2.515 12.116 3.066 17.847 0.946 10.705-3.961 13.015-13.733 11.673-23.972-0.019-0.147-0.201-0.298-0.512-0.45" fill="#ffbcb3"/>
</g>
<g transform="translate(244.27 384.73)">
<path d="m0 0c4.303-31.211 6.553-62.986 10.271-94.053 0.397-3.316 0.772-6.806-0.514-9.889-2.382-5.715-9.307-7.78-15.402-8.876-30.454-5.48-62.128-4.069-91.975 4.097-1.58 0.432-3.222 0.921-4.402 2.055-2.592 2.491-1.85 6.731-0.96 10.214 3.839 15.033 6.816 30.354 7.489 45.855 0.988 22.744-2.993 45.514-1.622 68.239s9.42 46.827 28.381 59.428c8.264-14.97 28.844-21.639 44.318-14.363 1.207 0.566 11.087-11.877 12.207-13.37 4.24-5.653 5.569-10.72 6.944-17.62 2.088-10.473 3.796-21.063 5.265-31.717" fill="#a1daf8"/>
</g>
<g transform="translate(251.35 442.26)">
<path d="m0 0-14.7-32.67c-0.747-1.651-2.431-2.683-4.245-2.589l-14.603 0.75c-3.096 0.159-5.066 3.385-3.794 6.206l14.709 32.659c0.738 1.664 2.422 2.684 4.236 2.591l14.603-0.751c3.096-0.159 5.066-3.374 3.794-6.196" fill="#00569f"/>
</g>
<g transform="translate(251.35 442.26)">
<path d="m0 0-14.7-32.67c-0.747-1.651-2.431-2.683-4.245-2.589l-13.4 0.689c-3.096 0.159-5.056 3.383-3.794 6.206l14.709 32.659c0.747 1.662 2.431 2.683 4.236 2.59l13.4-0.689c3.096-0.159 5.066-3.374 3.794-6.196" fill="#00569f"/>
</g>
<g transform="translate(240.57 413.45)">
<path d="m0 0c13.506 10.701 7.541 21.616 7.541 21.616-5.165-6.921-8.86-1.724-8.86-1.724l-0.699-0.213-10.356 11.478c-0.805 0.893-2.182 0.963-3.074 0.158-0.893-0.805-0.964-2.181-0.158-3.074l8.989-9.963-2.155-0.657c-15.107-8.433-3.48-19.645-3.48-19.645l12.103-54.528 2e-3 1e-3c1.031-5.834 5.666-10.93 12.166-12.589 8.644-2.205 17.308 2.504 19.353 10.519 0.948 3.717 0.291 7.483-1.533 10.683l0.017 4e-3 -0.281 0.452c-0.088 0.142-0.173 0.287-0.266 0.427l-29.309 47.055" fill="#ba7300"/>
</g>
<g transform="translate(155.82 352.98)">
<path d="m0 0 26.632-1.369 2.356 45.848-32.133-1.787z" fill="#ba7300"/>
</g>
<g clip-path="url(#cw)" opacity=".2">
<g transform="translate(155.82 352.98)">
<path d="m0 0 26.632-1.369 2.356 45.848-32.133-1.787z"/>
</g>
</g>
<g transform="translate(171.85 386.26)">
<path d="m0 0-32.967 1.694s-3.062 55.9 36.658 73.847l7.913-52.28z" fill="#a1daf8"/>
</g>
<g transform="translate(191.14 520.71)">
<path d="m0 0-0.603-11.721s-8.954 10.866 0.603 11.721" fill="#ba7300"/>
</g>
<g clip-path="url(#cx)" opacity=".7">
<g transform="translate(241.16 283.33)">
<path d="m0 0c-14.022-3.8-28.355-5.479-42.876-5.015-1.046 0.034-2.622-1.509-0.934-1.564 14.953-0.479 29.752 1.246 44.191 5.158 1.51 0.41 1.141 1.833-0.381 1.421" fill="#00569f"/>
</g>
</g>
<g clip-path="url(#cy)" opacity=".7">
<g transform="translate(177.62 280.84)">
<path d="m0 0c0.657-0.191 1.314-0.383 1.971-0.574 0.561 0.355 1.121 0.712 1.682 1.067-8.481-0.644-16.662 0.354-24.739 3.021-0.657 0.216-2.912-0.798-2.021-1.093 8.374-2.765 16.94-3.814 25.734-3.146 0.225 0.017 2.346 0.638 1.682 1.068-1.41 0.911-2.304 0.993-3.908 0.818-1.123-0.123-2.152-1.352-0.401-1.161" fill="#00569f"/>
</g>
</g>
<g clip-path="url(#cz)" opacity=".7">
<g transform="translate(150.32 325.39)">
<path d="m0 0c1.754-13.166 2.056-26.381 0.93-39.613-0.111-1.303 2.436-0.968 2.534 0.182 1.14 13.394 0.81 26.779-0.964 40.101-0.156 1.167-2.662 0.547-2.5-0.67" fill="#00569f"/>
</g>
</g>
<g clip-path="url(#da)" opacity=".7">
<g transform="translate(213.82 285.63)">
<path d="m0 0c-14.555-0.814-29.059-0.062-43.454 2.229-1.209 0.192-2.548-1.516-0.874-1.783 14.605-2.324 29.331-3.063 44.095-2.236 1.399 0.078 1.941 1.886 0.233 1.79" fill="#00569f"/>
</g>
</g>
<g clip-path="url(#db)" opacity=".7">
<g transform="translate(172.87 449.35)">
<path d="m0 0c7.37-5.276 15.617-8.583 24.59-9.873 0.684-0.099 2.911 1.024 1.568 1.218-8.731 1.255-16.647 4.443-23.823 9.581-0.648 0.464-2.892-0.527-2.335-0.926" fill="#00569f"/>
</g>
</g>
<g clip-path="url(#dc)" opacity=".7">
<g transform="translate(164.36 445.76)">
<path d="m0 0c-7.412-7.489-13-16.261-16.632-26.158-0.186-0.506 2.225-0.246 2.47 0.422 3.592 9.788 9.096 18.474 16.434 25.889 0.548 0.554-1.824 0.3-2.272-0.153" fill="#00569f"/>
</g>
</g>
<g clip-path="url(#dd)" opacity=".7">
<g transform="translate(162.65 395.42)">
<path d="m0 0-14.25 0.732c-1.145 0.059-2.583-1.623-0.894-1.71l14.25-0.732c1.145-0.059 2.583 1.623 0.894 1.71" fill="#00569f"/>
</g>
</g>
<g clip-path="url(#de)" opacity=".7">
<g transform="translate(184.39 260.61)">
<path d="m0 0c-0.369-10.694-9.543-19.836-20.452-19.134-1.108 0.072-2.601-1.536-0.911-1.645 12.102-0.78 23.456 8.691 23.881 21.022 0.041 1.189-2.484 0.755-2.518-0.243" fill="#ffe15a"/>
</g>
</g>
<g clip-path="url(#df)" opacity=".7">
<g transform="translate(188.85 245.35)">
<path d="m0 0c-2.872-6.727-8.65-11.421-15.862-12.716-1.576-0.283-1.109-1.897 0.434-1.62 7.934 1.425 14.635 6.67 17.805 14.097 0.546 1.277-1.964 1.207-2.377 0.239" fill="#ffe15a"/>
</g>
</g>
<g clip-path="url(#dg)" opacity=".7">
<g transform="translate(221.64 261.53)">
<path d="m0 0c0.594-7.787 0.451-15.518-0.417-23.276-0.117-1.048 2.405-0.607 2.505 0.291 0.883 7.884 1.015 15.747 0.412 23.655-0.067 0.87-2.577 0.332-2.5-0.67" fill="#ffe15a"/>
</g>
</g>
<g clip-path="url(#dh)" opacity=".7">
<g transform="translate(216.12 234.3)">
<path d="m0 0c-0.379-0.659-0.758-1.317-1.137-1.976-0.227-0.393 0.885-0.258 0.999-0.238 0.443 0.078 1.215 0.244 1.466 0.681 0.379 0.658 0.758 1.316 1.137 1.974 0.227 0.394-0.885 0.259-0.999 0.239-0.443-0.078-1.215-0.244-1.466-0.68" fill="#ffe15a"/>
</g>
</g>
<g clip-path="url(#di)" opacity=".7">
<g transform="translate(165.54 188.83)">
<path d="m0 0c4.954-22.259 7.527-44.912 7.693-67.715 4e-3 -0.542 2.506-0.14 2.5 0.67-0.166 22.803-2.739 45.456-7.693 67.715-0.146 0.655-2.657 0.037-2.5-0.67" fill="#ffe15a"/>
</g>
</g>
<g clip-path="url(#dj)" opacity=".3">
<g transform="translate(207.01 67.03)">
<path d="m0 0s19.755 128.67 14.354 144.59c0 0 8.285-31.813 7.979-48.611-0.306-16.799 0.624-102.05 0.624-102.05l1.355-54.999-29.107 5.956z"/>
</g>
</g>
<g clip-path="url(#dk)" opacity=".7">
<g transform="translate(243.94 263.63)">
<path d="m0 0c-2.331-24.019-3.858-48.102-4.579-72.223-0.034-1.164 2.487-0.714 2.516 0.255 0.72 24.121 2.247 48.204 4.578 72.223 0.111 1.141-2.42 0.724-2.515-0.255" fill="#ffe15a"/>
</g>
</g>
<g clip-path="url(#dl)" opacity=".7">
<g transform="translate(224.33 15.351)">
<path d="m0 0c-2.518-1.675-5.366-1.722-8.071-0.494-0.71 0.322-2.8-0.757-2.464-0.909 4.134-1.876 8.817-1.202 12.553 1.282 1.093 0.726-1.515 0.455-2.018 0.121" fill="#ffe15a"/>
</g>
</g>
<g clip-path="url(#dn)" opacity=".7">
<g transform="translate(181.9 9.138)">
<path d="m0 0c0.378-2.034-4.65 0.849-5.119 1.089l-5.672 2.906c-0.91 0.467-3.258-0.795-2.044-1.417 2.327-1.193 4.654-2.386 6.981-3.578 1.433-0.734 2.729-1.488 4.376-1.52 1.955-0.037 4.538 0.857 4.098 3.222-0.203 1.089-2.831 0.434-2.62-0.702" fill="#ffe15a"/>
</g>
</g>
<g clip-path="url(#do)" opacity=".7">
<g transform="translate(195.85 252.91)">
<path d="m0 0c2.775 0 2.78 4.313 0 4.313-2.775 0-2.78-4.313 0-4.313" fill="#ffe15a"/>
</g>
</g>
<g clip-path="url(#dp)" opacity=".7">
<g transform="translate(194.1 238.71)">
<path d="m0 0c2.775 0 2.78 4.313 0 4.313-2.775 0-2.78-4.313 0-4.313" fill="#ffe15a"/>
</g>
</g>
<g clip-path="url(#dq)" opacity=".7">
<g transform="translate(182.17 225.04)">
<path d="m0 0c2.775 0 2.78 4.313 0 4.313-2.775 0-2.78-4.313 0-4.313" fill="#ffe15a"/>
</g>
</g>
<g clip-path="url(#dr)" opacity=".7">
<g transform="translate(164.76 223.89)">
<path d="m0 0c2.775 0 2.78 4.313 0 4.313-2.775 0-2.78-4.313 0-4.313" fill="#ffe15a"/>
</g>
</g>
<g clip-path="url(#ds)" opacity=".7">
<g transform="translate(162 209.75)">
<path d="m0 0c2.775 0 2.78 4.313 0 4.313-2.775 0-2.78-4.313 0-4.313" fill="#ffe15a"/>
</g>
</g>
<g clip-path="url(#dt)" opacity=".7">
<g transform="translate(174.3 91.758)">
<path d="m0 0c2.775 0 2.78 4.313 0 4.313-2.775 0-2.78-4.313 0-4.313" fill="#ffe15a"/>
</g>
</g>
<g clip-path="url(#du)" opacity=".7">
<g transform="translate(170.59 39.339)">
<path d="m0 0c2.909 0 2.914 4.521 0 4.521-2.909 0-2.914-4.521 0-4.521" fill="#ffe15a"/>
</g>
</g>
<g clip-path="url(#dv)" opacity=".7">
<g transform="translate(170.13 30.395)">
<path d="m0 0c2.909 0 2.914 4.521 0 4.521-2.909 0-2.914-4.521 0-4.521" fill="#ffe15a"/>
</g>
</g>
<g clip-path="url(#dw)" opacity=".7">
<g transform="translate(231.82 19.378)">
<path d="m0 0c2.909 0 2.914 4.521 0 4.521-2.909 0-2.914-4.521 0-4.521" fill="#ffe15a"/>
</g>
</g>
<g clip-path="url(#dx)" opacity=".7">
<g transform="translate(239.42 107.8)">
<path d="m0 0c2.775 0 2.78 4.313 0 4.313-2.775 0-2.78-4.313 0-4.313" fill="#ffe15a"/>
</g>
</g>
<g clip-path="url(#dy)" opacity=".7">
<g transform="translate(240.68 92.656)">
<path d="m0 0c0.018 0.339 0.035 0.679 0.053 1.018 0.057 1.128-1.034 2.207-2.157 2.156-1.218-0.054-2.095-0.947-2.157-2.156-0.017-0.339-0.034-0.679-0.052-1.018-0.058-1.129 1.033-2.207 2.157-2.157 1.218 0.054 2.094 0.948 2.156 2.157" fill="#ffe15a"/>
</g>
</g>
<g clip-path="url(#dz)" opacity=".7">
<g transform="translate(170.39 397.32)">
<path d="m0 0c-0.339 0.017-0.678 0.034-1.018 0.052-1.128 0.058-2.207-1.033-2.156-2.156 0.054-1.219 0.947-2.095 2.156-2.158 0.34-0.016 0.679-0.034 1.018-0.051 1.128-0.059 2.207 1.033 2.157 2.156-0.055 1.219-0.948 2.095-2.157 2.157" fill="#00569f"/>
</g>
</g>
<g clip-path="url(#ea)" opacity=".7">
<g transform="translate(145 395.33)">
<path d="m0 0c2.775 0 2.78 4.313 0 4.313-2.775 0-2.78-4.313 0-4.313" fill="#00569f"/>
</g>
</g>
<g clip-path="url(#eb)" opacity=".7">
<g transform="translate(147.68 407.67)">
<path d="m0 0 0.033 0.63c0.142 2.774-4.172 2.766-4.314 0l-0.032-0.63c-0.143-2.774 4.171-2.767 4.313 0l0.033 0.63c0.142 2.774-4.172 2.766-4.314 0l-0.032-0.63c-0.143-2.774 4.171-2.767 4.313 0" fill="#00569f"/>
</g>
</g>
<g clip-path="url(#ec)" opacity=".7">
<g transform="translate(244.69 294.29)">
<path d="m0 0c-0.018-0.339-0.035-0.678-0.052-1.018-0.058-1.128 1.033-2.207 2.156-2.156 1.219 0.055 2.095 0.947 2.157 2.156 0.017 0.34 0.035 0.679 0.052 1.018 0.059 1.129-1.033 2.207-2.156 2.157-1.219-0.054-2.095-0.948-2.157-2.157" fill="#00569f"/>
</g>
</g>
<g clip-path="url(#ed)" opacity=".7">
<g transform="translate(247.34 281.9)">
<path d="m0 0c2.775 0 2.78 4.313 0 4.313-2.775 0-2.78-4.313 0-4.313" fill="#00569f"/>
</g>
</g>
<g clip-path="url(#ee)" opacity=".7">
<g transform="translate(244.11 338.19)">
<path d="m0 0c2.775 0 2.78 4.313 0 4.313-2.775 0-2.78-4.313 0-4.313" fill="#00569f"/>
</g>
</g>
<g clip-path="url(#ef)" opacity=".7">
<g transform="translate(232.14 363.3)">
<path d="m0 0c2.775 0 2.78 4.313 0 4.313-2.775 0-2.78-4.313 0-4.313" fill="#00569f"/>
</g>
</g>
<g clip-path="url(#eg)" opacity=".7">
<g transform="translate(234.67 352.97)">
<path d="m0 0c2.775 0 2.78 4.312 0 4.312-2.775 0-2.78-4.312 0-4.312" fill="#00569f"/>
</g>
</g>
<g clip-path="url(#eh)" opacity=".7">
<g transform="translate(217.64 438.54)">
<path d="m0 0c2.775 0 2.78 4.313 0 4.313-2.775 0-2.78-4.313 0-4.313" fill="#00569f"/>
</g>
</g>
<g clip-path="url(#ei)" opacity=".7">
<g transform="translate(208.42 438)">
<path d="m0 0c2.775 0 2.78 4.313 0 4.313-2.775 0-2.78-4.313 0-4.313" fill="#00569f"/>
</g>
</g>
<g clip-path="url(#ej)" opacity=".7">
<g transform="translate(173.32 450)">
<path d="m0 0c2.775 0 2.78 4.313 0 4.313-2.775 0-2.78-4.313 0-4.313" fill="#00569f"/>
</g>
</g>
<g clip-path="url(#ek)" opacity=".7">
<g transform="translate(178.91 439.51)">
<path d="m0 0c2.775 0 2.78 4.313 0 4.313-2.775 0-2.78-4.313 0-4.313" fill="#00569f"/>
</g>
</g>
<g clip-path="url(#el)" opacity=".7">
<g transform="translate(171.99 443.95)">
<path d="m0 0c2.775 0 2.78 4.313 0 4.313-2.775 0-2.78-4.313 0-4.313" fill="#00569f"/>
</g>
</g>
<g transform="translate(210.8 437.95)">
<path d="m0 0-16.089-3.823c-0.029-8e-3 -0.055-0.022-0.083-0.03-3.422-0.653-6.37-4.167-6.155-14.513l-30.11-60.358c-0.797-1.164-1.421-2.422-1.866-3.741l-0.04-0.079 0.01-2e-3c-0.808-2.441-0.985-5.083-0.36-7.712 1.912-8.047 10.498-12.898 19.177-10.836 6.527 1.551 11.245 6.571 12.372 12.386h2e-3l12.652 64.298s1.198 0.788 3.738 0.888 9.374 5.73 6.083 8.793l-5.659 7.629s-0.46 0.354-1.221 0.831l8.555 2.034c1.17 0.277 1.892 1.451 1.615 2.62-0.278 1.17-1.452 1.892-2.621 1.615" fill="#ba7300"/>
</g>
<g clip-path="url(#em)" opacity=".58">
<g transform="translate(230.67 550.45)">
<path d="m0 0c6.265-4.98 9.727-12.143 9.626-20.155-0.02-1.666 2.568-1.667 2.588 0 0.108 8.626-3.623 16.61-10.384 21.984-1.29 1.026-3.134-0.793-1.83-1.829" fill="#ba7300"/>
</g>
</g>
<g clip-path="url(#bu)" opacity=".58">
<g transform="translate(227.59 543.17)">
<path d="m0 0 0.779-6.149c0.207-1.63 2.798-1.651 2.588 0l-0.779 6.149c-0.207 1.63-2.797 1.65-2.588 0" fill="#ba7300"/>
</g>
</g>
<g clip-path="url(#bv)" opacity=".58">
<g transform="translate(218.51 544.66)">
<path d="m0 0c0.263-2.05 0.527-4.099 0.79-6.148 0.21-1.629 2.8-1.651 2.588 0-0.263 2.049-0.526 4.098-0.79 6.148-0.21 1.629-2.8 1.649-2.588 0" fill="#ba7300"/>
</g>
</g>
<g clip-path="url(#bw)" opacity=".58">
<g transform="translate(191.34 558.45)">
<path d="m0 0c-8.799-4.505-16.017-11.202-21.211-19.608-0.878-1.421 1.359-2.723 2.234-1.307 4.975 8.05 11.863 14.369 20.283 18.681 1.483 0.759 0.175 2.993-1.306 2.234" fill="#ba7300"/>
</g>
</g>
<g clip-path="url(#bx)" opacity=".58">
<g transform="translate(185.95 574.13)">
<path d="m0 0c2.97-3.227 4.297-7.29 3.941-11.646-0.135-1.661 2.454-1.651 2.589 0 0.409 5.019-1.299 9.78-4.7 13.476-1.13 1.228-2.957-0.605-1.83-1.83" fill="#ba7300"/>
</g>
</g>
<g clip-path="url(#by)" opacity=".58">
<g transform="translate(181.18 566.37)">
<path d="m0 0c1.251-2.106 2.503-4.212 3.755-6.317 0.85-1.431 3.089-0.13 2.235 1.305-1.252 2.107-2.504 4.212-3.756 6.318-0.85 1.43-3.088 0.131-2.234-1.306" fill="#ba7300"/>
</g>
</g>
<g clip-path="url(#bz)" opacity=".58">
<g transform="translate(180.46 557.65)">
<path d="m0 0c-1.296 1.098-2.592 2.195-3.889 3.293-1.263 1.07-3.103-0.752-1.83-1.83 1.297-1.098 2.593-2.195 3.889-3.293 1.264-1.07 3.103 0.752 1.83 1.83" fill="#ba7300"/>
</g>
</g>
<g clip-path="url(#ca)" opacity=".58">
<g transform="translate(176.36 550.8)">
<path d="m0 0c-6.67-0.532-12.775 2.069-17.025 7.232-1.059 1.288-2.881-0.552-1.829-1.829 4.634-5.632 11.586-8.571 18.854-7.991 1.649 0.132 1.663 2.721 0 2.588" fill="#ba7300"/>
</g>
</g>
<g clip-path="url(#cb)" opacity=".58">
<g transform="translate(192.92 512.89)">
<path d="m0 0c-9.376-5.149-10.198-16.056-10.249-25.662-9e-3 -1.665 2.579-1.667 2.588 0 0.046 8.639 0.416 18.731 8.967 23.428 1.461 0.801 0.156 3.038-1.306 2.234" fill="#ba7300"/>
</g>
</g>
<g clip-path="url(#cc)" opacity=".58">
<g transform="translate(182.93 508.51)">
<path d="m0 0c-2.385 3.004-4.771 6.008-7.156 9.012-1.035 1.303-2.856-0.538-1.83-1.83 2.385-3.004 4.771-6.008 7.156-9.012 1.035-1.304 2.855 0.538 1.83 1.83" fill="#ba7300"/>
</g>
</g>
<g clip-path="url(#cd)" opacity=".58">
<g transform="translate(180.44 501.71)">
<path d="m0 0c-2.742 1.513-5.148 3.423-7.251 5.744-1.121 1.236-2.946-0.598-1.83-1.83 2.239-2.473 4.854-4.537 7.775-6.148 1.459-0.806 2.766 1.428 1.306 2.234" fill="#ba7300"/>
</g>
</g>
<g clip-path="url(#ce)" opacity=".58">
<g transform="translate(174.24 491.33)">
<path d="m0 0c-5.128 0.445-9.511 3.97-11.11 8.849-0.516 1.575-3.016 0.901-2.495-0.689 1.981-6.047 7.278-10.198 13.605-10.748 1.659-0.144 1.649 2.444 0 2.588" fill="#ba7300"/>
</g>
</g>
<g clip-path="url(#cf)" opacity=".58">
<g transform="translate(194.43 530.61)">
<path d="m0 0c-0.122-2.375-0.244-4.749-0.366-7.124-0.086-1.665 2.503-1.66 2.588 0 0.122 2.375 0.244 4.749 0.366 7.124 0.086 1.665-2.503 1.66-2.588 0" fill="#ba7300"/>
</g>
</g>
<g clip-path="url(#cg)" opacity=".58">
<g transform="translate(205 554.51)">
<path d="m0 0c-0.017-0.339-0.035-0.678-0.052-1.018-0.058-1.128 1.033-2.207 2.156-2.156 1.219 0.055 2.095 0.947 2.157 2.156 0.017 0.34 0.035 0.679 0.052 1.018 0.059 1.129-1.033 2.207-2.156 2.157-1.219-0.054-2.095-0.948-2.157-2.157" fill="#ba7300"/>
</g>
</g>
<g clip-path="url(#ch)" opacity=".58">
<g transform="translate(194.73 548.91)">
<path d="m0 0c2.775 0 2.78 4.313 0 4.313-2.775 0-2.78-4.313 0-4.313" fill="#ba7300"/>
</g>
</g>
<g clip-path="url(#ci)" opacity=".58">
<g transform="translate(184.14 541.29)">
<path d="m0 0c2.775 0 2.78 4.312 0 4.312-2.775 0-2.78-4.312 0-4.312" fill="#ba7300"/>
</g>
</g>
<g clip-path="url(#cj)" opacity=".58">
<g transform="translate(171.81 530.23)">
<path d="m0 0c0.322-0.356 0.644-0.713 0.965-1.07 0.758-0.84 2.29-0.828 3.05 0 0.824 0.897 0.809 2.154 0 3.049-0.322 0.358-0.643 0.714-0.965 1.071-0.758 0.84-2.29 0.828-3.05 0-0.824-0.898-0.809-2.154 0-3.05" fill="#ba7300"/>
</g>
</g>
<g clip-path="url(#ck)" opacity=".58">
<g transform="translate(239.51 467.01)">
<path d="m0 0c2.775 0 2.78 4.313 0 4.313-2.775 0-2.78-4.313 0-4.313" fill="#ba7300"/>
</g>
</g>
<g clip-path="url(#cl)" opacity=".58">
<g transform="translate(228.91 459.39)">
<path d="m0 0c2.775 0 2.78 4.313 0 4.313-2.776 0-2.78-4.313 0-4.313" fill="#ba7300"/>
</g>
</g>
<g clip-path="url(#cm)" opacity=".58">
<g transform="translate(239.14 459.89)">
<path d="m0 0c2.775 0 2.78 4.313 0 4.313-2.775 0-2.78-4.313 0-4.313" fill="#ba7300"/>
</g>
</g>
<g clip-path="url(#cn)" opacity=".58">
<g transform="translate(216.54 456.97)">
<path d="m0 0c2.775 0 2.78 4.313 0 4.313-2.775 0-2.78-4.313 0-4.313" fill="#ba7300"/>
</g>
</g>
<g clip-path="url(#co)" opacity=".58">
<g transform="translate(203.41 459.68)">
<path d="m0 0c2.775 0 2.78 4.312 0 4.312-2.775 0-2.78-4.312 0-4.312" fill="#ba7300"/>
</g>
</g>
<g clip-path="url(#cp)" opacity=".58">
<g transform="translate(193 475.53)">
<path d="m0 0c2.775 0 2.78 4.313 0 4.313-2.775 0-2.78-4.313 0-4.313" fill="#ba7300"/>
</g>
</g>
<g clip-path="url(#cq)" opacity=".58">
<g transform="translate(197.83 470.18)">
<path d="m0 0c2.775 0 2.78 4.313 0 4.313-2.775 0-2.78-4.313 0-4.313" fill="#ba7300"/>
</g>
</g>
<g clip-path="url(#cr)" opacity=".58">
<g transform="translate(179.43 489.49)">
<path d="m0 0c2.775 0 2.78 4.313 0 4.313-2.775 0-2.78-4.313 0-4.313" fill="#ba7300"/>
</g>
</g>
<g clip-path="url(#dm)" opacity=".58">
<g transform="translate(179.07 482.37)">
<path d="m0 0c2.775 0 2.78 4.313 0 4.313-2.775 0-2.78-4.313 0-4.313" fill="#ba7300"/>
</g>
</g>
<g transform="translate(227.9 510.27)">
<path d="m0 0c-0.279-4.419-0.053-8.779 0.618-13.154 0.301 0.53 0.603 1.06 0.904 1.591-1.596-0.348-3.071-0.394-4.681-0.115-1.629 0.282-2.328-2.211-0.688-2.496 2.074-0.359 3.999-0.333 6.057 0.115 0.738 0.162 1.005 0.933 0.904 1.592-0.636 4.141-0.79 8.289-0.526 12.467 0.105 1.663-2.484 1.657-2.588 0" fill="#641000"/>
</g>
</g>
</g>
</g>
</svg>
