<?xml version="1.0" encoding="UTF-8"?>
<svg width="125.94mm" height="123.14mm" version="1.1" viewBox="0 0 125.94 123.14" xmlns="http://www.w3.org/2000/svg">
<defs>
<clipPath id="c">
<path d="m773.9 1133.8c-78.435-11.689-132.54-84.748-120.85-163.18 11.69-78.434 72.476-107.85 163.93-108.57 96.171-0.756 137.18 47.506 120.1 150.9-11.749 71.105-72.133 122.44-141.92 122.44-7.003-1e-3 -14.107-0.518-21.259-1.584"/>
</clipPath>
<clipPath id="d">
<path d="m668.95 1093.9h257.55v-383.15h-257.55z"/>
</clipPath>
</defs>
<g transform="translate(-38.329 -69.123)">
<g transform="matrix(.35278 0 0 -.35278 -170.15 494.05)">
<g transform="translate(946.61 909.44)">
<path d="m0 0c5.257 28.549-5.854 65.144-14.884 95.908-19.092 65.038-43.852 130.22-94.304 176.53-9.646 8.855-20.303 17.132-32.772 20.689-23.399 6.676-48.441-4.672-66.995-20.76-24.393-21.151-46.554-48.124-65.348-74.603-38.418-54.129-124.44-191.14-36.584-238.48 25.724-13.86 56.178-14.265 85.18-12.537 60.661 3.615 124.37-6.701 183.88 9.772 26.33 7.288 38.132 23.392 41.831 43.479" fill="#604211"/>
</g>
<g transform="translate(931.4 917.93)">
<path d="m0 0c5.127 27.121-5.708 61.886-14.516 91.112-18.618 61.785-42.765 123.7-91.966 167.7-9.408 8.412-19.801 16.275-31.961 19.655-22.82 6.341-47.242-4.44-65.335-19.723-23.788-20.093-45.402-45.717-63.73-70.872-37.466-51.423-121.36-181.58-35.677-226.55 25.085-13.167 54.786-13.552 83.07-11.91 59.158 3.435 121.29-6.366 179.32 9.282 25.678 6.924 37.188 22.223 40.795 41.306" fill="#aa7518"/>
</g>
<g clip-path="url(#c)">
<g clip-path="url(#d)" opacity=".2">
<g transform="translate(811.42 1053.7)">
<path d="m0 0c2e-3 3e-3 4e-3 5e-3 6e-3 8e-3 -1.002-1.344-2.003-2.688-3.005-4.031 0.981 1.385 1.975 2.743 2.999 4.023m57.111-30.331c-0.521-1.71-1.153-3.354-1.907-4.917 0.734 1.65 1.295 3.358 1.701 5.101 0.07-0.061 0.136-0.124 0.206-0.184m-198.63-47.095c-0.103-0.963-0.883-2.13-0.706-3.139 0.777-4.434 8.983-9.431 12.587-11.414 3.155-1.737 6.662-2.573 9.982-3.985 2.354-1.002 4.41-2.571 6.982-3.094 0.806-0.164 1.646-0.186 2.407-0.394 2.485-3.556 9.569-5.973 12.836-7.978 9.167-5.627 19.174-11.5 29.081-15.522 4.752-1.93 9.538-3.636 14.355-5.158-4.275-8.811-8.412-17.59-9.703-27.519-1.389-10.69-1.954-21.799-1.409-32.641 0.354-7.065 1.286-13.86 3.451-20.542 0.079-0.247 0.161-0.479 0.244-0.702-2.234-14.481-0.074-32.225 1.115-44.717 2.236-23.492 5.03-46.93 9.16-70.248 2.177-12.294 4.862-17.639 18.078-18.446 0.225 0.794 0.382 1.59 0.511 2.388 1.52 0.477 3.247 1.466 4.648 1.461 2.1-7e-3 5.503-0.757 7.972-0.826 3.108 0.359 5.866 2.253 9.008 2.364 3.575 0.127 5.8-1.675 9.655-0.79 7.632 1.752 9.722 4.637 11.281 13.033 3.37 18.147 12.644 30.453 19.578 46.501 5.455 12.624 8.864 28.014 10.012 41.679 0.312 3.725 1.705 12.675 0.71 17.798 0.261 0.218 0.502 0.453 0.707 0.717 4.195 5.443 0.398 20.021 0.114 26.871-0.215 5.18-0.125 10.509 0.208 15.824 1.383-1.74 2.886-3.333 4.549-4.662 6.583-5.262 11.992-4.183 18.696-0.461 11.105 6.165 10.564 20.434 21.219 26.257 3.026 1.655 7.071 2.818 10.401 3.734 2.572 0.707 5.776 0.388 8.16 1.598 4.548 2.308 8.811 9.715 9.955 14.587 3.377 14.374-5.178 21.143-12.739 31.928-4.243 6.054-1.853 11.952-3.521 18.982-3.369 14.181 0.509 24.202 2.832 38.167 1.69 10.16 3.91 23.806 0.555 33.911-1.182 3.56-3.236 5.824-5.581 8.582-4.686 5.513-8.771 11.695-14.423 16.364-2.443 2.018-5.204 4.273-7.749 6.122-2.315 1.682-5.367 2.241-7.481 4.297-4.805 4.674-3.428 9.547-10.937 11.818-6.319 1.911-13.277 0.226-19.655-0.585-5.729-0.727-10.96 0.111-16.533 0.968-3.612 0.555-6.128 0.841-9.21-1.19-5.719-3.77-5.344-11.054-8.252-16.319-3.325-6.019-8.321-10.714-12.478-16.19-2.122-2.796-3.485-6.362-3.273-10.052 0.134-2.326 1.392-5.675 2.449-7.678 0 1e-3 1e-3 2e-3 2e-3 2e-3 -3.726-5.245-7.033-10.862-7.575-17.19-0.579-6.76 2.328-13.241 7.051-18.162 0.916-3.447 1.138-6.83 1.329-10.406 0.23-4.314 0.336-8.696-0.627-12.936-0.082-0.36-0.178-0.784-0.246-1.226-1.907 0.831-4.644 0.512-7.387-0.331-0.04 0.141-0.083 0.272-0.122 0.422-0.246-0.231-0.493-0.467-0.74-0.703-2.845-0.982-5.589-2.446-7.277-3.682-4.385-3.214-8.089-7.88-10.587-12.649-2.577-4.918-4.821-10.133-7.061-15.417-5.315 1.235-10.716 2.821-16.838 4.265-15.187 3.583-31.583 7.678-46.083 16.57-0.754 2.329-1.201 4.337 0.232 7.099 1.696 3.266 4.065 7.509 3.285 11.365-1.015 5.014-5.41 0.268-7.261-1.687-1.277-1.347-2.997-2.693-4.86-3.504l-1.938-0.619c-1.055-0.209-2.122-0.208-3.154 0.107-3.775 1.148-7.655 5.792-10.574 8.261-1.969 1.666-5.292 7.791-8.372 7.093-2.891-0.655-2-3.749-1.21-6.456 0.124-0.593 0.287-1.177 0.477-1.753 0.136-0.593 0.212-1.125 0.164-1.547-0.054-0.488-0.152-0.918-0.264-1.326l-0.123 0.286c-0.129-0.461-0.195-0.931-0.211-1.406-0.278-0.91-0.499-1.814-0.292-3.083 0.205-1.248 0.545-1.849 0.414-3.086"/>
</g>
<g transform="translate(785.71 1063.4)">
<path d="m0 0c-17.919 7.542-34.671 17.851-49.48 30.446z"/>
</g>
<g transform="translate(732.45 966.99)">
<path d="m0 0c8.639 9.391 18.986 17.205 30.384 22.943z"/>
</g>
</g>
<g transform="translate(789.21 977.91)">
<path d="m0 0c-4.012 2.039-12.23-1.594-15.778-4.194-4.386-3.214-8.089-7.88-10.587-12.649-4.635-8.845-8.196-18.64-12.586-28.097-5.3-11.415-11.612-22.239-13.263-34.944-1.39-10.69-1.955-21.799-1.41-32.64 0.355-7.067 1.286-13.861 3.451-20.543 2.348-7.245 6.078-4.589 9.117 1.714 3.777 7.835 4.932 16.749 7.449 25.037 3.318 10.924 6.775 21.709 10.726 32.423 5.782 15.678 13.297 31.421 21.226 46.107 3.179 5.89 5.279 10.029 6.395 16.51 0.438 2.541 1.349 5.178 0.449 7.6-0.598 1.613-2.697 4.75-5.189 3.676" fill="#97c000"/>
</g>
<g transform="translate(743.36 857.58)">
<path d="m0 0c-7.928-15.087-4.567-41.372-2.97-58.162 2.237-23.491 5.032-46.93 9.16-70.248 2.178-12.294 4.862-17.638 18.08-18.445 2.609 9.251-1.582 18.768-3.777 27.78-2.839 11.651-4.216 25.089-4.804 37.178-1.064 21.885 5.061 46.482 0.027 67.942-1.431 6.1-16.589 22.101-15.716 13.955" fill="#037b2f"/>
</g>
<g transform="translate(780.76 713.75)">
<path d="m0 0c3.108 0.359 5.866 2.253 9.008 2.364 3.576 0.127 5.801-1.675 9.656-0.79 7.632 1.752 9.721 4.637 11.28 13.033 3.37 18.147 12.644 30.454 19.578 46.501 5.456 12.624 8.865 28.014 10.011 41.679 0.372 4.431 2.284 16.27-0.123 20.247-3.492 5.769-18.632 5.079-24.643 6.653-20.467 5.355-40.92 6.355-60.884 10.39-0.895 1.168 0.396 0.126 0.763 0.611-5.58-3.678-1.649-23.136-1.336-29.475 0.557-11.319 0.222-23.162 0.683-34.21 0.932-22.329 2.67-43.716 5.972-65.234 0.809-5.272 0.819-10.946 5.356-12.549 1.762-0.623 4.604 1.613 6.707 1.606 2.101-7e-3 5.502-0.757 7.972-0.826" fill="#97c000"/>
</g>
<g transform="translate(788.87 976.78)">
<path d="m0 0c0.024-0.441 0.119-0.863 0.331-1.223 0.617-1.048 1.948-1.986 2.97-2.611 2.384-1.458 5.189-2.133 7.906-2.654 3.666-0.703 7.399-1.318 11.118-0.987 3.718 0.33 7.469 1.702 10.009 4.437 3.093 3.332 3.961 8.098 4.697 12.584 0.783 4.773 1.567 9.547 2.35 14.319 0.668 4.068-34.207 9.854-38.037 8.35-2.386-0.937-2.654-3.247-1.978-5.478 1.145-3.776 1.379-7.445 1.588-11.346 0.23-4.314 0.335-8.696-0.627-12.936-0.157-0.69-0.372-1.608-0.327-2.455" fill="#d1a154"/>
</g>
<g transform="translate(781.44 978.1)">
<path d="m0 0c-6.667-6.262-13.688-13.744-18.48-22.53-4.499-8.25-5.091-21.929-7.114-31.442-1.759-8.273-4.788-16.362-6.793-24.689-2.224-9.238-3.55-18.234-6.682-27.376-1.81-5.279-4.63-14.034-2.348-19.73 2.355-5.88 7.674-5.596 12.04-6.278 6.839-1.067 12.668-5.898 19.773-6.284 7.004-0.381 13.945-0.883 20.932-1.573 10.957-1.082 22.051-5.877 33.109-5.789 3.992 0.032 12.934-1.111 15.831 2.646 4.196 5.442 0.399 20.021 0.115 26.87-0.396 9.525 0.207 19.552 1.545 29.067 1.913 13.602 1.386 27.36 3.347 40.869 1.765 12.153-2.163 22.879-11.428 28.968-8.933 5.87-17.931 9.135-27.412 11.487-3.461 0.859-4.944 2.272-8.413 1.792-3.912-0.542-8.221-2.702-12.412-1.195-1.779 0.64-4.331 0.173-5.61 5.187" fill="#97c000"/>
</g>
<g transform="translate(693.82 963.44)">
<path d="m0 0c-1.051 3.881-2.738 6.267-0.727 10.144 1.696 3.266 4.065 7.509 3.285 11.365-1.015 5.013-5.41 0.267-7.261-1.687-2.411-2.544-6.393-5.1-9.953-4.016-3.774 1.148-7.654 5.792-10.573 8.26-1.97 1.666-5.292 7.791-8.372 7.094-4.269-0.967-0.291-7.254-0.569-9.756-0.235-2.123-1.267-3.225-0.891-5.529 0.205-1.248 0.545-1.85 0.415-3.086-0.103-0.963-0.883-2.13-0.707-3.14 0.778-4.433 8.984-9.43 12.587-11.414 3.156-1.736 6.663-2.572 9.983-3.984 2.354-1.002 4.409-2.571 6.981-3.094 0.936-0.19 1.925-0.173 2.773-0.499 1.572 1.982 3.367 7.098 3.029 9.342" fill="#d1a154"/>
</g>
<g transform="translate(791.61 1041.5)">
<path d="m0 0c-4.663-6.258-9.502-12.959-10.168-20.734-0.992-11.58 8.236-22.351 19.321-25.844 11.085-3.494 23.306-0.927 33.815 4.038 8.564 4.046 16.677 9.996 20.858 18.494 5.725 11.633 2.755 26.389-5.533 36.365-7.183 8.644-20.82 16.805-32.429 16.766-6.554-0.022-8.513-5.804-12.213-10.767-4.55-6.106-9.1-12.212-13.651-18.318" fill="#d1a154"/>
</g>
<g transform="translate(692.27 966.83)">
<path d="m0 0-2.069-12.323c2.274-3.728 9.693-6.224 13.054-8.287 9.167-5.627 19.175-11.5 29.081-15.523 20.301-8.243 41.162-12.555 62.876-14.781 17.347-1.777 34.374 1.851 50.202 8.605-0.947 12.529 9.603 29.413-1.414 40.74-12.655 13.01-21.055-1.846-29.904-9.476-8.698-7.499-22.992-10.292-33.957-11.749-15.563-2.068-26.236 2.343-41.201 5.873-15.39 3.631-32.026 7.778-46.668 16.921" fill="#037b2f"/>
</g>
<g transform="translate(789.02 1037.9)">
<path d="m0 0c-1.058 2.003-2.315 5.352-2.448 7.678-0.212 3.689 1.15 7.256 3.272 10.051 4.156 5.475 9.154 10.171 12.479 16.191 2.908 5.265 2.532 12.549 8.252 16.318 3.082 2.032 5.598 1.745 9.21 1.191 5.572-0.858 10.802-1.696 16.533-0.968 6.378 0.81 13.336 2.496 19.655 0.585 7.509-2.272 6.132-7.145 10.937-11.818 2.114-2.056 5.166-2.616 7.48-4.297 2.545-1.849 5.306-4.105 7.749-6.122 5.652-4.669 9.736-10.852 14.424-16.365 2.345-2.757 4.398-5.021 5.58-8.582 3.356-10.104 1.135-23.751-0.555-33.911-2.323-13.966-6.201-23.985-2.833-38.167 1.67-7.029-0.72-12.928 3.523-18.981 7.56-10.785 16.116-17.554 12.739-31.928-1.144-4.872-5.407-12.279-9.955-14.588-2.385-1.21-5.588-0.891-8.161-1.599-3.33-0.915-7.374-2.078-10.401-3.732-10.654-5.823-10.113-20.093-21.219-26.258-6.703-3.721-12.113-4.801-18.697 0.461-5.892 4.711-9.835 12.661-13.207 19.18-1.681 3.253-1.282 5.754-0.346 8.979 1.114 3.838 1.671 2.656-0.941 6.783-5.341 8.442-0.576 14.341 4.627 21.401 2.702 3.666 5.789 7.945 5.617 12.691-12.764 0.673-24.384 10.238-30.312 21.678-5.349 10.322 0.672 18.03 7.686 25.443 2.848 3.009 5.354 6.057 8.856 8.45 4.593 3.136 10.225 4.669 15.011 7.447 7.472 4.338 12.258 10.985 14.51 19.119-7.013-0.167-1.624 1.991-3.159 6.585-0.831 2.486-3.71 3.203-5.27 5.045-1.536 1.813-1.781 4.188-3.245 6.049-1.77 2.248-4.01 2.393-5.936 4.424-4.52 4.766-2.409 10.977-9.616 13.713-3.657 1.387-7.45 1.426-11.048 3.057-0.658 0.298-7.619 4.215-7.574 5.739-3.685-4.023-7.27-9.874-11.543-15.215-4.004-5.003-7.531-11.164-11.674-15.727" fill="#a1daf8"/>
</g>
<g transform="translate(816.24 1043.9)">
<path d="M 0,0 C 2.425,0 3.416,3.01 0.439,3.01 -1.985,3.01 -2.977,0 0,0" fill="#641000"/>
</g>
<g transform="translate(815.08 1046.4)">
<path d="m0 0c-3.472-2.93-6.943-5.858-10.415-8.788-2.205-1.861-6.106-4.008-7.368-6.726-2.446-5.267 5.583-3.656 6.721-6.432 0.809-1.973 5.153-0.736 4.372 1.171-0.553 1.348-1.36 2.038-2.676 2.62-1.424 0.63-4.179 0.504-3.97 2.067 0.254 1.893 6.115 5.511 7.668 6.82 2.858 2.413 5.718 4.826 8.576 7.238 2.263 1.909-1.216 3.459-2.908 2.03" fill="#641000"/>
</g>
<g transform="translate(658.18 989.83)">
<path d="m0 0c0.486-4.532 2.676-8.506 6.208-11.381 0.387-0.315 1.333 0.239 0.839 0.642-3.417 2.782-5.485 6.657-5.954 11.032-0.055 0.514-1.151 0.245-1.093-0.293" fill="#641000"/>
</g>
<g transform="translate(658.72 983.7)">
<path d="m0 0c-0.88-3.962 1.59-7.124 4.212-9.786 0.186-0.191 1.178 0.215 1.031 0.363-2.566 2.608-5.03 5.736-4.167 9.624 0.046 0.208-1.018 0.058-1.076-0.201" fill="#641000"/>
</g>
<g transform="translate(658.94 979.22)">
<path d="m0 0c-0.554-4.007 1.051-7.88 4.3-10.295 0.28-0.208 1.267 0.223 1.02 0.406-3.169 2.355-4.774 6.133-4.233 10.048 0.051 0.367-1.042 0.167-1.087-0.159" fill="#641000"/>
</g>
<g transform="translate(676.23 978.1)">
<path d="m0 0h0.133c0.625 0 0.837 0.805 0.096 0.805h-0.132c-0.626 0-0.838-0.805-0.097-0.805" fill="#641000"/>
</g>
<g transform="translate(678.72 977.64)">
<path d="M 0,0 C 2.621,-0.356 4.574,1.321 6.922,2.135 7.576,2.361 7.382,3.149 6.713,2.917 4.637,2.197 2.67,0.511 0.37,0.823 -0.187,0.898 -0.734,0.1 0,0" fill="#641000"/>
</g>
<g transform="translate(841.66 992.24)">
<path d="m0 0c-8.269-3.947-16.466-10.926-17.657-20.585-1.056-8.546 4.138-17.267 12.707-19.162 1.158-0.257 3.87 1.494 1.971 1.914-7.791 1.724-12.318 9.953-11.387 17.609 1.057 8.701 8.214 15.115 15.71 18.694 2.042 0.975 0.19 2.263-1.344 1.53" fill="#0084c0"/>
</g>
<g transform="translate(846.5 948.9)">
<path d="M 0,0 C 1.367,0 3.43,2.065 1.22,2.065 -0.146,2.065 -2.209,0 0,0" fill="#0084c0"/>
</g>
<g transform="translate(852.89 942.35)">
<path d="m0 0h-1.179c-0.784 0-1.654-0.189-2.318-0.621-0.489-0.318-0.476-0.719 0.192-0.719h1.179c0.784 0 1.654 0.19 2.318 0.621 0.49 0.318 0.476 0.719-0.192 0.719" fill="#0084c0"/>
</g>
<g transform="translate(849.12 932.25)">
<path d="m0 0c-7.163-7.789-12.975-17.964-11.822-28.914 0.995-9.458 7.353-17.92 16.715-20.253 0.739-0.185 3.576 1.018 2.702 1.235-9.12 2.274-15.178 10.763-16.139 19.896-1.124 10.682 4.51 20.713 11.503 28.317 0.627 0.682-2.431 0.293-2.959-0.281" fill="#0084c0"/>
</g>
<g transform="translate(863.59 892.78)">
<path d="m0 0c2.417-2.517 7.07-1.157 9.311 1.112 2.62 2.655 2.248 6.969 4.188 10.04 2.925 4.63 8.575 5.9 13.526 7.138 5.153 1.288 11.659 2.896 14.849 7.594 2.861 4.213 2.328 11.045-2.943 12.893-0.893 0.314-3.261-1.023-3.099-1.08 4.666-1.636 5.528-7.426 3.388-11.473-3.285-6.216-11.769-6.556-17.757-8.478-3.419-1.097-6.929-2.567-9.506-5.146-1.696-1.698-2.564-3.638-3.245-5.903-0.59-1.965-2.188-9.184-5.613-5.617-0.536 0.559-3.51-0.652-3.099-1.08" fill="#0084c0"/>
</g>
<g transform="translate(812.97 1084.8)">
<path d="m 0,0 c -8.532,-10.652 -1.935,-25.697 11.562,-26.881 0.742,-0.065 3.446,1.136 2.712,1.199 C 1.017,-24.519 -5.02,-9.678 3.224,0.614 3.34,0.76 0.599,0.748 0,0" fill="#0084c0"/>
</g>
<g transform="translate(833.91 1075)">
<path d="m0 0c-5.172-11.917 9e-3 -26.347 11.736-32.065 1.191-0.581 4.104 1.056 2.547 1.815-10.9 5.316-16.021 18.771-11.169 29.951 0.72 1.658-2.572 1.547-3.114 0.299" fill="#0084c0"/>
</g>
<g transform="translate(849.75 1057.7)">
<path d="m0 0c-3.766-8.212-1.405-17.705 1.201-25.946 2.152-6.804 6.949-13.152 14.821-12.122 1.87 0.245 2.464 2.854 0.247 2.564-8.716-1.14-11.482 8.761-13.115 15.31-1.647 6.602-2.942 13.309 4e-3 19.732 0.805 1.755-2.504 1.889-3.158 0.462" fill="#0084c0"/>
</g>
<g transform="translate(862.9 1012.9)">
<path d="m0 0v0.729c0 0.455-3.278 0.015-3.278-0.877v-0.731c0-0.454 3.278-0.014 3.278 0.879v0.729c0 0.455-3.278 0.015-3.278-0.877v-0.731c0-0.454 3.278-0.014 3.278 0.879" fill="#0084c0"/>
</g>
<g transform="translate(855.86 1002.2)">
<path d="M 0,0 C 1.016,0 3.547,1.518 1.366,1.518 0.352,1.518 -2.18,0 0,0" fill="#0084c0"/>
</g>
<g transform="translate(887.61 1048.4)">
<path d="m0 0c9.866-26.525 8.679-56.092-3.389-81.702-0.774-1.644 2.529-1.574 3.119-0.32 12.232 25.958 13.556 55.996 3.548 82.9-0.529 1.421-3.79 0.498-3.278-0.878" fill="#0084c0"/>
</g>
<g transform="translate(777.48 848.08)">
<path d="m0 0v1.179c0 0.796-0.799 1.148-1.515 1.073-0.632-0.065-1.806-0.505-1.806-1.324v-1.179c0-0.796 0.798-1.148 1.514-1.073 0.633 0.065 1.807 0.505 1.807 1.324" fill="#00569f"/>
</g>
<g transform="translate(797.36 847.29)">
<path d="M 0,0 C 0.698,0 3.708,1.336 2.126,1.336 1.428,1.336 -1.581,0 0,0" fill="#00569f"/>
</g>
<g transform="translate(811.91 845.2)">
<path d="M 0,0 C 0.732,0 3.721,1.394 2.111,1.394 1.378,1.394 -1.61,0 0,0" fill="#00569f"/>
</g>
<g transform="translate(782.6 846.81)">
<path d="M 0,0 C 1.831,0 2.552,2.29 0.321,2.29 -1.51,2.29 -2.231,0 0,0" fill="#00569f"/>
</g>
<g transform="translate(818.19 844.02)">
<path d="M 0,0 C 1.303,0 3.454,1.968 1.246,1.968 -0.058,1.968 -2.209,0 0,0" fill="#00569f"/>
</g>
<g transform="translate(825.74 842.78)">
<path d="m0 0c3.216-3.418 11.171-5.123 14.027-0.139 1.169 2.04 0.676 4.973 0.48 7.196-0.524 5.931-1.381 11.757-1.454 17.73-0.021 1.598-3.323 1.02-3.307-0.307 0.066-5.286 0.628-10.498 1.213-15.747 0.234-2.102 0.617-4.311 0.41-6.427-0.431-4.416-5.822-3.608-8.352-0.919-0.931 0.99-4.052-0.287-3.017-1.387" fill="#00569f"/>
</g>
<g transform="translate(784.05 963.92)">
<path d="m0 0c-0.365-2.638-1.67-4.988-3.871-6.523-0.54-0.376-0.861-1.01-0.237-1.465 0.61-0.445 1.782-0.126 2.334 0.259 2.742 1.912 4.609 4.735 5.072 8.069 0.202 1.461-3.121 0.936-3.298-0.34" fill="#00569f"/>
</g>
<g transform="translate(744 832.78)">
<path d="m0 0c0.011-27.528 0.847-55.045 2.508-82.522 0.053-0.874 3.346-0.247 3.278 0.877-1.661 27.479-2.497 54.996-2.508 82.523-1e-3 0.825-3.279 0.269-3.278-0.878" fill="#c5d984"/>
</g>
<g transform="translate(758.33 819.83)">
<path d="m0 0c6.588-27.752 9.055-56.262 7.278-84.731-0.071-1.132 3.201-0.454 3.258 0.484 1.786 28.61-0.637 57.232-7.258 85.126-0.225 0.95-3.514 0.116-3.278-0.879" fill="#c5d984"/>
</g>
<g transform="translate(777.15 728.84)">
<path d="m0 0c6.83-4.974 15.025-6.22 23.152-4.213 1.928 0.476 1.632 1.648-0.312 1.167-6.992-1.726-14.01 0.015-19.763 4.204-0.776 0.566-3.662-0.732-3.077-1.158" fill="#c5d984"/>
</g>
<g transform="translate(804.41 730.66)">
<path d="m0 0c11.893 21.017 21.375 43.223 28.389 66.327 0.445 1.466-2.901 1.087-3.314-0.277-6.951-22.897-16.412-44.902-28.195-65.726-0.881-1.556 2.44-1.525 3.12-0.324" fill="#c5d984"/>
</g>
<g transform="translate(833.25 805.11)">
<path d="m0 0c-0.393 0.394-0.786 0.786-1.179 1.18-0.528 0.527-1.573 0.357-2.18 0.073-0.397-0.185-1.405-0.839-0.856-1.389 0.394-0.392 0.786-0.785 1.179-1.178 0.528-0.528 1.573-0.358 2.182-0.075 0.396 0.186 1.403 0.84 0.854 1.389" fill="#c5d984"/>
</g>
<g transform="translate(758.37 836.78)">
<path d="m0 0c25.551-7.711 51.01-13.223 77.71-14.721 0.746-0.042 3.747 1.304 2.111 1.396-26.513 1.488-51.775 6.981-77.138 14.637-0.777 0.234-3.684-1.009-2.683-1.312" fill="#c5d984"/>
</g>
<g transform="translate(786.03 821.8)">
<path d="m0 0c14.528-3.452 29.194-6.186 43.986-8.23 1.372-0.19 3.43 1.711 1.234 2.015-14.544 2.01-28.963 4.73-43.246 8.124-1.155 0.274-3.87-1.458-1.974-1.909" fill="#c5d984"/>
</g>
<g transform="translate(692.52 957.62)">
<path d="m0 0c7.813-8.503 17.485-14.634 28.501-18.086 0.899-0.281 3.853 1.096 2.639 1.476-10.871 3.407-20.373 9.448-28.08 17.835-0.69 0.75-3.8-0.42-3.06-1.225" fill="#97c000"/>
</g>
<g transform="translate(733.12 935.09)">
<path d="M 0,0 C 1.252,0 3.474,1.888 1.268,1.888 0.016,1.888 -2.206,0 0,0" fill="#97c000"/>
</g>
<g transform="translate(745.1 930.56)">
<path d="m0 0c7.953-4.704 17.151-6.325 26.121-8.013 10.838-2.039 21.771-3.48 32.757-4.42 0.821-0.07 3.783 1.356 2.082 1.501-9.694 0.83-19.345 2.042-28.929 3.725-9.786 1.718-20.285 3.255-28.958 8.386-0.866 0.511-3.679-0.821-3.073-1.179" fill="#97c000"/>
</g>
<g transform="translate(832.82 939.02)">
<path d="m0 0c0.793-1.643-2.004-3.563-2.803-4.748-1.176-1.744-1.609-3.84-2.692-5.629-2.242-3.702-6.692-4.789-10.629-5.771-2.034-0.508-1.433-2.748 0.6-2.241 4.604 1.15 9.756 2.618 12.616 6.72 1.791 2.568 2.275 5.425 4.51 7.752 1.384 1.442 2.684 2.707 1.676 4.795-0.686 1.422-3.926 0.464-3.278-0.878" fill="#97c000"/>
</g>
<g transform="translate(693.2 961.47)">
<path d="m0 0c0.173-0.174 0.347-0.347 0.52-0.521 0.159-0.159 0.664-0.123 0.836-0.11 0.422 0.029 0.884 0.134 1.278 0.285 0.263 0.102 1.39 0.533 0.972 0.95-0.172 0.174-0.346 0.347-0.519 0.521-0.159 0.158-0.664 0.123-0.838 0.11-0.421-0.029-0.883-0.133-1.276-0.286-0.264-0.1-1.391-0.532-0.973-0.949" fill="#97c000"/>
</g>
<g transform="translate(737.71 935.47)">
<path d="m0 0c-0.346-0.174-0.692-0.349-1.039-0.522-0.628-0.316-1.228-1.106-0.747-1.791 0.48-0.686 1.58-0.636 2.242-0.303l1.04 0.521c0.627 0.316 1.228 1.106 0.746 1.792-0.479 0.686-1.579 0.636-2.242 0.303" fill="#97c000"/>
</g>
<g transform="translate(726.37 937.67)">
<path d="M 0,0 C 1.273,0 3.465,1.922 1.258,1.922 -0.016,1.922 -2.207,0 0,0" fill="#97c000"/>
</g>
<g transform="translate(811.22 920.32)">
<path d="M 0,0 C 0.649,0 3.686,1.251 2.149,1.251 1.5,1.251 -1.537,0 0,0" fill="#97c000"/>
</g>
<g transform="translate(737.23 1111.5)">
<path d="m0 0c5.823 0 5.833 9.051 0 9.051-5.824 0-5.833-9.051 0-9.051" fill="#0084c0"/>
</g>
<g transform="translate(723.9 1092.3)">
<path d="m0 0c15.071-12.698 31.806-23.068 49.938-30.8 2.65-1.13 4.958 2.767 2.285 3.907-17.763 7.575-34.252 17.648-49.023 30.093-2.214 1.865-5.43-1.32-3.2-3.2" fill="#0084c0"/>
</g>
<g transform="translate(719.65 1057)">
<path d="m0 0c10.2-3.664 20.4-7.329 30.602-10.993 2.745-0.986 3.927 3.385 1.203 4.363-10.201 3.665-20.402 7.329-30.602 10.993-2.746 0.987-3.929-3.384-1.203-4.363" fill="#0084c0"/>
</g>
<g transform="translate(714.2 1031.3)">
<path d="m0 0 16.526-4.966c5.59-1.68 7.979 7.053 2.406 8.728-5.509 1.655-11.017 3.31-16.526 4.966-5.59 1.679-7.979-7.053-2.406-8.728" fill="#0084c0"/>
</g>
<g transform="translate(715.94 1000.5)">
<path d="m0 0c4.65 0.855 9.301 1.711 13.951 2.565 2.861 0.527 1.649 4.888-1.203 4.365-4.65-0.856-9.301-1.711-13.951-2.566-2.86-0.526-1.649-4.887 1.203-4.364" fill="#0084c0"/>
</g>
<g transform="translate(724.92 963.79)">
<path d="m 0,0 c 8.529,9.125 18.357,16.531 29.468,22.235 5.182,2.662 0.609,10.474 -4.569,7.816 C 13.161,24.023 2.61,16.04 -6.399,6.4 -10.374,2.148 -3.987,-4.266 0,0" fill="#0084c0"/>
</g>
<g transform="translate(756.31 945.88)">
<path d="m0 0c0.795-0.755 2.111-0.422 3.092-0.619 1.152-0.232 2.293-0.656 3.396-0.916 0.225 4.28 2.702 7.307 4.691 11.018 1.467 2.739 3.539 5.208 5.467 7.656 2.262 2.873 4.729 5.643 7.509 8.004 1.138 0.964 2.288 1.982 3.391 3.017 0.578 0.543 1.962 1.623 1.864 2.487-1.125 0.233-3.209-1.122-4.139-1.706-1.569-0.984-2.747-2.337-3.99-3.685-1.422-1.541-3.124-2.972-4.406-4.599-1.319-1.675-2.569-3.427-3.937-5.062-2.673-3.199-4.737-6.342-6.584-10.081-0.662-1.337-1.037-4.172-2.527-4.791-1.208-0.502-2.914 0.578-3.713-0.811 0.201-0.03 0.405-0.036-0.114 0.088" fill="#037b2f"/>
</g>
<g transform="translate(747.65 923.77)">
<path d="m0 0c1.915-0.189 9.071-0.896 9.86-2.946 0.347-0.901-0.312-1.966-0.614-2.883-2.642-8.033-4.642-15.041-7.16-22.487-0.373-1.102-1.203-7.283-3.239-6.435-1.474 0.613-0.486 5.18-0.447 6.483 0.096 3.136 0.52 6.248 0.854 9.364 0.334 3.113 0.624 6.247 0.449 9.38-0.131 2.343-1.705 6.063-0.856 8.292 0.699 1.837 2.185 1.209 4.1 0.839" fill="#037b2f"/>
</g>
<g transform="translate(757.53 1020.5)">
<path d="m0 0c2.911 0 2.916 4.525 0 4.525-2.912 0-2.917-4.525 0-4.525" fill="#a1daf8"/>
</g>
<g transform="translate(769.56 1017.5)">
<path d="m0 0-0.524-0.524c-0.838-0.838-0.901-2.373 0-3.2 0.903-0.829 2.305-0.894 3.2 0l0.524 0.524c0.838 0.839 0.901 2.374 0 3.2-0.903 0.829-2.305 0.895-3.2 0" fill="#a1daf8"/>
</g>
<g transform="translate(738.13 1007.9)">
<path d="m0 0c2.911 0 2.916 4.525 0 4.525-2.912 0-2.917-4.525 0-4.525" fill="#a1daf8"/>
</g>
<g transform="translate(753.17 1001.2)">
<path d="m0 0v-0.524c0-1.184 1.04-2.318 2.263-2.263 1.225 0.055 2.262 0.994 2.262 2.263v0.524c0 1.184-1.041 2.317-2.262 2.263-1.227-0.056-2.263-0.994-2.263-2.263" fill="#a1daf8"/>
</g>
<g transform="translate(692 1012.1)">
<path d="m0 0c2.912 0 2.917 4.525 0 4.525-2.912 0-2.916-4.525 0-4.525" fill="#a1daf8"/>
</g>
<g transform="translate(681.56 1046.9)">
<path d="m0 0c2.912 0 2.917 4.525 0 4.525-2.911 0-2.916-4.525 0-4.525" fill="#a1daf8"/>
</g>
<g transform="translate(740.11 1062.8)">
<path d="m0 0c2.912 0 2.917 4.525 0 4.525-2.911 0-2.916-4.525 0-4.525" fill="#a1daf8"/>
</g>
<g transform="translate(703.84 1042.5)">
<path d="m0 0c2.911 0 2.916 4.525 0 4.525-2.912 0-2.917-4.525 0-4.525" fill="#a1daf8"/>
</g>
<g transform="translate(661.2 1076.8)">
<path d="m0 0c2.912 0 2.917 4.525 0 4.525-2.912 0-2.917-4.525 0-4.525" fill="#a1daf8"/>
</g>
<g transform="translate(667.21 1029.5)">
<path d="m0 0v-0.636c0-1.183 1.04-2.317 2.263-2.262 1.225 0.054 2.262 0.994 2.262 2.262v0.636c0 1.184-1.041 2.317-2.262 2.263-1.227-0.055-2.263-0.994-2.263-2.263" fill="#a1daf8"/>
</g>
<g transform="translate(726.75 918.44)">
<path d="m0 0h-0.637c-1.183 0-2.317-1.041-2.262-2.263 0.054-1.225 0.994-2.262 2.262-2.262h0.637c1.183 0 2.317 1.041 2.262 2.262-0.055 1.226-0.994 2.263-2.262 2.263" fill="#a1daf8"/>
</g>
<g transform="translate(700.02 928.56)">
<path d="m0 0c2.911 0 2.916 4.525 0 4.525-2.912 0-2.917-4.525 0-4.525" fill="#a1daf8"/>
</g>
<g transform="translate(753.47 971.26)">
<path d="m0 0h-0.636c-1.183 0-2.317-1.041-2.262-2.263 0.054-1.225 0.994-2.262 2.262-2.262h0.636c1.184 0 2.317 1.041 2.263 2.262-0.055 1.227-0.994 2.263-2.263 2.263" fill="#a1daf8"/>
</g>
<g transform="translate(778.93 1073)">
<path d="m0 0c2.912 0 2.917 4.525 0 4.525-2.912 0-2.917-4.525 0-4.525" fill="#a1daf8"/>
</g>
<g transform="translate(754.75 1082.6)">
<path d="m0 0c2.911 0 2.916 4.525 0 4.525-2.912 0-2.917-4.525 0-4.525" fill="#a1daf8"/>
</g>
<g transform="translate(750.92 906.13)">
<path d="m0 0c-2.524-8.226-5.049-16.452-7.572-24.678-2.047-6.668-5.588-14.628-3.074-21.644 3.506-9.782 15.871-11.933 24.936-11.191 1.066 0.087 3.499 1.833 1.329 1.657-10.583-0.867-24.066 3.137-23.735 15.929 0.171 6.614 3.048 13.258 4.97 19.52 2.135 6.96 4.271 13.921 6.407 20.881 0.297 0.966-2.954 0.527-3.261-0.474" fill="#00569f"/>
</g>
</g>
</g>
</g>
</svg>
