<svg width="101.21mm" height="19.704mm" version="1.1" viewBox="0 0 101.21 19.704" xmlns="http://www.w3.org/2000/svg">
 <defs>
  <clipPath id="a">
   <path d="m0 3080.8h1040v-3080.8h-1040z"/>
  </clipPath>
 </defs>
 <g transform="translate(-59.765 -70.945)">
  <g transform="matrix(.35278 0 0 -.35278 -116.77 697.43)">
   <g clip-path="url(#a)">
    <g transform="translate(766.51 1720)">
     <path d="m0 0h-245.33c-11.476 0-20.779 9.303-20.779 20.779v14.297c0 11.476 9.303 20.779 20.779 20.779h245.33c11.476 0 20.779-9.303 20.779-20.779v-14.297c0-11.476-9.303-20.779-20.779-20.779" fill="#97c000"/>
    </g>
   </g>
   <g transform="matrix(1 0 0 -1 538.07 1737.7)" fill="#037b2f" aria-label="Visualizaciones">
    <path d="m0.15137-22.599h5.8579l5.9941 16.681 5.979-16.681h5.8579l-8.3706 22.599h-6.9478z" style=""/>
    <path d="m21.483-16.953h5.4189v16.953h-5.4189zm0-6.5996h5.4189v4.4199h-5.4189z" style=""/>
    <path d="m43.221-16.423v4.1172q-1.7407-0.72656-3.3604-1.0898t-3.0576-0.36328q-1.5439 0-2.3008 0.39355-0.7417 0.37842-0.7417 1.1807 0 0.65088 0.56006 0.99902 0.5752 0.34814 2.0435 0.51465l0.95361 0.13623q4.1626 0.52978 5.6006 1.7407 1.438 1.2109 1.438 3.7993 0 2.7095-1.998 4.0718-1.998 1.3623-5.9639 1.3623-1.6802 0-3.4814-0.27246-1.7861-0.25732-3.6782-0.78711v-4.1172q1.6196 0.78711 3.3149 1.1807 1.7104 0.39355 3.4663 0.39355 1.5894 0 2.3916-0.43896 0.80225-0.43896 0.80225-1.3018 0-0.72656-0.56006-1.0747-0.54492-0.36328-2.1948-0.56006l-0.95361-0.12109q-3.6177-0.4541-5.0708-1.6802-1.4531-1.2261-1.4531-3.7236 0-2.6943 1.8467-3.9961 1.8467-1.3018 5.6611-1.3018 1.4985 0 3.1484 0.22705 1.6499 0.22705 3.5874 0.71143z" style=""/>
    <path d="m43.249-6.5996v-10.354h5.4492v1.6953q0 1.3774-0.01514 3.4663-0.01514 2.0737-0.01514 2.77 0 2.0435 0.10596 2.9517 0.10596 0.89307 0.36328 1.3018 0.33301 0.52979 0.86279 0.81738 0.54492 0.2876 1.2412 0.2876 1.6953 0 2.6641-1.3018 0.96875-1.3018 0.96875-3.6177v-8.3706h5.419v16.953h-5.4189v-2.4521q-1.2261 1.4834-2.6035 2.1948-1.3623 0.69629-3.0122 0.69629-2.9365 0-4.4805-1.8013-1.5288-1.8013-1.5288-5.2373z" style=""/>
    <path d="m69.102-7.6289q-1.6953 0-2.5581 0.5752-0.84766 0.5752-0.84766 1.6953 0 1.0293 0.68115 1.6196 0.69629 0.5752 1.9224 0.5752 1.5288 0 2.5732-1.0898 1.0444-1.105 1.0444-2.7549v-0.62061zm8.2798-2.0435v9.6724h-5.4644v-2.5127q-1.0898 1.5439-2.4521 2.2554-1.3623 0.69629-3.3149 0.69629-2.6338 0-4.2837-1.5288-1.6348-1.5439-1.6348-3.9961 0-2.9819 2.0435-4.3745 2.0586-1.3926 6.4482-1.3926h3.1938v-0.42383q0-1.2866-1.0142-1.877-1.0142-0.60547-3.1636-0.60547-1.7407 0-3.2393 0.34814-1.4985 0.34814-2.7852 1.0444v-4.1323q1.7407-0.42383 3.4966-0.63574 1.7559-0.22705 3.5117-0.22705 4.5864 0 6.6147 1.8164 2.0435 1.8013 2.0435 5.873z" style=""/>
    <path d="m77.872-23.553h5.4189v23.553h-5.4189z" style=""/>
    <path d="m86.397-16.953h5.4189v16.953h-5.4189zm0-6.5996h5.4189v4.4199h-5.4189z" style=""/>
    <path d="m94.058-16.953h14.789v3.7842l-8.9307 9.2939h8.9307v3.875h-15.167v-3.7842l8.9307-9.2939h-8.5522z" style=""/>
    <path d="m117.03-7.6289q-1.6953 0-2.5581 0.5752-0.84766 0.5752-0.84766 1.6953 0 1.0293 0.68116 1.6196 0.69628 0.5752 1.9224 0.5752 1.5288 0 2.5732-1.0898 1.0444-1.105 1.0444-2.7549v-0.62061zm8.2798-2.0435v9.6724h-5.4644v-2.5127q-1.0898 1.5439-2.4521 2.2554-1.3623 0.69629-3.315 0.69629-2.6338 0-4.2837-1.5288-1.6348-1.5439-1.6348-3.9961 0-2.9819 2.0434-4.3745 2.0586-1.3926 6.4482-1.3926h3.1938v-0.42383q0-1.2866-1.0142-1.877-1.0142-0.60547-3.1636-0.60547-1.7407 0-3.2393 0.34814-1.4985 0.34814-2.7852 1.0444v-4.1323q1.7407-0.42383 3.4966-0.63574 1.7559-0.22705 3.5117-0.22705 4.5864 0 6.6147 1.8164 2.0435 1.8013 2.0435 5.873z" style=""/>
    <path d="m139.5-16.423v4.4199q-1.105-0.75684-2.2251-1.1201-1.105-0.36328-2.3008-0.36328-2.2705 0-3.542 1.332-1.2564 1.3169-1.2564 3.6934 0 2.3765 1.2564 3.7085 1.2715 1.3169 3.542 1.3169 1.2715 0 2.4067-0.37842 1.1504-0.37842 2.1191-1.1201v4.4351q-1.2715 0.46924-2.5884 0.69629-1.3018 0.24219-2.6186 0.24219-4.5864 0-7.1748-2.3462-2.5884-2.3613-2.5884-6.5542 0-4.1929 2.5884-6.5391 2.5884-2.3613 7.1748-2.3613 1.332 0 2.6186 0.24219 1.3018 0.22705 2.5884 0.69629z" style=""/>
    <path d="m139.78-16.953h5.4189v16.953h-5.4189zm0-6.5996h5.4189v4.4199h-5.4189z" style=""/>
    <path d="m156.34-13.487q-1.8013 0-2.7549 1.3018-0.93848 1.2866-0.93848 3.7236 0 2.437 0.93848 3.7388 0.95361 1.2866 2.7549 1.2866 1.771 0 2.7095-1.2866 0.93847-1.3018 0.93847-3.7388 0-2.437-0.93847-3.7236-0.93848-1.3018-2.7095-1.3018zm0-3.875q4.3745 0 6.8267 2.3613 2.4673 2.3613 2.4673 6.5391 0 4.1777-2.4673 6.5391-2.4522 2.3613-6.8267 2.3613-4.3896 0-6.8721-2.3613-2.4673-2.3613-2.4673-6.5391 0-4.1777 2.4673-6.5391 2.4824-2.3613 6.8721-2.3613z" style=""/>
    <path d="m183.2-10.323v10.323h-5.4492v-7.9014q0-2.1948-0.10596-3.0273-0.0908-0.83252-0.333-1.2261-0.31787-0.52978-0.8628-0.81738-0.54492-0.30273-1.2412-0.30273-1.6953 0-2.6641 1.3169-0.96875 1.3018-0.96875 3.6177v8.3403h-5.4189v-16.953h5.4189v2.4824q1.2261-1.4834 2.6035-2.1797 1.3774-0.71142 3.0425-0.71142 2.9365 0 4.4502 1.8013 1.5288 1.8013 1.5288 5.2373z" style=""/>
    <path d="m201.25-8.522v1.5439h-12.669q0.19678 1.9072 1.3774 2.8608 1.1807 0.95361 3.2998 0.95361 1.7104 0 3.4966-0.49951 1.8013-0.51465 3.6934-1.5439v4.1777q-1.9224 0.72656-3.8447 1.0898-1.9224 0.37842-3.8447 0.37842-4.6016 0-7.1597-2.3311-2.543-2.3462-2.543-6.5693 0-4.1475 2.4976-6.5239 2.5127-2.3765 6.9023-2.3765 3.9961 0 6.3877 2.4067 2.4067 2.4067 2.4067 6.4331zm-5.5703-1.8013q0-1.5439-0.9082-2.4824-0.89306-0.95361-2.3462-0.95361-1.5742 0-2.5581 0.89307-0.98388 0.87793-1.2261 2.543z" style=""/>
    <path d="m213.94-16.423v4.1172q-1.7407-0.72656-3.3604-1.0898t-3.0576-0.36328q-1.5439 0-2.3008 0.39355-0.7417 0.37842-0.7417 1.1807 0 0.65088 0.56006 0.99902 0.5752 0.34814 2.0435 0.51465l0.95361 0.13623q4.1626 0.52978 5.6006 1.7407 1.438 1.2109 1.438 3.7993 0 2.7095-1.998 4.0718-1.998 1.3623-5.9639 1.3623-1.6802 0-3.4814-0.27246-1.7861-0.25732-3.6782-0.78711v-4.1172q1.6196 0.78711 3.3149 1.1807 1.7104 0.39355 3.4663 0.39355 1.5894 0 2.3916-0.43896 0.80225-0.43896 0.80225-1.3018 0-0.72656-0.56006-1.0747-0.54492-0.36328-2.1948-0.56006l-0.95362-0.12109q-3.6177-0.4541-5.0708-1.6802-1.4531-1.2261-1.4531-3.7236 0-2.6943 1.8467-3.9961 1.8467-1.3018 5.6611-1.3018 1.4985 0 3.1484 0.22705 1.6499 0.22705 3.5874 0.71143z" style=""/>
   </g>
  </g>
 </g>
</svg>
